solid OpenSCAD_Model
  facet normal -1 -0 -0
    outer loop
      vertex 10.2 10.2 0
      vertex 10.2 10.2 3
      vertex 10.2 142.8 0
    endloop
  endfacet
  facet normal -1 0 0
    outer loop
      vertex 10.2 142.8 0
      vertex 10.2 10.2 3
      vertex 10.2 142.8 3
    endloop
  endfacet
  facet normal 0 -1 0
    outer loop
      vertex 10.2 10.2 3
      vertex 10.2 10.2 0
      vertex 142.8 10.2 0
    endloop
  endfacet
  facet normal 0 -1 0
    outer loop
      vertex 142.8 10.2 3
      vertex 10.2 10.2 3
      vertex 142.8 10.2 0
    endloop
  endfacet
  facet normal 0 0 -1
    outer loop
      vertex 11.2 11.2 0
      vertex 141.8 11.2 0
      vertex 142.8 10.2 0
    endloop
  endfacet
  facet normal 0 -0 -1
    outer loop
      vertex 11.2 141.8 0
      vertex 10.2 142.8 0
      vertex 142.8 142.8 0
    endloop
  endfacet
  facet normal 0 -0 -1
    outer loop
      vertex 10.2 10.2 0
      vertex 10.2 142.8 0
      vertex 11.2 141.8 0
    endloop
  endfacet
  facet normal 0 -0 -1
    outer loop
      vertex 141.8 141.8 0
      vertex 11.2 141.8 0
      vertex 142.8 142.8 0
    endloop
  endfacet
  facet normal 0 0 -1
    outer loop
      vertex 10.2 10.2 0
      vertex 11.2 141.8 0
      vertex 11.2 11.2 0
    endloop
  endfacet
  facet normal -0 0 -1
    outer loop
      vertex 10.2 10.2 0
      vertex 11.2 11.2 0
      vertex 142.8 10.2 0
    endloop
  endfacet
  facet normal 0 0 -1
    outer loop
      vertex 142.8 10.2 0
      vertex 141.8 11.2 0
      vertex 142.8 142.8 0
    endloop
  endfacet
  facet normal 0 -0 -1
    outer loop
      vertex 141.8 11.2 0
      vertex 141.8 141.8 0
      vertex 142.8 142.8 0
    endloop
  endfacet
  facet normal 0 1 0
    outer loop
      vertex 10.2 142.8 0
      vertex 10.2 142.8 3
      vertex 142.8 142.8 0
    endloop
  endfacet
  facet normal 0 1 0
    outer loop
      vertex 142.8 142.8 0
      vertex 10.2 142.8 3
      vertex 142.8 142.8 3
    endloop
  endfacet
  facet normal 0 -0 1
    outer loop
      vertex 11.2 11.2 3
      vertex 10.2 10.2 3
      vertex 142.8 10.2 3
    endloop
  endfacet
  facet normal -0 0 1
    outer loop
      vertex 11.2 141.8 3
      vertex 10.2 142.8 3
      vertex 11.2 11.2 3
    endloop
  endfacet
  facet normal 0 -0 1
    outer loop
      vertex 141.8 11.2 3
      vertex 11.2 11.2 3
      vertex 142.8 10.2 3
    endloop
  endfacet
  facet normal 0 -0 1
    outer loop
      vertex 10.2 142.8 3
      vertex 10.2 10.2 3
      vertex 11.2 11.2 3
    endloop
  endfacet
  facet normal 0 0 1
    outer loop
      vertex 142.8 142.8 3
      vertex 10.2 142.8 3
      vertex 11.2 141.8 3
    endloop
  endfacet
  facet normal 0 0 1
    outer loop
      vertex 142.8 142.8 3
      vertex 141.8 141.8 3
      vertex 142.8 10.2 3
    endloop
  endfacet
  facet normal 0 0 1
    outer loop
      vertex 142.8 142.8 3
      vertex 11.2 141.8 3
      vertex 141.8 141.8 3
    endloop
  endfacet
  facet normal 0 -0 1
    outer loop
      vertex 141.8 141.8 3
      vertex 141.8 11.2 3
      vertex 142.8 10.2 3
    endloop
  endfacet
  facet normal 1 0 -0
    outer loop
      vertex 142.8 10.2 3
      vertex 142.8 10.2 0
      vertex 142.8 142.8 0
    endloop
  endfacet
  facet normal 1 0 0
    outer loop
      vertex 142.8 142.8 3
      vertex 142.8 10.2 3
      vertex 142.8 142.8 0
    endloop
  endfacet
  facet normal 1 0 0
    outer loop
      vertex 11.2 141.8 0
      vertex 11.2 141.8 3
      vertex 11.2 11.2 3
    endloop
  endfacet
  facet normal 1 0 0
    outer loop
      vertex 11.2 11.2 0
      vertex 11.2 141.8 0
      vertex 11.2 11.2 3
    endloop
  endfacet
  facet normal 0 -1 0
    outer loop
      vertex 141.8 141.8 0
      vertex 141.8 141.8 3
      vertex 11.2 141.8 3
    endloop
  endfacet
  facet normal -0 -1 -0
    outer loop
      vertex 11.2 141.8 0
      vertex 141.8 141.8 0
      vertex 11.2 141.8 3
    endloop
  endfacet
  facet normal -1 0 0
    outer loop
      vertex 141.8 141.8 3
      vertex 141.8 141.8 0
      vertex 141.8 11.2 3
    endloop
  endfacet
  facet normal -1 0 0
    outer loop
      vertex 141.8 11.2 3
      vertex 141.8 141.8 0
      vertex 141.8 11.2 0
    endloop
  endfacet
  facet normal 0 1 0
    outer loop
      vertex 141.8 11.2 3
      vertex 141.8 11.2 0
      vertex 11.2 11.2 3
    endloop
  endfacet
  facet normal 0 1 -0
    outer loop
      vertex 11.2 11.2 3
      vertex 141.8 11.2 0
      vertex 11.2 11.2 0
    endloop
  endfacet
  facet normal -1 -0 -0
    outer loop
      vertex 5.1 5.1 0
      vertex 5.1 5.1 3
      vertex 5.1 147.9 0
    endloop
  endfacet
  facet normal -1 0 0
    outer loop
      vertex 5.1 147.9 0
      vertex 5.1 5.1 3
      vertex 5.1 147.9 3
    endloop
  endfacet
  facet normal 0 -1 0
    outer loop
      vertex 5.1 5.1 3
      vertex 5.1 5.1 0
      vertex 147.9 5.1 0
    endloop
  endfacet
  facet normal 0 -1 0
    outer loop
      vertex 147.9 5.1 3
      vertex 5.1 5.1 3
      vertex 147.9 5.1 0
    endloop
  endfacet
  facet normal 0 0 -1
    outer loop
      vertex 6.1 6.1 0
      vertex 146.9 6.1 0
      vertex 147.9 5.1 0
    endloop
  endfacet
  facet normal 0 -0 -1
    outer loop
      vertex 6.1 146.9 0
      vertex 5.1 147.9 0
      vertex 147.9 147.9 0
    endloop
  endfacet
  facet normal 0 -0 -1
    outer loop
      vertex 5.1 5.1 0
      vertex 5.1 147.9 0
      vertex 6.1 146.9 0
    endloop
  endfacet
  facet normal 0 -0 -1
    outer loop
      vertex 146.9 146.9 0
      vertex 6.1 146.9 0
      vertex 147.9 147.9 0
    endloop
  endfacet
  facet normal 0 0 -1
    outer loop
      vertex 5.1 5.1 0
      vertex 6.1 146.9 0
      vertex 6.1 6.1 0
    endloop
  endfacet
  facet normal -0 0 -1
    outer loop
      vertex 5.1 5.1 0
      vertex 6.1 6.1 0
      vertex 147.9 5.1 0
    endloop
  endfacet
  facet normal 0 0 -1
    outer loop
      vertex 147.9 5.1 0
      vertex 146.9 6.1 0
      vertex 147.9 147.9 0
    endloop
  endfacet
  facet normal 0 -0 -1
    outer loop
      vertex 146.9 6.1 0
      vertex 146.9 146.9 0
      vertex 147.9 147.9 0
    endloop
  endfacet
  facet normal 0 1 0
    outer loop
      vertex 5.1 147.9 0
      vertex 5.1 147.9 3
      vertex 147.9 147.9 0
    endloop
  endfacet
  facet normal 0 1 0
    outer loop
      vertex 147.9 147.9 0
      vertex 5.1 147.9 3
      vertex 147.9 147.9 3
    endloop
  endfacet
  facet normal 0 -0 1
    outer loop
      vertex 6.1 6.1 3
      vertex 5.1 5.1 3
      vertex 147.9 5.1 3
    endloop
  endfacet
  facet normal -0 0 1
    outer loop
      vertex 6.1 146.9 3
      vertex 5.1 147.9 3
      vertex 6.1 6.1 3
    endloop
  endfacet
  facet normal 0 -0 1
    outer loop
      vertex 146.9 6.1 3
      vertex 6.1 6.1 3
      vertex 147.9 5.1 3
    endloop
  endfacet
  facet normal 0 -0 1
    outer loop
      vertex 5.1 147.9 3
      vertex 5.1 5.1 3
      vertex 6.1 6.1 3
    endloop
  endfacet
  facet normal 0 0 1
    outer loop
      vertex 147.9 147.9 3
      vertex 5.1 147.9 3
      vertex 6.1 146.9 3
    endloop
  endfacet
  facet normal 0 0 1
    outer loop
      vertex 147.9 147.9 3
      vertex 146.9 146.9 3
      vertex 147.9 5.1 3
    endloop
  endfacet
  facet normal 0 0 1
    outer loop
      vertex 147.9 147.9 3
      vertex 6.1 146.9 3
      vertex 146.9 146.9 3
    endloop
  endfacet
  facet normal 0 -0 1
    outer loop
      vertex 146.9 146.9 3
      vertex 146.9 6.1 3
      vertex 147.9 5.1 3
    endloop
  endfacet
  facet normal 1 0 -0
    outer loop
      vertex 147.9 5.1 3
      vertex 147.9 5.1 0
      vertex 147.9 147.9 0
    endloop
  endfacet
  facet normal 1 0 0
    outer loop
      vertex 147.9 147.9 3
      vertex 147.9 5.1 3
      vertex 147.9 147.9 0
    endloop
  endfacet
  facet normal 1 0 0
    outer loop
      vertex 6.1 146.9 0
      vertex 6.1 146.9 3
      vertex 6.1 6.1 3
    endloop
  endfacet
  facet normal 1 0 0
    outer loop
      vertex 6.1 6.1 0
      vertex 6.1 146.9 0
      vertex 6.1 6.1 3
    endloop
  endfacet
  facet normal 0 -1 0
    outer loop
      vertex 146.9 146.9 0
      vertex 146.9 146.9 3
      vertex 6.1 146.9 3
    endloop
  endfacet
  facet normal -0 -1 -0
    outer loop
      vertex 6.1 146.9 0
      vertex 146.9 146.9 0
      vertex 6.1 146.9 3
    endloop
  endfacet
  facet normal -1 0 0
    outer loop
      vertex 146.9 146.9 3
      vertex 146.9 146.9 0
      vertex 146.9 6.1 3
    endloop
  endfacet
  facet normal -1 0 0
    outer loop
      vertex 146.9 6.1 3
      vertex 146.9 146.9 0
      vertex 146.9 6.1 0
    endloop
  endfacet
  facet normal 0 1 0
    outer loop
      vertex 146.9 6.1 3
      vertex 146.9 6.1 0
      vertex 6.1 6.1 3
    endloop
  endfacet
  facet normal 0 1 -0
    outer loop
      vertex 6.1 6.1 3
      vertex 146.9 6.1 0
      vertex 6.1 6.1 0
    endloop
  endfacet
  facet normal -1 -0 -0
    outer loop
      vertex 0 0 0
      vertex 0 0 3
      vertex 0 153 0
    endloop
  endfacet
  facet normal -1 0 0
    outer loop
      vertex 0 153 0
      vertex 0 0 3
      vertex 0 153 3
    endloop
  endfacet
  facet normal 0 -1 0
    outer loop
      vertex 0 0 3
      vertex 0 0 0
      vertex 153 0 0
    endloop
  endfacet
  facet normal 0 -1 0
    outer loop
      vertex 153 0 3
      vertex 0 0 3
      vertex 153 0 0
    endloop
  endfacet
  facet normal 0 0 -1
    outer loop
      vertex 1 1 0
      vertex 152 1 0
      vertex 153 0 0
    endloop
  endfacet
  facet normal 0 -0 -1
    outer loop
      vertex 1 152 0
      vertex 0 153 0
      vertex 153 153 0
    endloop
  endfacet
  facet normal 0 -0 -1
    outer loop
      vertex 0 0 0
      vertex 0 153 0
      vertex 1 152 0
    endloop
  endfacet
  facet normal 0 -0 -1
    outer loop
      vertex 152 152 0
      vertex 1 152 0
      vertex 153 153 0
    endloop
  endfacet
  facet normal 0 0 -1
    outer loop
      vertex 0 0 0
      vertex 1 152 0
      vertex 1 1 0
    endloop
  endfacet
  facet normal -0 0 -1
    outer loop
      vertex 0 0 0
      vertex 1 1 0
      vertex 153 0 0
    endloop
  endfacet
  facet normal 0 0 -1
    outer loop
      vertex 153 0 0
      vertex 152 1 0
      vertex 153 153 0
    endloop
  endfacet
  facet normal 0 -0 -1
    outer loop
      vertex 152 1 0
      vertex 152 152 0
      vertex 153 153 0
    endloop
  endfacet
  facet normal 0 1 0
    outer loop
      vertex 0 153 0
      vertex 0 153 3
      vertex 153 153 0
    endloop
  endfacet
  facet normal 0 1 0
    outer loop
      vertex 153 153 0
      vertex 0 153 3
      vertex 153 153 3
    endloop
  endfacet
  facet normal 0 -0 1
    outer loop
      vertex 1 1 3
      vertex 0 0 3
      vertex 153 0 3
    endloop
  endfacet
  facet normal -0 0 1
    outer loop
      vertex 1 152 3
      vertex 0 153 3
      vertex 1 1 3
    endloop
  endfacet
  facet normal 0 -0 1
    outer loop
      vertex 152 1 3
      vertex 1 1 3
      vertex 153 0 3
    endloop
  endfacet
  facet normal 0 -0 1
    outer loop
      vertex 0 153 3
      vertex 0 0 3
      vertex 1 1 3
    endloop
  endfacet
  facet normal 0 0 1
    outer loop
      vertex 153 153 3
      vertex 0 153 3
      vertex 1 152 3
    endloop
  endfacet
  facet normal 0 0 1
    outer loop
      vertex 153 153 3
      vertex 152 152 3
      vertex 153 0 3
    endloop
  endfacet
  facet normal 0 0 1
    outer loop
      vertex 153 153 3
      vertex 1 152 3
      vertex 152 152 3
    endloop
  endfacet
  facet normal 0 -0 1
    outer loop
      vertex 152 152 3
      vertex 152 1 3
      vertex 153 0 3
    endloop
  endfacet
  facet normal 1 0 -0
    outer loop
      vertex 153 0 3
      vertex 153 0 0
      vertex 153 153 0
    endloop
  endfacet
  facet normal 1 0 0
    outer loop
      vertex 153 153 3
      vertex 153 0 3
      vertex 153 153 0
    endloop
  endfacet
  facet normal 1 0 0
    outer loop
      vertex 1 152 0
      vertex 1 152 3
      vertex 1 1 3
    endloop
  endfacet
  facet normal 1 0 0
    outer loop
      vertex 1 1 0
      vertex 1 152 0
      vertex 1 1 3
    endloop
  endfacet
  facet normal 0 -1 0
    outer loop
      vertex 152 152 0
      vertex 152 152 3
      vertex 1 152 3
    endloop
  endfacet
  facet normal -0 -1 -0
    outer loop
      vertex 1 152 0
      vertex 152 152 0
      vertex 1 152 3
    endloop
  endfacet
  facet normal -1 0 0
    outer loop
      vertex 152 152 3
      vertex 152 152 0
      vertex 152 1 3
    endloop
  endfacet
  facet normal -1 0 0
    outer loop
      vertex 152 1 3
      vertex 152 152 0
      vertex 152 1 0
    endloop
  endfacet
  facet normal 0 1 0
    outer loop
      vertex 152 1 3
      vertex 152 1 0
      vertex 1 1 3
    endloop
  endfacet
  facet normal 0 1 -0
    outer loop
      vertex 1 1 3
      vertex 152 1 0
      vertex 1 1 0
    endloop
  endfacet
endsolid OpenSCAD_Model
