solid spool_stand_3.1
facet normal 3.457347996536873e-14 1.0 -1.813132977095682e-15
outer loop
vertex 23.893061785525788 360.6296929052638 -2.983121458064631
vertex 25.09306178552575 360.6296929052638 13.67027175575012
vertex 25.093061785525762 360.62969290526365 -2.9831214580646366
endloop
endfacet
facet normal 3.457347996536873e-14 1.0 -1.813132977095682e-15
outer loop
vertex 25.09306178552575 360.6296929052638 13.67027175575012
vertex 23.893061785525788 360.6296929052638 -2.983121458064631
vertex 23.893061785525788 360.6296929052638 13.67027175575011
endloop
endfacet
facet normal -1.0 2.6213773002414165e-14 -6.069178992530304e-16
outer loop
vertex 25.093061785525762 353.8380579458883 11.559590768260652
vertex 25.093061785525773 353.8046929052461 -2.962514000619545
vertex 25.093061785525773 353.80469290524604 11.037485999380388
endloop
endfacet
facet normal -1.0 2.6213773002414165e-14 -6.069178992530304e-16
outer loop
vertex 25.093061785525773 353.8046929052461 -2.962514000619545
vertex 25.093061785525762 353.8380579458883 11.559590768260652
vertex 25.09306178552581 354.7796929052486 -2.9625140006195534
endloop
endfacet
facet normal -1.0 2.6213773002414165e-14 -6.069178992530304e-16
outer loop
vertex 25.09306178552581 354.7796929052486 -2.9625140006195534
vertex 25.093061785525762 353.8380579458883 11.559590768260652
vertex 25.093061785525784 353.93758218271915 12.072762179790514
endloop
endfacet
facet normal -1.0 2.6213773002414165e-14 -6.069178992530304e-16
outer loop
vertex 25.09306178552581 354.7796929052486 -2.9625140006195534
vertex 25.093061785525784 353.93758218271915 12.072762179790514
vertex 25.093061785525773 354.10156272845273 12.568219728840765
endloop
endfacet
facet normal -1.0 2.6213773002414165e-14 -6.069178992530304e-16
outer loop
vertex 25.09306178552581 354.7796929052486 -2.9625140006195534
vertex 25.093061785525773 354.10156272845273 12.568219728840765
vertex 25.09306178552581 354.327193830488 13.037485999380431
endloop
endfacet
facet normal -1.0 2.6213773002414165e-14 -6.069178992530304e-16
outer loop
vertex 25.09306178552581 354.7796929052486 -2.9625140006195534
vertex 25.09306178552581 354.327193830488 13.037485999380431
vertex 25.093061785525762 354.61061487811213 13.472531715415306
endloop
endfacet
facet normal -1.0 2.6213773002414165e-14 -6.069178992530304e-16
outer loop
vertex 25.09306178552581 354.7796929052486 -2.9625140006195534
vertex 25.093061785525762 354.61061487811213 13.472531715415306
vertex 25.093061785525794 354.7796929052486 13.67027175575021
endloop
endfacet
facet normal -3.958745679019481e-16 0.9817081389395375 0.1903920427430448
outer loop
vertex 25.093061785525762 361.571327864624 11.55959076826069
vertex 158.88949913327562 361.47180362779335 12.072762179790498
vertex 158.88949913327576 361.571327864624 11.559590768260657
endloop
endfacet
facet normal -3.958745679019481e-16 0.9817081389395375 0.1903920427430448
outer loop
vertex 158.88949913327562 361.47180362779335 12.072762179790498
vertex 25.093061785525762 361.571327864624 11.55959076826069
vertex 25.09306178552581 361.4718036277933 12.072762179790587
endloop
endfacet
facet normal 1.614548902798783e-20 0.9979643163229213 0.06377478613154536
outer loop
vertex 160.09183313327568 361.571327864624 11.559590768260644
vertex 166.9941671332757 361.6046929052662 11.037485999380372
vertex 160.0918331332757 361.6046929052662 11.037485999380372
endloop
endfacet
facet normal 1.614548902798783e-20 0.9979643163229213 0.06377478613154536
outer loop
vertex 166.9941671332757 361.6046929052662 11.037485999380372
vertex 160.09183313327568 361.571327864624 11.559590768260644
vertex 166.9941671332757 361.571327864624 11.559590768260644
endloop
endfacet
facet normal 4.937415195514939e-16 -0.8378787622453431 0.5458563728474843
outer loop
vertex 158.88949913327565 354.6106148781124 13.472531715415318
vertex 25.09306178552581 354.327193830488 13.037485999380431
vertex 158.88949913327585 354.327193830488 13.03748599938038
endloop
endfacet
facet normal 4.937415195514939e-16 -0.8378787622453431 0.5458563728474843
outer loop
vertex 25.09306178552581 354.327193830488 13.037485999380431
vertex 158.88949913327565 354.6106148781124 13.472531715415318
vertex 25.093061785525762 354.61061487811213 13.472531715415306
endloop
endfacet
facet normal 1.9362004001223265e-17 -0.9012356857493669 0.4333292497995822
outer loop
vertex 23.89306178552581 354.32719383048806 13.037485999380452
vertex 16.9930617855258 354.1015627284528 12.56821972884078
vertex 23.893061785525777 354.10156272845273 12.568219728840765
endloop
endfacet
facet normal 1.9362004001223265e-17 -0.9012356857493669 0.4333292497995822
outer loop
vertex 16.9930617855258 354.1015627284528 12.56821972884078
vertex 23.89306178552581 354.32719383048806 13.037485999380452
vertex 16.993061785525754 354.327193830488 13.037485999380403
endloop
endfacet
facet normal -3.665956427321788e-14 -1.0 1.3530843112654343e-17
outer loop
vertex 25.09306178552581 354.7796929052486 -2.9625140006195534
vertex 23.893061785525788 354.7796929052486 13.670271755750216
vertex 23.8930617855258 354.7796929052487 -2.962514000619559
endloop
endfacet
facet normal -3.665956427321788e-14 -1.0 1.3530843112654343e-17
outer loop
vertex 23.893061785525788 354.7796929052486 13.670271755750216
vertex 25.09306178552581 354.7796929052486 -2.9625140006195534
vertex 25.093061785525794 354.7796929052486 13.67027175575021
endloop
endfacet
facet normal 1.2691183635015269e-16 -0.32880041922882536 0.9443994304927067
outer loop
vertex 16.99306178552578 356.21222751902843 14.733004129425538
vertex 166.99416713327565 356.6952986293536 14.901189304536688
vertex 16.993061785525754 356.6952986293536 14.9011893045367
endloop
endfacet
facet normal 1.2691183635015269e-16 -0.32880041922882536 0.9443994304927067
outer loop
vertex 166.99416713327565 356.6952986293536 14.901189304536688
vertex 16.99306178552578 356.21222751902843 14.733004129425538
vertex 166.99416713327577 356.21222751902854 14.733004129425554
endloop
endfacet
facet normal 1.6943964812903124e-16 -0.9979643163229182 0.06377478613159206
outer loop
vertex 158.88949913327576 353.8046929052461 11.037485999380406
vertex 25.093061785525762 353.8380579458883 11.559590768260652
vertex 25.093061785525773 353.80469290524604 11.037485999380388
endloop
endfacet
facet normal 1.6943964812903124e-16 -0.9979643163229182 0.06377478613159206
outer loop
vertex 25.093061785525762 353.8380579458883 11.559590768260652
vertex 158.88949913327576 353.8046929052461 11.037485999380406
vertex 158.8894991332757 353.8380579458883 11.55959076826061
endloop
endfacet
facet normal 1.879963801606797e-17 2.7698208174094348e-15 1.0
outer loop
vertex 16.993061785525764 357.1956407555966 15.003265444875654
vertex 166.99416713327577 358.2137450549157 15.003265444875646
vertex 16.993061785525754 358.2137450549157 15.003265444875654
endloop
endfacet
facet normal 1.879963801606797e-17 2.7698208174094348e-15 1.0
outer loop
vertex 166.99416713327577 358.2137450549157 15.003265444875646
vertex 16.993061785525764 357.1956407555966 15.003265444875654
vertex 166.99416713327565 357.1956407555966 15.003265444875654
endloop
endfacet
facet normal -7.793928510729372e-15 0.8378787622452989 0.545856372847552
outer loop
vertex 16.99306178552581 360.7987709324 13.4725317154153
vertex 23.8930617855258 361.0821919800243 13.03748599938048
vertex 16.993061785525754 361.0821919800243 13.037485999380358
endloop
endfacet
facet normal -7.793928510729372e-15 0.8378787622452989 0.545856372847552
outer loop
vertex 23.8930617855258 361.0821919800243 13.03748599938048
vertex 16.99306178552581 360.7987709324 13.4725317154153
vertex 23.89306178552581 360.79877093240015 13.472531715415261
endloop
endfacet
facet normal 3.18655445042196e-15 1.0 1.571124175627036e-15
outer loop
vertex 160.0918331332757 361.6046929052662 11.037485999380372
vertex 166.9941671332757 361.6046929052662 -2.9625140006195534
vertex 160.0918331332757 361.60469290526623 -2.963883004990843
endloop
endfacet
facet normal 3.18655445042196e-15 1.0 1.571124175627036e-15
outer loop
vertex 166.9941671332757 361.6046929052662 -2.9625140006195534
vertex 160.0918331332757 361.6046929052662 11.037485999380372
vertex 166.9941671332757 361.6046929052662 11.037485999380372
endloop
endfacet
facet normal 1.045281235182228e-16 -0.9979643163229208 0.06377478613155223
outer loop
vertex 166.99416713327577 353.83805794588824 11.5595907682606
vertex 160.09183313327583 353.80469290524604 11.037485999380396
vertex 166.9941671332758 353.80469290524604 11.037485999380396
endloop
endfacet
facet normal 1.045281235182228e-16 -0.9979643163229208 0.06377478613155223
outer loop
vertex 160.09183313327583 353.80469290524604 11.037485999380396
vertex 166.99416713327577 353.83805794588824 11.5595907682606
vertex 160.09183313327577 353.83805794588824 11.559590768260623
endloop
endfacet
facet normal 0.00015014163091698273 -0.0030196119096841537 -0.9999954296902589
outer loop
vertex 158.88949913327576 361.6046929052662 -2.963883004990863
vertex 25.093061785525762 360.62969290526365 -2.9831214580646366
vertex 25.093061785525762 361.6046929052662 -2.9831214580645913
endloop
endfacet
facet normal 0.00015014163091698273 -0.0030196119096841537 -0.9999954296902589
outer loop
vertex 25.093061785525762 360.62969290526365 -2.9831214580646366
vertex 158.88949913327576 361.6046929052662 -2.963883004990863
vertex 25.09306178552581 354.7796929052486 -2.9625140006195534
endloop
endfacet
facet normal 0.00015014163091698273 -0.0030196119096841537 -0.9999954296902589
outer loop
vertex 25.09306178552581 354.7796929052486 -2.9625140006195534
vertex 158.88949913327576 361.6046929052662 -2.963883004990863
vertex 158.88949913327565 360.6296929052638 -2.963883004990874
endloop
endfacet
facet normal 0.00015014163091698273 -0.0030196119096841537 -0.9999954296902589
outer loop
vertex 25.09306178552581 354.7796929052486 -2.9625140006195534
vertex 158.88949913327576 353.8046929052461 -2.941244000619629
vertex 25.093061785525773 353.8046929052461 -2.962514000619545
endloop
endfacet
facet normal 0.00015014163091698273 -0.0030196119096841537 -0.9999954296902589
outer loop
vertex 158.88949913327576 353.8046929052461 -2.941244000619629
vertex 25.09306178552581 354.7796929052486 -2.9625140006195534
vertex 158.88949913327565 360.6296929052638 -2.963883004990874
endloop
endfacet
facet normal 0.00015014163091698273 -0.0030196119096841537 -0.9999954296902589
outer loop
vertex 158.88949913327576 353.8046929052461 -2.941244000619629
vertex 158.88949913327565 360.6296929052638 -2.963883004990874
vertex 158.8894991332758 354.7796929052486 -2.9412440006196547
endloop
endfacet
facet normal 0.00015014163091698273 -0.0030196119096841537 -0.9999954296902589
outer loop
vertex 23.893061785525763 361.6046929052662 -2.9831214580645913
vertex 16.994167133275763 353.8046929052461 -2.962514000619545
vertex 16.994167133275763 361.604692905266 -2.9847277874861153
endloop
endfacet
facet normal 0.00015014163091698273 -0.0030196119096841537 -0.9999954296902589
outer loop
vertex 16.994167133275763 353.8046929052461 -2.962514000619545
vertex 23.893061785525763 361.6046929052662 -2.9831214580645913
vertex 23.893061785525763 353.8046929052461 -2.962514000619545
endloop
endfacet
facet normal 0.00015014163091698273 -0.0030196119096841537 -0.9999954296902589
outer loop
vertex 23.893061785525763 353.8046929052461 -2.962514000619545
vertex 23.893061785525763 361.6046929052662 -2.9831214580645913
vertex 23.893061785525788 360.6296929052638 -2.983121458064631
endloop
endfacet
facet normal 0.00015014163091698273 -0.0030196119096841537 -0.9999954296902589
outer loop
vertex 23.893061785525763 353.8046929052461 -2.962514000619545
vertex 23.893061785525788 360.6296929052638 -2.983121458064631
vertex 23.8930617855258 354.7796929052487 -2.962514000619559
endloop
endfacet
facet normal 0.00015014163091698273 -0.0030196119096841537 -0.9999954296902589
outer loop
vertex 23.8930617855258 354.7796929052487 -2.962514000619559
vertex 23.893061785525788 360.6296929052638 -2.983121458064631
vertex 25.093061785525762 360.62969290526365 -2.9831214580646366
endloop
endfacet
facet normal 0.00015014163091698273 -0.0030196119096841537 -0.9999954296902589
outer loop
vertex 23.8930617855258 354.7796929052487 -2.962514000619559
vertex 25.093061785525762 360.62969290526365 -2.9831214580646366
vertex 25.09306178552581 354.7796929052486 -2.9625140006195534
endloop
endfacet
facet normal 1.0 5.6869901847147855e-15 -1.2029033761199378e-15
outer loop
vertex 166.99416713327577 353.8046929052461 -2.962514000619545
vertex 166.99416713327577 353.83805794588824 11.5595907682606
vertex 166.9941671332758 353.80469290524604 11.037485999380396
endloop
endfacet
facet normal 1.0 5.6869901847147855e-15 -1.2029033761199378e-15
outer loop
vertex 166.99416713327577 353.83805794588824 11.5595907682606
vertex 166.99416713327577 353.8046929052461 -2.962514000619545
vertex 166.9941671332757 361.6046929052662 -2.9625140006195534
endloop
endfacet
facet normal 1.0 5.6869901847147855e-15 -1.2029033761199378e-15
outer loop
vertex 166.99416713327577 353.83805794588824 11.5595907682606
vertex 166.9941671332757 361.6046929052662 -2.9625140006195534
vertex 166.9941671332758 353.937582182719 12.072762179790498
endloop
endfacet
facet normal 1.0 5.6869901847147855e-15 -1.2029033761199378e-15
outer loop
vertex 166.9941671332758 353.937582182719 12.072762179790498
vertex 166.9941671332757 361.6046929052662 -2.9625140006195534
vertex 166.9941671332758 354.1015627284528 12.568219728840758
endloop
endfacet
facet normal 1.0 5.6869901847147855e-15 -1.2029033761199378e-15
outer loop
vertex 166.9941671332758 354.1015627284528 12.568219728840758
vertex 166.9941671332757 361.6046929052662 -2.9625140006195534
vertex 166.9941671332757 354.327193830488 13.03748599938038
endloop
endfacet
facet normal 1.0 5.6869901847147855e-15 -1.2029033761199378e-15
outer loop
vertex 166.9941671332757 354.327193830488 13.03748599938038
vertex 166.9941671332757 361.6046929052662 -2.9625140006195534
vertex 166.9941671332758 354.61061487811236 13.472531715415323
endloop
endfacet
facet normal 1.0 5.6869901847147855e-15 -1.2029033761199378e-15
outer loop
vertex 166.9941671332758 354.61061487811236 13.472531715415323
vertex 166.9941671332757 361.6046929052662 -2.9625140006195534
vertex 166.99416713327585 354.9469764586214 13.865913124126592
endloop
endfacet
facet normal 1.0 5.6869901847147855e-15 -1.2029033761199378e-15
outer loop
vertex 166.99416713327585 354.9469764586214 13.865913124126592
vertex 166.9941671332757 361.6046929052662 -2.9625140006195534
vertex 166.99416713327585 355.3305233321159 14.210899360545344
endloop
endfacet
facet normal 1.0 5.6869901847147855e-15 -1.2029033761199378e-15
outer loop
vertex 166.99416713327585 355.3305233321159 14.210899360545344
vertex 166.9941671332757 361.6046929052662 -2.9625140006195534
vertex 166.9941671332758 355.754692905251 14.501587614518163
endloop
endfacet
facet normal 1.0 5.6869901847147855e-15 -1.2029033761199378e-15
outer loop
vertex 166.9941671332758 355.754692905251 14.501587614518163
vertex 166.9941671332757 361.6046929052662 -2.9625140006195534
vertex 166.99416713327577 356.21222751902854 14.733004129425554
endloop
endfacet
facet normal 1.0 5.6869901847147855e-15 -1.2029033761199378e-15
outer loop
vertex 166.99416713327577 356.21222751902854 14.733004129425554
vertex 166.9941671332757 361.6046929052662 -2.9625140006195534
vertex 166.99416713327565 356.6952986293536 14.901189304536688
endloop
endfacet
facet normal 1.0 5.6869901847147855e-15 -1.2029033761199378e-15
outer loop
vertex 166.99416713327565 356.6952986293536 14.901189304536688
vertex 166.9941671332757 361.6046929052662 -2.9625140006195534
vertex 166.99416713327565 357.1956407555966 15.003265444875654
endloop
endfacet
facet normal 1.0 5.6869901847147855e-15 -1.2029033761199378e-15
outer loop
vertex 166.99416713327565 357.1956407555966 15.003265444875654
vertex 166.9941671332757 361.6046929052662 -2.9625140006195534
vertex 166.99416713327577 358.2137450549157 15.003265444875646
endloop
endfacet
facet normal 1.0 5.6869901847147855e-15 -1.2029033761199378e-15
outer loop
vertex 166.99416713327577 358.2137450549157 15.003265444875646
vertex 166.9941671332757 361.6046929052662 -2.9625140006195534
vertex 166.9941671332758 358.7140871811587 14.901189304536677
endloop
endfacet
facet normal 1.0 5.6869901847147855e-15 -1.2029033761199378e-15
outer loop
vertex 166.9941671332758 358.7140871811587 14.901189304536677
vertex 166.9941671332757 361.6046929052662 -2.9625140006195534
vertex 166.9941671332758 359.19715829148385 14.733004129425538
endloop
endfacet
facet normal 1.0 5.6869901847147855e-15 -1.2029033761199378e-15
outer loop
vertex 166.9941671332758 359.19715829148385 14.733004129425538
vertex 166.9941671332757 361.6046929052662 -2.9625140006195534
vertex 166.9941671332757 359.65469290526124 14.50158761451814
endloop
endfacet
facet normal 1.0 5.6869901847147855e-15 -1.2029033761199378e-15
outer loop
vertex 166.9941671332757 359.65469290526124 14.50158761451814
vertex 166.9941671332757 361.6046929052662 -2.9625140006195534
vertex 166.9941671332757 360.0788624783964 14.210899360545362
endloop
endfacet
facet normal 1.0 5.6869901847147855e-15 -1.2029033761199378e-15
outer loop
vertex 166.9941671332757 360.0788624783964 14.210899360545362
vertex 166.9941671332757 361.6046929052662 -2.9625140006195534
vertex 166.9941671332757 360.4624093518909 13.86591312412658
endloop
endfacet
facet normal 1.0 5.6869901847147855e-15 -1.2029033761199378e-15
outer loop
vertex 166.9941671332757 360.4624093518909 13.86591312412658
vertex 166.9941671332757 361.6046929052662 -2.9625140006195534
vertex 166.9941671332757 360.7987709324 13.472531715415306
endloop
endfacet
facet normal 1.0 5.6869901847147855e-15 -1.2029033761199378e-15
outer loop
vertex 166.9941671332757 360.7987709324 13.472531715415306
vertex 166.9941671332757 361.6046929052662 -2.9625140006195534
vertex 166.9941671332758 361.0821919800243 13.037485999380374
endloop
endfacet
facet normal 1.0 5.6869901847147855e-15 -1.2029033761199378e-15
outer loop
vertex 166.9941671332758 361.0821919800243 13.037485999380374
vertex 166.9941671332757 361.6046929052662 -2.9625140006195534
vertex 166.9941671332758 361.30782308205966 12.568219728840775
endloop
endfacet
facet normal 1.0 5.6869901847147855e-15 -1.2029033761199378e-15
outer loop
vertex 166.9941671332758 361.30782308205966 12.568219728840775
vertex 166.9941671332757 361.6046929052662 -2.9625140006195534
vertex 166.9941671332758 361.47180362779335 12.072762179790498
endloop
endfacet
facet normal 1.0 5.6869901847147855e-15 -1.2029033761199378e-15
outer loop
vertex 166.9941671332758 361.47180362779335 12.072762179790498
vertex 166.9941671332757 361.6046929052662 -2.9625140006195534
vertex 166.9941671332757 361.571327864624 11.559590768260644
endloop
endfacet
facet normal 1.0 5.6869901847147855e-15 -1.2029033761199378e-15
outer loop
vertex 166.9941671332757 361.571327864624 11.559590768260644
vertex 166.9941671332757 361.6046929052662 -2.9625140006195534
vertex 166.9941671332757 361.6046929052662 11.037485999380372
endloop
endfacet
facet normal 3.1134614314079677e-16 -0.9817081389395308 0.1903920427430793
outer loop
vertex 166.9941671332758 353.937582182719 12.072762179790498
vertex 160.09183313327577 353.83805794588824 11.559590768260623
vertex 166.99416713327577 353.83805794588824 11.5595907682606
endloop
endfacet
facet normal 3.1134614314079677e-16 -0.9817081389395308 0.1903920427430793
outer loop
vertex 160.09183313327577 353.83805794588824 11.559590768260623
vertex 166.9941671332758 353.937582182719 12.072762179790498
vertex 160.09183313327583 353.937582182719 12.072762179790498
endloop
endfacet
facet normal -1.487324599766209e-18 0.9817081389395443 0.19039204274301033
outer loop
vertex 160.0918331332757 361.47180362779335 12.072762179790498
vertex 166.9941671332757 361.571327864624 11.559590768260644
vertex 160.09183313327568 361.571327864624 11.559590768260644
endloop
endfacet
facet normal -1.487324599766209e-18 0.9817081389395443 0.19039204274301033
outer loop
vertex 166.9941671332757 361.571327864624 11.559590768260644
vertex 160.0918331332757 361.47180362779335 12.072762179790498
vertex 166.9941671332758 361.47180362779335 12.072762179790498
endloop
endfacet
facet normal 9.041305590997329e-20 0.9012356857493155 0.43332924979968906
outer loop
vertex 160.09183313327583 361.0821919800243 13.037485999380374
vertex 166.9941671332758 361.30782308205966 12.568219728840775
vertex 160.0918331332757 361.30782308205966 12.568219728840775
endloop
endfacet
facet normal 9.041305590997329e-20 0.9012356857493155 0.43332924979968906
outer loop
vertex 166.9941671332758 361.30782308205966 12.568219728840775
vertex 160.09183313327583 361.0821919800243 13.037485999380374
vertex 166.9941671332758 361.0821919800243 13.037485999380374
endloop
endfacet
facet normal -4.820667856037468e-17 0.32880041922876413 0.944399430492728
outer loop
vertex 166.9941671332758 358.7140871811587 14.901189304536677
vertex 16.99306178552578 359.19715829148385 14.733004129425549
vertex 16.993061785525743 358.7140871811586 14.901189304536667
endloop
endfacet
facet normal -4.820667856037468e-17 0.32880041922876413 0.944399430492728
outer loop
vertex 16.99306178552578 359.19715829148385 14.733004129425549
vertex 166.9941671332758 358.7140871811587 14.901189304536677
vertex 166.9941671332758 359.19715829148385 14.733004129425538
endloop
endfacet
facet normal 4.563614782741721e-15 -0.9979643163229168 0.06377478613161518
outer loop
vertex 23.893061785525777 353.8380579458883 11.559590768260652
vertex 16.99306178552572 353.80469290524593 11.037485999380412
vertex 23.893061785525763 353.80469290524604 11.037485999380388
endloop
endfacet
facet normal 4.563614782741721e-15 -0.9979643163229168 0.06377478613161518
outer loop
vertex 16.99306178552572 353.80469290524593 11.037485999380412
vertex 23.893061785525777 353.8380579458883 11.559590768260652
vertex 16.993061785525754 353.83805794588824 11.5595907682606
endloop
endfacet
facet normal 1.548099536187718e-17 -0.5653023013958138 0.8248838148712802
outer loop
vertex 16.99306178552578 355.3305233321159 14.210899360545344
vertex 166.9941671332758 355.754692905251 14.501587614518163
vertex 16.993061785525754 355.754692905251 14.501587614518169
endloop
endfacet
facet normal 1.548099536187718e-17 -0.5653023013958138 0.8248838148712802
outer loop
vertex 166.9941671332758 355.754692905251 14.501587614518163
vertex 16.99306178552578 355.3305233321159 14.210899360545344
vertex 166.99416713327585 355.3305233321159 14.210899360545344
endloop
endfacet
facet normal 3.636333242585374e-20 -0.9012356857493564 0.4333292497996034
outer loop
vertex 166.9941671332757 354.327193830488 13.03748599938038
vertex 160.0918331332757 354.1015627284528 12.568219728840758
vertex 166.9941671332758 354.1015627284528 12.568219728840758
endloop
endfacet
facet normal 3.636333242585374e-20 -0.9012356857493564 0.4333292497996034
outer loop
vertex 160.0918331332757 354.1015627284528 12.568219728840758
vertex 166.9941671332757 354.327193830488 13.03748599938038
vertex 160.09183313327586 354.327193830488 13.03748599938038
endloop
endfacet
facet normal -1.5605047549815154e-16 -0.9493548351998813 0.31420597843231124
outer loop
vertex 158.8894991332758 354.1015627284528 12.56821972884078
vertex 25.093061785525784 353.93758218271915 12.072762179790514
vertex 158.8894991332758 353.937582182719 12.072762179790498
endloop
endfacet
facet normal -1.5605047549815154e-16 -0.9493548351998813 0.31420597843231124
outer loop
vertex 25.093061785525784 353.93758218271915 12.072762179790514
vertex 158.8894991332758 354.1015627284528 12.56821972884078
vertex 25.093061785525773 354.10156272845273 12.568219728840765
endloop
endfacet
facet normal 1.3979036360969244e-17 -0.6687441350039317 0.7434926239700318
outer loop
vertex 166.99416713327585 354.9469764586214 13.865913124126592
vertex 16.99306178552578 355.3305233321159 14.210899360545344
vertex 16.99306178552578 354.9469764586214 13.865913124126598
endloop
endfacet
facet normal 1.3979036360969244e-17 -0.6687441350039317 0.7434926239700318
outer loop
vertex 16.99306178552578 355.3305233321159 14.210899360545344
vertex 166.99416713327585 354.9469764586214 13.865913124126592
vertex 166.99416713327585 355.3305233321159 14.210899360545344
endloop
endfacet
facet normal 9.88288280242291e-17 -0.451342318057858 0.8923508905862981
outer loop
vertex 166.9941671332758 355.754692905251 14.501587614518163
vertex 16.99306178552578 356.21222751902843 14.733004129425538
vertex 16.993061785525754 355.754692905251 14.501587614518169
endloop
endfacet
facet normal 9.88288280242291e-17 -0.451342318057858 0.8923508905862981
outer loop
vertex 16.99306178552578 356.21222751902843 14.733004129425538
vertex 166.9941671332758 355.754692905251 14.501587614518163
vertex 166.99416713327577 356.21222751902854 14.733004129425554
endloop
endfacet
facet normal 2.0294475673754797e-16 -0.9012356857493771 0.4333292497995606
outer loop
vertex 158.8894991332758 354.1015627284528 12.56821972884078
vertex 25.09306178552581 354.327193830488 13.037485999380431
vertex 25.093061785525773 354.10156272845273 12.568219728840765
endloop
endfacet
facet normal 2.0294475673754797e-16 -0.9012356857493771 0.4333292497995606
outer loop
vertex 25.09306178552581 354.327193830488 13.037485999380431
vertex 158.8894991332758 354.1015627284528 12.56821972884078
vertex 158.88949913327585 354.327193830488 13.03748599938038
endloop
endfacet
facet normal -4.772294749305606e-17 0.19989515614048328 0.9798172924334271
outer loop
vertex 16.993061785525754 358.2137450549157 15.003265444875654
vertex 166.9941671332758 358.7140871811587 14.901189304536677
vertex 16.993061785525743 358.7140871811586 14.901189304536667
endloop
endfacet
facet normal -4.772294749305606e-17 0.19989515614048328 0.9798172924334271
outer loop
vertex 166.9941671332758 358.7140871811587 14.901189304536677
vertex 16.993061785525754 358.2137450549157 15.003265444875654
vertex 166.99416713327577 358.2137450549157 15.003265444875646
endloop
endfacet
facet normal 3.97664891325072e-15 0.9979643163229176 0.06377478613160177
outer loop
vertex 16.99306178552578 361.571327864624 11.559590768260634
vertex 23.893061785525763 361.6046929052662 11.037485999380406
vertex 16.99306178552579 361.6046929052662 11.0374859993804
endloop
endfacet
facet normal 3.97664891325072e-15 0.9979643163229176 0.06377478613160177
outer loop
vertex 23.893061785525763 361.6046929052662 11.037485999380406
vertex 16.99306178552578 361.571327864624 11.559590768260634
vertex 23.893061785525777 361.571327864624 11.559590768260644
endloop
endfacet
facet normal -5.457252828309949e-19 -0.8378787622453835 0.5458563728474222
outer loop
vertex 166.9941671332758 354.61061487811236 13.472531715415323
vertex 160.09183313327586 354.327193830488 13.03748599938038
vertex 166.9941671332757 354.327193830488 13.03748599938038
endloop
endfacet
facet normal -5.457252828309949e-19 -0.8378787622453835 0.5458563728474222
outer loop
vertex 160.09183313327586 354.327193830488 13.03748599938038
vertex 166.9941671332758 354.61061487811236 13.472531715415323
vertex 160.0918331332757 354.61061487811236 13.472531715415323
endloop
endfacet
facet normal 3.184285815980168e-15 -1.0 -1.5735129829199038e-15
outer loop
vertex 166.9941671332758 353.80469290524604 11.037485999380396
vertex 160.09183313327583 353.80469290524604 -2.9412440006196263
vertex 166.99416713327577 353.8046929052461 -2.962514000619545
endloop
endfacet
facet normal 3.184285815980168e-15 -1.0 -1.5735129829199038e-15
outer loop
vertex 160.09183313327583 353.80469290524604 -2.9412440006196263
vertex 166.9941671332758 353.80469290524604 11.037485999380396
vertex 160.09183313327583 353.80469290524604 11.037485999380396
endloop
endfacet
facet normal -1.4663102173799307e-16 0.949354835199866 0.3142059784323575
outer loop
vertex 25.09306178552581 361.4718036277933 12.072762179790587
vertex 158.88949913327576 361.30782308205954 12.56821972884077
vertex 158.88949913327562 361.47180362779335 12.072762179790498
endloop
endfacet
facet normal -1.4663102173799307e-16 0.949354835199866 0.3142059784323575
outer loop
vertex 158.88949913327576 361.30782308205954 12.56821972884077
vertex 25.09306178552581 361.4718036277933 12.072762179790587
vertex 25.093061785525762 361.30782308205954 12.56821972884082
endloop
endfacet
facet normal 1.7248875154883185e-15 0.9817081389395435 0.1903920427430147
outer loop
vertex 16.993061785525764 361.47180362779335 12.072762179790514
vertex 23.893061785525777 361.571327864624 11.559590768260644
vertex 16.99306178552578 361.571327864624 11.559590768260634
endloop
endfacet
facet normal 1.7248875154883185e-15 0.9817081389395435 0.1903920427430147
outer loop
vertex 23.893061785525777 361.571327864624 11.559590768260644
vertex 16.993061785525764 361.47180362779335 12.072762179790514
vertex 23.893061785525777 361.47180362779335 12.072762179790525
endloop
endfacet
facet normal 3.1882989073443403e-15 -1.0 -1.501923585504632e-15
outer loop
vertex 23.893061785525763 353.80469290524604 11.037485999380388
vertex 16.994167133275763 353.8046929052461 -2.962514000619545
vertex 23.893061785525763 353.8046929052461 -2.962514000619545
endloop
endfacet
facet normal 3.1882989073443403e-15 -1.0 -1.501923585504632e-15
outer loop
vertex 16.994167133275763 353.8046929052461 -2.962514000619545
vertex 23.893061785525763 353.80469290524604 11.037485999380388
vertex 16.99306178552572 353.80469290524593 11.037485999380412
endloop
endfacet
facet normal 1.2478630256311173e-16 -0.19989515614042924 0.979817292433438
outer loop
vertex 166.99416713327565 356.6952986293536 14.901189304536688
vertex 16.993061785525764 357.1956407555966 15.003265444875654
vertex 16.993061785525754 356.6952986293536 14.9011893045367
endloop
endfacet
facet normal 1.2478630256311173e-16 -0.19989515614042924 0.979817292433438
outer loop
vertex 16.993061785525764 357.1956407555966 15.003265444875654
vertex 166.99416713327565 356.6952986293536 14.901189304536688
vertex 166.99416713327565 357.1956407555966 15.003265444875654
endloop
endfacet
facet normal 3.461779827963749e-19 0.8378787622453124 0.5458563728475314
outer loop
vertex 25.093061785525784 361.0821919800243 13.037485999380493
vertex 158.88949913327576 360.7987709324001 13.472531715415311
vertex 158.8894991332757 361.08219198002433 13.037485999380358
endloop
endfacet
facet normal 3.461779827963749e-19 0.8378787622453124 0.5458563728475314
outer loop
vertex 158.88949913327576 360.7987709324001 13.472531715415311
vertex 25.093061785525784 361.0821919800243 13.037485999380493
vertex 25.093061785525762 360.7987709324001 13.472531715415244
endloop
endfacet
facet normal 1.532527553685524e-16 0.901235685749376 0.4333292497995628
outer loop
vertex 25.093061785525762 361.30782308205954 12.56821972884082
vertex 158.8894991332757 361.08219198002433 13.037485999380358
vertex 158.88949913327576 361.30782308205954 12.56821972884077
endloop
endfacet
facet normal 1.532527553685524e-16 0.901235685749376 0.4333292497995628
outer loop
vertex 158.8894991332757 361.08219198002433 13.037485999380358
vertex 25.093061785525762 361.30782308205954 12.56821972884082
vertex 25.093061785525784 361.0821919800243 13.037485999380493
endloop
endfacet
facet normal 1.0 2.5431933523645504e-14 -9.25414293704043e-16
outer loop
vertex 23.893061785525763 361.6046929052662 -2.9831214580645913
vertex 23.893061785525788 360.6296929052638 13.67027175575011
vertex 23.893061785525788 360.6296929052638 -2.983121458064631
endloop
endfacet
facet normal 1.0 2.5431933523645504e-14 -9.25414293704043e-16
outer loop
vertex 23.893061785525788 360.6296929052638 13.67027175575011
vertex 23.893061785525763 361.6046929052662 -2.9831214580645913
vertex 23.89306178552581 360.79877093240015 13.472531715415261
endloop
endfacet
facet normal 1.0 2.5431933523645504e-14 -9.25414293704043e-16
outer loop
vertex 23.89306178552581 360.79877093240015 13.472531715415261
vertex 23.893061785525763 361.6046929052662 -2.9831214580645913
vertex 23.8930617855258 361.0821919800243 13.03748599938048
endloop
endfacet
facet normal 1.0 2.5431933523645504e-14 -9.25414293704043e-16
outer loop
vertex 23.8930617855258 361.0821919800243 13.03748599938048
vertex 23.893061785525763 361.6046929052662 -2.9831214580645913
vertex 23.8930617855258 361.30782308205954 12.568219728840832
endloop
endfacet
facet normal 1.0 2.5431933523645504e-14 -9.25414293704043e-16
outer loop
vertex 23.8930617855258 361.30782308205954 12.568219728840832
vertex 23.893061785525763 361.6046929052662 -2.9831214580645913
vertex 23.893061785525777 361.47180362779335 12.072762179790525
endloop
endfacet
facet normal 1.0 2.5431933523645504e-14 -9.25414293704043e-16
outer loop
vertex 23.893061785525777 361.47180362779335 12.072762179790525
vertex 23.893061785525763 361.6046929052662 -2.9831214580645913
vertex 23.893061785525777 361.571327864624 11.559590768260644
endloop
endfacet
facet normal 1.0 2.5431933523645504e-14 -9.25414293704043e-16
outer loop
vertex 23.893061785525777 361.571327864624 11.559590768260644
vertex 23.893061785525763 361.6046929052662 -2.9831214580645913
vertex 23.893061785525763 361.6046929052662 11.037485999380406
endloop
endfacet
facet normal 0.0 0.9493548351998709 0.31420597843234294
outer loop
vertex 160.0918331332757 361.30782308205966 12.568219728840775
vertex 166.9941671332758 361.47180362779335 12.072762179790498
vertex 160.0918331332757 361.47180362779335 12.072762179790498
endloop
endfacet
facet normal 0.0 0.9493548351998709 0.31420597843234294
outer loop
vertex 166.9941671332758 361.47180362779335 12.072762179790498
vertex 160.0918331332757 361.30782308205966 12.568219728840775
vertex 166.9941671332758 361.30782308205966 12.568219728840775
endloop
endfacet
facet normal 1.0 -4.905402124740962e-14 -2.0515312317431938e-16
outer loop
vertex 158.88949913327576 361.6046929052662 -2.963883004990863
vertex 158.88949913327565 360.6296929052638 13.670271755750166
vertex 158.88949913327565 360.6296929052638 -2.963883004990874
endloop
endfacet
facet normal 1.0 -4.905402124740962e-14 -2.0515312317431938e-16
outer loop
vertex 158.88949913327565 360.6296929052638 13.670271755750166
vertex 158.88949913327576 361.6046929052662 -2.963883004990863
vertex 158.88949913327576 360.7987709324001 13.472531715415311
endloop
endfacet
facet normal 1.0 -4.905402124740962e-14 -2.0515312317431938e-16
outer loop
vertex 158.88949913327576 360.7987709324001 13.472531715415311
vertex 158.88949913327576 361.6046929052662 -2.963883004990863
vertex 158.8894991332757 361.08219198002433 13.037485999380358
endloop
endfacet
facet normal 1.0 -4.905402124740962e-14 -2.0515312317431938e-16
outer loop
vertex 158.8894991332757 361.08219198002433 13.037485999380358
vertex 158.88949913327576 361.6046929052662 -2.963883004990863
vertex 158.88949913327576 361.30782308205954 12.56821972884077
endloop
endfacet
facet normal 1.0 -4.905402124740962e-14 -2.0515312317431938e-16
outer loop
vertex 158.88949913327576 361.30782308205954 12.56821972884077
vertex 158.88949913327576 361.6046929052662 -2.963883004990863
vertex 158.88949913327562 361.47180362779335 12.072762179790498
endloop
endfacet
facet normal 1.0 -4.905402124740962e-14 -2.0515312317431938e-16
outer loop
vertex 158.88949913327562 361.47180362779335 12.072762179790498
vertex 158.88949913327576 361.6046929052662 -2.963883004990863
vertex 158.88949913327576 361.571327864624 11.559590768260657
endloop
endfacet
facet normal 1.0 -4.905402124740962e-14 -2.0515312317431938e-16
outer loop
vertex 158.88949913327576 361.571327864624 11.559590768260657
vertex 158.88949913327576 361.6046929052662 -2.963883004990863
vertex 158.88949913327576 361.6046929052662 11.037485999380396
endloop
endfacet
facet normal 2.4408681792417393e-16 -0.7600412513913797 0.649874831166299
outer loop
vertex 166.99416713327585 354.9469764586214 13.865913124126592
vertex 160.0918331332757 354.61061487811236 13.472531715415323
vertex 166.9941671332758 354.61061487811236 13.472531715415323
endloop
endfacet
facet normal 2.4408681792417393e-16 -0.7600412513913797 0.649874831166299
outer loop
vertex 160.0918331332757 354.61061487811236 13.472531715415323
vertex 166.99416713327585 354.9469764586214 13.865913124126592
vertex 160.0918331332757 354.7796929052486 13.670271755750143
endloop
endfacet
facet normal 2.4408681792417393e-16 -0.7600412513913797 0.649874831166299
outer loop
vertex 160.0918331332757 354.7796929052486 13.670271755750143
vertex 166.99416713327585 354.9469764586214 13.865913124126592
vertex 158.8894991332758 354.7796929052486 13.670271755750166
endloop
endfacet
facet normal 2.4408681792417393e-16 -0.7600412513913797 0.649874831166299
outer loop
vertex 158.8894991332758 354.7796929052486 13.670271755750166
vertex 166.99416713327585 354.9469764586214 13.865913124126592
vertex 25.093061785525794 354.7796929052486 13.67027175575021
endloop
endfacet
facet normal 2.4408681792417393e-16 -0.7600412513913797 0.649874831166299
outer loop
vertex 25.093061785525794 354.7796929052486 13.67027175575021
vertex 166.99416713327585 354.9469764586214 13.865913124126592
vertex 23.893061785525788 354.7796929052486 13.670271755750216
endloop
endfacet
facet normal 2.4408681792417393e-16 -0.7600412513913797 0.649874831166299
outer loop
vertex 23.893061785525788 354.7796929052486 13.670271755750216
vertex 16.993061785525754 354.61061487811224 13.4725317154153
vertex 23.893061785525763 354.61061487811224 13.4725317154153
endloop
endfacet
facet normal 2.4408681792417393e-16 -0.7600412513913797 0.649874831166299
outer loop
vertex 16.993061785525754 354.61061487811224 13.4725317154153
vertex 23.893061785525788 354.7796929052486 13.670271755750216
vertex 16.99306178552578 354.9469764586214 13.865913124126598
endloop
endfacet
facet normal 2.4408681792417393e-16 -0.7600412513913797 0.649874831166299
outer loop
vertex 16.99306178552578 354.9469764586214 13.865913124126598
vertex 23.893061785525788 354.7796929052486 13.670271755750216
vertex 166.99416713327585 354.9469764586214 13.865913124126592
endloop
endfacet
facet normal 2.4408681792417393e-16 -0.7600412513913797 0.649874831166299
outer loop
vertex 158.88949913327565 354.6106148781124 13.472531715415318
vertex 25.093061785525794 354.7796929052486 13.67027175575021
vertex 25.093061785525762 354.61061487811213 13.472531715415306
endloop
endfacet
facet normal 2.4408681792417393e-16 -0.7600412513913797 0.649874831166299
outer loop
vertex 25.093061785525794 354.7796929052486 13.67027175575021
vertex 158.88949913327565 354.6106148781124 13.472531715415318
vertex 158.8894991332758 354.7796929052486 13.670271755750166
endloop
endfacet
facet normal -4.9674153482953684e-15 0.9012356857493894 0.43332924979953485
outer loop
vertex 16.993061785525754 361.0821919800243 13.037485999380358
vertex 23.8930617855258 361.30782308205954 12.568219728840832
vertex 16.99306178552578 361.30782308205943 12.568219728840793
endloop
endfacet
facet normal -4.9674153482953684e-15 0.9012356857493894 0.43332924979953485
outer loop
vertex 23.8930617855258 361.30782308205954 12.568219728840832
vertex 16.993061785525754 361.0821919800243 13.037485999380358
vertex 23.8930617855258 361.0821919800243 13.03748599938048
endloop
endfacet
facet normal 4.467586965859599e-16 0.8378787622453415 0.5458563728474868
outer loop
vertex 160.09183313327577 360.7987709324 13.472531715415318
vertex 166.9941671332758 361.0821919800243 13.037485999380374
vertex 160.09183313327583 361.0821919800243 13.037485999380374
endloop
endfacet
facet normal 4.467586965859599e-16 0.8378787622453415 0.5458563728474868
outer loop
vertex 166.9941671332758 361.0821919800243 13.037485999380374
vertex 160.09183313327577 360.7987709324 13.472531715415318
vertex 166.9941671332757 360.7987709324 13.472531715415306
endloop
endfacet
facet normal -1.0429413843509881e-16 0.7600412513914109 0.6498748311662622
outer loop
vertex 16.99306178552581 360.7987709324 13.4725317154153
vertex 23.893061785525788 360.6296929052638 13.67027175575011
vertex 23.89306178552581 360.79877093240015 13.472531715415261
endloop
endfacet
facet normal -1.0429413843509881e-16 0.7600412513914109 0.6498748311662622
outer loop
vertex 23.893061785525788 360.6296929052638 13.67027175575011
vertex 16.99306178552581 360.7987709324 13.4725317154153
vertex 16.993061785525754 360.46240935189087 13.86591312412657
endloop
endfacet
facet normal -1.0429413843509881e-16 0.7600412513914109 0.6498748311662622
outer loop
vertex 23.893061785525788 360.6296929052638 13.67027175575011
vertex 16.993061785525754 360.46240935189087 13.86591312412657
vertex 25.09306178552575 360.6296929052638 13.67027175575012
endloop
endfacet
facet normal -1.0429413843509881e-16 0.7600412513914109 0.6498748311662622
outer loop
vertex 25.09306178552575 360.6296929052638 13.67027175575012
vertex 16.993061785525754 360.46240935189087 13.86591312412657
vertex 158.88949913327565 360.6296929052638 13.670271755750166
endloop
endfacet
facet normal -1.0429413843509881e-16 0.7600412513914109 0.6498748311662622
outer loop
vertex 160.09183313327577 360.7987709324 13.472531715415318
vertex 166.9941671332757 360.4624093518909 13.86591312412658
vertex 166.9941671332757 360.7987709324 13.472531715415306
endloop
endfacet
facet normal -1.0429413843509881e-16 0.7600412513914109 0.6498748311662622
outer loop
vertex 166.9941671332757 360.4624093518909 13.86591312412658
vertex 160.09183313327577 360.7987709324 13.472531715415318
vertex 160.09183313327583 360.6296929052638 13.670271755750159
endloop
endfacet
facet normal -1.0429413843509881e-16 0.7600412513914109 0.6498748311662622
outer loop
vertex 166.9941671332757 360.4624093518909 13.86591312412658
vertex 160.09183313327583 360.6296929052638 13.670271755750159
vertex 158.88949913327565 360.6296929052638 13.670271755750166
endloop
endfacet
facet normal -1.0429413843509881e-16 0.7600412513914109 0.6498748311662622
outer loop
vertex 166.9941671332757 360.4624093518909 13.86591312412658
vertex 158.88949913327565 360.6296929052638 13.670271755750166
vertex 16.993061785525754 360.46240935189087 13.86591312412657
endloop
endfacet
facet normal -1.0429413843509881e-16 0.7600412513914109 0.6498748311662622
outer loop
vertex 25.09306178552575 360.6296929052638 13.67027175575012
vertex 158.88949913327576 360.7987709324001 13.472531715415311
vertex 25.093061785525762 360.7987709324001 13.472531715415244
endloop
endfacet
facet normal -1.0429413843509881e-16 0.7600412513914109 0.6498748311662622
outer loop
vertex 158.88949913327576 360.7987709324001 13.472531715415311
vertex 25.09306178552575 360.6296929052638 13.67027175575012
vertex 158.88949913327565 360.6296929052638 13.670271755750166
endloop
endfacet
facet normal -2.826770204069747e-16 -0.9817081389395301 0.19039204274308322
outer loop
vertex 158.8894991332758 353.937582182719 12.072762179790498
vertex 25.093061785525762 353.8380579458883 11.559590768260652
vertex 158.8894991332757 353.8380579458883 11.55959076826061
endloop
endfacet
facet normal -2.826770204069747e-16 -0.9817081389395301 0.19039204274308322
outer loop
vertex 25.093061785525762 353.8380579458883 11.559590768260652
vertex 158.8894991332758 353.937582182719 12.072762179790498
vertex 25.093061785525784 353.93758218271915 12.072762179790514
endloop
endfacet
facet normal -7.522676986892038e-19 -0.9493548351998425 0.31420597843242865
outer loop
vertex 166.9941671332758 354.1015627284528 12.568219728840758
vertex 160.09183313327583 353.937582182719 12.072762179790498
vertex 166.9941671332758 353.937582182719 12.072762179790498
endloop
endfacet
facet normal -7.522676986892038e-19 -0.9493548351998425 0.31420597843242865
outer loop
vertex 160.09183313327583 353.937582182719 12.072762179790498
vertex 166.9941671332758 354.1015627284528 12.568219728840758
vertex 160.0918331332757 354.1015627284528 12.568219728840758
endloop
endfacet
facet normal -0.0013304424957781853 -0.002321940851954279 -0.9999964192503119
outer loop
vertex 166.9941671332757 361.6046929052662 -2.9625140006195534
vertex 160.09183313327583 360.62969290526365 -2.9638830049908824
vertex 160.0918331332757 361.60469290526623 -2.963883004990843
endloop
endfacet
facet normal -0.0013304424957781853 -0.002321940851954279 -0.9999964192503119
outer loop
vertex 160.09183313327583 360.62969290526365 -2.9638830049908824
vertex 166.9941671332757 361.6046929052662 -2.9625140006195534
vertex 160.09183313327583 353.80469290524604 -2.9412440006196263
endloop
endfacet
facet normal -0.0013304424957781853 -0.002321940851954279 -0.9999964192503119
outer loop
vertex 160.09183313327583 353.80469290524604 -2.9412440006196263
vertex 166.9941671332757 361.6046929052662 -2.9625140006195534
vertex 166.99416713327577 353.8046929052461 -2.962514000619545
endloop
endfacet
facet normal -0.0013304424957781853 -0.002321940851954279 -0.9999964192503119
outer loop
vertex 160.09183313327583 360.62969290526365 -2.9638830049908824
vertex 158.8894991332758 354.7796929052486 -2.9412440006196547
vertex 158.88949913327565 360.6296929052638 -2.963883004990874
endloop
endfacet
facet normal -0.0013304424957781853 -0.002321940851954279 -0.9999964192503119
outer loop
vertex 158.8894991332758 354.7796929052486 -2.9412440006196547
vertex 160.09183313327583 360.62969290526365 -2.9638830049908824
vertex 160.0918331332757 354.7796929052486 -2.941244000619666
endloop
endfacet
facet normal -0.0013304424957781853 -0.002321940851954279 -0.9999964192503119
outer loop
vertex 160.0918331332757 354.7796929052486 -2.941244000619666
vertex 160.09183313327583 360.62969290526365 -2.9638830049908824
vertex 160.09183313327583 353.80469290524604 -2.9412440006196263
endloop
endfacet
facet normal 2.5070084000704957e-15 -0.981708138939545 0.19039204274300753
outer loop
vertex 23.893061785525777 353.8380579458883 11.559590768260652
vertex 16.99306178552579 353.937582182719 12.072762179790514
vertex 16.993061785525754 353.83805794588824 11.5595907682606
endloop
endfacet
facet normal 2.5070084000704957e-15 -0.981708138939545 0.19039204274300753
outer loop
vertex 16.99306178552579 353.937582182719 12.072762179790514
vertex 23.893061785525777 353.8380579458883 11.559590768260652
vertex 23.8930617855258 353.937582182719 12.072762179790503
endloop
endfacet
facet normal -1.5134823768573569e-15 -0.9493548351998443 0.31420597843242354
outer loop
vertex 23.893061785525777 354.10156272845273 12.568219728840765
vertex 16.99306178552579 353.937582182719 12.072762179790514
vertex 23.8930617855258 353.937582182719 12.072762179790503
endloop
endfacet
facet normal -1.5134823768573569e-15 -0.9493548351998443 0.31420597843242354
outer loop
vertex 16.99306178552579 353.937582182719 12.072762179790514
vertex 23.893061785525777 354.10156272845273 12.568219728840765
vertex 16.9930617855258 354.1015627284528 12.56821972884078
endloop
endfacet
facet normal 2.2218453291668265e-15 -0.8378787622453575 0.5458563728474621
outer loop
vertex 23.89306178552581 354.32719383048806 13.037485999380452
vertex 16.993061785525754 354.61061487811224 13.4725317154153
vertex 16.993061785525754 354.327193830488 13.037485999380403
endloop
endfacet
facet normal 2.2218453291668265e-15 -0.8378787622453575 0.5458563728474621
outer loop
vertex 16.993061785525754 354.61061487811224 13.4725317154153
vertex 23.89306178552581 354.32719383048806 13.037485999380452
vertex 23.893061785525763 354.61061487811224 13.4725317154153
endloop
endfacet
facet normal -1.5331320624135072e-16 0.9979643163229186 0.06377478613158721
outer loop
vertex 25.093061785525762 361.6046929052662 11.037485999380406
vertex 158.88949913327576 361.571327864624 11.559590768260657
vertex 158.88949913327576 361.6046929052662 11.037485999380396
endloop
endfacet
facet normal -1.5331320624135072e-16 0.9979643163229186 0.06377478613158721
outer loop
vertex 158.88949913327576 361.571327864624 11.559590768260657
vertex 25.093061785525762 361.6046929052662 11.037485999380406
vertex 25.093061785525762 361.571327864624 11.55959076826069
endloop
endfacet
facet normal -9.809248532909527e-17 0.668744135003956 0.7434926239700101
outer loop
vertex 16.99306178552578 360.0788624783964 14.210899360545373
vertex 166.9941671332757 360.4624093518909 13.86591312412658
vertex 16.993061785525754 360.46240935189087 13.86591312412657
endloop
endfacet
facet normal -9.809248532909527e-17 0.668744135003956 0.7434926239700101
outer loop
vertex 166.9941671332757 360.4624093518909 13.86591312412658
vertex 16.99306178552578 360.0788624783964 14.210899360545373
vertex 166.9941671332757 360.0788624783964 14.210899360545362
endloop
endfacet
facet normal 7.757393564537348e-17 0.5653023013957618 0.8248838148713158
outer loop
vertex 166.9941671332757 359.65469290526124 14.50158761451814
vertex 16.99306178552578 360.0788624783964 14.210899360545373
vertex 16.993061785525764 359.65469290526124 14.501587614518158
endloop
endfacet
facet normal 7.757393564537348e-17 0.5653023013957618 0.8248838148713158
outer loop
vertex 16.99306178552578 360.0788624783964 14.210899360545373
vertex 166.9941671332757 359.65469290526124 14.50158761451814
vertex 166.9941671332757 360.0788624783964 14.210899360545362
endloop
endfacet
facet normal 8.383876461512439e-17 0.45134231805791447 0.8923508905862695
outer loop
vertex 16.99306178552578 359.19715829148385 14.733004129425549
vertex 166.9941671332757 359.65469290526124 14.50158761451814
vertex 16.993061785525764 359.65469290526124 14.501587614518158
endloop
endfacet
facet normal 8.383876461512439e-17 0.45134231805791447 0.8923508905862695
outer loop
vertex 166.9941671332757 359.65469290526124 14.50158761451814
vertex 16.99306178552578 359.19715829148385 14.733004129425549
vertex 166.9941671332758 359.19715829148385 14.733004129425538
endloop
endfacet
facet normal 3.658839983553341e-14 1.0 -2.64464757967071e-15
outer loop
vertex 158.88949913327565 360.6296929052638 -2.963883004990874
vertex 160.09183313327583 360.6296929052638 13.670271755750159
vertex 160.09183313327583 360.62969290526365 -2.9638830049908824
endloop
endfacet
facet normal 3.658839983553341e-14 1.0 -2.64464757967071e-15
outer loop
vertex 160.09183313327583 360.6296929052638 13.670271755750159
vertex 158.88949913327565 360.6296929052638 -2.963883004990874
vertex 158.88949913327565 360.6296929052638 13.670271755750166
endloop
endfacet
facet normal 1.6452211516881907e-16 -1.0 -1.5735129829198973e-15
outer loop
vertex 158.88949913327576 353.8046929052461 -2.941244000619629
vertex 25.093061785525773 353.80469290524604 11.037485999380388
vertex 25.093061785525773 353.8046929052461 -2.962514000619545
endloop
endfacet
facet normal 1.6452211516881907e-16 -1.0 -1.5735129829198973e-15
outer loop
vertex 25.093061785525773 353.80469290524604 11.037485999380388
vertex 158.88949913327576 353.8046929052461 -2.941244000619629
vertex 158.88949913327576 353.8046929052461 11.037485999380406
endloop
endfacet
facet normal 2.142076511464431e-16 0.9493548351998516 0.3142059784324008
outer loop
vertex 16.99306178552578 361.30782308205943 12.568219728840793
vertex 23.893061785525777 361.47180362779335 12.072762179790525
vertex 16.993061785525764 361.47180362779335 12.072762179790514
endloop
endfacet
facet normal 2.142076511464431e-16 0.9493548351998516 0.3142059784324008
outer loop
vertex 23.893061785525777 361.47180362779335 12.072762179790525
vertex 16.99306178552578 361.30782308205943 12.568219728840793
vertex 23.8930617855258 361.30782308205954 12.568219728840832
endloop
endfacet
facet normal 0.0 -1.0 0.0
outer loop
vertex 160.0918331332757 354.7796929052486 13.670271755750143
vertex 158.8894991332758 354.7796929052486 -2.9412440006196547
vertex 160.0918331332757 354.7796929052486 -2.941244000619666
endloop
endfacet
facet normal 0.0 -1.0 0.0
outer loop
vertex 158.8894991332758 354.7796929052486 -2.9412440006196547
vertex 160.0918331332757 354.7796929052486 13.670271755750143
vertex 158.8894991332758 354.7796929052486 13.670271755750166
endloop
endfacet
facet normal -1.0 -1.0573025541953461e-13 -5.757441516404549e-16
outer loop
vertex 160.09183313327583 360.6296929052638 13.670271755750159
vertex 160.0918331332757 361.60469290526623 -2.963883004990843
vertex 160.09183313327583 360.62969290526365 -2.9638830049908824
endloop
endfacet
facet normal -1.0 -1.0573025541953461e-13 -5.757441516404549e-16
outer loop
vertex 160.0918331332757 361.60469290526623 -2.963883004990843
vertex 160.09183313327583 360.6296929052638 13.670271755750159
vertex 160.09183313327577 360.7987709324 13.472531715415318
endloop
endfacet
facet normal -1.0 -1.0573025541953461e-13 -5.757441516404549e-16
outer loop
vertex 160.0918331332757 361.60469290526623 -2.963883004990843
vertex 160.09183313327577 360.7987709324 13.472531715415318
vertex 160.09183313327583 361.0821919800243 13.037485999380374
endloop
endfacet
facet normal -1.0 -1.0573025541953461e-13 -5.757441516404549e-16
outer loop
vertex 160.0918331332757 361.60469290526623 -2.963883004990843
vertex 160.09183313327583 361.0821919800243 13.037485999380374
vertex 160.0918331332757 361.30782308205966 12.568219728840775
endloop
endfacet
facet normal -1.0 -1.0573025541953461e-13 -5.757441516404549e-16
outer loop
vertex 160.0918331332757 361.60469290526623 -2.963883004990843
vertex 160.0918331332757 361.30782308205966 12.568219728840775
vertex 160.0918331332757 361.47180362779335 12.072762179790498
endloop
endfacet
facet normal -1.0 -1.0573025541953461e-13 -5.757441516404549e-16
outer loop
vertex 160.0918331332757 361.60469290526623 -2.963883004990843
vertex 160.0918331332757 361.47180362779335 12.072762179790498
vertex 160.09183313327568 361.571327864624 11.559590768260644
endloop
endfacet
facet normal -1.0 -1.0573025541953461e-13 -5.757441516404549e-16
outer loop
vertex 160.0918331332757 361.60469290526623 -2.963883004990843
vertex 160.09183313327568 361.571327864624 11.559590768260644
vertex 160.0918331332757 361.6046929052662 11.037485999380372
endloop
endfacet
facet normal -1.0 1.0973475148648753e-14 4.0048258399422077e-16
outer loop
vertex 25.09306178552575 360.6296929052638 13.67027175575012
vertex 25.093061785525762 361.6046929052662 -2.9831214580645913
vertex 25.093061785525762 360.62969290526365 -2.9831214580646366
endloop
endfacet
facet normal -1.0 1.0973475148648753e-14 4.0048258399422077e-16
outer loop
vertex 25.093061785525762 361.6046929052662 -2.9831214580645913
vertex 25.09306178552575 360.6296929052638 13.67027175575012
vertex 25.093061785525762 360.7987709324001 13.472531715415244
endloop
endfacet
facet normal -1.0 1.0973475148648753e-14 4.0048258399422077e-16
outer loop
vertex 25.093061785525762 361.6046929052662 -2.9831214580645913
vertex 25.093061785525762 360.7987709324001 13.472531715415244
vertex 25.093061785525784 361.0821919800243 13.037485999380493
endloop
endfacet
facet normal -1.0 1.0973475148648753e-14 4.0048258399422077e-16
outer loop
vertex 25.093061785525762 361.6046929052662 -2.9831214580645913
vertex 25.093061785525784 361.0821919800243 13.037485999380493
vertex 25.093061785525762 361.30782308205954 12.56821972884082
endloop
endfacet
facet normal -1.0 1.0973475148648753e-14 4.0048258399422077e-16
outer loop
vertex 25.093061785525762 361.6046929052662 -2.9831214580645913
vertex 25.093061785525762 361.30782308205954 12.56821972884082
vertex 25.09306178552581 361.4718036277933 12.072762179790587
endloop
endfacet
facet normal -1.0 1.0973475148648753e-14 4.0048258399422077e-16
outer loop
vertex 25.093061785525762 361.6046929052662 -2.9831214580645913
vertex 25.09306178552581 361.4718036277933 12.072762179790587
vertex 25.093061785525762 361.571327864624 11.55959076826069
endloop
endfacet
facet normal -1.0 1.0973475148648753e-14 4.0048258399422077e-16
outer loop
vertex 25.093061785525762 361.6046929052662 -2.9831214580645913
vertex 25.093061785525762 361.571327864624 11.55959076826069
vertex 25.093061785525762 361.6046929052662 11.037485999380406
endloop
endfacet
facet normal -0.9999999986860033 -9.978617813354051e-06 -5.028340225690628e-05
outer loop
vertex 16.993061785525754 353.83805794588824 11.5595907682606
vertex 16.994167133275763 353.8046929052461 -2.962514000619545
vertex 16.99306178552572 353.80469290524593 11.037485999380412
endloop
endfacet
facet normal -0.9999999986860033 -9.978617813354051e-06 -5.028340225690628e-05
outer loop
vertex 16.994167133275763 353.8046929052461 -2.962514000619545
vertex 16.993061785525754 353.83805794588824 11.5595907682606
vertex 16.994167133275763 361.604692905266 -2.9847277874861153
endloop
endfacet
facet normal -0.9999999986860033 -9.978617813354051e-06 -5.028340225690628e-05
outer loop
vertex 16.994167133275763 361.604692905266 -2.9847277874861153
vertex 16.993061785525754 353.83805794588824 11.5595907682606
vertex 16.99306178552579 353.937582182719 12.072762179790514
endloop
endfacet
facet normal -0.9999999986860033 -9.978617813354051e-06 -5.028340225690628e-05
outer loop
vertex 16.994167133275763 361.604692905266 -2.9847277874861153
vertex 16.99306178552579 353.937582182719 12.072762179790514
vertex 16.9930617855258 354.1015627284528 12.56821972884078
endloop
endfacet
facet normal -0.9999999986860033 -9.978617813354051e-06 -5.028340225690628e-05
outer loop
vertex 16.994167133275763 361.604692905266 -2.9847277874861153
vertex 16.9930617855258 354.1015627284528 12.56821972884078
vertex 16.993061785525754 354.327193830488 13.037485999380403
endloop
endfacet
facet normal -0.9999999986860033 -9.978617813354051e-06 -5.028340225690628e-05
outer loop
vertex 16.994167133275763 361.604692905266 -2.9847277874861153
vertex 16.993061785525754 354.327193830488 13.037485999380403
vertex 16.993061785525754 354.61061487811224 13.4725317154153
endloop
endfacet
facet normal -0.9999999986860033 -9.978617813354051e-06 -5.028340225690628e-05
outer loop
vertex 16.994167133275763 361.604692905266 -2.9847277874861153
vertex 16.993061785525754 354.61061487811224 13.4725317154153
vertex 16.99306178552578 354.9469764586214 13.865913124126598
endloop
endfacet
facet normal -0.9999999986860033 -9.978617813354051e-06 -5.028340225690628e-05
outer loop
vertex 16.994167133275763 361.604692905266 -2.9847277874861153
vertex 16.99306178552578 354.9469764586214 13.865913124126598
vertex 16.99306178552578 355.3305233321159 14.210899360545344
endloop
endfacet
facet normal -0.9999999986860033 -9.978617813354051e-06 -5.028340225690628e-05
outer loop
vertex 16.994167133275763 361.604692905266 -2.9847277874861153
vertex 16.99306178552578 355.3305233321159 14.210899360545344
vertex 16.993061785525754 355.754692905251 14.501587614518169
endloop
endfacet
facet normal -0.9999999986860033 -9.978617813354051e-06 -5.028340225690628e-05
outer loop
vertex 16.994167133275763 361.604692905266 -2.9847277874861153
vertex 16.993061785525754 355.754692905251 14.501587614518169
vertex 16.99306178552578 356.21222751902843 14.733004129425538
endloop
endfacet
facet normal -0.9999999986860033 -9.978617813354051e-06 -5.028340225690628e-05
outer loop
vertex 16.994167133275763 361.604692905266 -2.9847277874861153
vertex 16.99306178552578 356.21222751902843 14.733004129425538
vertex 16.993061785525754 356.6952986293536 14.9011893045367
endloop
endfacet
facet normal -0.9999999986860033 -9.978617813354051e-06 -5.028340225690628e-05
outer loop
vertex 16.994167133275763 361.604692905266 -2.9847277874861153
vertex 16.993061785525754 356.6952986293536 14.9011893045367
vertex 16.993061785525764 357.1956407555966 15.003265444875654
endloop
endfacet
facet normal -0.9999999986860033 -9.978617813354051e-06 -5.028340225690628e-05
outer loop
vertex 16.994167133275763 361.604692905266 -2.9847277874861153
vertex 16.993061785525764 357.1956407555966 15.003265444875654
vertex 16.993061785525754 358.2137450549157 15.003265444875654
endloop
endfacet
facet normal -0.9999999986860033 -9.978617813354051e-06 -5.028340225690628e-05
outer loop
vertex 16.994167133275763 361.604692905266 -2.9847277874861153
vertex 16.993061785525754 358.2137450549157 15.003265444875654
vertex 16.993061785525743 358.7140871811586 14.901189304536667
endloop
endfacet
facet normal -0.9999999986860033 -9.978617813354051e-06 -5.028340225690628e-05
outer loop
vertex 16.994167133275763 361.604692905266 -2.9847277874861153
vertex 16.993061785525743 358.7140871811586 14.901189304536667
vertex 16.99306178552578 359.19715829148385 14.733004129425549
endloop
endfacet
facet normal -0.9999999986860033 -9.978617813354051e-06 -5.028340225690628e-05
outer loop
vertex 16.994167133275763 361.604692905266 -2.9847277874861153
vertex 16.99306178552578 359.19715829148385 14.733004129425549
vertex 16.993061785525764 359.65469290526124 14.501587614518158
endloop
endfacet
facet normal -0.9999999986860033 -9.978617813354051e-06 -5.028340225690628e-05
outer loop
vertex 16.994167133275763 361.604692905266 -2.9847277874861153
vertex 16.993061785525764 359.65469290526124 14.501587614518158
vertex 16.99306178552578 360.0788624783964 14.210899360545373
endloop
endfacet
facet normal -0.9999999986860033 -9.978617813354051e-06 -5.028340225690628e-05
outer loop
vertex 16.994167133275763 361.604692905266 -2.9847277874861153
vertex 16.99306178552578 360.0788624783964 14.210899360545373
vertex 16.993061785525754 360.46240935189087 13.86591312412657
endloop
endfacet
facet normal -0.9999999986860033 -9.978617813354051e-06 -5.028340225690628e-05
outer loop
vertex 16.994167133275763 361.604692905266 -2.9847277874861153
vertex 16.993061785525754 360.46240935189087 13.86591312412657
vertex 16.99306178552581 360.7987709324 13.4725317154153
endloop
endfacet
facet normal -0.9999999986860033 -9.978617813354051e-06 -5.028340225690628e-05
outer loop
vertex 16.994167133275763 361.604692905266 -2.9847277874861153
vertex 16.99306178552581 360.7987709324 13.4725317154153
vertex 16.993061785525754 361.0821919800243 13.037485999380358
endloop
endfacet
facet normal -0.9999999986860033 -9.978617813354051e-06 -5.028340225690628e-05
outer loop
vertex 16.994167133275763 361.604692905266 -2.9847277874861153
vertex 16.993061785525754 361.0821919800243 13.037485999380358
vertex 16.99306178552578 361.30782308205943 12.568219728840793
endloop
endfacet
facet normal -0.9999999986860033 -9.978617813354051e-06 -5.028340225690628e-05
outer loop
vertex 16.994167133275763 361.604692905266 -2.9847277874861153
vertex 16.99306178552578 361.30782308205943 12.568219728840793
vertex 16.993061785525764 361.47180362779335 12.072762179790514
endloop
endfacet
facet normal -0.9999999986860033 -9.978617813354051e-06 -5.028340225690628e-05
outer loop
vertex 16.994167133275763 361.604692905266 -2.9847277874861153
vertex 16.993061785525764 361.47180362779335 12.072762179790514
vertex 16.99306178552578 361.571327864624 11.559590768260634
endloop
endfacet
facet normal -0.9999999986860033 -9.978617813354051e-06 -5.028340225690628e-05
outer loop
vertex 16.994167133275763 361.604692905266 -2.9847277874861153
vertex 16.99306178552578 361.571327864624 11.559590768260634
vertex 16.99306178552579 361.6046929052662 11.0374859993804
endloop
endfacet
facet normal 1.0 -1.537324866616951e-14 -1.2701098204236689e-16
outer loop
vertex 23.893061785525763 353.8046929052461 -2.962514000619545
vertex 23.893061785525777 353.8380579458883 11.559590768260652
vertex 23.893061785525763 353.80469290524604 11.037485999380388
endloop
endfacet
facet normal 1.0 -1.537324866616951e-14 -1.2701098204236689e-16
outer loop
vertex 23.893061785525777 353.8380579458883 11.559590768260652
vertex 23.893061785525763 353.8046929052461 -2.962514000619545
vertex 23.8930617855258 354.7796929052487 -2.962514000619559
endloop
endfacet
facet normal 1.0 -1.537324866616951e-14 -1.2701098204236689e-16
outer loop
vertex 23.893061785525777 353.8380579458883 11.559590768260652
vertex 23.8930617855258 354.7796929052487 -2.962514000619559
vertex 23.8930617855258 353.937582182719 12.072762179790503
endloop
endfacet
facet normal 1.0 -1.537324866616951e-14 -1.2701098204236689e-16
outer loop
vertex 23.8930617855258 353.937582182719 12.072762179790503
vertex 23.8930617855258 354.7796929052487 -2.962514000619559
vertex 23.893061785525777 354.10156272845273 12.568219728840765
endloop
endfacet
facet normal 1.0 -1.537324866616951e-14 -1.2701098204236689e-16
outer loop
vertex 23.893061785525777 354.10156272845273 12.568219728840765
vertex 23.8930617855258 354.7796929052487 -2.962514000619559
vertex 23.89306178552581 354.32719383048806 13.037485999380452
endloop
endfacet
facet normal 1.0 -1.537324866616951e-14 -1.2701098204236689e-16
outer loop
vertex 23.89306178552581 354.32719383048806 13.037485999380452
vertex 23.8930617855258 354.7796929052487 -2.962514000619559
vertex 23.893061785525763 354.61061487811224 13.4725317154153
endloop
endfacet
facet normal 1.0 -1.537324866616951e-14 -1.2701098204236689e-16
outer loop
vertex 23.893061785525763 354.61061487811224 13.4725317154153
vertex 23.8930617855258 354.7796929052487 -2.962514000619559
vertex 23.893061785525788 354.7796929052486 13.670271755750216
endloop
endfacet
facet normal -1.0 -7.515232253120865e-14 4.0781247987894875e-17
outer loop
vertex 160.09183313327577 353.83805794588824 11.559590768260623
vertex 160.09183313327583 353.80469290524604 -2.9412440006196263
vertex 160.09183313327583 353.80469290524604 11.037485999380396
endloop
endfacet
facet normal -1.0 -7.515232253120865e-14 4.0781247987894875e-17
outer loop
vertex 160.09183313327583 353.80469290524604 -2.9412440006196263
vertex 160.09183313327577 353.83805794588824 11.559590768260623
vertex 160.0918331332757 354.7796929052486 -2.941244000619666
endloop
endfacet
facet normal -1.0 -7.515232253120865e-14 4.0781247987894875e-17
outer loop
vertex 160.0918331332757 354.7796929052486 -2.941244000619666
vertex 160.09183313327577 353.83805794588824 11.559590768260623
vertex 160.09183313327583 353.937582182719 12.072762179790498
endloop
endfacet
facet normal -1.0 -7.515232253120865e-14 4.0781247987894875e-17
outer loop
vertex 160.0918331332757 354.7796929052486 -2.941244000619666
vertex 160.09183313327583 353.937582182719 12.072762179790498
vertex 160.0918331332757 354.1015627284528 12.568219728840758
endloop
endfacet
facet normal -1.0 -7.515232253120865e-14 4.0781247987894875e-17
outer loop
vertex 160.0918331332757 354.7796929052486 -2.941244000619666
vertex 160.0918331332757 354.1015627284528 12.568219728840758
vertex 160.09183313327586 354.327193830488 13.03748599938038
endloop
endfacet
facet normal -1.0 -7.515232253120865e-14 4.0781247987894875e-17
outer loop
vertex 160.0918331332757 354.7796929052486 -2.941244000619666
vertex 160.09183313327586 354.327193830488 13.03748599938038
vertex 160.0918331332757 354.61061487811236 13.472531715415323
endloop
endfacet
facet normal -1.0 -7.515232253120865e-14 4.0781247987894875e-17
outer loop
vertex 160.0918331332757 354.7796929052486 -2.941244000619666
vertex 160.0918331332757 354.61061487811236 13.472531715415323
vertex 160.0918331332757 354.7796929052486 13.670271755750143
endloop
endfacet
facet normal 1.0 -1.7450109508373907e-14 5.063092100347935e-16
outer loop
vertex 158.8894991332758 354.7796929052486 -2.9412440006196547
vertex 158.88949913327576 353.8046929052461 11.037485999380406
vertex 158.88949913327576 353.8046929052461 -2.941244000619629
endloop
endfacet
facet normal 1.0 -1.7450109508373907e-14 5.063092100347935e-16
outer loop
vertex 158.88949913327576 353.8046929052461 11.037485999380406
vertex 158.8894991332758 354.7796929052486 -2.9412440006196547
vertex 158.8894991332757 353.8380579458883 11.55959076826061
endloop
endfacet
facet normal 1.0 -1.7450109508373907e-14 5.063092100347935e-16
outer loop
vertex 158.8894991332757 353.8380579458883 11.55959076826061
vertex 158.8894991332758 354.7796929052486 -2.9412440006196547
vertex 158.8894991332758 353.937582182719 12.072762179790498
endloop
endfacet
facet normal 1.0 -1.7450109508373907e-14 5.063092100347935e-16
outer loop
vertex 158.8894991332758 353.937582182719 12.072762179790498
vertex 158.8894991332758 354.7796929052486 -2.9412440006196547
vertex 158.8894991332758 354.1015627284528 12.56821972884078
endloop
endfacet
facet normal 1.0 -1.7450109508373907e-14 5.063092100347935e-16
outer loop
vertex 158.8894991332758 354.1015627284528 12.56821972884078
vertex 158.8894991332758 354.7796929052486 -2.9412440006196547
vertex 158.88949913327585 354.327193830488 13.03748599938038
endloop
endfacet
facet normal 1.0 -1.7450109508373907e-14 5.063092100347935e-16
outer loop
vertex 158.88949913327585 354.327193830488 13.03748599938038
vertex 158.8894991332758 354.7796929052486 -2.9412440006196547
vertex 158.88949913327565 354.6106148781124 13.472531715415318
endloop
endfacet
facet normal 1.0 -1.7450109508373907e-14 5.063092100347935e-16
outer loop
vertex 158.88949913327565 354.6106148781124 13.472531715415318
vertex 158.8894991332758 354.7796929052486 -2.9412440006196547
vertex 158.8894991332758 354.7796929052486 13.670271755750166
endloop
endfacet
facet normal 0.0 1.0 0.0
outer loop
vertex 25.093061785525762 361.6046929052662 11.037485999380406
vertex 158.88949913327576 361.6046929052662 -2.963883004990863
vertex 25.093061785525762 361.6046929052662 -2.9831214580645913
endloop
endfacet
facet normal 0.0 1.0 0.0
outer loop
vertex 158.88949913327576 361.6046929052662 -2.963883004990863
vertex 25.093061785525762 361.6046929052662 11.037485999380406
vertex 158.88949913327576 361.6046929052662 11.037485999380396
endloop
endfacet
facet normal -1.20950347163841e-14 1.0 -9.170997433725418e-15
outer loop
vertex 16.99306178552579 361.6046929052662 11.0374859993804
vertex 23.893061785525763 361.6046929052662 -2.9831214580645913
vertex 16.994167133275763 361.604692905266 -2.9847277874861153
endloop
endfacet
facet normal -1.20950347163841e-14 1.0 -9.170997433725418e-15
outer loop
vertex 23.893061785525763 361.6046929052662 -2.9831214580645913
vertex 16.99306178552579 361.6046929052662 11.0374859993804
vertex 23.893061785525763 361.6046929052662 11.037485999380406
endloop
endfacet
endsolid spool_stand_3.1
