solid spool_stand_3.1
facet normal -1.0 2.6905237609034645e-14 -6.069178992530304e-16
outer loop
vertex 25.09195643777572 171.00280901736429 11.5373769813941
vertex 25.091956437775732 170.97030145826676 -2.9847277874860967
vertex 25.091956437775732 170.9703014582667 11.015272212513839
endloop
endfacet
facet normal -1.0 2.6905237609034645e-14 -6.069178992530304e-16
outer loop
vertex 25.091956437775732 170.97030145826676 -2.9847277874860967
vertex 25.09195643777572 171.00280901736429 11.5373769813941
vertex 25.091956437775764 171.92024395826655 -2.984727787486105
endloop
endfacet
facet normal -1.0 2.6905237609034645e-14 -6.069178992530304e-16
outer loop
vertex 25.091956437775764 171.92024395826655 -2.984727787486105
vertex 25.09195643777572 171.00280901736429 11.5373769813941
vertex 25.091956437775742 171.0997754813084 12.050548392923963
endloop
endfacet
facet normal -1.0 2.6905237609034645e-14 -6.069178992530304e-16
outer loop
vertex 25.091956437775764 171.92024395826655 -2.984727787486105
vertex 25.091956437775742 171.0997754813084 12.050548392923963
vertex 25.091956437775732 171.25954172701628 12.546005941974213
endloop
endfacet
facet normal -1.0 2.6905237609034645e-14 -6.069178992530304e-16
outer loop
vertex 25.091956437775764 171.92024395826655 -2.984727787486105
vertex 25.091956437775732 171.25954172701628 12.546005941974213
vertex 25.091956437775764 171.47937410972875 13.01527221251388
endloop
endfacet
facet normal -1.0 2.6905237609034645e-14 -6.069178992530304e-16
outer loop
vertex 25.091956437775764 171.92024395826655 -2.984727787486105
vertex 25.091956437775764 171.47937410972875 13.01527221251388
vertex 25.09195643777572 171.75551123642808 13.450317928548756
endloop
endfacet
facet normal -1.0 2.6905237609034645e-14 -6.069178992530304e-16
outer loop
vertex 25.091956437775764 171.92024395826655 -2.984727787486105
vertex 25.09195643777572 171.75551123642808 13.450317928548756
vertex 25.091956437775753 171.92024395826655 13.64805796888366
endloop
endfacet
facet normal -3.6143085807674383e-16 0.9826121960031151 0.18566979362819266
outer loop
vertex 25.09195643777572 178.53733389916906 11.53737698139414
vertex 138.88839378552558 178.44036743522514 12.050548392923947
vertex 138.88839378552572 178.53733389916908 11.537376981394106
endloop
endfacet
facet normal -3.6143085807674383e-16 0.9826121960031151 0.18566979362819266
outer loop
vertex 138.88839378552558 178.44036743522514 12.050548392923947
vertex 25.09195643777572 178.53733389916906 11.53737698139414
vertex 25.091956437775764 178.44036743522506 12.050548392924037
endloop
endfacet
facet normal 1.573217335947384e-20 0.9980673066726093 0.062142186566646176
outer loop
vertex 140.09072778552564 178.53733389916908 11.537376981394095
vertex 146.99306178552567 178.5698414582666 11.015272212513821
vertex 140.0907277855257 178.5698414582666 11.015272212513821
endloop
endfacet
facet normal 1.573217335947384e-20 0.9980673066726093 0.062142186566646176
outer loop
vertex 146.99306178552567 178.5698414582666 11.015272212513821
vertex 140.09072778552564 178.53733389916908 11.537376981394095
vertex 146.99306178552567 178.53733389916908 11.537376981394095
endloop
endfacet
facet normal 4.903869651342243e-16 -0.8442851471216283 0.535894196973442
outer loop
vertex 138.88839378552564 171.75551123642833 13.450317928548767
vertex 25.091956437775764 171.47937410972875 13.01527221251388
vertex 138.8883937855258 171.47937410972875 13.015272212513828
endloop
endfacet
facet normal 4.903869651342243e-16 -0.8442851471216283 0.535894196973442
outer loop
vertex 25.091956437775764 171.47937410972875 13.01527221251388
vertex 138.88839378552564 171.75551123642833 13.450317928548767
vertex 25.09195643777572 171.75551123642808 13.450317928548756
endloop
endfacet
facet normal 3.3684941530171e-14 1.0 -1.7665354595797213e-15
outer loop
vertex 23.891956437775747 177.61989895826673 -3.0053352449311825
vertex 25.09195643777571 177.61989895826673 13.648057968883569
vertex 25.09195643777572 177.61989895826667 -3.005335244931188
endloop
endfacet
facet normal 3.3684941530171e-14 1.0 -1.7665354595797213e-15
outer loop
vertex 25.09195643777571 177.61989895826673 13.648057968883569
vertex 23.891956437775747 177.61989895826673 -3.0053352449311825
vertex 23.891956437775747 177.61989895826676 13.648057968883558
endloop
endfacet
facet normal -3.5717413471303134e-14 -1.0 1.3183100444624782e-17
outer loop
vertex 25.091956437775764 171.92024395826655 -2.984727787486105
vertex 23.891956437775747 171.92024395826678 13.648057968883665
vertex 23.891956437775757 171.92024395826678 -2.9847277874861105
endloop
endfacet
facet normal -3.5717413471303134e-14 -1.0 1.3183100444624782e-17
outer loop
vertex 23.891956437775747 171.92024395826678 13.648057968883665
vertex 25.091956437775764 171.92024395826655 -2.984727787486105
vertex 25.091956437775753 171.92024395826655 13.64805796888366
endloop
endfacet
facet normal 9.050175990891587e-17 -0.3365026247635882 0.9416825279929621
outer loop
vertex 16.991956437775734 173.3159624324688 14.710790342558987
vertex 146.99306178552564 173.78661861525742 14.878975517670138
vertex 16.991956437775713 173.78661861525742 14.878975517670149
endloop
endfacet
facet normal 9.050175990891587e-17 -0.3365026247635882 0.9416825279929621
outer loop
vertex 146.99306178552564 173.78661861525742 14.878975517670138
vertex 16.991956437775734 173.3159624324688 14.710790342558987
vertex 146.99306178552573 173.31596243246887 14.710790342559005
endloop
endfacet
facet normal 3.820798300435099e-16 -0.9980673066726089 0.062142186566651006
outer loop
vertex 138.88839378552572 170.97030145826676 11.015272212513855
vertex 25.09195643777572 171.00280901736429 11.5373769813941
vertex 25.091956437775732 170.9703014582667 11.015272212513839
endloop
endfacet
facet normal 3.820798300435099e-16 -0.9980673066726089 0.062142186566651006
outer loop
vertex 25.09195643777572 171.00280901736429 11.5373769813941
vertex 138.88839378552572 170.97030145826676 11.015272212513855
vertex 138.88839378552566 171.00280901736429 11.537376981394061
endloop
endfacet
facet normal 1.8954913768303525e-17 -0.9055599042120606 0.42421841058992693
outer loop
vertex 23.891956437775768 171.4793741097288 13.015272212513903
vertex 16.99195643777576 171.25954172701634 12.54600594197423
vertex 23.891956437775733 171.25954172701628 12.546005941974213
endloop
endfacet
facet normal 1.8954913768303525e-17 -0.9055599042120606 0.42421841058992693
outer loop
vertex 16.99195643777576 171.25954172701634 12.54600594197423
vertex 23.891956437775768 171.4793741097288 13.015272212513903
vertex 16.991956437775713 171.47937410972872 13.015272212513851
endloop
endfacet
facet normal 2.1691865426870035e-17 2.8428829081563284e-15 1.0
outer loop
vertex 16.991956437775723 174.27410194885474 14.981051658009102
vertex 146.99306178552573 175.26604096767852 14.981051658009097
vertex 16.991956437775713 175.26604096767852 14.981051658009102
endloop
endfacet
facet normal 2.1691865426870035e-17 2.8428829081563284e-15 1.0
outer loop
vertex 146.99306178552573 175.26604096767852 14.981051658009097
vertex 16.991956437775723 174.27410194885474 14.981051658009102
vertex 146.99306178552564 174.2741019488548 14.981051658009102
endloop
endfacet
facet normal -7.651685073745315e-15 0.8442851471215763 0.535894196973524
outer loop
vertex 16.99195643777577 177.78463168010492 13.450317928548749
vertex 23.891956437775757 178.06076880680456 13.015272212513931
vertex 16.991956437775713 178.06076880680456 13.015272212513807
endloop
endfacet
facet normal -7.651685073745315e-15 0.8442851471215763 0.535894196973524
outer loop
vertex 23.891956437775757 178.06076880680456 13.015272212513931
vertex 16.99195643777577 177.78463168010492 13.450317928548749
vertex 23.891956437775768 177.78463168010518 13.45031792854871
endloop
endfacet
facet normal 1.552330000519014e-15 1.0 7.653731421547166e-16
outer loop
vertex 140.0907277855257 178.5698414582666 11.015272212513821
vertex 146.99306178552567 178.5698414582666 -2.984727787486105
vertex 140.0907277855257 178.5698414582666 -2.9860967918573946
endloop
endfacet
facet normal 1.552330000519014e-15 1.0 7.653731421547166e-16
outer loop
vertex 146.99306178552567 178.5698414582666 -2.984727787486105
vertex 140.0907277855257 178.5698414582666 11.015272212513821
vertex 146.99306178552567 178.5698414582666 11.015272212513821
endloop
endfacet
facet normal 1.0166978631050295e-16 -0.9980673066726139 0.062142186566571396
outer loop
vertex 146.99306178552573 171.00280901736429 11.537376981394049
vertex 140.0907277855258 170.97030145826673 11.015272212513844
vertex 146.99306178552575 170.97030145826673 11.015272212513844
endloop
endfacet
facet normal 1.0166978631050295e-16 -0.9980673066726139 0.062142186566571396
outer loop
vertex 140.0907277855258 170.97030145826673 11.015272212513844
vertex 146.99306178552573 171.00280901736429 11.537376981394049
vertex 140.09072778552573 171.00280901736429 11.537376981394072
endloop
endfacet
facet normal 1.0 5.837001113342492e-15 -1.2029033761199345e-15
outer loop
vertex 146.99306178552573 170.97030145826676 -2.9847277874860967
vertex 146.99306178552573 171.00280901736429 11.537376981394049
vertex 146.99306178552575 170.97030145826673 11.015272212513844
endloop
endfacet
facet normal 1.0 5.837001113342492e-15 -1.2029033761199345e-15
outer loop
vertex 146.99306178552573 171.00280901736429 11.537376981394049
vertex 146.99306178552573 170.97030145826676 -2.9847277874860967
vertex 146.99306178552567 178.5698414582666 -2.984727787486105
endloop
endfacet
facet normal 1.0 5.837001113342492e-15 -1.2029033761199345e-15
outer loop
vertex 146.99306178552573 171.00280901736429 11.537376981394049
vertex 146.99306178552567 178.5698414582666 -2.984727787486105
vertex 146.99306178552575 171.09977548130814 12.050548392923947
endloop
endfacet
facet normal 1.0 5.837001113342492e-15 -1.2029033761199345e-15
outer loop
vertex 146.99306178552575 171.09977548130814 12.050548392923947
vertex 146.99306178552567 178.5698414582666 -2.984727787486105
vertex 146.99306178552575 171.25954172701634 12.546005941974208
endloop
endfacet
facet normal 1.0 5.837001113342492e-15 -1.2029033761199345e-15
outer loop
vertex 146.99306178552575 171.25954172701634 12.546005941974208
vertex 146.99306178552567 178.5698414582666 -2.984727787486105
vertex 146.99306178552567 171.47937410972878 13.015272212513828
endloop
endfacet
facet normal 1.0 5.837001113342492e-15 -1.2029033761199345e-15
outer loop
vertex 146.99306178552567 171.47937410972878 13.015272212513828
vertex 146.99306178552567 178.5698414582666 -2.984727787486105
vertex 146.99306178552575 171.7555112364283 13.450317928548772
endloop
endfacet
facet normal 1.0 5.837001113342492e-15 -1.2029033761199345e-15
outer loop
vertex 146.99306178552575 171.7555112364283 13.450317928548772
vertex 146.99306178552567 178.5698414582666 -2.984727787486105
vertex 146.9930617855258 172.08322832431753 13.843699337260041
endloop
endfacet
facet normal 1.0 5.837001113342492e-15 -1.2029033761199345e-15
outer loop
vertex 146.9930617855258 172.08322832431753 13.843699337260041
vertex 146.99306178552567 178.5698414582666 -2.984727787486105
vertex 146.9930617855258 172.45691804316223 14.188685573678793
endloop
endfacet
facet normal 1.0 5.837001113342492e-15 -1.2029033761199345e-15
outer loop
vertex 146.9930617855258 172.45691804316223 14.188685573678793
vertex 146.99306178552567 178.5698414582666 -2.984727787486105
vertex 146.99306178552575 172.87018645826666 14.479373827651612
endloop
endfacet
facet normal 1.0 5.837001113342492e-15 -1.2029033761199345e-15
outer loop
vertex 146.99306178552575 172.87018645826666 14.479373827651612
vertex 146.99306178552567 178.5698414582666 -2.984727787486105
vertex 146.99306178552573 173.31596243246887 14.710790342559005
endloop
endfacet
facet normal 1.0 5.837001113342492e-15 -1.2029033761199345e-15
outer loop
vertex 146.99306178552573 173.31596243246887 14.710790342559005
vertex 146.99306178552567 178.5698414582666 -2.984727787486105
vertex 146.99306178552564 173.78661861525742 14.878975517670138
endloop
endfacet
facet normal 1.0 5.837001113342492e-15 -1.2029033761199345e-15
outer loop
vertex 146.99306178552564 173.78661861525742 14.878975517670138
vertex 146.99306178552567 178.5698414582666 -2.984727787486105
vertex 146.99306178552564 174.2741019488548 14.981051658009102
endloop
endfacet
facet normal 1.0 5.837001113342492e-15 -1.2029033761199345e-15
outer loop
vertex 146.99306178552564 174.2741019488548 14.981051658009102
vertex 146.99306178552567 178.5698414582666 -2.984727787486105
vertex 146.99306178552573 175.26604096767852 14.981051658009097
endloop
endfacet
facet normal 1.0 5.837001113342492e-15 -1.2029033761199345e-15
outer loop
vertex 146.99306178552573 175.26604096767852 14.981051658009097
vertex 146.99306178552567 178.5698414582666 -2.984727787486105
vertex 146.99306178552575 175.75352430127592 14.878975517670126
endloop
endfacet
facet normal 1.0 5.837001113342492e-15 -1.2029033761199345e-15
outer loop
vertex 146.99306178552575 175.75352430127592 14.878975517670126
vertex 146.99306178552567 178.5698414582666 -2.984727787486105
vertex 146.99306178552575 176.22418048406456 14.710790342558987
endloop
endfacet
facet normal 1.0 5.837001113342492e-15 -1.2029033761199345e-15
outer loop
vertex 146.99306178552575 176.22418048406456 14.710790342558987
vertex 146.99306178552567 178.5698414582666 -2.984727787486105
vertex 146.99306178552567 176.6699564582667 14.479373827651589
endloop
endfacet
facet normal 1.0 5.837001113342492e-15 -1.2029033761199345e-15
outer loop
vertex 146.99306178552567 176.6699564582667 14.479373827651589
vertex 146.99306178552567 178.5698414582666 -2.984727787486105
vertex 146.99306178552567 177.08322487337108 14.18868557367881
endloop
endfacet
facet normal 1.0 5.837001113342492e-15 -1.2029033761199345e-15
outer loop
vertex 146.99306178552567 177.08322487337108 14.18868557367881
vertex 146.99306178552567 178.5698414582666 -2.984727787486105
vertex 146.99306178552567 177.45691459221575 13.84369933726003
endloop
endfacet
facet normal 1.0 5.837001113342492e-15 -1.2029033761199345e-15
outer loop
vertex 146.99306178552567 177.45691459221575 13.84369933726003
vertex 146.99306178552567 178.5698414582666 -2.984727787486105
vertex 146.99306178552567 177.78463168010512 13.450317928548756
endloop
endfacet
facet normal 1.0 5.837001113342492e-15 -1.2029033761199345e-15
outer loop
vertex 146.99306178552567 177.78463168010512 13.450317928548756
vertex 146.99306178552567 178.5698414582666 -2.984727787486105
vertex 146.99306178552575 178.06076880680456 13.015272212513823
endloop
endfacet
facet normal 1.0 5.837001113342492e-15 -1.2029033761199345e-15
outer loop
vertex 146.99306178552575 178.06076880680456 13.015272212513823
vertex 146.99306178552567 178.5698414582666 -2.984727787486105
vertex 146.99306178552575 178.28060118951714 12.546005941974224
endloop
endfacet
facet normal 1.0 5.837001113342492e-15 -1.2029033761199345e-15
outer loop
vertex 146.99306178552575 178.28060118951714 12.546005941974224
vertex 146.99306178552567 178.5698414582666 -2.984727787486105
vertex 146.99306178552575 178.44036743522514 12.050548392923947
endloop
endfacet
facet normal 1.0 5.837001113342492e-15 -1.2029033761199345e-15
outer loop
vertex 146.99306178552575 178.44036743522514 12.050548392923947
vertex 146.99306178552567 178.5698414582666 -2.984727787486105
vertex 146.99306178552567 178.53733389916908 11.537376981394095
endloop
endfacet
facet normal 1.0 5.837001113342492e-15 -1.2029033761199345e-15
outer loop
vertex 146.99306178552567 178.53733389916908 11.537376981394095
vertex 146.99306178552567 178.5698414582666 -2.984727787486105
vertex 146.99306178552567 178.5698414582666 11.015272212513821
endloop
endfacet
facet normal 3.036238978846849e-16 -0.98261219600312 0.18566979362816696
outer loop
vertex 146.99306178552575 171.09977548130814 12.050548392923947
vertex 140.09072778552573 171.00280901736429 11.537376981394072
vertex 146.99306178552573 171.00280901736429 11.537376981394049
endloop
endfacet
facet normal 3.036238978846849e-16 -0.98261219600312 0.18566979362816696
outer loop
vertex 140.09072778552573 171.00280901736429 11.537376981394072
vertex 146.99306178552575 171.09977548130814 12.050548392923947
vertex 140.0907277855258 171.09977548130814 12.050548392923947
endloop
endfacet
facet normal -7.652066211942849e-19 0.9826121960031251 0.18566979362813923
outer loop
vertex 140.0907277855257 178.44036743522514 12.050548392923947
vertex 146.99306178552567 178.53733389916908 11.537376981394095
vertex 140.09072778552564 178.53733389916908 11.537376981394095
endloop
endfacet
facet normal -7.652066211942849e-19 0.9826121960031251 0.18566979362813923
outer loop
vertex 146.99306178552567 178.53733389916908 11.537376981394095
vertex 140.0907277855257 178.44036743522514 12.050548392923947
vertex 146.99306178552575 178.44036743522514 12.050548392923947
endloop
endfacet
facet normal 1.3515031379597121e-18 0.9055599042120428 0.4242184105899644
outer loop
vertex 140.0907277855258 178.06076880680456 13.015272212513823
vertex 146.99306178552575 178.28060118951714 12.546005941974224
vertex 140.0907277855257 178.28060118951714 12.546005941974224
endloop
endfacet
facet normal 1.3515031379597121e-18 0.9055599042120428 0.4242184105899644
outer loop
vertex 146.99306178552575 178.28060118951714 12.546005941974224
vertex 140.0907277855258 178.06076880680456 13.015272212513823
vertex 146.99306178552575 178.06076880680456 13.015272212513823
endloop
endfacet
facet normal -2.7775316717462046e-17 0.3365026247635325 0.9416825279929821
outer loop
vertex 146.99306178552575 175.75352430127592 14.878975517670126
vertex 16.991956437775734 176.22418048406456 14.710790342559
vertex 16.991956437775702 175.7535243012759 14.878975517670115
endloop
endfacet
facet normal -2.7775316717462046e-17 0.3365026247635325 0.9416825279929821
outer loop
vertex 16.991956437775734 176.22418048406456 14.710790342559
vertex 146.99306178552575 175.75352430127592 14.878975517670126
vertex 146.99306178552575 176.22418048406456 14.710790342558987
endloop
endfacet
facet normal 4.446788745983407e-15 -0.9980673066726077 0.062142186566673446
outer loop
vertex 23.891956437775733 171.00280901736429 11.5373769813941
vertex 16.991956437775677 170.97030145826662 11.01527221251386
vertex 23.891956437775722 170.9703014582667 11.015272212513839
endloop
endfacet
facet normal 4.446788745983407e-15 -0.9980673066726077 0.062142186566673446
outer loop
vertex 16.991956437775677 170.97030145826662 11.01527221251386
vertex 23.891956437775733 171.00280901736429 11.5373769813941
vertex 16.991956437775713 171.00280901736429 11.537376981394049
endloop
endfacet
facet normal -2.9700396850731036e-17 -0.5753209700550205 0.8179277360592133
outer loop
vertex 16.991956437775734 172.45691804316223 14.188685573678793
vertex 146.99306178552575 172.87018645826666 14.479373827651612
vertex 16.991956437775713 172.87018645826666 14.479373827651617
endloop
endfacet
facet normal -2.9700396850731036e-17 -0.5753209700550205 0.8179277360592133
outer loop
vertex 146.99306178552575 172.87018645826666 14.479373827651612
vertex 16.991956437775734 172.45691804316223 14.188685573678793
vertex 146.9930617855258 172.45691804316223 14.188685573678793
endloop
endfacet
facet normal 5.2913316651675704e-20 -0.9055599042120663 0.4242184105899142
outer loop
vertex 146.99306178552567 171.47937410972878 13.015272212513828
vertex 140.0907277855257 171.25954172701634 12.546005941974208
vertex 146.99306178552575 171.25954172701634 12.546005941974208
endloop
endfacet
facet normal 5.2913316651675704e-20 -0.9055599042120663 0.4242184105899142
outer loop
vertex 140.0907277855257 171.25954172701634 12.546005941974208
vertex 146.99306178552567 171.47937410972878 13.015272212513828
vertex 140.09072778552581 171.47937410972878 13.015272212513828
endloop
endfacet
facet normal -2.6885543403440253e-16 -0.9517415971885178 0.306900524895363
outer loop
vertex 138.88839378552578 171.2595417270163 12.54600594197423
vertex 25.091956437775742 171.0997754813084 12.050548392923963
vertex 138.88839378552578 171.09977548130814 12.050548392923947
endloop
endfacet
facet normal -2.6885543403440253e-16 -0.9517415971885178 0.306900524895363
outer loop
vertex 25.091956437775742 171.0997754813084 12.050548392923963
vertex 138.88839378552578 171.2595417270163 12.54600594197423
vertex 25.091956437775732 171.25954172701628 12.546005941974213
endloop
endfacet
facet normal 1.5959686923477006e-17 -0.678324563660279 0.7347624012802316
outer loop
vertex 146.9930617855258 172.08322832431753 13.843699337260041
vertex 16.991956437775734 172.45691804316223 14.188685573678793
vertex 16.991956437775734 172.08322832431753 13.843699337260047
endloop
endfacet
facet normal 1.5959686923477006e-17 -0.678324563660279 0.7347624012802316
outer loop
vertex 16.991956437775734 172.45691804316223 14.188685573678793
vertex 146.9930617855258 172.08322832431753 13.843699337260041
vertex 146.9930617855258 172.45691804316223 14.188685573678793
endloop
endfacet
facet normal -5.261520300290053e-19 -0.4607461320801815 0.8875319722540433
outer loop
vertex 146.99306178552575 172.87018645826666 14.479373827651612
vertex 16.991956437775734 173.3159624324688 14.710790342558987
vertex 16.991956437775713 172.87018645826666 14.479373827651617
endloop
endfacet
facet normal -5.261520300290053e-19 -0.4607461320801815 0.8875319722540433
outer loop
vertex 16.991956437775734 173.3159624324688 14.710790342558987
vertex 146.99306178552575 172.87018645826666 14.479373827651612
vertex 146.99306178552573 173.31596243246887 14.710790342559005
endloop
endfacet
facet normal 2.336174308235451e-16 -0.9055599042120546 0.42421841058993964
outer loop
vertex 138.88839378552578 171.2595417270163 12.54600594197423
vertex 25.091956437775764 171.47937410972875 13.01527221251388
vertex 25.091956437775732 171.25954172701628 12.546005941974213
endloop
endfacet
facet normal 2.336174308235451e-16 -0.9055599042120546 0.42421841058993964
outer loop
vertex 25.091956437775764 171.47937410972875 13.01527221251388
vertex 138.88839378552578 171.2595417270163 12.54600594197423
vertex 138.8883937855258 171.47937410972875 13.015272212513828
endloop
endfacet
facet normal -7.190201077535593e-17 0.2049492220848279 0.9787726070782856
outer loop
vertex 16.991956437775713 175.26604096767852 14.981051658009102
vertex 146.99306178552575 175.75352430127592 14.878975517670126
vertex 16.991956437775702 175.7535243012759 14.878975517670115
endloop
endfacet
facet normal -7.190201077535593e-17 0.2049492220848279 0.9787726070782856
outer loop
vertex 146.99306178552575 175.75352430127592 14.878975517670126
vertex 16.991956437775713 175.26604096767852 14.981051658009102
vertex 146.99306178552573 175.26604096767852 14.981051658009097
endloop
endfacet
facet normal 3.8748488809887484e-15 0.9980673066726085 0.062142186566660484
outer loop
vertex 16.991956437775734 178.53733389916906 11.537376981394083
vertex 23.891956437775722 178.5698414582666 11.015272212513855
vertex 16.991956437775748 178.5698414582666 11.01527221251385
endloop
endfacet
facet normal 3.8748488809887484e-15 0.9980673066726085 0.062142186566660484
outer loop
vertex 23.891956437775722 178.5698414582666 11.015272212513855
vertex 16.991956437775734 178.53733389916906 11.537376981394083
vertex 23.891956437775733 178.53733389916906 11.537376981394095
endloop
endfacet
facet normal 6.41765183391385e-19 -0.8442851471216585 0.5358941969733946
outer loop
vertex 146.99306178552575 171.7555112364283 13.450317928548772
vertex 140.09072778552581 171.47937410972878 13.015272212513828
vertex 146.99306178552567 171.47937410972878 13.015272212513828
endloop
endfacet
facet normal 6.41765183391385e-19 -0.8442851471216585 0.5358941969733946
outer loop
vertex 140.09072778552581 171.47937410972878 13.015272212513828
vertex 146.99306178552575 171.7555112364283 13.450317928548772
vertex 140.0907277855257 171.7555112364283 13.450317928548772
endloop
endfacet
facet normal 1.5512248352506977e-15 -1.0 -7.665368496274342e-16
outer loop
vertex 146.99306178552575 170.97030145826673 11.015272212513844
vertex 140.0907277855258 170.97030145826673 -2.963457787486178
vertex 146.99306178552573 170.97030145826676 -2.9847277874860967
endloop
endfacet
facet normal 1.5512248352506977e-15 -1.0 -7.665368496274342e-16
outer loop
vertex 140.0907277855258 170.97030145826673 -2.963457787486178
vertex 146.99306178552575 170.97030145826673 11.015272212513844
vertex 140.0907277855258 170.97030145826673 11.015272212513844
endloop
endfacet
facet normal -1.6826037366543212e-16 0.9517415971885091 0.30690052489538955
outer loop
vertex 25.091956437775764 178.44036743522506 12.050548392924037
vertex 138.88839378552572 178.28060118951694 12.546005941974219
vertex 138.88839378552558 178.44036743522514 12.050548392923947
endloop
endfacet
facet normal -1.6826037366543212e-16 0.9517415971885091 0.30690052489538955
outer loop
vertex 138.88839378552572 178.28060118951694 12.546005941974219
vertex 25.091956437775764 178.44036743522506 12.050548392924037
vertex 25.09195643777572 178.28060118951694 12.54600594197427
endloop
endfacet
facet normal 1.6821055356013678e-15 0.9826121960031244 0.18566979362814345
outer loop
vertex 16.991956437775723 178.4403674352251 12.050548392923963
vertex 23.891956437775733 178.53733389916906 11.537376981394095
vertex 16.991956437775734 178.53733389916906 11.537376981394083
endloop
endfacet
facet normal 1.6821055356013678e-15 0.9826121960031244 0.18566979362814345
outer loop
vertex 23.891956437775733 178.53733389916906 11.537376981394095
vertex 16.991956437775723 178.4403674352251 12.050548392923963
vertex 23.891956437775733 178.44036743522506 12.050548392923975
endloop
endfacet
facet normal 3.1063596254174982e-15 -1.0 -1.4633241493533507e-15
outer loop
vertex 23.891956437775722 170.9703014582667 11.015272212513839
vertex 16.99306178552572 170.97030145826676 -2.9847277874860967
vertex 23.891956437775722 170.97030145826676 -2.9847277874860967
endloop
endfacet
facet normal 3.1063596254174982e-15 -1.0 -1.4633241493533507e-15
outer loop
vertex 16.99306178552572 170.97030145826676 -2.9847277874860967
vertex 23.891956437775722 170.9703014582667 11.015272212513839
vertex 16.991956437775677 170.97030145826662 11.01527221251386
endloop
endfacet
facet normal 1.2692178325945836e-16 -0.20494922208478147 0.9787726070782953
outer loop
vertex 146.99306178552564 173.78661861525742 14.878975517670138
vertex 16.991956437775723 174.27410194885474 14.981051658009102
vertex 16.991956437775713 173.78661861525742 14.878975517670149
endloop
endfacet
facet normal 1.2692178325945836e-16 -0.20494922208478147 0.9787726070782953
outer loop
vertex 16.991956437775723 174.27410194885474 14.981051658009102
vertex 146.99306178552564 173.78661861525742 14.878975517670138
vertex 146.99306178552564 174.2741019488548 14.981051658009102
endloop
endfacet
facet normal -7.916723595801553e-17 0.8442851471215985 0.5358941969734892
outer loop
vertex 25.091956437775742 178.06076880680456 13.015272212513942
vertex 138.88839378552572 177.78463168010515 13.450317928548762
vertex 138.88839378552566 178.06076880680456 13.015272212513807
endloop
endfacet
facet normal -7.916723595801553e-17 0.8442851471215985 0.5358941969734892
outer loop
vertex 138.88839378552572 177.78463168010515 13.450317928548762
vertex 25.091956437775742 178.06076880680456 13.015272212513942
vertex 25.09195643777572 177.78463168010515 13.450317928548694
endloop
endfacet
facet normal 9.108077501692369e-17 0.9055599042120611 0.42421841058992527
outer loop
vertex 25.09195643777572 178.28060118951694 12.54600594197427
vertex 138.88839378552566 178.06076880680456 13.015272212513807
vertex 138.88839378552572 178.28060118951694 12.546005941974219
endloop
endfacet
facet normal 9.108077501692369e-17 0.9055599042120611 0.42421841058992527
outer loop
vertex 138.88839378552566 178.06076880680456 13.015272212513807
vertex 25.09195643777572 178.28060118951694 12.54600594197427
vertex 25.091956437775742 178.06076880680456 13.015272212513942
endloop
endfacet
facet normal 1.0 2.6102774837023255e-14 -9.25414293704043e-16
outer loop
vertex 23.891956437775722 178.5698414582666 -3.005335244931143
vertex 23.891956437775747 177.61989895826676 13.648057968883558
vertex 23.891956437775747 177.61989895826673 -3.0053352449311825
endloop
endfacet
facet normal 1.0 2.6102774837023255e-14 -9.25414293704043e-16
outer loop
vertex 23.891956437775747 177.61989895826676 13.648057968883558
vertex 23.891956437775722 178.5698414582666 -3.005335244931143
vertex 23.891956437775768 177.78463168010518 13.45031792854871
endloop
endfacet
facet normal 1.0 2.6102774837023255e-14 -9.25414293704043e-16
outer loop
vertex 23.891956437775768 177.78463168010518 13.45031792854871
vertex 23.891956437775722 178.5698414582666 -3.005335244931143
vertex 23.891956437775757 178.06076880680456 13.015272212513931
endloop
endfacet
facet normal 1.0 2.6102774837023255e-14 -9.25414293704043e-16
outer loop
vertex 23.891956437775757 178.06076880680456 13.015272212513931
vertex 23.891956437775722 178.5698414582666 -3.005335244931143
vertex 23.891956437775757 178.28060118951694 12.54600594197428
endloop
endfacet
facet normal 1.0 2.6102774837023255e-14 -9.25414293704043e-16
outer loop
vertex 23.891956437775757 178.28060118951694 12.54600594197428
vertex 23.891956437775722 178.5698414582666 -3.005335244931143
vertex 23.891956437775733 178.44036743522506 12.050548392923975
endloop
endfacet
facet normal 1.0 2.6102774837023255e-14 -9.25414293704043e-16
outer loop
vertex 23.891956437775733 178.44036743522506 12.050548392923975
vertex 23.891956437775722 178.5698414582666 -3.005335244931143
vertex 23.891956437775733 178.53733389916906 11.537376981394095
endloop
endfacet
facet normal 1.0 2.6102774837023255e-14 -9.25414293704043e-16
outer loop
vertex 23.891956437775733 178.53733389916906 11.537376981394095
vertex 23.891956437775722 178.5698414582666 -3.005335244931143
vertex 23.891956437775722 178.5698414582666 11.015272212513855
endloop
endfacet
facet normal 0.0 0.9517415971885018 0.30690052489541236
outer loop
vertex 140.0907277855257 178.28060118951714 12.546005941974224
vertex 146.99306178552575 178.44036743522514 12.050548392923947
vertex 140.0907277855257 178.44036743522514 12.050548392923947
endloop
endfacet
facet normal 0.0 0.9517415971885018 0.30690052489541236
outer loop
vertex 146.99306178552575 178.44036743522514 12.050548392923947
vertex 140.0907277855257 178.28060118951714 12.546005941974224
vertex 146.99306178552575 178.28060118951714 12.546005941974224
endloop
endfacet
facet normal 2.56838275986957e-16 -0.7683180485272642 0.6400682590999626
outer loop
vertex 146.9930617855258 172.08322832431753 13.843699337260041
vertex 140.0907277855257 171.7555112364283 13.450317928548772
vertex 146.99306178552575 171.7555112364283 13.450317928548772
endloop
endfacet
facet normal 2.56838275986957e-16 -0.7683180485272642 0.6400682590999626
outer loop
vertex 140.0907277855257 171.7555112364283 13.450317928548772
vertex 146.9930617855258 172.08322832431753 13.843699337260041
vertex 140.0907277855257 171.92024395826675 13.648057968883592
endloop
endfacet
facet normal 2.56838275986957e-16 -0.7683180485272642 0.6400682590999626
outer loop
vertex 140.0907277855257 171.92024395826675 13.648057968883592
vertex 146.9930617855258 172.08322832431753 13.843699337260041
vertex 138.88839378552578 171.92024395826675 13.648057968883615
endloop
endfacet
facet normal 2.56838275986957e-16 -0.7683180485272642 0.6400682590999626
outer loop
vertex 138.88839378552578 171.92024395826675 13.648057968883615
vertex 146.9930617855258 172.08322832431753 13.843699337260041
vertex 25.091956437775753 171.92024395826655 13.64805796888366
endloop
endfacet
facet normal 2.56838275986957e-16 -0.7683180485272642 0.6400682590999626
outer loop
vertex 25.091956437775753 171.92024395826655 13.64805796888366
vertex 146.9930617855258 172.08322832431753 13.843699337260041
vertex 23.891956437775747 171.92024395826678 13.648057968883665
endloop
endfacet
facet normal 2.56838275986957e-16 -0.7683180485272642 0.6400682590999626
outer loop
vertex 23.891956437775747 171.92024395826678 13.648057968883665
vertex 16.991956437775713 171.75551123642808 13.450317928548749
vertex 23.891956437775722 171.75551123642808 13.450317928548749
endloop
endfacet
facet normal 2.56838275986957e-16 -0.7683180485272642 0.6400682590999626
outer loop
vertex 16.991956437775713 171.75551123642808 13.450317928548749
vertex 23.891956437775747 171.92024395826678 13.648057968883665
vertex 16.991956437775734 172.08322832431753 13.843699337260047
endloop
endfacet
facet normal 2.56838275986957e-16 -0.7683180485272642 0.6400682590999626
outer loop
vertex 16.991956437775734 172.08322832431753 13.843699337260047
vertex 23.891956437775747 171.92024395826678 13.648057968883665
vertex 146.9930617855258 172.08322832431753 13.843699337260041
endloop
endfacet
facet normal 2.56838275986957e-16 -0.7683180485272642 0.6400682590999626
outer loop
vertex 138.88839378552564 171.75551123642833 13.450317928548767
vertex 25.091956437775753 171.92024395826655 13.64805796888366
vertex 25.09195643777572 171.75551123642808 13.450317928548756
endloop
endfacet
facet normal 2.56838275986957e-16 -0.7683180485272642 0.6400682590999626
outer loop
vertex 25.091956437775753 171.92024395826655 13.64805796888366
vertex 138.88839378552564 171.75551123642833 13.450317928548767
vertex 138.88839378552578 171.92024395826675 13.648057968883615
endloop
endfacet
facet normal -4.8629743890321144e-15 0.9055599042120823 0.42421841058988025
outer loop
vertex 16.991956437775713 178.06076880680456 13.015272212513807
vertex 23.891956437775757 178.28060118951694 12.54600594197428
vertex 16.991956437775734 178.28060118951694 12.546005941974242
endloop
endfacet
facet normal -4.8629743890321144e-15 0.9055599042120823 0.42421841058988025
outer loop
vertex 23.891956437775757 178.28060118951694 12.54600594197428
vertex 16.991956437775713 178.06076880680456 13.015272212513807
vertex 23.891956437775757 178.06076880680456 13.015272212513931
endloop
endfacet
facet normal 4.3900117824798974e-16 0.8442851471216176 0.535894196973459
outer loop
vertex 140.09072778552573 177.78463168010512 13.450317928548767
vertex 146.99306178552575 178.06076880680456 13.015272212513823
vertex 140.0907277855258 178.06076880680456 13.015272212513823
endloop
endfacet
facet normal 4.3900117824798974e-16 0.8442851471216176 0.535894196973459
outer loop
vertex 146.99306178552575 178.06076880680456 13.015272212513823
vertex 140.09072778552573 177.78463168010512 13.450317928548767
vertex 146.99306178552567 177.78463168010512 13.450317928548756
endloop
endfacet
facet normal -2.3757770481916066e-16 0.7683180485273033 0.6400682590999154
outer loop
vertex 16.99195643777577 177.78463168010492 13.450317928548749
vertex 23.891956437775747 177.61989895826676 13.648057968883558
vertex 23.891956437775768 177.78463168010518 13.45031792854871
endloop
endfacet
facet normal -2.3757770481916066e-16 0.7683180485273033 0.6400682590999154
outer loop
vertex 23.891956437775747 177.61989895826676 13.648057968883558
vertex 16.99195643777577 177.78463168010492 13.450317928548749
vertex 16.991956437775713 177.45691459221575 13.843699337260018
endloop
endfacet
facet normal -2.3757770481916066e-16 0.7683180485273033 0.6400682590999154
outer loop
vertex 23.891956437775747 177.61989895826676 13.648057968883558
vertex 16.991956437775713 177.45691459221575 13.843699337260018
vertex 25.09195643777571 177.61989895826673 13.648057968883569
endloop
endfacet
facet normal -2.3757770481916066e-16 0.7683180485273033 0.6400682590999154
outer loop
vertex 25.09195643777571 177.61989895826673 13.648057968883569
vertex 16.991956437775713 177.45691459221575 13.843699337260018
vertex 138.88839378552564 177.61989895826676 13.648057968883615
endloop
endfacet
facet normal -2.3757770481916066e-16 0.7683180485273033 0.6400682590999154
outer loop
vertex 140.09072778552573 177.78463168010512 13.450317928548767
vertex 146.99306178552567 177.45691459221575 13.84369933726003
vertex 146.99306178552567 177.78463168010512 13.450317928548756
endloop
endfacet
facet normal -2.3757770481916066e-16 0.7683180485273033 0.6400682590999154
outer loop
vertex 146.99306178552567 177.45691459221575 13.84369933726003
vertex 140.09072778552573 177.78463168010512 13.450317928548767
vertex 140.0907277855258 177.6198989582667 13.64805796888361
endloop
endfacet
facet normal -2.3757770481916066e-16 0.7683180485273033 0.6400682590999154
outer loop
vertex 146.99306178552567 177.45691459221575 13.84369933726003
vertex 140.0907277855258 177.6198989582667 13.64805796888361
vertex 138.88839378552564 177.61989895826676 13.648057968883615
endloop
endfacet
facet normal -2.3757770481916066e-16 0.7683180485273033 0.6400682590999154
outer loop
vertex 146.99306178552567 177.45691459221575 13.84369933726003
vertex 138.88839378552564 177.61989895826676 13.648057968883615
vertex 16.991956437775713 177.45691459221575 13.843699337260018
endloop
endfacet
facet normal -2.3757770481916066e-16 0.7683180485273033 0.6400682590999154
outer loop
vertex 25.09195643777571 177.61989895826673 13.648057968883569
vertex 138.88839378552572 177.78463168010515 13.450317928548762
vertex 25.09195643777572 177.78463168010515 13.450317928548694
endloop
endfacet
facet normal -2.3757770481916066e-16 0.7683180485273033 0.6400682590999154
outer loop
vertex 138.88839378552572 177.78463168010515 13.450317928548762
vertex 25.09195643777571 177.61989895826673 13.648057968883569
vertex 138.88839378552564 177.61989895826676 13.648057968883615
endloop
endfacet
facet normal -2.3151036112555933e-16 -0.9826121960031156 0.18566979362819078
outer loop
vertex 138.88839378552578 171.09977548130814 12.050548392923947
vertex 25.09195643777572 171.00280901736429 11.5373769813941
vertex 138.88839378552566 171.00280901736429 11.537376981394061
endloop
endfacet
facet normal -2.3151036112555933e-16 -0.9826121960031156 0.18566979362819078
outer loop
vertex 25.09195643777572 171.00280901736429 11.5373769813941
vertex 138.88839378552578 171.09977548130814 12.050548392923947
vertex 25.091956437775742 171.0997754813084 12.050548392923963
endloop
endfacet
facet normal 1.6640675194592845e-19 -0.9517415971884626 0.30690052489553366
outer loop
vertex 146.99306178552575 171.25954172701634 12.546005941974208
vertex 140.0907277855258 171.09977548130814 12.050548392923947
vertex 146.99306178552575 171.09977548130814 12.050548392923947
endloop
endfacet
facet normal 1.6640675194592845e-19 -0.9517415971884626 0.30690052489553366
outer loop
vertex 140.0907277855258 171.09977548130814 12.050548392923947
vertex 146.99306178552575 171.25954172701634 12.546005941974208
vertex 140.0907277855257 171.25954172701634 12.546005941974208
endloop
endfacet
facet normal 2.4448276595960255e-15 -0.9826121960031258 0.1856697936281365
outer loop
vertex 23.891956437775733 171.00280901736429 11.5373769813941
vertex 16.991956437775748 171.09977548130814 12.050548392923963
vertex 16.991956437775713 171.00280901736429 11.537376981394049
endloop
endfacet
facet normal 2.4448276595960255e-15 -0.9826121960031258 0.1856697936281365
outer loop
vertex 16.991956437775748 171.09977548130814 12.050548392923963
vertex 23.891956437775733 171.00280901736429 11.5373769813941
vertex 23.891956437775757 171.09977548130814 12.050548392923952
endloop
endfacet
facet normal -1.4782931190389176e-15 -0.9517415971884883 0.3069005248954543
outer loop
vertex 23.891956437775733 171.25954172701628 12.546005941974213
vertex 16.991956437775748 171.09977548130814 12.050548392923963
vertex 23.891956437775757 171.09977548130814 12.050548392923952
endloop
endfacet
facet normal -1.4782931190389176e-15 -0.9517415971884883 0.3069005248954543
outer loop
vertex 16.991956437775748 171.09977548130814 12.050548392923963
vertex 23.891956437775733 171.25954172701628 12.546005941974213
vertex 16.99195643777576 171.25954172701634 12.54600594197423
endloop
endfacet
facet normal 2.181295442722188e-15 -0.8442851471216333 0.5358941969734345
outer loop
vertex 23.891956437775768 171.4793741097288 13.015272212513903
vertex 16.991956437775713 171.75551123642808 13.450317928548749
vertex 16.991956437775713 171.47937410972872 13.015272212513851
endloop
endfacet
facet normal 2.181295442722188e-15 -0.8442851471216333 0.5358941969734345
outer loop
vertex 16.991956437775713 171.75551123642808 13.450317928548749
vertex 23.891956437775768 171.4793741097288 13.015272212513903
vertex 23.891956437775722 171.75551123642808 13.450317928548749
endloop
endfacet
facet normal -2.7951065228585376e-16 0.6783245636603128 0.7347624012802002
outer loop
vertex 16.991956437775734 177.08322487337108 14.188685573678821
vertex 146.99306178552567 177.45691459221575 13.84369933726003
vertex 16.991956437775713 177.45691459221575 13.843699337260018
endloop
endfacet
facet normal -2.7951065228585376e-16 0.6783245636603128 0.7347624012802002
outer loop
vertex 146.99306178552567 177.45691459221575 13.84369933726003
vertex 16.991956437775734 177.08322487337108 14.188685573678821
vertex 146.99306178552567 177.08322487337108 14.18868557367881
endloop
endfacet
facet normal -5.3530073527996924e-17 0.5753209700549282 0.8179277360592782
outer loop
vertex 146.99306178552567 176.6699564582667 14.479373827651589
vertex 16.991956437775734 177.08322487337108 14.188685573678821
vertex 16.991956437775723 176.66995645826668 14.479373827651607
endloop
endfacet
facet normal -5.3530073527996924e-17 0.5753209700549282 0.8179277360592782
outer loop
vertex 16.991956437775734 177.08322487337108 14.188685573678821
vertex 146.99306178552567 176.6699564582667 14.479373827651589
vertex 146.99306178552567 177.08322487337108 14.18868557367881
endloop
endfacet
facet normal 5.823608736126545e-17 0.46074613208025594 0.8875319722540047
outer loop
vertex 16.991956437775734 176.22418048406456 14.710790342559
vertex 146.99306178552567 176.6699564582667 14.479373827651589
vertex 16.991956437775723 176.66995645826668 14.479373827651607
endloop
endfacet
facet normal 5.823608736126545e-17 0.46074613208025594 0.8875319722540047
outer loop
vertex 146.99306178552567 176.6699564582667 14.479373827651589
vertex 16.991956437775734 176.22418048406456 14.710790342559
vertex 146.99306178552575 176.22418048406456 14.710790342558987
endloop
endfacet
facet normal 3.5648077959667325e-14 1.0 -2.5766801368664598e-15
outer loop
vertex 138.88839378552564 177.6198989582667 -2.9860967918574257
vertex 140.0907277855258 177.6198989582667 13.64805796888361
vertex 140.0907277855258 177.61989895826667 -2.986096791857434
endloop
endfacet
facet normal 3.5648077959667325e-14 1.0 -2.5766801368664598e-15
outer loop
vertex 140.0907277855258 177.6198989582667 13.64805796888361
vertex 138.88839378552564 177.6198989582667 -2.9860967918574257
vertex 138.88839378552564 177.61989895826676 13.648057968883615
endloop
endfacet
facet normal 1.8846593813859513e-16 -1.0 -1.5330736992548621e-15
outer loop
vertex 138.88839378552572 170.97030145826676 -2.9634577874861807
vertex 25.091956437775732 170.9703014582667 11.015272212513839
vertex 25.091956437775732 170.97030145826676 -2.9847277874860967
endloop
endfacet
facet normal 1.8846593813859513e-16 -1.0 -1.5330736992548621e-15
outer loop
vertex 25.091956437775732 170.9703014582667 11.015272212513839
vertex 138.88839378552572 170.97030145826676 -2.9634577874861807
vertex 138.88839378552572 170.97030145826676 11.015272212513855
endloop
endfacet
facet normal 2.0922721108441465e-16 0.9517415971884953 0.3069005248954319
outer loop
vertex 16.991956437775734 178.28060118951694 12.546005941974242
vertex 23.891956437775733 178.44036743522506 12.050548392923975
vertex 16.991956437775723 178.4403674352251 12.050548392923963
endloop
endfacet
facet normal 2.0922721108441465e-16 0.9517415971884953 0.3069005248954319
outer loop
vertex 23.891956437775733 178.44036743522506 12.050548392923975
vertex 16.991956437775734 178.28060118951694 12.546005941974242
vertex 23.891956437775757 178.28060118951694 12.54600594197428
endloop
endfacet
facet normal 8.912019489918518e-15 -1.0 6.450479413525039e-16
outer loop
vertex 140.0907277855257 171.92024395826675 13.648057968883592
vertex 138.88839378552578 171.92024395826655 -2.963457787486206
vertex 140.0907277855257 171.92024395826675 -2.9634577874862176
endloop
endfacet
facet normal 8.912019489918518e-15 -1.0 6.450479413525039e-16
outer loop
vertex 138.88839378552578 171.92024395826655 -2.963457787486206
vertex 140.0907277855257 171.92024395826675 13.648057968883592
vertex 138.88839378552578 171.92024395826675 13.648057968883615
endloop
endfacet
facet normal -1.0 -1.085191988297347e-13 -5.7574415164048645e-16
outer loop
vertex 140.0907277855258 177.6198989582667 13.64805796888361
vertex 140.0907277855257 178.5698414582666 -2.9860967918573946
vertex 140.0907277855258 177.61989895826667 -2.986096791857434
endloop
endfacet
facet normal -1.0 -1.085191988297347e-13 -5.7574415164048645e-16
outer loop
vertex 140.0907277855257 178.5698414582666 -2.9860967918573946
vertex 140.0907277855258 177.6198989582667 13.64805796888361
vertex 140.09072778552573 177.78463168010512 13.450317928548767
endloop
endfacet
facet normal -1.0 -1.085191988297347e-13 -5.7574415164048645e-16
outer loop
vertex 140.0907277855257 178.5698414582666 -2.9860967918573946
vertex 140.09072778552573 177.78463168010512 13.450317928548767
vertex 140.0907277855258 178.06076880680456 13.015272212513823
endloop
endfacet
facet normal -1.0 -1.085191988297347e-13 -5.7574415164048645e-16
outer loop
vertex 140.0907277855257 178.5698414582666 -2.9860967918573946
vertex 140.0907277855258 178.06076880680456 13.015272212513823
vertex 140.0907277855257 178.28060118951714 12.546005941974224
endloop
endfacet
facet normal -1.0 -1.085191988297347e-13 -5.7574415164048645e-16
outer loop
vertex 140.0907277855257 178.5698414582666 -2.9860967918573946
vertex 140.0907277855257 178.28060118951714 12.546005941974224
vertex 140.0907277855257 178.44036743522514 12.050548392923947
endloop
endfacet
facet normal -1.0 -1.085191988297347e-13 -5.7574415164048645e-16
outer loop
vertex 140.0907277855257 178.5698414582666 -2.9860967918573946
vertex 140.0907277855257 178.44036743522514 12.050548392923947
vertex 140.09072778552564 178.53733389916908 11.537376981394095
endloop
endfacet
facet normal -1.0 -1.085191988297347e-13 -5.7574415164048645e-16
outer loop
vertex 140.0907277855257 178.5698414582666 -2.9860967918573946
vertex 140.09072778552564 178.53733389916908 11.537376981394095
vertex 140.0907277855257 178.5698414582666 11.015272212513821
endloop
endfacet
facet normal -0.9999999986833423 -1.0241832919381638e-05 -5.0283402256772474e-05
outer loop
vertex 16.991956437775713 171.00280901736429 11.537376981394049
vertex 16.99306178552572 170.97030145826676 -2.9847277874860967
vertex 16.991956437775677 170.97030145826662 11.01527221251386
endloop
endfacet
facet normal -0.9999999986833423 -1.0241832919381638e-05 -5.0283402256772474e-05
outer loop
vertex 16.99306178552572 170.97030145826676 -2.9847277874860967
vertex 16.991956437775713 171.00280901736429 11.537376981394049
vertex 16.99306178552572 178.56984145826618 -3.006941574352667
endloop
endfacet
facet normal -0.9999999986833423 -1.0241832919381638e-05 -5.0283402256772474e-05
outer loop
vertex 16.99306178552572 178.56984145826618 -3.006941574352667
vertex 16.991956437775713 171.00280901736429 11.537376981394049
vertex 16.991956437775748 171.09977548130814 12.050548392923963
endloop
endfacet
facet normal -0.9999999986833423 -1.0241832919381638e-05 -5.0283402256772474e-05
outer loop
vertex 16.99306178552572 178.56984145826618 -3.006941574352667
vertex 16.991956437775748 171.09977548130814 12.050548392923963
vertex 16.99195643777576 171.25954172701634 12.54600594197423
endloop
endfacet
facet normal -0.9999999986833423 -1.0241832919381638e-05 -5.0283402256772474e-05
outer loop
vertex 16.99306178552572 178.56984145826618 -3.006941574352667
vertex 16.99195643777576 171.25954172701634 12.54600594197423
vertex 16.991956437775713 171.47937410972872 13.015272212513851
endloop
endfacet
facet normal -0.9999999986833423 -1.0241832919381638e-05 -5.0283402256772474e-05
outer loop
vertex 16.99306178552572 178.56984145826618 -3.006941574352667
vertex 16.991956437775713 171.47937410972872 13.015272212513851
vertex 16.991956437775713 171.75551123642808 13.450317928548749
endloop
endfacet
facet normal -0.9999999986833423 -1.0241832919381638e-05 -5.0283402256772474e-05
outer loop
vertex 16.99306178552572 178.56984145826618 -3.006941574352667
vertex 16.991956437775713 171.75551123642808 13.450317928548749
vertex 16.991956437775734 172.08322832431753 13.843699337260047
endloop
endfacet
facet normal -0.9999999986833423 -1.0241832919381638e-05 -5.0283402256772474e-05
outer loop
vertex 16.99306178552572 178.56984145826618 -3.006941574352667
vertex 16.991956437775734 172.08322832431753 13.843699337260047
vertex 16.991956437775734 172.45691804316223 14.188685573678793
endloop
endfacet
facet normal -0.9999999986833423 -1.0241832919381638e-05 -5.0283402256772474e-05
outer loop
vertex 16.99306178552572 178.56984145826618 -3.006941574352667
vertex 16.991956437775734 172.45691804316223 14.188685573678793
vertex 16.991956437775713 172.87018645826666 14.479373827651617
endloop
endfacet
facet normal -0.9999999986833423 -1.0241832919381638e-05 -5.0283402256772474e-05
outer loop
vertex 16.99306178552572 178.56984145826618 -3.006941574352667
vertex 16.991956437775713 172.87018645826666 14.479373827651617
vertex 16.991956437775734 173.3159624324688 14.710790342558987
endloop
endfacet
facet normal -0.9999999986833423 -1.0241832919381638e-05 -5.0283402256772474e-05
outer loop
vertex 16.99306178552572 178.56984145826618 -3.006941574352667
vertex 16.991956437775734 173.3159624324688 14.710790342558987
vertex 16.991956437775713 173.78661861525742 14.878975517670149
endloop
endfacet
facet normal -0.9999999986833423 -1.0241832919381638e-05 -5.0283402256772474e-05
outer loop
vertex 16.99306178552572 178.56984145826618 -3.006941574352667
vertex 16.991956437775713 173.78661861525742 14.878975517670149
vertex 16.991956437775723 174.27410194885474 14.981051658009102
endloop
endfacet
facet normal -0.9999999986833423 -1.0241832919381638e-05 -5.0283402256772474e-05
outer loop
vertex 16.99306178552572 178.56984145826618 -3.006941574352667
vertex 16.991956437775723 174.27410194885474 14.981051658009102
vertex 16.991956437775713 175.26604096767852 14.981051658009102
endloop
endfacet
facet normal -0.9999999986833423 -1.0241832919381638e-05 -5.0283402256772474e-05
outer loop
vertex 16.99306178552572 178.56984145826618 -3.006941574352667
vertex 16.991956437775713 175.26604096767852 14.981051658009102
vertex 16.991956437775702 175.7535243012759 14.878975517670115
endloop
endfacet
facet normal -0.9999999986833423 -1.0241832919381638e-05 -5.0283402256772474e-05
outer loop
vertex 16.99306178552572 178.56984145826618 -3.006941574352667
vertex 16.991956437775702 175.7535243012759 14.878975517670115
vertex 16.991956437775734 176.22418048406456 14.710790342559
endloop
endfacet
facet normal -0.9999999986833423 -1.0241832919381638e-05 -5.0283402256772474e-05
outer loop
vertex 16.99306178552572 178.56984145826618 -3.006941574352667
vertex 16.991956437775734 176.22418048406456 14.710790342559
vertex 16.991956437775723 176.66995645826668 14.479373827651607
endloop
endfacet
facet normal -0.9999999986833423 -1.0241832919381638e-05 -5.0283402256772474e-05
outer loop
vertex 16.99306178552572 178.56984145826618 -3.006941574352667
vertex 16.991956437775723 176.66995645826668 14.479373827651607
vertex 16.991956437775734 177.08322487337108 14.188685573678821
endloop
endfacet
facet normal -0.9999999986833423 -1.0241832919381638e-05 -5.0283402256772474e-05
outer loop
vertex 16.99306178552572 178.56984145826618 -3.006941574352667
vertex 16.991956437775734 177.08322487337108 14.188685573678821
vertex 16.991956437775713 177.45691459221575 13.843699337260018
endloop
endfacet
facet normal -0.9999999986833423 -1.0241832919381638e-05 -5.0283402256772474e-05
outer loop
vertex 16.99306178552572 178.56984145826618 -3.006941574352667
vertex 16.991956437775713 177.45691459221575 13.843699337260018
vertex 16.99195643777577 177.78463168010492 13.450317928548749
endloop
endfacet
facet normal -0.9999999986833423 -1.0241832919381638e-05 -5.0283402256772474e-05
outer loop
vertex 16.99306178552572 178.56984145826618 -3.006941574352667
vertex 16.99195643777577 177.78463168010492 13.450317928548749
vertex 16.991956437775713 178.06076880680456 13.015272212513807
endloop
endfacet
facet normal -0.9999999986833423 -1.0241832919381638e-05 -5.0283402256772474e-05
outer loop
vertex 16.99306178552572 178.56984145826618 -3.006941574352667
vertex 16.991956437775713 178.06076880680456 13.015272212513807
vertex 16.991956437775734 178.28060118951694 12.546005941974242
endloop
endfacet
facet normal -0.9999999986833423 -1.0241832919381638e-05 -5.0283402256772474e-05
outer loop
vertex 16.99306178552572 178.56984145826618 -3.006941574352667
vertex 16.991956437775734 178.28060118951694 12.546005941974242
vertex 16.991956437775723 178.4403674352251 12.050548392923963
endloop
endfacet
facet normal -0.9999999986833423 -1.0241832919381638e-05 -5.0283402256772474e-05
outer loop
vertex 16.99306178552572 178.56984145826618 -3.006941574352667
vertex 16.991956437775723 178.4403674352251 12.050548392923963
vertex 16.991956437775734 178.53733389916906 11.537376981394083
endloop
endfacet
facet normal -0.9999999986833423 -1.0241832919381638e-05 -5.0283402256772474e-05
outer loop
vertex 16.99306178552572 178.56984145826618 -3.006941574352667
vertex 16.991956437775734 178.53733389916906 11.537376981394083
vertex 16.991956437775748 178.5698414582666 11.01527221251385
endloop
endfacet
facet normal 1.0 -1.5778762872020485e-14 -1.2701098204236689e-16
outer loop
vertex 23.891956437775722 170.97030145826676 -2.9847277874860967
vertex 23.891956437775733 171.00280901736429 11.5373769813941
vertex 23.891956437775722 170.9703014582667 11.015272212513839
endloop
endfacet
facet normal 1.0 -1.5778762872020485e-14 -1.2701098204236689e-16
outer loop
vertex 23.891956437775733 171.00280901736429 11.5373769813941
vertex 23.891956437775722 170.97030145826676 -2.9847277874860967
vertex 23.891956437775757 171.92024395826678 -2.9847277874861105
endloop
endfacet
facet normal 1.0 -1.5778762872020485e-14 -1.2701098204236689e-16
outer loop
vertex 23.891956437775733 171.00280901736429 11.5373769813941
vertex 23.891956437775757 171.92024395826678 -2.9847277874861105
vertex 23.891956437775757 171.09977548130814 12.050548392923952
endloop
endfacet
facet normal 1.0 -1.5778762872020485e-14 -1.2701098204236689e-16
outer loop
vertex 23.891956437775757 171.09977548130814 12.050548392923952
vertex 23.891956437775757 171.92024395826678 -2.9847277874861105
vertex 23.891956437775733 171.25954172701628 12.546005941974213
endloop
endfacet
facet normal 1.0 -1.5778762872020485e-14 -1.2701098204236689e-16
outer loop
vertex 23.891956437775733 171.25954172701628 12.546005941974213
vertex 23.891956437775757 171.92024395826678 -2.9847277874861105
vertex 23.891956437775768 171.4793741097288 13.015272212513903
endloop
endfacet
facet normal 1.0 -1.5778762872020485e-14 -1.2701098204236689e-16
outer loop
vertex 23.891956437775768 171.4793741097288 13.015272212513903
vertex 23.891956437775757 171.92024395826678 -2.9847277874861105
vertex 23.891956437775722 171.75551123642808 13.450317928548749
endloop
endfacet
facet normal 1.0 -1.5778762872020485e-14 -1.2701098204236689e-16
outer loop
vertex 23.891956437775722 171.75551123642808 13.450317928548749
vertex 23.891956437775757 171.92024395826678 -2.9847277874861105
vertex 23.891956437775747 171.92024395826678 13.648057968883665
endloop
endfacet
facet normal -1.0 -7.713468390783763e-14 4.078124798785292e-17
outer loop
vertex 140.09072778552573 171.00280901736429 11.537376981394072
vertex 140.0907277855258 170.97030145826673 -2.963457787486178
vertex 140.0907277855258 170.97030145826673 11.015272212513844
endloop
endfacet
facet normal -1.0 -7.713468390783763e-14 4.078124798785292e-17
outer loop
vertex 140.0907277855258 170.97030145826673 -2.963457787486178
vertex 140.09072778552573 171.00280901736429 11.537376981394072
vertex 140.0907277855257 171.92024395826675 -2.9634577874862176
endloop
endfacet
facet normal -1.0 -7.713468390783763e-14 4.078124798785292e-17
outer loop
vertex 140.0907277855257 171.92024395826675 -2.9634577874862176
vertex 140.09072778552573 171.00280901736429 11.537376981394072
vertex 140.0907277855258 171.09977548130814 12.050548392923947
endloop
endfacet
facet normal -1.0 -7.713468390783763e-14 4.078124798785292e-17
outer loop
vertex 140.0907277855257 171.92024395826675 -2.9634577874862176
vertex 140.0907277855258 171.09977548130814 12.050548392923947
vertex 140.0907277855257 171.25954172701634 12.546005941974208
endloop
endfacet
facet normal -1.0 -7.713468390783763e-14 4.078124798785292e-17
outer loop
vertex 140.0907277855257 171.92024395826675 -2.9634577874862176
vertex 140.0907277855257 171.25954172701634 12.546005941974208
vertex 140.09072778552581 171.47937410972878 13.015272212513828
endloop
endfacet
facet normal -1.0 -7.713468390783763e-14 4.078124798785292e-17
outer loop
vertex 140.0907277855257 171.92024395826675 -2.9634577874862176
vertex 140.09072778552581 171.47937410972878 13.015272212513828
vertex 140.0907277855257 171.7555112364283 13.450317928548772
endloop
endfacet
facet normal -1.0 -7.713468390783763e-14 4.078124798785292e-17
outer loop
vertex 140.0907277855257 171.92024395826675 -2.9634577874862176
vertex 140.0907277855257 171.7555112364283 13.450317928548772
vertex 140.0907277855257 171.92024395826675 13.648057968883592
endloop
endfacet
facet normal 1.0 -1.7910406967483405e-14 5.063092100348094e-16
outer loop
vertex 138.88839378552578 171.92024395826655 -2.963457787486206
vertex 138.88839378552572 170.97030145826676 11.015272212513855
vertex 138.88839378552572 170.97030145826676 -2.9634577874861807
endloop
endfacet
facet normal 1.0 -1.7910406967483405e-14 5.063092100348094e-16
outer loop
vertex 138.88839378552572 170.97030145826676 11.015272212513855
vertex 138.88839378552578 171.92024395826655 -2.963457787486206
vertex 138.88839378552566 171.00280901736429 11.537376981394061
endloop
endfacet
facet normal 1.0 -1.7910406967483405e-14 5.063092100348094e-16
outer loop
vertex 138.88839378552566 171.00280901736429 11.537376981394061
vertex 138.88839378552578 171.92024395826655 -2.963457787486206
vertex 138.88839378552578 171.09977548130814 12.050548392923947
endloop
endfacet
facet normal 1.0 -1.7910406967483405e-14 5.063092100348094e-16
outer loop
vertex 138.88839378552578 171.09977548130814 12.050548392923947
vertex 138.88839378552578 171.92024395826655 -2.963457787486206
vertex 138.88839378552578 171.2595417270163 12.54600594197423
endloop
endfacet
facet normal 1.0 -1.7910406967483405e-14 5.063092100348094e-16
outer loop
vertex 138.88839378552578 171.2595417270163 12.54600594197423
vertex 138.88839378552578 171.92024395826655 -2.963457787486206
vertex 138.8883937855258 171.47937410972875 13.015272212513828
endloop
endfacet
facet normal 1.0 -1.7910406967483405e-14 5.063092100348094e-16
outer loop
vertex 138.8883937855258 171.47937410972875 13.015272212513828
vertex 138.88839378552578 171.92024395826655 -2.963457787486206
vertex 138.88839378552564 171.75551123642833 13.450317928548767
endloop
endfacet
facet normal 1.0 -1.7910406967483405e-14 5.063092100348094e-16
outer loop
vertex 138.88839378552564 171.75551123642833 13.450317928548767
vertex 138.88839378552578 171.92024395826655 -2.963457787486206
vertex 138.88839378552578 171.92024395826675 13.648057968883615
endloop
endfacet
facet normal -2.125025443568767e-14 1.0 -1.206864492803139e-14
outer loop
vertex 16.991956437775748 178.5698414582666 11.01527221251385
vertex 23.891956437775722 178.5698414582666 -3.005335244931143
vertex 16.99306178552572 178.56984145826618 -3.006941574352667
endloop
endfacet
facet normal -2.125025443568767e-14 1.0 -1.206864492803139e-14
outer loop
vertex 23.891956437775722 178.5698414582666 -3.005335244931143
vertex 16.991956437775748 178.5698414582666 11.01527221251385
vertex 23.891956437775722 178.5698414582666 11.015272212513855
endloop
endfacet
facet normal -1.7565125577155512e-16 0.9980673066726118 0.0621421865666055
outer loop
vertex 25.09195643777572 178.5698414582666 11.015272212513855
vertex 138.88839378552572 178.53733389916908 11.537376981394106
vertex 138.88839378552572 178.5698414582666 11.015272212513844
endloop
endfacet
facet normal -1.7565125577155512e-16 0.9980673066726118 0.0621421865666055
outer loop
vertex 138.88839378552572 178.53733389916908 11.537376981394106
vertex 25.09195643777572 178.5698414582666 11.015272212513855
vertex 25.09195643777572 178.53733389916906 11.53737698139414
endloop
endfacet
facet normal 1.0 -5.0347963920288933e-14 -2.0515312317434073e-16
outer loop
vertex 138.88839378552572 178.5698414582666 -2.986096791857414
vertex 138.88839378552564 177.61989895826676 13.648057968883615
vertex 138.88839378552564 177.6198989582667 -2.9860967918574257
endloop
endfacet
facet normal 1.0 -5.0347963920288933e-14 -2.0515312317434073e-16
outer loop
vertex 138.88839378552564 177.61989895826676 13.648057968883615
vertex 138.88839378552572 178.5698414582666 -2.986096791857414
vertex 138.88839378552572 177.78463168010515 13.450317928548762
endloop
endfacet
facet normal 1.0 -5.0347963920288933e-14 -2.0515312317434073e-16
outer loop
vertex 138.88839378552572 177.78463168010515 13.450317928548762
vertex 138.88839378552572 178.5698414582666 -2.986096791857414
vertex 138.88839378552566 178.06076880680456 13.015272212513807
endloop
endfacet
facet normal 1.0 -5.0347963920288933e-14 -2.0515312317434073e-16
outer loop
vertex 138.88839378552566 178.06076880680456 13.015272212513807
vertex 138.88839378552572 178.5698414582666 -2.986096791857414
vertex 138.88839378552572 178.28060118951694 12.546005941974219
endloop
endfacet
facet normal 1.0 -5.0347963920288933e-14 -2.0515312317434073e-16
outer loop
vertex 138.88839378552572 178.28060118951694 12.546005941974219
vertex 138.88839378552572 178.5698414582666 -2.986096791857414
vertex 138.88839378552558 178.44036743522514 12.050548392923947
endloop
endfacet
facet normal 1.0 -5.0347963920288933e-14 -2.0515312317434073e-16
outer loop
vertex 138.88839378552558 178.44036743522514 12.050548392923947
vertex 138.88839378552572 178.5698414582666 -2.986096791857414
vertex 138.88839378552572 178.53733389916908 11.537376981394106
endloop
endfacet
facet normal 1.0 -5.0347963920288933e-14 -2.0515312317434073e-16
outer loop
vertex 138.88839378552572 178.53733389916908 11.537376981394106
vertex 138.88839378552572 178.5698414582666 -2.986096791857414
vertex 138.88839378552572 178.5698414582666 11.015272212513844
endloop
endfacet
facet normal -1.0 1.1262932514294715e-14 4.0048258399422077e-16
outer loop
vertex 25.09195643777571 177.61989895826673 13.648057968883569
vertex 25.09195643777572 178.5698414582666 -3.005335244931143
vertex 25.09195643777572 177.61989895826667 -3.005335244931188
endloop
endfacet
facet normal -1.0 1.1262932514294715e-14 4.0048258399422077e-16
outer loop
vertex 25.09195643777572 178.5698414582666 -3.005335244931143
vertex 25.09195643777571 177.61989895826673 13.648057968883569
vertex 25.09195643777572 177.78463168010515 13.450317928548694
endloop
endfacet
facet normal -1.0 1.1262932514294715e-14 4.0048258399422077e-16
outer loop
vertex 25.09195643777572 178.5698414582666 -3.005335244931143
vertex 25.09195643777572 177.78463168010515 13.450317928548694
vertex 25.091956437775742 178.06076880680456 13.015272212513942
endloop
endfacet
facet normal -1.0 1.1262932514294715e-14 4.0048258399422077e-16
outer loop
vertex 25.09195643777572 178.5698414582666 -3.005335244931143
vertex 25.091956437775742 178.06076880680456 13.015272212513942
vertex 25.09195643777572 178.28060118951694 12.54600594197427
endloop
endfacet
facet normal -1.0 1.1262932514294715e-14 4.0048258399422077e-16
outer loop
vertex 25.09195643777572 178.5698414582666 -3.005335244931143
vertex 25.09195643777572 178.28060118951694 12.54600594197427
vertex 25.091956437775764 178.44036743522506 12.050548392924037
endloop
endfacet
facet normal -1.0 1.1262932514294715e-14 4.0048258399422077e-16
outer loop
vertex 25.09195643777572 178.5698414582666 -3.005335244931143
vertex 25.091956437775764 178.44036743522506 12.050548392924037
vertex 25.09195643777572 178.53733389916906 11.53737698139414
endloop
endfacet
facet normal -1.0 1.1262932514294715e-14 4.0048258399422077e-16
outer loop
vertex 25.09195643777572 178.5698414582666 -3.005335244931143
vertex 25.09195643777572 178.53733389916906 11.53737698139414
vertex 25.09195643777572 178.5698414582666 11.015272212513855
endloop
endfacet
facet normal -0.0 1.0 -0.0
outer loop
vertex 25.09195643777572 178.5698414582666 11.015272212513855
vertex 138.88839378552572 178.5698414582666 -2.986096791857414
vertex 25.09195643777572 178.5698414582666 -3.005335244931143
endloop
endfacet
facet normal -0.0 1.0 -0.0
outer loop
vertex 138.88839378552572 178.5698414582666 -2.986096791857414
vertex 25.09195643777572 178.5698414582666 11.015272212513855
vertex 138.88839378552572 178.5698414582666 11.015272212513844
endloop
endfacet
facet normal -0.0013304423040750594 -0.002383188460835936 -0.9999962751610808
outer loop
vertex 146.99306178552567 178.5698414582666 -2.984727787486105
vertex 140.0907277855258 177.61989895826667 -2.986096791857434
vertex 140.0907277855257 178.5698414582666 -2.9860967918573946
endloop
endfacet
facet normal -0.0013304423040750594 -0.002383188460835936 -0.9999962751610808
outer loop
vertex 140.0907277855258 177.61989895826667 -2.986096791857434
vertex 146.99306178552567 178.5698414582666 -2.984727787486105
vertex 140.0907277855258 170.97030145826673 -2.963457787486178
endloop
endfacet
facet normal -0.0013304423040750594 -0.002383188460835936 -0.9999962751610808
outer loop
vertex 140.0907277855258 170.97030145826673 -2.963457787486178
vertex 146.99306178552567 178.5698414582666 -2.984727787486105
vertex 146.99306178552573 170.97030145826676 -2.9847277874860967
endloop
endfacet
facet normal -0.0013304423040750594 -0.002383188460835936 -0.9999962751610808
outer loop
vertex 140.0907277855258 177.61989895826667 -2.986096791857434
vertex 138.88839378552578 171.92024395826655 -2.963457787486206
vertex 138.88839378552564 177.6198989582667 -2.9860967918574257
endloop
endfacet
facet normal -0.0013304423040750594 -0.002383188460835936 -0.9999962751610808
outer loop
vertex 138.88839378552578 171.92024395826655 -2.963457787486206
vertex 140.0907277855258 177.61989895826667 -2.986096791857434
vertex 140.0907277855257 171.92024395826675 -2.9634577874862176
endloop
endfacet
facet normal -0.0013304423040750594 -0.002383188460835936 -0.9999962751610808
outer loop
vertex 140.0907277855257 171.92024395826675 -2.9634577874862176
vertex 140.0907277855258 177.61989895826667 -2.986096791857434
vertex 140.0907277855258 170.97030145826673 -2.963457787486178
endloop
endfacet
facet normal 0.00011641881046844142 -0.0029925598733373496 -0.9999955155059772
outer loop
vertex 23.891956437775722 178.5698414582666 -3.005335244931143
vertex 16.99306178552572 170.97030145826676 -2.9847277874860967
vertex 16.99306178552572 178.56984145826618 -3.006941574352667
endloop
endfacet
facet normal 0.00011641881046844142 -0.0029925598733373496 -0.9999955155059772
outer loop
vertex 16.99306178552572 170.97030145826676 -2.9847277874860967
vertex 23.891956437775722 178.5698414582666 -3.005335244931143
vertex 23.891956437775722 170.97030145826676 -2.9847277874860967
endloop
endfacet
facet normal 0.00011641881046844142 -0.0029925598733373496 -0.9999955155059772
outer loop
vertex 23.891956437775722 170.97030145826676 -2.9847277874860967
vertex 23.891956437775722 178.5698414582666 -3.005335244931143
vertex 23.891956437775747 177.61989895826673 -3.0053352449311825
endloop
endfacet
facet normal 0.00011641881046844142 -0.0029925598733373496 -0.9999955155059772
outer loop
vertex 23.891956437775722 170.97030145826676 -2.9847277874860967
vertex 23.891956437775747 177.61989895826673 -3.0053352449311825
vertex 23.891956437775757 171.92024395826678 -2.9847277874861105
endloop
endfacet
facet normal 0.0001773512129548953 -0.003252165365027701 -0.9999946959694265
outer loop
vertex 138.88839378552572 178.5698414582666 -2.986096791857414
vertex 25.09195643777572 177.61989895826667 -3.005335244931188
vertex 25.09195643777572 178.5698414582666 -3.005335244931143
endloop
endfacet
facet normal 0.0001773512129548953 -0.003252165365027701 -0.9999946959694265
outer loop
vertex 25.09195643777572 177.61989895826667 -3.005335244931188
vertex 138.88839378552572 178.5698414582666 -2.986096791857414
vertex 25.091956437775764 171.92024395826655 -2.984727787486105
endloop
endfacet
facet normal 0.0001773512129548953 -0.003252165365027701 -0.9999946959694265
outer loop
vertex 25.091956437775764 171.92024395826655 -2.984727787486105
vertex 138.88839378552572 178.5698414582666 -2.986096791857414
vertex 138.88839378552564 177.6198989582667 -2.9860967918574257
endloop
endfacet
facet normal 0.0001773512129548953 -0.003252165365027701 -0.9999946959694265
outer loop
vertex 25.091956437775764 171.92024395826655 -2.984727787486105
vertex 138.88839378552572 170.97030145826676 -2.9634577874861807
vertex 25.091956437775732 170.97030145826676 -2.9847277874860967
endloop
endfacet
facet normal 0.0001773512129548953 -0.003252165365027701 -0.9999946959694265
outer loop
vertex 138.88839378552572 170.97030145826676 -2.9634577874861807
vertex 25.091956437775764 171.92024395826655 -2.984727787486105
vertex 138.88839378552564 177.6198989582667 -2.9860967918574257
endloop
endfacet
facet normal 0.0001773512129548953 -0.003252165365027701 -0.9999946959694265
outer loop
vertex 138.88839378552572 170.97030145826676 -2.9634577874861807
vertex 138.88839378552564 177.6198989582667 -2.9860967918574257
vertex 138.88839378552578 171.92024395826655 -2.963457787486206
endloop
endfacet
facet normal 0.0001773512129548953 -0.003252165365027701 -0.9999946959694265
outer loop
vertex 25.09195643777572 177.61989895826667 -3.005335244931188
vertex 23.891956437775757 171.92024395826678 -2.9847277874861105
vertex 23.891956437775747 177.61989895826673 -3.0053352449311825
endloop
endfacet
facet normal 0.0001773512129548953 -0.003252165365027701 -0.9999946959694265
outer loop
vertex 23.891956437775757 171.92024395826678 -2.9847277874861105
vertex 25.09195643777572 177.61989895826667 -3.005335244931188
vertex 25.091956437775764 171.92024395826655 -2.984727787486105
endloop
endfacet
endsolid spool_stand_3.1
