solid spool_stand_3.1
facet normal -1.0 2.6213773002414165e-14 -6.069178992530304e-16
outer loop
vertex 25.093061785525762 314.9879799458882 11.559590768260652
vertex 25.093061785525773 314.9546149052461 -2.962514000619545
vertex 25.093061785525773 314.95461490524605 11.037485999380388
endloop
endfacet
facet normal -1.0 2.6213773002414165e-14 -6.069178992530304e-16
outer loop
vertex 25.093061785525773 314.9546149052461 -2.962514000619545
vertex 25.093061785525762 314.9879799458882 11.559590768260652
vertex 25.09306178552581 315.92961490524846 -2.9625140006195534
endloop
endfacet
facet normal -1.0 2.6213773002414165e-14 -6.069178992530304e-16
outer loop
vertex 25.09306178552581 315.92961490524846 -2.9625140006195534
vertex 25.093061785525762 314.9879799458882 11.559590768260652
vertex 25.093061785525784 315.08750418271916 12.072762179790514
endloop
endfacet
facet normal -1.0 2.6213773002414165e-14 -6.069178992530304e-16
outer loop
vertex 25.09306178552581 315.92961490524846 -2.9625140006195534
vertex 25.093061785525784 315.08750418271916 12.072762179790514
vertex 25.093061785525773 315.2514847284528 12.568219728840765
endloop
endfacet
facet normal -1.0 2.6213773002414165e-14 -6.069178992530304e-16
outer loop
vertex 25.09306178552581 315.92961490524846 -2.9625140006195534
vertex 25.093061785525773 315.2514847284528 12.568219728840765
vertex 25.09306178552581 315.4771158304882 13.037485999380431
endloop
endfacet
facet normal -1.0 2.6213773002414165e-14 -6.069178992530304e-16
outer loop
vertex 25.09306178552581 315.92961490524846 -2.9625140006195534
vertex 25.09306178552581 315.4771158304882 13.037485999380431
vertex 25.093061785525762 315.76053687811213 13.472531715415306
endloop
endfacet
facet normal -1.0 2.6213773002414165e-14 -6.069178992530304e-16
outer loop
vertex 25.09306178552581 315.92961490524846 -2.9625140006195534
vertex 25.093061785525762 315.76053687811213 13.472531715415306
vertex 25.093061785525794 315.92961490524846 13.67027175575021
endloop
endfacet
facet normal -3.7062334176667725e-16 0.9817081389395336 0.19039204274306504
outer loop
vertex 25.093061785525762 322.7212498646241 11.55959076826069
vertex 138.88949913327562 322.62172562779335 12.072762179790498
vertex 138.88949913327573 322.72124986462416 11.559590768260657
endloop
endfacet
facet normal -3.7062334176667725e-16 0.9817081389395336 0.19039204274306504
outer loop
vertex 138.88949913327562 322.62172562779335 12.072762179790498
vertex 25.093061785525762 322.7212498646241 11.55959076826069
vertex 25.09306178552581 322.62172562779335 12.072762179790587
endloop
endfacet
facet normal 1.6145489027964303e-20 0.9979643163229186 0.06377478613158712
outer loop
vertex 140.09183313327566 322.72124986462416 11.559590768260644
vertex 146.9941671332757 322.75461490526624 11.037485999380372
vertex 140.0918331332757 322.75461490526624 11.037485999380372
endloop
endfacet
facet normal 1.6145489027964303e-20 0.9979643163229186 0.06377478613158712
outer loop
vertex 146.9941671332757 322.75461490526624 11.037485999380372
vertex 140.09183313327566 322.72124986462416 11.559590768260644
vertex 146.9941671332757 322.72124986462416 11.559590768260644
endloop
endfacet
facet normal 4.995031698264724e-16 -0.8378787622453525 0.5458563728474697
outer loop
vertex 138.88949913327565 315.7605368781124 13.472531715415318
vertex 25.09306178552581 315.4771158304882 13.037485999380431
vertex 138.88949913327585 315.4771158304882 13.03748599938038
endloop
endfacet
facet normal 4.995031698264724e-16 -0.8378787622453525 0.5458563728474697
outer loop
vertex 25.09306178552581 315.4771158304882 13.037485999380431
vertex 138.88949913327565 315.7605368781124 13.472531715415318
vertex 25.093061785525762 315.76053687811213 13.472531715415306
endloop
endfacet
facet normal 3.457347996536873e-14 1.0 -1.813132977095682e-15
outer loop
vertex 23.893061785525788 321.7796149052639 -2.983121458064631
vertex 25.09306178552575 321.7796149052639 13.67027175575012
vertex 25.093061785525762 321.7796149052638 -2.9831214580646366
endloop
endfacet
facet normal 3.457347996536873e-14 1.0 -1.813132977095682e-15
outer loop
vertex 25.09306178552575 321.7796149052639 13.67027175575012
vertex 23.893061785525788 321.7796149052639 -2.983121458064631
vertex 23.893061785525788 321.7796149052639 13.67027175575011
endloop
endfacet
facet normal -3.665956427321788e-14 -1.0 1.3530843112654343e-17
outer loop
vertex 25.09306178552581 315.92961490524846 -2.9625140006195534
vertex 23.893061785525788 315.9296149052487 13.670271755750216
vertex 23.8930617855258 315.9296149052487 -2.962514000619559
endloop
endfacet
facet normal -3.665956427321788e-14 -1.0 1.3530843112654343e-17
outer loop
vertex 23.893061785525788 315.9296149052487 13.670271755750216
vertex 25.09306178552581 315.92961490524846 -2.9625140006195534
vertex 25.093061785525794 315.92961490524846 13.67027175575021
endloop
endfacet
facet normal 9.076287174907274e-17 -0.32880041922882536 0.9443994304927067
outer loop
vertex 16.99306178552578 317.36214951902843 14.733004129425538
vertex 146.99416713327565 317.8452206293536 14.901189304536688
vertex 16.993061785525754 317.8452206293536 14.9011893045367
endloop
endfacet
facet normal 9.076287174907274e-17 -0.32880041922882536 0.9443994304927067
outer loop
vertex 146.99416713327565 317.8452206293536 14.901189304536688
vertex 16.99306178552578 317.36214951902843 14.733004129425538
vertex 146.99416713327574 317.3621495190285 14.733004129425554
endloop
endfacet
facet normal 3.921178315810442e-16 -0.9979643163229182 0.06377478613159206
outer loop
vertex 138.88949913327573 314.9546149052461 11.037485999380406
vertex 25.093061785525762 314.9879799458882 11.559590768260652
vertex 25.093061785525773 314.95461490524605 11.037485999380388
endloop
endfacet
facet normal 3.921178315810442e-16 -0.9979643163229182 0.06377478613159206
outer loop
vertex 25.093061785525762 314.9879799458882 11.559590768260652
vertex 138.88949913327573 314.9546149052461 11.037485999380406
vertex 138.8894991332757 314.9879799458882 11.55959076826061
endloop
endfacet
facet normal 1.936200400122326e-17 -0.9012356857493669 0.4333292497995821
outer loop
vertex 23.89306178552581 315.4771158304882 13.037485999380452
vertex 16.9930617855258 315.25148472845285 12.56821972884078
vertex 23.893061785525777 315.2514847284528 12.568219728840765
endloop
endfacet
facet normal 1.936200400122326e-17 -0.9012356857493669 0.4333292497995821
outer loop
vertex 16.9930617855258 315.25148472845285 12.56821972884078
vertex 23.89306178552581 315.4771158304882 13.037485999380452
vertex 16.993061785525754 315.4771158304881 13.037485999380403
endloop
endfacet
facet normal 2.1691865426870035e-17 2.769820817409495e-15 1.0
outer loop
vertex 16.993061785525764 318.3455627555967 15.003265444875654
vertex 146.99416713327574 319.36366705491554 15.003265444875646
vertex 16.993061785525754 319.36366705491554 15.003265444875654
endloop
endfacet
facet normal 2.1691865426870035e-17 2.769820817409495e-15 1.0
outer loop
vertex 146.99416713327574 319.36366705491554 15.003265444875646
vertex 16.993061785525764 318.3455627555967 15.003265444875654
vertex 146.99416713327565 318.34556275559675 15.003265444875654
endloop
endfacet
facet normal -7.793928510729372e-15 0.8378787622452989 0.545856372847552
outer loop
vertex 16.99306178552581 321.94869293239987 13.4725317154153
vertex 23.8930617855258 322.23211398002417 13.03748599938048
vertex 16.993061785525754 322.23211398002417 13.037485999380358
endloop
endfacet
facet normal -7.793928510729372e-15 0.8378787622452989 0.545856372847552
outer loop
vertex 23.8930617855258 322.23211398002417 13.03748599938048
vertex 16.99306178552581 321.94869293239987 13.4725317154153
vertex 23.89306178552581 321.94869293240015 13.472531715415261
endloop
endfacet
facet normal 1.59327722521098e-15 1.0 7.85562087813518e-16
outer loop
vertex 140.0918331332757 322.75461490526624 11.037485999380372
vertex 146.9941671332757 322.75461490526624 -2.9625140006195534
vertex 140.0918331332757 322.75461490526624 -2.963883004990843
endloop
endfacet
facet normal 1.59327722521098e-15 1.0 7.85562087813518e-16
outer loop
vertex 146.9941671332757 322.75461490526624 -2.9625140006195534
vertex 140.0918331332757 322.75461490526624 11.037485999380372
vertex 146.9941671332757 322.75461490526624 11.037485999380372
endloop
endfacet
facet normal 1.0434085500101563e-16 -0.9979643163229234 0.06377478613151037
outer loop
vertex 146.99416713327574 314.9879799458882 11.5595907682606
vertex 140.0918331332758 314.95461490524605 11.037485999380396
vertex 146.9941671332758 314.95461490524605 11.037485999380396
endloop
endfacet
facet normal 1.0434085500101563e-16 -0.9979643163229234 0.06377478613151037
outer loop
vertex 140.0918331332758 314.95461490524605 11.037485999380396
vertex 146.99416713327574 314.9879799458882 11.5595907682606
vertex 140.09183313327577 314.9879799458882 11.559590768260623
endloop
endfacet
facet normal 1.0 5.6869901847147744e-15 -1.2029033761199345e-15
outer loop
vertex 146.99416713327574 314.9546149052461 -2.962514000619545
vertex 146.99416713327574 314.9879799458882 11.5595907682606
vertex 146.9941671332758 314.95461490524605 11.037485999380396
endloop
endfacet
facet normal 1.0 5.6869901847147744e-15 -1.2029033761199345e-15
outer loop
vertex 146.99416713327574 314.9879799458882 11.5595907682606
vertex 146.99416713327574 314.9546149052461 -2.962514000619545
vertex 146.9941671332757 322.75461490526624 -2.9625140006195534
endloop
endfacet
facet normal 1.0 5.6869901847147744e-15 -1.2029033761199345e-15
outer loop
vertex 146.99416713327574 314.9879799458882 11.5595907682606
vertex 146.9941671332757 322.75461490526624 -2.9625140006195534
vertex 146.9941671332758 315.0875041827189 12.072762179790498
endloop
endfacet
facet normal 1.0 5.6869901847147744e-15 -1.2029033761199345e-15
outer loop
vertex 146.9941671332758 315.0875041827189 12.072762179790498
vertex 146.9941671332757 322.75461490526624 -2.9625140006195534
vertex 146.9941671332758 315.25148472845285 12.568219728840758
endloop
endfacet
facet normal 1.0 5.6869901847147744e-15 -1.2029033761199345e-15
outer loop
vertex 146.9941671332758 315.25148472845285 12.568219728840758
vertex 146.9941671332757 322.75461490526624 -2.9625140006195534
vertex 146.9941671332757 315.4771158304882 13.03748599938038
endloop
endfacet
facet normal 1.0 5.6869901847147744e-15 -1.2029033761199345e-15
outer loop
vertex 146.9941671332757 315.4771158304882 13.03748599938038
vertex 146.9941671332757 322.75461490526624 -2.9625140006195534
vertex 146.9941671332758 315.76053687811236 13.472531715415323
endloop
endfacet
facet normal 1.0 5.6869901847147744e-15 -1.2029033761199345e-15
outer loop
vertex 146.9941671332758 315.76053687811236 13.472531715415323
vertex 146.9941671332757 322.75461490526624 -2.9625140006195534
vertex 146.99416713327582 316.0968984586215 13.865913124126592
endloop
endfacet
facet normal 1.0 5.6869901847147744e-15 -1.2029033761199345e-15
outer loop
vertex 146.99416713327582 316.0968984586215 13.865913124126592
vertex 146.9941671332757 322.75461490526624 -2.9625140006195534
vertex 146.99416713327582 316.480445332116 14.210899360545344
endloop
endfacet
facet normal 1.0 5.6869901847147744e-15 -1.2029033761199345e-15
outer loop
vertex 146.99416713327582 316.480445332116 14.210899360545344
vertex 146.9941671332757 322.75461490526624 -2.9625140006195534
vertex 146.9941671332758 316.9046149052511 14.501587614518163
endloop
endfacet
facet normal 1.0 5.6869901847147744e-15 -1.2029033761199345e-15
outer loop
vertex 146.9941671332758 316.9046149052511 14.501587614518163
vertex 146.9941671332757 322.75461490526624 -2.9625140006195534
vertex 146.99416713327574 317.3621495190285 14.733004129425554
endloop
endfacet
facet normal 1.0 5.6869901847147744e-15 -1.2029033761199345e-15
outer loop
vertex 146.99416713327574 317.3621495190285 14.733004129425554
vertex 146.9941671332757 322.75461490526624 -2.9625140006195534
vertex 146.99416713327565 317.8452206293536 14.901189304536688
endloop
endfacet
facet normal 1.0 5.6869901847147744e-15 -1.2029033761199345e-15
outer loop
vertex 146.99416713327565 317.8452206293536 14.901189304536688
vertex 146.9941671332757 322.75461490526624 -2.9625140006195534
vertex 146.99416713327565 318.34556275559675 15.003265444875654
endloop
endfacet
facet normal 1.0 5.6869901847147744e-15 -1.2029033761199345e-15
outer loop
vertex 146.99416713327565 318.34556275559675 15.003265444875654
vertex 146.9941671332757 322.75461490526624 -2.9625140006195534
vertex 146.99416713327574 319.36366705491554 15.003265444875646
endloop
endfacet
facet normal 1.0 5.6869901847147744e-15 -1.2029033761199345e-15
outer loop
vertex 146.99416713327574 319.36366705491554 15.003265444875646
vertex 146.9941671332757 322.75461490526624 -2.9625140006195534
vertex 146.9941671332758 319.8640091811587 14.901189304536677
endloop
endfacet
facet normal 1.0 5.6869901847147744e-15 -1.2029033761199345e-15
outer loop
vertex 146.9941671332758 319.8640091811587 14.901189304536677
vertex 146.9941671332757 322.75461490526624 -2.9625140006195534
vertex 146.9941671332758 320.3470802914839 14.733004129425538
endloop
endfacet
facet normal 1.0 5.6869901847147744e-15 -1.2029033761199345e-15
outer loop
vertex 146.9941671332758 320.3470802914839 14.733004129425538
vertex 146.9941671332757 322.75461490526624 -2.9625140006195534
vertex 146.9941671332757 320.8046149052613 14.50158761451814
endloop
endfacet
facet normal 1.0 5.6869901847147744e-15 -1.2029033761199345e-15
outer loop
vertex 146.9941671332757 320.8046149052613 14.50158761451814
vertex 146.9941671332757 322.75461490526624 -2.9625140006195534
vertex 146.9941671332757 321.22878447839634 14.210899360545362
endloop
endfacet
facet normal 1.0 5.6869901847147744e-15 -1.2029033761199345e-15
outer loop
vertex 146.9941671332757 321.22878447839634 14.210899360545362
vertex 146.9941671332757 322.75461490526624 -2.9625140006195534
vertex 146.9941671332757 321.6123313518908 13.86591312412658
endloop
endfacet
facet normal 1.0 5.6869901847147744e-15 -1.2029033761199345e-15
outer loop
vertex 146.9941671332757 321.6123313518908 13.86591312412658
vertex 146.9941671332757 322.75461490526624 -2.9625140006195534
vertex 146.9941671332757 321.9486929324001 13.472531715415306
endloop
endfacet
facet normal 1.0 5.6869901847147744e-15 -1.2029033761199345e-15
outer loop
vertex 146.9941671332757 321.9486929324001 13.472531715415306
vertex 146.9941671332757 322.75461490526624 -2.9625140006195534
vertex 146.9941671332758 322.23211398002417 13.037485999380374
endloop
endfacet
facet normal 1.0 5.6869901847147744e-15 -1.2029033761199345e-15
outer loop
vertex 146.9941671332758 322.23211398002417 13.037485999380374
vertex 146.9941671332757 322.75461490526624 -2.9625140006195534
vertex 146.9941671332758 322.45774508205966 12.568219728840775
endloop
endfacet
facet normal 1.0 5.6869901847147744e-15 -1.2029033761199345e-15
outer loop
vertex 146.9941671332758 322.45774508205966 12.568219728840775
vertex 146.9941671332757 322.75461490526624 -2.9625140006195534
vertex 146.9941671332758 322.62172562779335 12.072762179790498
endloop
endfacet
facet normal 1.0 5.6869901847147744e-15 -1.2029033761199345e-15
outer loop
vertex 146.9941671332758 322.62172562779335 12.072762179790498
vertex 146.9941671332757 322.75461490526624 -2.9625140006195534
vertex 146.9941671332757 322.72124986462416 11.559590768260644
endloop
endfacet
facet normal 1.0 5.6869901847147744e-15 -1.2029033761199345e-15
outer loop
vertex 146.9941671332757 322.72124986462416 11.559590768260644
vertex 146.9941671332757 322.75461490526624 -2.9625140006195534
vertex 146.9941671332757 322.75461490526624 11.037485999380372
endloop
endfacet
facet normal 3.113461431407509e-16 -0.9817081389395388 0.19039204274303875
outer loop
vertex 146.9941671332758 315.0875041827189 12.072762179790498
vertex 140.09183313327577 314.9879799458882 11.559590768260623
vertex 146.99416713327574 314.9879799458882 11.5595907682606
endloop
endfacet
facet normal 3.113461431407509e-16 -0.9817081389395388 0.19039204274303875
outer loop
vertex 140.09183313327577 314.9879799458882 11.559590768260623
vertex 146.9941671332758 315.0875041827189 12.072762179790498
vertex 140.0918331332758 315.0875041827189 12.072762179790498
endloop
endfacet
facet normal -7.846685714610332e-19 0.9817081389395443 0.1903920427430104
outer loop
vertex 140.0918331332757 322.62172562779335 12.072762179790498
vertex 146.9941671332757 322.72124986462416 11.559590768260644
vertex 140.09183313327566 322.72124986462416 11.559590768260644
endloop
endfacet
facet normal -7.846685714610332e-19 0.9817081389395443 0.1903920427430104
outer loop
vertex 146.9941671332757 322.72124986462416 11.559590768260644
vertex 140.0918331332757 322.62172562779335 12.072762179790498
vertex 146.9941671332758 322.62172562779335 12.072762179790498
endloop
endfacet
facet normal 1.3805290535586411e-18 0.9012356857493486 0.4333292497996201
outer loop
vertex 140.0918331332758 322.23211398002417 13.037485999380374
vertex 146.9941671332758 322.45774508205966 12.568219728840775
vertex 140.0918331332757 322.45774508205966 12.568219728840775
endloop
endfacet
facet normal 1.3805290535586411e-18 0.9012356857493486 0.4333292497996201
outer loop
vertex 146.9941671332758 322.45774508205966 12.568219728840775
vertex 140.0918331332758 322.23211398002417 13.037485999380374
vertex 146.9941671332758 322.23211398002417 13.037485999380374
endloop
endfacet
facet normal -2.785545288350272e-17 0.3288004192287706 0.9443994304927258
outer loop
vertex 146.9941671332758 319.8640091811587 14.901189304536677
vertex 16.99306178552578 320.3470802914839 14.733004129425549
vertex 16.993061785525743 319.8640091811586 14.901189304536667
endloop
endfacet
facet normal -2.785545288350272e-17 0.3288004192287706 0.9443994304927258
outer loop
vertex 16.99306178552578 320.3470802914839 14.733004129425549
vertex 146.9941671332758 319.8640091811587 14.901189304536677
vertex 146.9941671332758 320.3470802914839 14.733004129425538
endloop
endfacet
facet normal 4.563614782741716e-15 -0.9979643163229168 0.0637747861316151
outer loop
vertex 23.893061785525777 314.9879799458882 11.559590768260652
vertex 16.99306178552572 314.954614905246 11.037485999380412
vertex 23.893061785525763 314.95461490524605 11.037485999380388
endloop
endfacet
facet normal 4.563614782741716e-15 -0.9979643163229168 0.0637747861316151
outer loop
vertex 16.99306178552572 314.954614905246 11.037485999380412
vertex 23.893061785525777 314.9879799458882 11.559590768260652
vertex 16.993061785525754 314.9879799458882 11.5595907682606
endloop
endfacet
facet normal -2.9952984325314216e-17 -0.5653023013958441 0.8248838148712595
outer loop
vertex 16.99306178552578 316.480445332116 14.210899360545344
vertex 146.9941671332758 316.9046149052511 14.501587614518163
vertex 16.993061785525754 316.9046149052511 14.501587614518169
endloop
endfacet
facet normal -2.9952984325314216e-17 -0.5653023013958441 0.8248838148712595
outer loop
vertex 146.9941671332758 316.9046149052511 14.501587614518163
vertex 16.99306178552578 316.480445332116 14.210899360545344
vertex 146.99416713327582 316.480445332116 14.210899360545344
endloop
endfacet
facet normal 5.4049723530841074e-20 -0.9012356857493729 0.43332924979956927
outer loop
vertex 146.9941671332757 315.4771158304882 13.03748599938038
vertex 140.0918331332757 315.25148472845285 12.568219728840758
vertex 146.9941671332758 315.25148472845285 12.568219728840758
endloop
endfacet
facet normal 5.4049723530841074e-20 -0.9012356857493729 0.43332924979956927
outer loop
vertex 140.0918331332757 315.25148472845285 12.568219728840758
vertex 146.9941671332757 315.4771158304882 13.03748599938038
vertex 140.09183313327586 315.4771158304882 13.03748599938038
endloop
endfacet
facet normal -2.7525526304143737e-16 -0.9493548351998751 0.31420597843233056
outer loop
vertex 138.8894991332758 315.2514847284528 12.56821972884078
vertex 25.093061785525784 315.08750418271916 12.072762179790514
vertex 138.8894991332758 315.0875041827189 12.072762179790498
endloop
endfacet
facet normal -2.7525526304143737e-16 -0.9493548351998751 0.31420597843233056
outer loop
vertex 25.093061785525784 315.08750418271916 12.072762179790514
vertex 138.8894991332758 315.2514847284528 12.56821972884078
vertex 25.093061785525773 315.2514847284528 12.568219728840765
endloop
endfacet
facet normal 1.6149315054501372e-17 -0.6687441350039109 0.7434926239700507
outer loop
vertex 146.99416713327582 316.0968984586215 13.865913124126592
vertex 16.99306178552578 316.480445332116 14.210899360545344
vertex 16.99306178552578 316.0968984586215 13.865913124126598
endloop
endfacet
facet normal 1.6149315054501372e-17 -0.6687441350039109 0.7434926239700507
outer loop
vertex 16.99306178552578 316.480445332116 14.210899360545344
vertex 146.99416713327582 316.0968984586215 13.865913124126592
vertex 146.99416713327582 316.480445332116 14.210899360545344
endloop
endfacet
facet normal -5.290088101139218e-19 -0.4513423180578494 0.8923508905863025
outer loop
vertex 146.9941671332758 316.9046149052511 14.501587614518163
vertex 16.99306178552578 317.36214951902843 14.733004129425538
vertex 16.993061785525754 316.9046149052511 14.501587614518169
endloop
endfacet
facet normal -5.290088101139218e-19 -0.4513423180578494 0.8923508905863025
outer loop
vertex 16.99306178552578 317.36214951902843 14.733004129425538
vertex 146.9941671332758 316.9046149052511 14.501587614518163
vertex 146.99416713327574 317.3621495190285 14.733004129425554
endloop
endfacet
facet normal 2.3863477753852183e-16 -0.9012356857493605 0.433329249799595
outer loop
vertex 138.8894991332758 315.2514847284528 12.56821972884078
vertex 25.09306178552581 315.4771158304882 13.037485999380431
vertex 25.093061785525773 315.2514847284528 12.568219728840765
endloop
endfacet
facet normal 2.3863477753852183e-16 -0.9012356857493605 0.433329249799595
outer loop
vertex 25.09306178552581 315.4771158304882 13.037485999380431
vertex 138.8894991332758 315.2514847284528 12.56821972884078
vertex 138.88949913327585 315.4771158304882 13.03748599938038
endloop
endfacet
facet normal -7.197875482920364e-17 0.19989515614047906 0.9798172924334277
outer loop
vertex 16.993061785525754 319.36366705491554 15.003265444875654
vertex 146.9941671332758 319.8640091811587 14.901189304536677
vertex 16.993061785525743 319.8640091811586 14.901189304536667
endloop
endfacet
facet normal -7.197875482920364e-17 0.19989515614047906 0.9798172924334277
outer loop
vertex 146.9941671332758 319.8640091811587 14.901189304536677
vertex 16.993061785525754 319.36366705491554 15.003265444875654
vertex 146.99416713327574 319.36366705491554 15.003265444875646
endloop
endfacet
facet normal 3.97664891325072e-15 0.9979643163229176 0.06377478613160177
outer loop
vertex 16.99306178552578 322.7212498646241 11.559590768260634
vertex 23.893061785525763 322.75461490526624 11.037485999380406
vertex 16.99306178552579 322.75461490526624 11.0374859993804
endloop
endfacet
facet normal 3.97664891325072e-15 0.9979643163229176 0.06377478613160177
outer loop
vertex 23.893061785525763 322.75461490526624 11.037485999380406
vertex 16.99306178552578 322.7212498646241 11.559590768260634
vertex 23.893061785525777 322.7212498646241 11.559590768260644
endloop
endfacet
facet normal 6.53695481690715e-19 -0.8378787622453836 0.5458563728474221
outer loop
vertex 146.9941671332758 315.76053687811236 13.472531715415323
vertex 140.09183313327586 315.4771158304882 13.03748599938038
vertex 146.9941671332757 315.4771158304882 13.03748599938038
endloop
endfacet
facet normal 6.53695481690715e-19 -0.8378787622453836 0.5458563728474221
outer loop
vertex 140.09183313327586 315.4771158304882 13.03748599938038
vertex 146.9941671332758 315.76053687811236 13.472531715415323
vertex 140.0918331332757 315.76053687811236 13.472531715415323
endloop
endfacet
facet normal 1.592142907990084e-15 -1.0 -7.867564914599519e-16
outer loop
vertex 146.9941671332758 314.95461490524605 11.037485999380396
vertex 140.0918331332758 314.95461490524605 -2.9412440006196263
vertex 146.99416713327574 314.9546149052461 -2.962514000619545
endloop
endfacet
facet normal 1.592142907990084e-15 -1.0 -7.867564914599519e-16
outer loop
vertex 140.0918331332758 314.95461490524605 -2.9412440006196263
vertex 146.9941671332758 314.95461490524605 11.037485999380396
vertex 140.0918331332758 314.95461490524605 11.037485999380396
endloop
endfacet
facet normal -1.722656400048908e-16 0.949354835199866 0.3142059784323576
outer loop
vertex 25.09306178552581 322.62172562779335 12.072762179790587
vertex 138.88949913327573 322.45774508205943 12.56821972884077
vertex 138.88949913327562 322.62172562779335 12.072762179790498
endloop
endfacet
facet normal -1.722656400048908e-16 0.949354835199866 0.3142059784323576
outer loop
vertex 138.88949913327573 322.45774508205943 12.56821972884077
vertex 25.09306178552581 322.62172562779335 12.072762179790587
vertex 25.093061785525762 322.45774508205943 12.56821972884082
endloop
endfacet
facet normal 1.7248875154883185e-15 0.9817081389395435 0.19039204274301466
outer loop
vertex 16.993061785525764 322.62172562779335 12.072762179790514
vertex 23.893061785525777 322.7212498646241 11.559590768260644
vertex 16.99306178552578 322.7212498646241 11.559590768260634
endloop
endfacet
facet normal 1.7248875154883185e-15 0.9817081389395435 0.19039204274301466
outer loop
vertex 23.893061785525777 322.7212498646241 11.559590768260644
vertex 16.993061785525764 322.62172562779335 12.072762179790514
vertex 23.893061785525777 322.62172562779335 12.072762179790525
endloop
endfacet
facet normal 3.1882989073443403e-15 -1.0 -1.501923585504632e-15
outer loop
vertex 23.893061785525763 314.95461490524605 11.037485999380388
vertex 16.994167133275763 314.9546149052461 -2.962514000619545
vertex 23.893061785525763 314.9546149052461 -2.962514000619545
endloop
endfacet
facet normal 3.1882989073443403e-15 -1.0 -1.501923585504632e-15
outer loop
vertex 16.994167133275763 314.9546149052461 -2.962514000619545
vertex 23.893061785525763 314.95461490524605 11.037485999380388
vertex 16.99306178552572 314.954614905246 11.037485999380412
endloop
endfacet
facet normal 1.270572522409774e-16 -0.19989515614043368 0.9798172924334371
outer loop
vertex 146.99416713327565 317.8452206293536 14.901189304536688
vertex 16.993061785525764 318.3455627555967 15.003265444875654
vertex 16.993061785525754 317.8452206293536 14.9011893045367
endloop
endfacet
facet normal 1.270572522409774e-16 -0.19989515614043368 0.9798172924334371
outer loop
vertex 16.993061785525764 318.3455627555967 15.003265444875654
vertex 146.99416713327565 317.8452206293536 14.901189304536688
vertex 146.99416713327565 318.34556275559675 15.003265444875654
endloop
endfacet
facet normal -8.063894050814602e-17 0.8378787622453218 0.5458563728475169
outer loop
vertex 25.093061785525784 322.23211398002417 13.037485999380493
vertex 138.88949913327573 321.94869293240015 13.472531715415311
vertex 138.8894991332757 322.23211398002417 13.037485999380358
endloop
endfacet
facet normal -8.063894050814602e-17 0.8378787622453218 0.5458563728475169
outer loop
vertex 138.88949913327573 321.94869293240015 13.472531715415311
vertex 25.093061785525784 322.23211398002417 13.037485999380493
vertex 25.093061785525762 321.94869293240015 13.472531715415244
endloop
endfacet
facet normal 9.303689543875075e-17 0.9012356857493675 0.4333292497995804
outer loop
vertex 25.093061785525762 322.45774508205943 12.56821972884082
vertex 138.8894991332757 322.23211398002417 13.037485999380358
vertex 138.88949913327573 322.45774508205943 12.56821972884077
endloop
endfacet
facet normal 9.303689543875075e-17 0.9012356857493675 0.4333292497995804
outer loop
vertex 138.8894991332757 322.23211398002417 13.037485999380358
vertex 25.093061785525762 322.45774508205943 12.56821972884082
vertex 25.093061785525784 322.23211398002417 13.037485999380493
endloop
endfacet
facet normal 1.0 2.5431933523645504e-14 -9.25414293704043e-16
outer loop
vertex 23.893061785525763 322.75461490526624 -2.9831214580645913
vertex 23.893061785525788 321.7796149052639 13.67027175575011
vertex 23.893061785525788 321.7796149052639 -2.983121458064631
endloop
endfacet
facet normal 1.0 2.5431933523645504e-14 -9.25414293704043e-16
outer loop
vertex 23.893061785525788 321.7796149052639 13.67027175575011
vertex 23.893061785525763 322.75461490526624 -2.9831214580645913
vertex 23.89306178552581 321.94869293240015 13.472531715415261
endloop
endfacet
facet normal 1.0 2.5431933523645504e-14 -9.25414293704043e-16
outer loop
vertex 23.89306178552581 321.94869293240015 13.472531715415261
vertex 23.893061785525763 322.75461490526624 -2.9831214580645913
vertex 23.8930617855258 322.23211398002417 13.03748599938048
endloop
endfacet
facet normal 1.0 2.5431933523645504e-14 -9.25414293704043e-16
outer loop
vertex 23.8930617855258 322.23211398002417 13.03748599938048
vertex 23.893061785525763 322.75461490526624 -2.9831214580645913
vertex 23.8930617855258 322.45774508205943 12.568219728840832
endloop
endfacet
facet normal 1.0 2.5431933523645504e-14 -9.25414293704043e-16
outer loop
vertex 23.8930617855258 322.45774508205943 12.568219728840832
vertex 23.893061785525763 322.75461490526624 -2.9831214580645913
vertex 23.893061785525777 322.62172562779335 12.072762179790525
endloop
endfacet
facet normal 1.0 2.5431933523645504e-14 -9.25414293704043e-16
outer loop
vertex 23.893061785525777 322.62172562779335 12.072762179790525
vertex 23.893061785525763 322.75461490526624 -2.9831214580645913
vertex 23.893061785525777 322.7212498646241 11.559590768260644
endloop
endfacet
facet normal 1.0 2.5431933523645504e-14 -9.25414293704043e-16
outer loop
vertex 23.893061785525777 322.7212498646241 11.559590768260644
vertex 23.893061785525763 322.75461490526624 -2.9831214580645913
vertex 23.893061785525763 322.75461490526624 11.037485999380406
endloop
endfacet
facet normal 0.0 0.9493548351998583 0.31420597843238085
outer loop
vertex 140.0918331332757 322.45774508205966 12.568219728840775
vertex 146.9941671332758 322.62172562779335 12.072762179790498
vertex 140.0918331332757 322.62172562779335 12.072762179790498
endloop
endfacet
facet normal 0.0 0.9493548351998583 0.31420597843238085
outer loop
vertex 146.9941671332758 322.62172562779335 12.072762179790498
vertex 140.0918331332757 322.45774508205966 12.568219728840775
vertex 146.9941671332758 322.45774508205966 12.568219728840775
endloop
endfacet
facet normal 2.607733298301207e-16 -0.7600412513913839 0.649874831166294
outer loop
vertex 146.99416713327582 316.0968984586215 13.865913124126592
vertex 140.0918331332757 315.76053687811236 13.472531715415323
vertex 146.9941671332758 315.76053687811236 13.472531715415323
endloop
endfacet
facet normal 2.607733298301207e-16 -0.7600412513913839 0.649874831166294
outer loop
vertex 140.0918331332757 315.76053687811236 13.472531715415323
vertex 146.99416713327582 316.0968984586215 13.865913124126592
vertex 140.0918331332757 315.9296149052486 13.670271755750143
endloop
endfacet
facet normal 2.607733298301207e-16 -0.7600412513913839 0.649874831166294
outer loop
vertex 140.0918331332757 315.9296149052486 13.670271755750143
vertex 146.99416713327582 316.0968984586215 13.865913124126592
vertex 138.8894991332758 315.9296149052486 13.670271755750166
endloop
endfacet
facet normal 2.607733298301207e-16 -0.7600412513913839 0.649874831166294
outer loop
vertex 138.8894991332758 315.9296149052486 13.670271755750166
vertex 146.99416713327582 316.0968984586215 13.865913124126592
vertex 25.093061785525794 315.92961490524846 13.67027175575021
endloop
endfacet
facet normal 2.607733298301207e-16 -0.7600412513913839 0.649874831166294
outer loop
vertex 25.093061785525794 315.92961490524846 13.67027175575021
vertex 146.99416713327582 316.0968984586215 13.865913124126592
vertex 23.893061785525788 315.9296149052487 13.670271755750216
endloop
endfacet
facet normal 2.607733298301207e-16 -0.7600412513913839 0.649874831166294
outer loop
vertex 23.893061785525788 315.9296149052487 13.670271755750216
vertex 16.993061785525754 315.76053687811213 13.4725317154153
vertex 23.893061785525763 315.76053687811213 13.4725317154153
endloop
endfacet
facet normal 2.607733298301207e-16 -0.7600412513913839 0.649874831166294
outer loop
vertex 16.993061785525754 315.76053687811213 13.4725317154153
vertex 23.893061785525788 315.9296149052487 13.670271755750216
vertex 16.99306178552578 316.0968984586215 13.865913124126598
endloop
endfacet
facet normal 2.607733298301207e-16 -0.7600412513913839 0.649874831166294
outer loop
vertex 16.99306178552578 316.0968984586215 13.865913124126598
vertex 23.893061785525788 315.9296149052487 13.670271755750216
vertex 146.99416713327582 316.0968984586215 13.865913124126592
endloop
endfacet
facet normal 2.607733298301207e-16 -0.7600412513913839 0.649874831166294
outer loop
vertex 138.88949913327565 315.7605368781124 13.472531715415318
vertex 25.093061785525794 315.92961490524846 13.67027175575021
vertex 25.093061785525762 315.76053687811213 13.472531715415306
endloop
endfacet
facet normal 2.607733298301207e-16 -0.7600412513913839 0.649874831166294
outer loop
vertex 25.093061785525794 315.92961490524846 13.67027175575021
vertex 138.88949913327565 315.7605368781124 13.472531715415318
vertex 138.8894991332758 315.9296149052486 13.670271755750166
endloop
endfacet
facet normal -4.9674153482953684e-15 0.9012356857493894 0.43332924979953485
outer loop
vertex 16.993061785525754 322.23211398002417 13.037485999380358
vertex 23.8930617855258 322.45774508205943 12.568219728840832
vertex 16.99306178552578 322.45774508205943 12.568219728840793
endloop
endfacet
facet normal -4.9674153482953684e-15 0.9012356857493894 0.43332924979953485
outer loop
vertex 23.8930617855258 322.45774508205943 12.568219728840832
vertex 16.993061785525754 322.23211398002417 13.037485999380358
vertex 23.8930617855258 322.23211398002417 13.03748599938048
endloop
endfacet
facet normal 4.471621304869043e-16 0.8378787622453415 0.5458563728474868
outer loop
vertex 140.09183313327577 321.9486929324001 13.472531715415318
vertex 146.9941671332758 322.23211398002417 13.037485999380374
vertex 140.0918331332758 322.23211398002417 13.037485999380374
endloop
endfacet
facet normal 4.471621304869043e-16 0.8378787622453415 0.5458563728474868
outer loop
vertex 146.9941671332758 322.23211398002417 13.037485999380374
vertex 140.09183313327577 321.9486929324001 13.472531715415318
vertex 146.9941671332757 321.9486929324001 13.472531715415306
endloop
endfacet
facet normal -2.412176648555153e-16 0.7600412513914239 0.6498748311662472
outer loop
vertex 16.99306178552581 321.94869293239987 13.4725317154153
vertex 23.893061785525788 321.7796149052639 13.67027175575011
vertex 23.89306178552581 321.94869293240015 13.472531715415261
endloop
endfacet
facet normal -2.412176648555153e-16 0.7600412513914239 0.6498748311662472
outer loop
vertex 23.893061785525788 321.7796149052639 13.67027175575011
vertex 16.99306178552581 321.94869293239987 13.4725317154153
vertex 16.993061785525754 321.61233135189076 13.86591312412657
endloop
endfacet
facet normal -2.412176648555153e-16 0.7600412513914239 0.6498748311662472
outer loop
vertex 23.893061785525788 321.7796149052639 13.67027175575011
vertex 16.993061785525754 321.61233135189076 13.86591312412657
vertex 25.09306178552575 321.7796149052639 13.67027175575012
endloop
endfacet
facet normal -2.412176648555153e-16 0.7600412513914239 0.6498748311662472
outer loop
vertex 25.09306178552575 321.7796149052639 13.67027175575012
vertex 16.993061785525754 321.61233135189076 13.86591312412657
vertex 138.88949913327565 321.7796149052639 13.670271755750166
endloop
endfacet
facet normal -2.412176648555153e-16 0.7600412513914239 0.6498748311662472
outer loop
vertex 140.09183313327577 321.9486929324001 13.472531715415318
vertex 146.9941671332757 321.6123313518908 13.86591312412658
vertex 146.9941671332757 321.9486929324001 13.472531715415306
endloop
endfacet
facet normal -2.412176648555153e-16 0.7600412513914239 0.6498748311662472
outer loop
vertex 146.9941671332757 321.6123313518908 13.86591312412658
vertex 140.09183313327577 321.9486929324001 13.472531715415318
vertex 140.0918331332758 321.7796149052638 13.670271755750159
endloop
endfacet
facet normal -2.412176648555153e-16 0.7600412513914239 0.6498748311662472
outer loop
vertex 146.9941671332757 321.6123313518908 13.86591312412658
vertex 140.0918331332758 321.7796149052638 13.670271755750159
vertex 138.88949913327565 321.7796149052639 13.670271755750166
endloop
endfacet
facet normal -2.412176648555153e-16 0.7600412513914239 0.6498748311662472
outer loop
vertex 146.9941671332757 321.6123313518908 13.86591312412658
vertex 138.88949913327565 321.7796149052639 13.670271755750166
vertex 16.993061785525754 321.61233135189076 13.86591312412657
endloop
endfacet
facet normal -2.412176648555153e-16 0.7600412513914239 0.6498748311662472
outer loop
vertex 25.09306178552575 321.7796149052639 13.67027175575012
vertex 138.88949913327573 321.94869293240015 13.472531715415311
vertex 25.093061785525762 321.94869293240015 13.472531715415244
endloop
endfacet
facet normal -2.412176648555153e-16 0.7600412513914239 0.6498748311662472
outer loop
vertex 138.88949913327573 321.94869293240015 13.472531715415311
vertex 25.09306178552575 321.7796149052639 13.67027175575012
vertex 138.88949913327565 321.7796149052639 13.670271755750166
endloop
endfacet
facet normal -2.373985003675203e-16 -0.981708138939534 0.1903920427430631
outer loop
vertex 138.8894991332758 315.0875041827189 12.072762179790498
vertex 25.093061785525762 314.9879799458882 11.559590768260652
vertex 138.8894991332757 314.9879799458882 11.55959076826061
endloop
endfacet
facet normal -2.373985003675203e-16 -0.981708138939534 0.1903920427430631
outer loop
vertex 25.093061785525762 314.9879799458882 11.559590768260652
vertex 138.8894991332758 315.0875041827189 12.072762179790498
vertex 25.093061785525784 315.08750418271916 12.072762179790514
endloop
endfacet
facet normal 1.7036789471358259e-19 -0.9493548351998173 0.3142059784325044
outer loop
vertex 146.9941671332758 315.25148472845285 12.568219728840758
vertex 140.0918331332758 315.0875041827189 12.072762179790498
vertex 146.9941671332758 315.0875041827189 12.072762179790498
endloop
endfacet
facet normal 1.7036789471358259e-19 -0.9493548351998173 0.3142059784325044
outer loop
vertex 140.0918331332758 315.0875041827189 12.072762179790498
vertex 146.9941671332758 315.25148472845285 12.568219728840758
vertex 140.0918331332757 315.25148472845285 12.568219728840758
endloop
endfacet
facet normal 2.5070084000704957e-15 -0.981708138939545 0.19039204274300756
outer loop
vertex 23.893061785525777 314.9879799458882 11.559590768260652
vertex 16.99306178552579 315.0875041827189 12.072762179790514
vertex 16.993061785525754 314.9879799458882 11.5595907682606
endloop
endfacet
facet normal 2.5070084000704957e-15 -0.981708138939545 0.19039204274300756
outer loop
vertex 16.99306178552579 315.0875041827189 12.072762179790514
vertex 23.893061785525777 314.9879799458882 11.559590768260652
vertex 23.8930617855258 315.0875041827189 12.072762179790503
endloop
endfacet
facet normal -1.513482376857356e-15 -0.9493548351998443 0.31420597843242354
outer loop
vertex 23.893061785525777 315.2514847284528 12.568219728840765
vertex 16.99306178552579 315.0875041827189 12.072762179790514
vertex 23.8930617855258 315.0875041827189 12.072762179790503
endloop
endfacet
facet normal -1.513482376857356e-15 -0.9493548351998443 0.31420597843242354
outer loop
vertex 16.99306178552579 315.0875041827189 12.072762179790514
vertex 23.893061785525777 315.2514847284528 12.568219728840765
vertex 16.9930617855258 315.25148472845285 12.56821972884078
endloop
endfacet
facet normal 2.2218453291668265e-15 -0.8378787622453575 0.5458563728474621
outer loop
vertex 23.89306178552581 315.4771158304882 13.037485999380452
vertex 16.993061785525754 315.76053687811213 13.4725317154153
vertex 16.993061785525754 315.4771158304881 13.037485999380403
endloop
endfacet
facet normal 2.2218453291668265e-15 -0.8378787622453575 0.5458563728474621
outer loop
vertex 16.993061785525754 315.76053687811213 13.4725317154153
vertex 23.89306178552581 315.4771158304882 13.037485999380452
vertex 23.893061785525763 315.76053687811213 13.4725317154153
endloop
endfacet
facet normal -2.828317125828703e-16 0.6687441350039451 0.7434926239700197
outer loop
vertex 16.99306178552578 321.22878447839634 14.210899360545373
vertex 146.9941671332757 321.6123313518908 13.86591312412658
vertex 16.993061785525754 321.61233135189076 13.86591312412657
endloop
endfacet
facet normal -2.828317125828703e-16 0.6687441350039451 0.7434926239700197
outer loop
vertex 146.9941671332757 321.6123313518908 13.86591312412658
vertex 16.99306178552578 321.22878447839634 14.210899360545373
vertex 146.9941671332757 321.22878447839634 14.210899360545362
endloop
endfacet
facet normal -5.3985320848584537e-17 0.5653023013957519 0.8248838148713226
outer loop
vertex 146.9941671332757 320.8046149052613 14.50158761451814
vertex 16.99306178552578 321.22878447839634 14.210899360545373
vertex 16.993061785525764 320.80461490526125 14.501587614518158
endloop
endfacet
facet normal -5.3985320848584537e-17 0.5653023013957519 0.8248838148713226
outer loop
vertex 16.99306178552578 321.22878447839634 14.210899360545373
vertex 146.9941671332757 320.8046149052613 14.50158761451814
vertex 146.9941671332757 321.22878447839634 14.210899360545362
endloop
endfacet
facet normal 5.855228436346651e-17 0.451342318057923 0.892350890586265
outer loop
vertex 16.99306178552578 320.3470802914839 14.733004129425549
vertex 146.9941671332757 320.8046149052613 14.50158761451814
vertex 16.993061785525764 320.80461490526125 14.501587614518158
endloop
endfacet
facet normal 5.855228436346651e-17 0.451342318057923 0.892350890586265
outer loop
vertex 146.9941671332757 320.8046149052613 14.50158761451814
vertex 16.99306178552578 320.3470802914839 14.733004129425549
vertex 146.9941671332758 320.3470802914839 14.733004129425538
endloop
endfacet
facet normal 3.65883998355334e-14 1.0 -2.6446475796707095e-15
outer loop
vertex 138.88949913327565 321.7796149052638 -2.963883004990874
vertex 140.0918331332758 321.7796149052638 13.670271755750159
vertex 140.0918331332758 321.7796149052638 -2.9638830049908824
endloop
endfacet
facet normal 3.65883998355334e-14 1.0 -2.6446475796707095e-15
outer loop
vertex 140.0918331332758 321.7796149052638 13.670271755750159
vertex 138.88949913327565 321.7796149052638 -2.963883004990874
vertex 138.88949913327565 321.7796149052639 13.670271755750166
endloop
endfacet
facet normal 1.9343727613577555e-16 -1.0 -1.5735129829198973e-15
outer loop
vertex 138.88949913327573 314.9546149052461 -2.941244000619629
vertex 25.093061785525773 314.95461490524605 11.037485999380388
vertex 25.093061785525773 314.9546149052461 -2.962514000619545
endloop
endfacet
facet normal 1.9343727613577555e-16 -1.0 -1.5735129829198973e-15
outer loop
vertex 25.093061785525773 314.95461490524605 11.037485999380388
vertex 138.88949913327573 314.9546149052461 -2.941244000619629
vertex 138.88949913327573 314.9546149052461 11.037485999380406
endloop
endfacet
facet normal 2.1420765114644309e-16 0.9493548351998516 0.3142059784324008
outer loop
vertex 16.99306178552578 322.45774508205943 12.568219728840793
vertex 23.893061785525777 322.62172562779335 12.072762179790525
vertex 16.993061785525764 322.62172562779335 12.072762179790514
endloop
endfacet
facet normal 2.1420765114644309e-16 0.9493548351998516 0.3142059784324008
outer loop
vertex 23.893061785525777 322.62172562779335 12.072762179790525
vertex 16.99306178552578 322.45774508205943 12.568219728840793
vertex 23.8930617855258 322.45774508205943 12.568219728840832
endloop
endfacet
facet normal 9.147099958885081e-15 -1.0 6.620629594110482e-16
outer loop
vertex 140.0918331332757 315.9296149052486 13.670271755750143
vertex 138.8894991332758 315.92961490524846 -2.9412440006196547
vertex 140.0918331332757 315.9296149052486 -2.941244000619666
endloop
endfacet
facet normal 9.147099958885081e-15 -1.0 6.620629594110482e-16
outer loop
vertex 138.8894991332758 315.92961490524846 -2.9412440006196547
vertex 140.0918331332757 315.9296149052486 13.670271755750143
vertex 138.8894991332758 315.9296149052486 13.670271755750166
endloop
endfacet
facet normal -1.0 -1.0573025541953508e-13 -5.7574415164048645e-16
outer loop
vertex 140.0918331332758 321.7796149052638 13.670271755750159
vertex 140.0918331332757 322.75461490526624 -2.963883004990843
vertex 140.0918331332758 321.7796149052638 -2.9638830049908824
endloop
endfacet
facet normal -1.0 -1.0573025541953508e-13 -5.7574415164048645e-16
outer loop
vertex 140.0918331332757 322.75461490526624 -2.963883004990843
vertex 140.0918331332758 321.7796149052638 13.670271755750159
vertex 140.09183313327577 321.9486929324001 13.472531715415318
endloop
endfacet
facet normal -1.0 -1.0573025541953508e-13 -5.7574415164048645e-16
outer loop
vertex 140.0918331332757 322.75461490526624 -2.963883004990843
vertex 140.09183313327577 321.9486929324001 13.472531715415318
vertex 140.0918331332758 322.23211398002417 13.037485999380374
endloop
endfacet
facet normal -1.0 -1.0573025541953508e-13 -5.7574415164048645e-16
outer loop
vertex 140.0918331332757 322.75461490526624 -2.963883004990843
vertex 140.0918331332758 322.23211398002417 13.037485999380374
vertex 140.0918331332757 322.45774508205966 12.568219728840775
endloop
endfacet
facet normal -1.0 -1.0573025541953508e-13 -5.7574415164048645e-16
outer loop
vertex 140.0918331332757 322.75461490526624 -2.963883004990843
vertex 140.0918331332757 322.45774508205966 12.568219728840775
vertex 140.0918331332757 322.62172562779335 12.072762179790498
endloop
endfacet
facet normal -1.0 -1.0573025541953508e-13 -5.7574415164048645e-16
outer loop
vertex 140.0918331332757 322.75461490526624 -2.963883004990843
vertex 140.0918331332757 322.62172562779335 12.072762179790498
vertex 140.09183313327566 322.72124986462416 11.559590768260644
endloop
endfacet
facet normal -1.0 -1.0573025541953508e-13 -5.7574415164048645e-16
outer loop
vertex 140.0918331332757 322.75461490526624 -2.963883004990843
vertex 140.09183313327566 322.72124986462416 11.559590768260644
vertex 140.0918331332757 322.75461490526624 11.037485999380372
endloop
endfacet
facet normal -0.9999999986860033 -9.978617813354087e-06 -5.028340225690627e-05
outer loop
vertex 16.993061785525754 314.9879799458882 11.5595907682606
vertex 16.994167133275763 314.9546149052461 -2.962514000619545
vertex 16.99306178552572 314.954614905246 11.037485999380412
endloop
endfacet
facet normal -0.9999999986860033 -9.978617813354087e-06 -5.028340225690627e-05
outer loop
vertex 16.994167133275763 314.9546149052461 -2.962514000619545
vertex 16.993061785525754 314.9879799458882 11.5595907682606
vertex 16.994167133275763 322.75461490526584 -2.9847277874861153
endloop
endfacet
facet normal -0.9999999986860033 -9.978617813354087e-06 -5.028340225690627e-05
outer loop
vertex 16.994167133275763 322.75461490526584 -2.9847277874861153
vertex 16.993061785525754 314.9879799458882 11.5595907682606
vertex 16.99306178552579 315.0875041827189 12.072762179790514
endloop
endfacet
facet normal -0.9999999986860033 -9.978617813354087e-06 -5.028340225690627e-05
outer loop
vertex 16.994167133275763 322.75461490526584 -2.9847277874861153
vertex 16.99306178552579 315.0875041827189 12.072762179790514
vertex 16.9930617855258 315.25148472845285 12.56821972884078
endloop
endfacet
facet normal -0.9999999986860033 -9.978617813354087e-06 -5.028340225690627e-05
outer loop
vertex 16.994167133275763 322.75461490526584 -2.9847277874861153
vertex 16.9930617855258 315.25148472845285 12.56821972884078
vertex 16.993061785525754 315.4771158304881 13.037485999380403
endloop
endfacet
facet normal -0.9999999986860033 -9.978617813354087e-06 -5.028340225690627e-05
outer loop
vertex 16.994167133275763 322.75461490526584 -2.9847277874861153
vertex 16.993061785525754 315.4771158304881 13.037485999380403
vertex 16.993061785525754 315.76053687811213 13.4725317154153
endloop
endfacet
facet normal -0.9999999986860033 -9.978617813354087e-06 -5.028340225690627e-05
outer loop
vertex 16.994167133275763 322.75461490526584 -2.9847277874861153
vertex 16.993061785525754 315.76053687811213 13.4725317154153
vertex 16.99306178552578 316.0968984586215 13.865913124126598
endloop
endfacet
facet normal -0.9999999986860033 -9.978617813354087e-06 -5.028340225690627e-05
outer loop
vertex 16.994167133275763 322.75461490526584 -2.9847277874861153
vertex 16.99306178552578 316.0968984586215 13.865913124126598
vertex 16.99306178552578 316.480445332116 14.210899360545344
endloop
endfacet
facet normal -0.9999999986860033 -9.978617813354087e-06 -5.028340225690627e-05
outer loop
vertex 16.994167133275763 322.75461490526584 -2.9847277874861153
vertex 16.99306178552578 316.480445332116 14.210899360545344
vertex 16.993061785525754 316.9046149052511 14.501587614518169
endloop
endfacet
facet normal -0.9999999986860033 -9.978617813354087e-06 -5.028340225690627e-05
outer loop
vertex 16.994167133275763 322.75461490526584 -2.9847277874861153
vertex 16.993061785525754 316.9046149052511 14.501587614518169
vertex 16.99306178552578 317.36214951902843 14.733004129425538
endloop
endfacet
facet normal -0.9999999986860033 -9.978617813354087e-06 -5.028340225690627e-05
outer loop
vertex 16.994167133275763 322.75461490526584 -2.9847277874861153
vertex 16.99306178552578 317.36214951902843 14.733004129425538
vertex 16.993061785525754 317.8452206293536 14.9011893045367
endloop
endfacet
facet normal -0.9999999986860033 -9.978617813354087e-06 -5.028340225690627e-05
outer loop
vertex 16.994167133275763 322.75461490526584 -2.9847277874861153
vertex 16.993061785525754 317.8452206293536 14.9011893045367
vertex 16.993061785525764 318.3455627555967 15.003265444875654
endloop
endfacet
facet normal -0.9999999986860033 -9.978617813354087e-06 -5.028340225690627e-05
outer loop
vertex 16.994167133275763 322.75461490526584 -2.9847277874861153
vertex 16.993061785525764 318.3455627555967 15.003265444875654
vertex 16.993061785525754 319.36366705491554 15.003265444875654
endloop
endfacet
facet normal -0.9999999986860033 -9.978617813354087e-06 -5.028340225690627e-05
outer loop
vertex 16.994167133275763 322.75461490526584 -2.9847277874861153
vertex 16.993061785525754 319.36366705491554 15.003265444875654
vertex 16.993061785525743 319.8640091811586 14.901189304536667
endloop
endfacet
facet normal -0.9999999986860033 -9.978617813354087e-06 -5.028340225690627e-05
outer loop
vertex 16.994167133275763 322.75461490526584 -2.9847277874861153
vertex 16.993061785525743 319.8640091811586 14.901189304536667
vertex 16.99306178552578 320.3470802914839 14.733004129425549
endloop
endfacet
facet normal -0.9999999986860033 -9.978617813354087e-06 -5.028340225690627e-05
outer loop
vertex 16.994167133275763 322.75461490526584 -2.9847277874861153
vertex 16.99306178552578 320.3470802914839 14.733004129425549
vertex 16.993061785525764 320.80461490526125 14.501587614518158
endloop
endfacet
facet normal -0.9999999986860033 -9.978617813354087e-06 -5.028340225690627e-05
outer loop
vertex 16.994167133275763 322.75461490526584 -2.9847277874861153
vertex 16.993061785525764 320.80461490526125 14.501587614518158
vertex 16.99306178552578 321.22878447839634 14.210899360545373
endloop
endfacet
facet normal -0.9999999986860033 -9.978617813354087e-06 -5.028340225690627e-05
outer loop
vertex 16.994167133275763 322.75461490526584 -2.9847277874861153
vertex 16.99306178552578 321.22878447839634 14.210899360545373
vertex 16.993061785525754 321.61233135189076 13.86591312412657
endloop
endfacet
facet normal -0.9999999986860033 -9.978617813354087e-06 -5.028340225690627e-05
outer loop
vertex 16.994167133275763 322.75461490526584 -2.9847277874861153
vertex 16.993061785525754 321.61233135189076 13.86591312412657
vertex 16.99306178552581 321.94869293239987 13.4725317154153
endloop
endfacet
facet normal -0.9999999986860033 -9.978617813354087e-06 -5.028340225690627e-05
outer loop
vertex 16.994167133275763 322.75461490526584 -2.9847277874861153
vertex 16.99306178552581 321.94869293239987 13.4725317154153
vertex 16.993061785525754 322.23211398002417 13.037485999380358
endloop
endfacet
facet normal -0.9999999986860033 -9.978617813354087e-06 -5.028340225690627e-05
outer loop
vertex 16.994167133275763 322.75461490526584 -2.9847277874861153
vertex 16.993061785525754 322.23211398002417 13.037485999380358
vertex 16.99306178552578 322.45774508205943 12.568219728840793
endloop
endfacet
facet normal -0.9999999986860033 -9.978617813354087e-06 -5.028340225690627e-05
outer loop
vertex 16.994167133275763 322.75461490526584 -2.9847277874861153
vertex 16.99306178552578 322.45774508205943 12.568219728840793
vertex 16.993061785525764 322.62172562779335 12.072762179790514
endloop
endfacet
facet normal -0.9999999986860033 -9.978617813354087e-06 -5.028340225690627e-05
outer loop
vertex 16.994167133275763 322.75461490526584 -2.9847277874861153
vertex 16.993061785525764 322.62172562779335 12.072762179790514
vertex 16.99306178552578 322.7212498646241 11.559590768260634
endloop
endfacet
facet normal -0.9999999986860033 -9.978617813354087e-06 -5.028340225690627e-05
outer loop
vertex 16.994167133275763 322.75461490526584 -2.9847277874861153
vertex 16.99306178552578 322.7212498646241 11.559590768260634
vertex 16.99306178552579 322.75461490526624 11.0374859993804
endloop
endfacet
facet normal 1.0 -1.537324866616951e-14 -1.2701098204236689e-16
outer loop
vertex 23.893061785525763 314.9546149052461 -2.962514000619545
vertex 23.893061785525777 314.9879799458882 11.559590768260652
vertex 23.893061785525763 314.95461490524605 11.037485999380388
endloop
endfacet
facet normal 1.0 -1.537324866616951e-14 -1.2701098204236689e-16
outer loop
vertex 23.893061785525777 314.9879799458882 11.559590768260652
vertex 23.893061785525763 314.9546149052461 -2.962514000619545
vertex 23.8930617855258 315.9296149052487 -2.962514000619559
endloop
endfacet
facet normal 1.0 -1.537324866616951e-14 -1.2701098204236689e-16
outer loop
vertex 23.893061785525777 314.9879799458882 11.559590768260652
vertex 23.8930617855258 315.9296149052487 -2.962514000619559
vertex 23.8930617855258 315.0875041827189 12.072762179790503
endloop
endfacet
facet normal 1.0 -1.537324866616951e-14 -1.2701098204236689e-16
outer loop
vertex 23.8930617855258 315.0875041827189 12.072762179790503
vertex 23.8930617855258 315.9296149052487 -2.962514000619559
vertex 23.893061785525777 315.2514847284528 12.568219728840765
endloop
endfacet
facet normal 1.0 -1.537324866616951e-14 -1.2701098204236689e-16
outer loop
vertex 23.893061785525777 315.2514847284528 12.568219728840765
vertex 23.8930617855258 315.9296149052487 -2.962514000619559
vertex 23.89306178552581 315.4771158304882 13.037485999380452
endloop
endfacet
facet normal 1.0 -1.537324866616951e-14 -1.2701098204236689e-16
outer loop
vertex 23.89306178552581 315.4771158304882 13.037485999380452
vertex 23.8930617855258 315.9296149052487 -2.962514000619559
vertex 23.893061785525763 315.76053687811213 13.4725317154153
endloop
endfacet
facet normal 1.0 -1.537324866616951e-14 -1.2701098204236689e-16
outer loop
vertex 23.893061785525763 315.76053687811213 13.4725317154153
vertex 23.8930617855258 315.9296149052487 -2.962514000619559
vertex 23.893061785525788 315.9296149052487 13.670271755750216
endloop
endfacet
facet normal -1.0 -7.515232253121043e-14 4.078124798785292e-17
outer loop
vertex 140.09183313327577 314.9879799458882 11.559590768260623
vertex 140.0918331332758 314.95461490524605 -2.9412440006196263
vertex 140.0918331332758 314.95461490524605 11.037485999380396
endloop
endfacet
facet normal -1.0 -7.515232253121043e-14 4.078124798785292e-17
outer loop
vertex 140.0918331332758 314.95461490524605 -2.9412440006196263
vertex 140.09183313327577 314.9879799458882 11.559590768260623
vertex 140.0918331332757 315.9296149052486 -2.941244000619666
endloop
endfacet
facet normal -1.0 -7.515232253121043e-14 4.078124798785292e-17
outer loop
vertex 140.0918331332757 315.9296149052486 -2.941244000619666
vertex 140.09183313327577 314.9879799458882 11.559590768260623
vertex 140.0918331332758 315.0875041827189 12.072762179790498
endloop
endfacet
facet normal -1.0 -7.515232253121043e-14 4.078124798785292e-17
outer loop
vertex 140.0918331332757 315.9296149052486 -2.941244000619666
vertex 140.0918331332758 315.0875041827189 12.072762179790498
vertex 140.0918331332757 315.25148472845285 12.568219728840758
endloop
endfacet
facet normal -1.0 -7.515232253121043e-14 4.078124798785292e-17
outer loop
vertex 140.0918331332757 315.9296149052486 -2.941244000619666
vertex 140.0918331332757 315.25148472845285 12.568219728840758
vertex 140.09183313327586 315.4771158304882 13.03748599938038
endloop
endfacet
facet normal -1.0 -7.515232253121043e-14 4.078124798785292e-17
outer loop
vertex 140.0918331332757 315.9296149052486 -2.941244000619666
vertex 140.09183313327586 315.4771158304882 13.03748599938038
vertex 140.0918331332757 315.76053687811236 13.472531715415323
endloop
endfacet
facet normal -1.0 -7.515232253121043e-14 4.078124798785292e-17
outer loop
vertex 140.0918331332757 315.9296149052486 -2.941244000619666
vertex 140.0918331332757 315.76053687811236 13.472531715415323
vertex 140.0918331332757 315.9296149052486 13.670271755750143
endloop
endfacet
facet normal 1.0 -1.7450109508373623e-14 5.063092100348094e-16
outer loop
vertex 138.8894991332758 315.92961490524846 -2.9412440006196547
vertex 138.88949913327573 314.9546149052461 11.037485999380406
vertex 138.88949913327573 314.9546149052461 -2.941244000619629
endloop
endfacet
facet normal 1.0 -1.7450109508373623e-14 5.063092100348094e-16
outer loop
vertex 138.88949913327573 314.9546149052461 11.037485999380406
vertex 138.8894991332758 315.92961490524846 -2.9412440006196547
vertex 138.8894991332757 314.9879799458882 11.55959076826061
endloop
endfacet
facet normal 1.0 -1.7450109508373623e-14 5.063092100348094e-16
outer loop
vertex 138.8894991332757 314.9879799458882 11.55959076826061
vertex 138.8894991332758 315.92961490524846 -2.9412440006196547
vertex 138.8894991332758 315.0875041827189 12.072762179790498
endloop
endfacet
facet normal 1.0 -1.7450109508373623e-14 5.063092100348094e-16
outer loop
vertex 138.8894991332758 315.0875041827189 12.072762179790498
vertex 138.8894991332758 315.92961490524846 -2.9412440006196547
vertex 138.8894991332758 315.2514847284528 12.56821972884078
endloop
endfacet
facet normal 1.0 -1.7450109508373623e-14 5.063092100348094e-16
outer loop
vertex 138.8894991332758 315.2514847284528 12.56821972884078
vertex 138.8894991332758 315.92961490524846 -2.9412440006196547
vertex 138.88949913327585 315.4771158304882 13.03748599938038
endloop
endfacet
facet normal 1.0 -1.7450109508373623e-14 5.063092100348094e-16
outer loop
vertex 138.88949913327585 315.4771158304882 13.03748599938038
vertex 138.8894991332758 315.92961490524846 -2.9412440006196547
vertex 138.88949913327565 315.7605368781124 13.472531715415318
endloop
endfacet
facet normal 1.0 -1.7450109508373623e-14 5.063092100348094e-16
outer loop
vertex 138.88949913327565 315.7605368781124 13.472531715415318
vertex 138.8894991332758 315.92961490524846 -2.9412440006196547
vertex 138.8894991332758 315.9296149052486 13.670271755750166
endloop
endfacet
facet normal -2.181079178460744e-14 1.0 -1.2386990586126275e-14
outer loop
vertex 16.99306178552579 322.75461490526624 11.0374859993804
vertex 23.893061785525763 322.75461490526624 -2.9831214580645913
vertex 16.994167133275763 322.75461490526584 -2.9847277874861153
endloop
endfacet
facet normal -2.181079178460744e-14 1.0 -1.2386990586126275e-14
outer loop
vertex 23.893061785525763 322.75461490526624 -2.9831214580645913
vertex 16.99306178552579 322.75461490526624 11.0374859993804
vertex 23.893061785525763 322.75461490526624 11.037485999380406
endloop
endfacet
facet normal -1.802659656747288e-16 0.9979643163229213 0.06377478613154536
outer loop
vertex 25.093061785525762 322.75461490526624 11.037485999380406
vertex 138.88949913327573 322.72124986462416 11.559590768260657
vertex 138.88949913327573 322.75461490526624 11.037485999380396
endloop
endfacet
facet normal -1.802659656747288e-16 0.9979643163229213 0.06377478613154536
outer loop
vertex 138.88949913327573 322.72124986462416 11.559590768260657
vertex 25.093061785525762 322.75461490526624 11.037485999380406
vertex 25.093061785525762 322.7212498646241 11.55959076826069
endloop
endfacet
facet normal 1.0 -4.905402124740971e-14 -2.0515312317434073e-16
outer loop
vertex 138.88949913327573 322.75461490526624 -2.963883004990863
vertex 138.88949913327565 321.7796149052639 13.670271755750166
vertex 138.88949913327565 321.7796149052638 -2.963883004990874
endloop
endfacet
facet normal 1.0 -4.905402124740971e-14 -2.0515312317434073e-16
outer loop
vertex 138.88949913327565 321.7796149052639 13.670271755750166
vertex 138.88949913327573 322.75461490526624 -2.963883004990863
vertex 138.88949913327573 321.94869293240015 13.472531715415311
endloop
endfacet
facet normal 1.0 -4.905402124740971e-14 -2.0515312317434073e-16
outer loop
vertex 138.88949913327573 321.94869293240015 13.472531715415311
vertex 138.88949913327573 322.75461490526624 -2.963883004990863
vertex 138.8894991332757 322.23211398002417 13.037485999380358
endloop
endfacet
facet normal 1.0 -4.905402124740971e-14 -2.0515312317434073e-16
outer loop
vertex 138.8894991332757 322.23211398002417 13.037485999380358
vertex 138.88949913327573 322.75461490526624 -2.963883004990863
vertex 138.88949913327573 322.45774508205943 12.56821972884077
endloop
endfacet
facet normal 1.0 -4.905402124740971e-14 -2.0515312317434073e-16
outer loop
vertex 138.88949913327573 322.45774508205943 12.56821972884077
vertex 138.88949913327573 322.75461490526624 -2.963883004990863
vertex 138.88949913327562 322.62172562779335 12.072762179790498
endloop
endfacet
facet normal 1.0 -4.905402124740971e-14 -2.0515312317434073e-16
outer loop
vertex 138.88949913327562 322.62172562779335 12.072762179790498
vertex 138.88949913327573 322.75461490526624 -2.963883004990863
vertex 138.88949913327573 322.72124986462416 11.559590768260657
endloop
endfacet
facet normal 1.0 -4.905402124740971e-14 -2.0515312317434073e-16
outer loop
vertex 138.88949913327573 322.72124986462416 11.559590768260657
vertex 138.88949913327573 322.75461490526624 -2.963883004990863
vertex 138.88949913327573 322.75461490526624 11.037485999380396
endloop
endfacet
facet normal -1.0 1.0973475148648753e-14 4.0048258399422077e-16
outer loop
vertex 25.09306178552575 321.7796149052639 13.67027175575012
vertex 25.093061785525762 322.75461490526624 -2.9831214580645913
vertex 25.093061785525762 321.7796149052638 -2.9831214580646366
endloop
endfacet
facet normal -1.0 1.0973475148648753e-14 4.0048258399422077e-16
outer loop
vertex 25.093061785525762 322.75461490526624 -2.9831214580645913
vertex 25.09306178552575 321.7796149052639 13.67027175575012
vertex 25.093061785525762 321.94869293240015 13.472531715415244
endloop
endfacet
facet normal -1.0 1.0973475148648753e-14 4.0048258399422077e-16
outer loop
vertex 25.093061785525762 322.75461490526624 -2.9831214580645913
vertex 25.093061785525762 321.94869293240015 13.472531715415244
vertex 25.093061785525784 322.23211398002417 13.037485999380493
endloop
endfacet
facet normal -1.0 1.0973475148648753e-14 4.0048258399422077e-16
outer loop
vertex 25.093061785525762 322.75461490526624 -2.9831214580645913
vertex 25.093061785525784 322.23211398002417 13.037485999380493
vertex 25.093061785525762 322.45774508205943 12.56821972884082
endloop
endfacet
facet normal -1.0 1.0973475148648753e-14 4.0048258399422077e-16
outer loop
vertex 25.093061785525762 322.75461490526624 -2.9831214580645913
vertex 25.093061785525762 322.45774508205943 12.56821972884082
vertex 25.09306178552581 322.62172562779335 12.072762179790587
endloop
endfacet
facet normal -1.0 1.0973475148648753e-14 4.0048258399422077e-16
outer loop
vertex 25.093061785525762 322.75461490526624 -2.9831214580645913
vertex 25.09306178552581 322.62172562779335 12.072762179790587
vertex 25.093061785525762 322.7212498646241 11.55959076826069
endloop
endfacet
facet normal -1.0 1.0973475148648753e-14 4.0048258399422077e-16
outer loop
vertex 25.093061785525762 322.75461490526624 -2.9831214580645913
vertex 25.093061785525762 322.7212498646241 11.55959076826069
vertex 25.093061785525762 322.75461490526624 11.037485999380406
endloop
endfacet
facet normal -0.0 1.0 -0.0
outer loop
vertex 25.093061785525762 322.75461490526624 11.037485999380406
vertex 138.88949913327573 322.75461490526624 -2.963883004990863
vertex 25.093061785525762 322.75461490526624 -2.9831214580645913
endloop
endfacet
facet normal -0.0 1.0 -0.0
outer loop
vertex 138.88949913327573 322.75461490526624 -2.963883004990863
vertex 25.093061785525762 322.75461490526624 11.037485999380406
vertex 138.88949913327573 322.75461490526624 11.037485999380396
endloop
endfacet
facet normal -0.0013304424957781822 -0.002321940851954274 -0.9999964192503119
outer loop
vertex 146.9941671332757 322.75461490526624 -2.9625140006195534
vertex 140.0918331332758 321.7796149052638 -2.9638830049908824
vertex 140.0918331332757 322.75461490526624 -2.963883004990843
endloop
endfacet
facet normal -0.0013304424957781822 -0.002321940851954274 -0.9999964192503119
outer loop
vertex 140.0918331332758 321.7796149052638 -2.9638830049908824
vertex 146.9941671332757 322.75461490526624 -2.9625140006195534
vertex 140.0918331332758 314.95461490524605 -2.9412440006196263
endloop
endfacet
facet normal -0.0013304424957781822 -0.002321940851954274 -0.9999964192503119
outer loop
vertex 140.0918331332758 314.95461490524605 -2.9412440006196263
vertex 146.9941671332757 322.75461490526624 -2.9625140006195534
vertex 146.99416713327574 314.9546149052461 -2.962514000619545
endloop
endfacet
facet normal -0.0013304424957781822 -0.002321940851954274 -0.9999964192503119
outer loop
vertex 140.0918331332758 321.7796149052638 -2.9638830049908824
vertex 138.8894991332758 315.92961490524846 -2.9412440006196547
vertex 138.88949913327565 321.7796149052638 -2.963883004990874
endloop
endfacet
facet normal -0.0013304424957781822 -0.002321940851954274 -0.9999964192503119
outer loop
vertex 138.8894991332758 315.92961490524846 -2.9412440006196547
vertex 140.0918331332758 321.7796149052638 -2.9638830049908824
vertex 140.0918331332757 315.9296149052486 -2.941244000619666
endloop
endfacet
facet normal -0.0013304424957781822 -0.002321940851954274 -0.9999964192503119
outer loop
vertex 140.0918331332757 315.9296149052486 -2.941244000619666
vertex 140.0918331332758 321.7796149052638 -2.9638830049908824
vertex 140.0918331332758 314.95461490524605 -2.9412440006196263
endloop
endfacet
facet normal 0.000116418836918417 -0.0029156517470114393 -0.99999574270171
outer loop
vertex 23.893061785525763 322.75461490526624 -2.9831214580645913
vertex 16.994167133275763 314.9546149052461 -2.962514000619545
vertex 16.994167133275763 322.75461490526584 -2.9847277874861153
endloop
endfacet
facet normal 0.000116418836918417 -0.0029156517470114393 -0.99999574270171
outer loop
vertex 16.994167133275763 314.9546149052461 -2.962514000619545
vertex 23.893061785525763 322.75461490526624 -2.9831214580645913
vertex 23.893061785525763 314.9546149052461 -2.962514000619545
endloop
endfacet
facet normal 0.000116418836918417 -0.0029156517470114393 -0.99999574270171
outer loop
vertex 23.893061785525763 314.9546149052461 -2.962514000619545
vertex 23.893061785525763 322.75461490526624 -2.9831214580645913
vertex 23.893061785525788 321.7796149052639 -2.983121458064631
endloop
endfacet
facet normal 0.000116418836918417 -0.0029156517470114393 -0.99999574270171
outer loop
vertex 23.893061785525763 314.9546149052461 -2.962514000619545
vertex 23.893061785525788 321.7796149052639 -2.983121458064631
vertex 23.8930617855258 315.9296149052487 -2.962514000619559
endloop
endfacet
facet normal 0.00017735126054271985 -0.0031685855653498067 -0.9999949642933434
outer loop
vertex 138.88949913327573 322.75461490526624 -2.963883004990863
vertex 25.093061785525762 321.7796149052638 -2.9831214580646366
vertex 25.093061785525762 322.75461490526624 -2.9831214580645913
endloop
endfacet
facet normal 0.00017735126054271985 -0.0031685855653498067 -0.9999949642933434
outer loop
vertex 25.093061785525762 321.7796149052638 -2.9831214580646366
vertex 138.88949913327573 322.75461490526624 -2.963883004990863
vertex 25.09306178552581 315.92961490524846 -2.9625140006195534
endloop
endfacet
facet normal 0.00017735126054271985 -0.0031685855653498067 -0.9999949642933434
outer loop
vertex 25.09306178552581 315.92961490524846 -2.9625140006195534
vertex 138.88949913327573 322.75461490526624 -2.963883004990863
vertex 138.88949913327565 321.7796149052638 -2.963883004990874
endloop
endfacet
facet normal 0.00017735126054271985 -0.0031685855653498067 -0.9999949642933434
outer loop
vertex 25.09306178552581 315.92961490524846 -2.9625140006195534
vertex 138.88949913327573 314.9546149052461 -2.941244000619629
vertex 25.093061785525773 314.9546149052461 -2.962514000619545
endloop
endfacet
facet normal 0.00017735126054271985 -0.0031685855653498067 -0.9999949642933434
outer loop
vertex 138.88949913327573 314.9546149052461 -2.941244000619629
vertex 25.09306178552581 315.92961490524846 -2.9625140006195534
vertex 138.88949913327565 321.7796149052638 -2.963883004990874
endloop
endfacet
facet normal 0.00017735126054271985 -0.0031685855653498067 -0.9999949642933434
outer loop
vertex 138.88949913327573 314.9546149052461 -2.941244000619629
vertex 138.88949913327565 321.7796149052638 -2.963883004990874
vertex 138.8894991332758 315.92961490524846 -2.9412440006196547
endloop
endfacet
facet normal 0.00017735126054271985 -0.0031685855653498067 -0.9999949642933434
outer loop
vertex 25.093061785525762 321.7796149052638 -2.9831214580646366
vertex 23.8930617855258 315.9296149052487 -2.962514000619559
vertex 23.893061785525788 321.7796149052639 -2.983121458064631
endloop
endfacet
facet normal 0.00017735126054271985 -0.0031685855653498067 -0.9999949642933434
outer loop
vertex 23.8930617855258 315.9296149052487 -2.962514000619559
vertex 25.093061785525762 321.7796149052638 -2.9831214580646366
vertex 25.09306178552581 315.92961490524846 -2.9625140006195534
endloop
endfacet
endsolid spool_stand_3.1
