solid spool_stand_3.1
facet normal 1.0 6.547267075270552e-15 -9.3573015035032e-16
outer loop
vertex 128.99195643777563 135.72218645959637 -3.98167704190751
vertex 128.9919564377757 128.1226464595964 10.018322958092464
vertex 128.99195643777566 128.12264645959638 -3.9816770419075183
endloop
endfacet
facet normal 1.0 6.547267075270552e-15 -9.3573015035032e-16
outer loop
vertex 128.9919564377757 128.1226464595964 10.018322958092464
vertex 128.99195643777563 135.72218645959637 -3.98167704190751
vertex 128.99195643777566 128.15515401869408 10.540427726972633
endloop
endfacet
facet normal 1.0 6.547267075270552e-15 -9.3573015035032e-16
outer loop
vertex 128.99195643777566 128.15515401869408 10.540427726972633
vertex 128.99195643777563 135.72218645959637 -3.98167704190751
vertex 128.9919564377757 128.25212048263805 11.053599138502536
endloop
endfacet
facet normal 1.0 6.547267075270552e-15 -9.3573015035032e-16
outer loop
vertex 128.9919564377757 128.25212048263805 11.053599138502536
vertex 128.99195643777563 135.72218645959637 -3.98167704190751
vertex 128.9919564377757 128.41188672834613 11.549056687552836
endloop
endfacet
facet normal 1.0 6.547267075270552e-15 -9.3573015035032e-16
outer loop
vertex 128.9919564377757 128.41188672834613 11.549056687552836
vertex 128.99195643777563 135.72218645959637 -3.98167704190751
vertex 128.99195643777563 128.6317191110585 12.018322958092469
endloop
endfacet
facet normal 1.0 6.547267075270552e-15 -9.3573015035032e-16
outer loop
vertex 128.99195643777563 128.6317191110585 12.018322958092469
vertex 128.99195643777563 135.72218645959637 -3.98167704190751
vertex 128.9919564377757 128.90785623775804 12.453368674127336
endloop
endfacet
facet normal 1.0 6.547267075270552e-15 -9.3573015035032e-16
outer loop
vertex 128.9919564377757 128.90785623775804 12.453368674127336
vertex 128.99195643777563 135.72218645959637 -3.98167704190751
vertex 128.99195643777577 129.23557332564724 12.84675008283861
endloop
endfacet
facet normal 1.0 6.547267075270552e-15 -9.3573015035032e-16
outer loop
vertex 128.99195643777577 129.23557332564724 12.84675008283861
vertex 128.99195643777563 135.72218645959637 -3.98167704190751
vertex 128.99195643777577 129.60926304449194 13.19173631925744
endloop
endfacet
facet normal 1.0 6.547267075270552e-15 -9.3573015035032e-16
outer loop
vertex 128.99195643777577 129.60926304449194 13.19173631925744
vertex 128.99195643777563 135.72218645959637 -3.98167704190751
vertex 128.9919564377757 130.02253145959637 13.482424573230203
endloop
endfacet
facet normal 1.0 6.547267075270552e-15 -9.3573015035032e-16
outer loop
vertex 128.9919564377757 130.02253145959637 13.482424573230203
vertex 128.99195643777563 135.72218645959637 -3.98167704190751
vertex 128.99195643777566 130.46830743379854 13.713841088137634
endloop
endfacet
facet normal 1.0 6.547267075270552e-15 -9.3573015035032e-16
outer loop
vertex 128.99195643777566 130.46830743379854 13.713841088137634
vertex 128.99195643777563 135.72218645959637 -3.98167704190751
vertex 128.99195643777557 130.93896361658727 13.88202626324872
endloop
endfacet
facet normal 1.0 6.547267075270552e-15 -9.3573015035032e-16
outer loop
vertex 128.99195643777557 130.93896361658727 13.88202626324872
vertex 128.99195643777563 135.72218645959637 -3.98167704190751
vertex 128.99195643777557 131.42644695018458 13.984102403587698
endloop
endfacet
facet normal 1.0 6.547267075270552e-15 -9.3573015035032e-16
outer loop
vertex 128.99195643777557 131.42644695018458 13.984102403587698
vertex 128.99195643777563 135.72218645959637 -3.98167704190751
vertex 128.99195643777566 132.41838596900837 13.984102403587665
endloop
endfacet
facet normal 1.0 6.547267075270552e-15 -9.3573015035032e-16
outer loop
vertex 128.99195643777566 132.41838596900837 13.984102403587665
vertex 128.99195643777563 135.72218645959637 -3.98167704190751
vertex 128.9919564377757 132.90586930260565 13.882026263248738
endloop
endfacet
facet normal 1.0 6.547267075270552e-15 -9.3573015035032e-16
outer loop
vertex 128.9919564377757 132.90586930260565 13.882026263248738
vertex 128.99195643777563 135.72218645959637 -3.98167704190751
vertex 128.9919564377757 133.37652548539432 13.713841088137613
endloop
endfacet
facet normal 1.0 6.547267075270552e-15 -9.3573015035032e-16
outer loop
vertex 128.9919564377757 133.37652548539432 13.713841088137613
vertex 128.99195643777563 135.72218645959637 -3.98167704190751
vertex 128.99195643777563 133.82230145959645 13.482424573230226
endloop
endfacet
facet normal 1.0 6.547267075270552e-15 -9.3573015035032e-16
outer loop
vertex 128.99195643777563 133.82230145959645 13.482424573230226
vertex 128.99195643777563 135.72218645959637 -3.98167704190751
vertex 128.99195643777563 134.23556987470093 13.191736319257453
endloop
endfacet
facet normal 1.0 6.547267075270552e-15 -9.3573015035032e-16
outer loop
vertex 128.99195643777563 134.23556987470093 13.191736319257453
vertex 128.99195643777563 135.72218645959637 -3.98167704190751
vertex 128.99195643777563 134.60925959354563 12.84675008283866
endloop
endfacet
facet normal 1.0 6.547267075270552e-15 -9.3573015035032e-16
outer loop
vertex 128.99195643777563 134.60925959354563 12.84675008283866
vertex 128.99195643777563 135.72218645959637 -3.98167704190751
vertex 128.99195643777563 134.93697668143497 12.453368674127342
endloop
endfacet
facet normal 1.0 6.547267075270552e-15 -9.3573015035032e-16
outer loop
vertex 128.99195643777563 134.93697668143497 12.453368674127342
vertex 128.99195643777563 135.72218645959637 -3.98167704190751
vertex 128.9919564377757 135.21311380813438 12.018322958092423
endloop
endfacet
facet normal 1.0 6.547267075270552e-15 -9.3573015035032e-16
outer loop
vertex 128.9919564377757 135.21311380813438 12.018322958092423
vertex 128.99195643777563 135.72218645959637 -3.98167704190751
vertex 128.9919564377757 135.43294619084685 11.549056687552818
endloop
endfacet
facet normal 1.0 6.547267075270552e-15 -9.3573015035032e-16
outer loop
vertex 128.9919564377757 135.43294619084685 11.549056687552818
vertex 128.99195643777563 135.72218645959637 -3.98167704190751
vertex 128.9919564377757 135.5927124365549 11.053599138502555
endloop
endfacet
facet normal 1.0 6.547267075270552e-15 -9.3573015035032e-16
outer loop
vertex 128.9919564377757 135.5927124365549 11.053599138502555
vertex 128.99195643777563 135.72218645959637 -3.98167704190751
vertex 128.99195643777563 135.68967890049873 10.540427726972696
endloop
endfacet
facet normal 1.0 6.547267075270552e-15 -9.3573015035032e-16
outer loop
vertex 128.99195643777563 135.68967890049873 10.540427726972696
vertex 128.99195643777563 135.72218645959637 -3.98167704190751
vertex 128.99195643777563 135.72218645959637 10.018322958092464
endloop
endfacet
facet normal -1.176738206219563e-16 0.2049492220847857 0.9787726070782944
outer loop
vertex 16.991956437775713 132.41838596900828 13.984102403587674
vertex 128.9919564377757 132.90586930260565 13.882026263248738
vertex 16.991956437775702 132.90586930260557 13.88202626324873
endloop
endfacet
facet normal -1.176738206219563e-16 0.2049492220847857 0.9787726070782944
outer loop
vertex 128.9919564377757 132.90586930260565 13.882026263248738
vertex 16.991956437775713 132.41838596900828 13.984102403587674
vertex 128.99195643777566 132.41838596900837 13.984102403587665
endloop
endfacet
facet normal 0.0 1.2417719637390985e-16 1.0
outer loop
vertex 16.991956437775723 131.42644695018444 13.984102403587697
vertex 128.99195643777566 132.41838596900837 13.984102403587665
vertex 16.991956437775713 132.41838596900828 13.984102403587674
endloop
endfacet
facet normal 0.0 1.2417719637390985e-16 1.0
outer loop
vertex 128.99195643777566 132.41838596900837 13.984102403587665
vertex 16.991956437775723 131.42644695018444 13.984102403587697
vertex 128.99195643777557 131.42644695018458 13.984102403587698
endloop
endfacet
facet normal 1.764724790079516e-16 -0.20494922208477193 0.9787726070782972
outer loop
vertex 128.99195643777557 130.93896361658727 13.88202626324872
vertex 16.991956437775723 131.42644695018444 13.984102403587697
vertex 16.991956437775713 130.93896361658716 13.882026263248763
endloop
endfacet
facet normal 1.764724790079516e-16 -0.20494922208477193 0.9787726070782972
outer loop
vertex 16.991956437775723 131.42644695018444 13.984102403587697
vertex 128.99195643777557 130.93896361658727 13.88202626324872
vertex 128.99195643777557 131.42644695018458 13.984102403587698
endloop
endfacet
facet normal 2.575069793046715e-16 -0.336502624763552 0.9416825279929749
outer loop
vertex 16.991956437775734 130.4683074337984 13.713841088137576
vertex 128.99195643777557 130.93896361658727 13.88202626324872
vertex 16.991956437775713 130.93896361658716 13.882026263248763
endloop
endfacet
facet normal 2.575069793046715e-16 -0.336502624763552 0.9416825279929749
outer loop
vertex 128.99195643777557 130.93896361658727 13.88202626324872
vertex 16.991956437775734 130.4683074337984 13.713841088137576
vertex 128.99195643777566 130.46830743379854 13.713841088137634
endloop
endfacet
facet normal 2.6437044091271366e-16 -0.46074613208020637 0.8875319722540304
outer loop
vertex 128.9919564377757 130.02253145959637 13.482424573230203
vertex 16.991956437775734 130.4683074337984 13.713841088137576
vertex 16.991956437775713 130.02253145959637 13.482424573230244
endloop
endfacet
facet normal 2.6437044091271366e-16 -0.46074613208020637 0.8875319722540304
outer loop
vertex 16.991956437775734 130.4683074337984 13.713841088137576
vertex 128.9919564377757 130.02253145959637 13.482424573230203
vertex 128.99195643777566 130.46830743379854 13.713841088137634
endloop
endfacet
facet normal 1.6493161845213128e-16 -0.5753209700549891 0.8179277360592355
outer loop
vertex 16.991956437775734 129.6092630444919 13.191736319257439
vertex 128.9919564377757 130.02253145959637 13.482424573230203
vertex 16.991956437775713 130.02253145959637 13.482424573230244
endloop
endfacet
facet normal 1.6493161845213128e-16 -0.5753209700549891 0.8179277360592355
outer loop
vertex 128.9919564377757 130.02253145959637 13.482424573230203
vertex 16.991956437775734 129.6092630444919 13.191736319257439
vertex 128.99195643777577 129.60926304449194 13.19173631925744
endloop
endfacet
facet normal 2.596273492873936e-16 -0.6783245636602786 0.7347624012802321
outer loop
vertex 128.99195643777577 129.23557332564724 12.84675008283861
vertex 16.991956437775734 129.6092630444919 13.191736319257439
vertex 16.991956437775734 129.23557332564718 12.846750082838602
endloop
endfacet
facet normal 2.596273492873936e-16 -0.6783245636602786 0.7347624012802321
outer loop
vertex 16.991956437775734 129.6092630444919 13.191736319257439
vertex 128.99195643777577 129.23557332564724 12.84675008283861
vertex 128.99195643777577 129.60926304449194 13.19173631925744
endloop
endfacet
facet normal 5.958597594598596e-16 -0.7683180485272921 0.6400682590999288
outer loop
vertex 128.99195643777577 129.23557332564724 12.84675008283861
vertex 122.08962243777563 128.90785623775804 12.453368674127336
vertex 128.9919564377757 128.90785623775804 12.453368674127336
endloop
endfacet
facet normal 5.958597594598596e-16 -0.7683180485272921 0.6400682590999288
outer loop
vertex 122.08962243777563 128.90785623775804 12.453368674127336
vertex 128.99195643777577 129.23557332564724 12.84675008283861
vertex 122.08962243777563 129.07258895959643 12.65110871446222
endloop
endfacet
facet normal 5.958597594598596e-16 -0.7683180485272921 0.6400682590999288
outer loop
vertex 122.08962243777563 129.07258895959643 12.65110871446222
vertex 128.99195643777577 129.23557332564724 12.84675008283861
vertex 25.091956437775753 129.07258895959635 12.651108714462291
endloop
endfacet
facet normal 5.958597594598596e-16 -0.7683180485272921 0.6400682590999288
outer loop
vertex 25.091956437775753 129.07258895959635 12.651108714462291
vertex 128.99195643777577 129.23557332564724 12.84675008283861
vertex 16.991956437775734 129.23557332564718 12.846750082838602
endloop
endfacet
facet normal 5.958597594598596e-16 -0.7683180485272921 0.6400682590999288
outer loop
vertex 23.891956437775747 129.07258895959637 12.651108714462257
vertex 16.991956437775713 128.90785623775795 12.453368674127328
vertex 23.891956437775722 128.90785623775795 12.453368674127328
endloop
endfacet
facet normal 5.958597594598596e-16 -0.7683180485272921 0.6400682590999288
outer loop
vertex 16.991956437775713 128.90785623775795 12.453368674127328
vertex 23.891956437775747 129.07258895959637 12.651108714462257
vertex 16.991956437775734 129.23557332564718 12.846750082838602
endloop
endfacet
facet normal 5.958597594598596e-16 -0.7683180485272921 0.6400682590999288
outer loop
vertex 16.991956437775734 129.23557332564718 12.846750082838602
vertex 23.891956437775747 129.07258895959637 12.651108714462257
vertex 25.091956437775753 129.07258895959635 12.651108714462291
endloop
endfacet
facet normal 5.958597594598596e-16 -0.7683180485272921 0.6400682590999288
outer loop
vertex 120.88728843777558 128.90785623775804 12.453368674127361
vertex 25.091956437775753 129.07258895959635 12.651108714462291
vertex 25.09195643777572 128.90785623775793 12.453368674127319
endloop
endfacet
facet normal 5.958597594598596e-16 -0.7683180485272921 0.6400682590999288
outer loop
vertex 25.091956437775753 129.07258895959635 12.651108714462291
vertex 120.88728843777558 128.90785623775804 12.453368674127361
vertex 120.88728843777571 129.07258895959643 12.651108714462197
endloop
endfacet
facet normal 5.958597594598596e-16 -0.7683180485272921 0.6400682590999288
outer loop
vertex 25.091956437775753 129.07258895959635 12.651108714462291
vertex 120.88728843777571 129.07258895959643 12.651108714462197
vertex 122.08962243777563 129.07258895959643 12.65110871446222
endloop
endfacet
facet normal 5.984497921459043e-16 -0.8442851471216144 0.5358941969734639
outer loop
vertex 120.88728843777558 128.90785623775804 12.453368674127361
vertex 25.091956437775764 128.63171911105843 12.018322958092522
vertex 120.88728843777575 128.6317191110585 12.01832295809248
endloop
endfacet
facet normal 5.984497921459043e-16 -0.8442851471216144 0.5358941969734639
outer loop
vertex 25.091956437775764 128.63171911105843 12.018322958092522
vertex 120.88728843777558 128.90785623775804 12.453368674127361
vertex 25.09195643777572 128.90785623775793 12.453368674127319
endloop
endfacet
facet normal 1.895491376830353e-17 -0.9055599042120606 0.424218410589927
outer loop
vertex 23.891956437775768 128.6317191110585 12.018322958092503
vertex 16.99195643777576 128.41188672834605 11.54905668755285
vertex 23.891956437775733 128.41188672834602 11.549056687552833
endloop
endfacet
facet normal 1.895491376830353e-17 -0.9055599042120606 0.424218410589927
outer loop
vertex 16.99195643777576 128.41188672834605 11.54905668755285
vertex 23.891956437775768 128.6317191110585 12.018322958092503
vertex 16.991956437775713 128.63171911105843 12.018322958092499
endloop
endfacet
facet normal 2.1288027221063864e-16 -0.9517415971885183 0.3069005248953612
outer loop
vertex 120.88728843777571 128.4118867283461 11.549056687552838
vertex 25.091956437775742 128.25212048263808 11.053599138502538
vertex 120.88728843777571 128.25212048263805 11.053599138502536
endloop
endfacet
facet normal 2.1288027221063864e-16 -0.9517415971885183 0.3069005248953612
outer loop
vertex 25.091956437775742 128.25212048263808 11.053599138502538
vertex 120.88728843777571 128.4118867283461 11.549056687552838
vertex 25.091956437775732 128.41188672834602 11.549056687552833
endloop
endfacet
facet normal -3.0495989331121954e-15 -0.9826121960031198 0.1856697936281681
outer loop
vertex 128.99195643777566 128.15515401869408 10.540427726972633
vertex 122.08962243777573 128.25212048263805 11.053599138502536
vertex 122.08962243777569 128.1551540186941 10.540427726972613
endloop
endfacet
facet normal -3.0495989331121954e-15 -0.9826121960031198 0.1856697936281681
outer loop
vertex 122.08962243777573 128.25212048263805 11.053599138502536
vertex 128.99195643777566 128.15515401869408 10.540427726972633
vertex 128.9919564377757 128.25212048263805 11.053599138502536
endloop
endfacet
facet normal 6.844696758532177e-16 -0.9980673066726089 0.06214218656665319
outer loop
vertex 120.88728843777562 128.15515401869413 10.540427726972624
vertex 25.091956437775732 128.12264645959635 10.018322958092474
vertex 120.88728843777567 128.1226464595964 10.01832295809244
endloop
endfacet
facet normal 6.844696758532177e-16 -0.9980673066726089 0.06214218656665319
outer loop
vertex 25.091956437775732 128.12264645959635 10.018322958092474
vertex 120.88728843777562 128.15515401869413 10.540427726972624
vertex 25.09195643777572 128.15515401869405 10.540427726972695
endloop
endfacet
facet normal 6.71132328747983e-16 -1.0 1.1205635377931065e-16
outer loop
vertex 120.88728843777567 128.12264645959647 -3.960407041907555
vertex 25.091956437775732 128.12264645959635 10.018322958092474
vertex 25.091956437775732 128.12264645959633 -3.981677041907557
endloop
endfacet
facet normal 6.71132328747983e-16 -1.0 1.1205635377931065e-16
outer loop
vertex 25.091956437775732 128.12264645959635 10.018322958092474
vertex 120.88728843777567 128.12264645959647 -3.960407041907555
vertex 120.88728843777567 128.1226464595964 10.01832295809244
endloop
endfacet
facet normal 0.0 1.0 -1.1205635377931065e-16
outer loop
vertex 122.08962243777563 135.72218645959637 10.018322958092464
vertex 128.99195643777563 135.72218645959637 -3.98167704190751
vertex 122.08962243777563 135.72218645959637 -3.983046046278822
endloop
endfacet
facet normal 0.0 1.0 -1.1205635377931065e-16
outer loop
vertex 128.99195643777563 135.72218645959637 -3.98167704190751
vertex 122.08962243777563 135.72218645959637 10.018322958092464
vertex 128.99195643777563 135.72218645959637 10.018322958092464
endloop
endfacet
facet normal -7.746388277889855e-16 0.9980673066726107 0.06214218656661962
outer loop
vertex 122.08962243777559 135.6896789004987 10.540427726972691
vertex 128.99195643777563 135.72218645959637 10.018322958092464
vertex 122.08962243777563 135.72218645959637 10.018322958092464
endloop
endfacet
facet normal -7.746388277889855e-16 0.9980673066726107 0.06214218656661962
outer loop
vertex 128.99195643777563 135.72218645959637 10.018322958092464
vertex 122.08962243777559 135.6896789004987 10.540427726972691
vertex 128.99195643777563 135.68967890049873 10.540427726972696
endloop
endfacet
facet normal -8.030466173746023e-16 0.9826121960031168 0.18566979362818317
outer loop
vertex 25.09195643777572 135.6896789004986 10.540427726972695
vertex 120.88728843777552 135.59271243655482 11.053599138502546
vertex 120.88728843777567 135.6896789004987 10.540427726972668
endloop
endfacet
facet normal -8.030466173746023e-16 0.9826121960031168 0.18566979362818317
outer loop
vertex 120.88728843777552 135.59271243655482 11.053599138502546
vertex 25.09195643777572 135.6896789004986 10.540427726972695
vertex 25.091956437775764 135.59271243655468 11.05359913850261
endloop
endfacet
facet normal 0.0 0.9517415971884925 0.3069005248954411
outer loop
vertex 122.08962243777563 135.43294619084685 11.549056687552818
vertex 128.9919564377757 135.5927124365549 11.053599138502555
vertex 122.08962243777563 135.5927124365549 11.053599138502555
endloop
endfacet
facet normal 0.0 0.9517415971884925 0.3069005248954411
outer loop
vertex 128.9919564377757 135.5927124365549 11.053599138502555
vertex 122.08962243777563 135.43294619084685 11.549056687552818
vertex 128.9919564377757 135.43294619084685 11.549056687552818
endloop
endfacet
facet normal -4.862974389032114e-15 0.9055599042120823 0.42421841058988
outer loop
vertex 16.991956437775713 135.21311380813435 12.018322958092437
vertex 23.891956437775757 135.4329461908468 11.549056687552884
vertex 16.991956437775734 135.4329461908468 11.549056687552833
endloop
endfacet
facet normal -4.862974389032114e-15 0.9055599042120823 0.42421841058988
outer loop
vertex 23.891956437775757 135.4329461908468 11.549056687552884
vertex 16.991956437775713 135.21311380813435 12.018322958092437
vertex 23.891956437775757 135.21311380813435 12.01832295809256
endloop
endfacet
facet normal -6.563143561515263e-16 0.8442851471216237 0.5358941969734494
outer loop
vertex 122.08962243777569 134.93697668143497 12.453368674127352
vertex 128.9919564377757 135.21311380813438 12.018322958092423
vertex 122.08962243777573 135.21311380813438 12.018322958092423
endloop
endfacet
facet normal -6.563143561515263e-16 0.8442851471216237 0.5358941969734494
outer loop
vertex 128.9919564377757 135.21311380813438 12.018322958092423
vertex 122.08962243777569 134.93697668143497 12.453368674127352
vertex 128.99195643777563 134.93697668143497 12.453368674127342
endloop
endfacet
facet normal -5.11637233144259e-16 0.7683180485273153 0.6400682590999008
outer loop
vertex 16.99195643777577 134.93697668143486 12.453368674127375
vertex 23.891956437775747 134.7722439595964 12.651108714462175
vertex 23.891956437775768 134.93697668143494 12.453368674127308
endloop
endfacet
facet normal -5.11637233144259e-16 0.7683180485273153 0.6400682590999008
outer loop
vertex 23.891956437775747 134.7722439595964 12.651108714462175
vertex 16.99195643777577 134.93697668143486 12.453368674127375
vertex 16.991956437775713 134.60925959354557 12.84675008283866
endloop
endfacet
facet normal -5.11637233144259e-16 0.7683180485273153 0.6400682590999008
outer loop
vertex 23.891956437775747 134.7722439595964 12.651108714462175
vertex 16.991956437775713 134.60925959354557 12.84675008283866
vertex 25.09195643777571 134.77224395959638 12.6511087144622
endloop
endfacet
facet normal -5.11637233144259e-16 0.7683180485273153 0.6400682590999008
outer loop
vertex 25.09195643777571 134.77224395959638 12.6511087144622
vertex 16.991956437775713 134.60925959354557 12.84675008283866
vertex 120.88728843777558 134.7722439595964 12.651108714462243
endloop
endfacet
facet normal -5.11637233144259e-16 0.7683180485273153 0.6400682590999008
outer loop
vertex 122.08962243777569 134.93697668143497 12.453368674127352
vertex 128.99195643777563 134.60925959354563 12.84675008283866
vertex 128.99195643777563 134.93697668143497 12.453368674127342
endloop
endfacet
facet normal -5.11637233144259e-16 0.7683180485273153 0.6400682590999008
outer loop
vertex 128.99195643777563 134.60925959354563 12.84675008283866
vertex 122.08962243777569 134.93697668143497 12.453368674127352
vertex 122.08962243777573 134.77224395959638 12.651108714462234
endloop
endfacet
facet normal -5.11637233144259e-16 0.7683180485273153 0.6400682590999008
outer loop
vertex 128.99195643777563 134.60925959354563 12.84675008283866
vertex 122.08962243777573 134.77224395959638 12.651108714462234
vertex 120.88728843777558 134.7722439595964 12.651108714462243
endloop
endfacet
facet normal -5.11637233144259e-16 0.7683180485273153 0.6400682590999008
outer loop
vertex 128.99195643777563 134.60925959354563 12.84675008283866
vertex 120.88728843777558 134.7722439595964 12.651108714462243
vertex 16.991956437775713 134.60925959354557 12.84675008283866
endloop
endfacet
facet normal -5.11637233144259e-16 0.7683180485273153 0.6400682590999008
outer loop
vertex 25.09195643777571 134.77224395959638 12.6511087144622
vertex 120.88728843777567 134.93697668143497 12.453368674127352
vertex 25.09195643777572 134.93697668143486 12.45336867412727
endloop
endfacet
facet normal -5.11637233144259e-16 0.7683180485273153 0.6400682590999008
outer loop
vertex 120.88728843777567 134.93697668143497 12.453368674127352
vertex 25.09195643777571 134.77224395959638 12.6511087144622
vertex 120.88728843777558 134.7722439595964 12.651108714462243
endloop
endfacet
facet normal -4.2201293786139724e-16 0.6783245636602948 0.734762401280217
outer loop
vertex 16.991956437775734 134.23556987470081 13.191736319257435
vertex 128.99195643777563 134.60925959354563 12.84675008283866
vertex 16.991956437775713 134.60925959354557 12.84675008283866
endloop
endfacet
facet normal -4.2201293786139724e-16 0.6783245636602948 0.734762401280217
outer loop
vertex 128.99195643777563 134.60925959354563 12.84675008283866
vertex 16.991956437775734 134.23556987470081 13.191736319257435
vertex 128.99195643777563 134.23556987470093 13.191736319257453
endloop
endfacet
facet normal -3.3042646654214726e-16 0.5753209700549592 0.8179277360592565
outer loop
vertex 128.99195643777563 133.82230145959645 13.482424573230226
vertex 16.991956437775734 134.23556987470081 13.191736319257435
vertex 16.991956437775723 133.82230145959645 13.482424573230265
endloop
endfacet
facet normal -3.3042646654214726e-16 0.5753209700549592 0.8179277360592565
outer loop
vertex 16.991956437775734 134.23556987470081 13.191736319257435
vertex 128.99195643777563 133.82230145959645 13.482424573230226
vertex 128.99195643777563 134.23556987470093 13.191736319257453
endloop
endfacet
facet normal -1.9830658297600615e-16 0.46074613208021575 0.8875319722540257
outer loop
vertex 16.991956437775734 133.37652548539427 13.71384108813763
vertex 128.99195643777563 133.82230145959645 13.482424573230226
vertex 16.991956437775723 133.82230145959645 13.482424573230265
endloop
endfacet
facet normal -1.9830658297600615e-16 0.46074613208021575 0.8875319722540257
outer loop
vertex 128.99195643777563 133.82230145959645 13.482424573230226
vertex 16.991956437775734 133.37652548539427 13.71384108813763
vertex 128.9919564377757 133.37652548539432 13.713841088137613
endloop
endfacet
facet normal -1.609271776777006e-16 0.33650262476354564 0.9416825279929774
outer loop
vertex 128.9919564377757 132.90586930260565 13.882026263248738
vertex 16.991956437775734 133.37652548539427 13.71384108813763
vertex 16.991956437775702 132.90586930260557 13.88202626324873
endloop
endfacet
facet normal -1.609271776777006e-16 0.33650262476354564 0.9416825279929774
outer loop
vertex 16.991956437775734 133.37652548539427 13.71384108813763
vertex 128.9919564377757 132.90586930260565 13.882026263248738
vertex 128.9919564377757 133.37652548539432 13.713841088137613
endloop
endfacet
facet normal -3.0989347784496307e-15 -0.9980673066726111 0.06214218656661494
outer loop
vertex 128.99195643777566 128.15515401869408 10.540427726972633
vertex 122.08962243777573 128.1226464595964 10.018322958092464
vertex 128.9919564377757 128.1226464595964 10.018322958092464
endloop
endfacet
facet normal -3.0989347784496307e-15 -0.9980673066726111 0.06214218656661494
outer loop
vertex 122.08962243777573 128.1226464595964 10.018322958092464
vertex 128.99195643777566 128.15515401869408 10.540427726972633
vertex 122.08962243777569 128.1551540186941 10.540427726972613
endloop
endfacet
facet normal 2.6353332837535744e-16 -0.9826121960031183 0.185669793628176
outer loop
vertex 120.88728843777571 128.25212048263805 11.053599138502536
vertex 25.09195643777572 128.15515401869405 10.540427726972695
vertex 120.88728843777562 128.15515401869413 10.540427726972624
endloop
endfacet
facet normal 2.6353332837535744e-16 -0.9826121960031183 0.185669793628176
outer loop
vertex 25.09195643777572 128.15515401869405 10.540427726972695
vertex 120.88728843777571 128.25212048263805 11.053599138502536
vertex 25.091956437775742 128.25212048263808 11.053599138502538
endloop
endfacet
facet normal 1.664067519336581e-19 -0.9517415971884702 0.3069005248955105
outer loop
vertex 128.9919564377757 128.41188672834613 11.549056687552836
vertex 122.08962243777573 128.25212048263805 11.053599138502536
vertex 128.9919564377757 128.25212048263805 11.053599138502536
endloop
endfacet
facet normal 1.664067519336581e-19 -0.9517415971884702 0.3069005248955105
outer loop
vertex 122.08962243777573 128.25212048263805 11.053599138502536
vertex 128.9919564377757 128.41188672834613 11.549056687552836
vertex 122.08962243777563 128.41188672834613 11.549056687552836
endloop
endfacet
facet normal -5.35765499419691e-19 -0.8442851471216174 0.5358941969734591
outer loop
vertex 128.9919564377757 128.90785623775804 12.453368674127336
vertex 122.08962243777577 128.6317191110585 12.018322958092469
vertex 128.99195643777563 128.6317191110585 12.018322958092469
endloop
endfacet
facet normal -5.35765499419691e-19 -0.8442851471216174 0.5358941969734591
outer loop
vertex 122.08962243777577 128.6317191110585 12.018322958092469
vertex 128.9919564377757 128.90785623775804 12.453368674127336
vertex 122.08962243777563 128.90785623775804 12.453368674127336
endloop
endfacet
facet normal 5.291331665752091e-20 -0.9055599042120923 0.42421841058985915
outer loop
vertex 128.99195643777563 128.6317191110585 12.018322958092469
vertex 122.08962243777563 128.41188672834613 11.549056687552836
vertex 128.9919564377757 128.41188672834613 11.549056687552836
endloop
endfacet
facet normal 5.291331665752091e-20 -0.9055599042120923 0.42421841058985915
outer loop
vertex 122.08962243777563 128.41188672834613 11.549056687552836
vertex 128.99195643777563 128.6317191110585 12.018322958092469
vertex 122.08962243777577 128.6317191110585 12.018322958092469
endloop
endfacet
facet normal 3.8748488809887484e-15 0.9980673066726085 0.06214218656666034
outer loop
vertex 16.991956437775748 135.72218645959634 10.018322958092453
vertex 23.891956437775733 135.68967890049865 10.540427726972677
vertex 23.891956437775722 135.7221864595963 10.01832295809244
endloop
endfacet
facet normal 3.8748488809887484e-15 0.9980673066726085 0.06214218656666034
outer loop
vertex 23.891956437775733 135.68967890049865 10.540427726972677
vertex 16.991956437775748 135.72218645959634 10.018322958092453
vertex 16.991956437775734 135.68967890049865 10.540427726972666
endloop
endfacet
facet normal 2.0922721108441458e-16 0.9517415971884953 0.3069005248954319
outer loop
vertex 16.991956437775734 135.4329461908468 11.549056687552833
vertex 23.891956437775733 135.59271243655473 11.053599138502594
vertex 16.991956437775723 135.59271243655476 11.05359913850256
endloop
endfacet
facet normal 2.0922721108441458e-16 0.9517415971884953 0.3069005248954319
outer loop
vertex 23.891956437775733 135.59271243655473 11.053599138502594
vertex 16.991956437775734 135.4329461908468 11.549056687552833
vertex 23.891956437775757 135.4329461908468 11.549056687552884
endloop
endfacet
facet normal 8.85121023200106e-20 0.9055599042120547 0.42421841058993937
outer loop
vertex 122.08962243777573 135.21311380813438 12.018322958092423
vertex 128.9919564377757 135.43294619084685 11.549056687552818
vertex 122.08962243777563 135.43294619084685 11.549056687552818
endloop
endfacet
facet normal 8.85121023200106e-20 0.9055599042120547 0.42421841058993937
outer loop
vertex 128.9919564377757 135.43294619084685 11.549056687552818
vertex 122.08962243777573 135.21311380813438 12.018322958092423
vertex 128.9919564377757 135.21311380813438 12.018322958092423
endloop
endfacet
facet normal -7.634242108982629e-16 0.9826121960031191 0.18566979362817115
outer loop
vertex 122.08962243777563 135.5927124365549 11.053599138502555
vertex 128.99195643777563 135.68967890049873 10.540427726972696
vertex 122.08962243777559 135.6896789004987 10.540427726972691
endloop
endfacet
facet normal -7.634242108982629e-16 0.9826121960031191 0.18566979362817115
outer loop
vertex 128.99195643777563 135.68967890049873 10.540427726972696
vertex 122.08962243777563 135.5927124365549 11.053599138502555
vertex 128.9919564377757 135.5927124365549 11.053599138502555
endloop
endfacet
facet normal -7.651685073745315e-15 0.8442851471215764 0.535894196973524
outer loop
vertex 16.99195643777577 134.93697668143486 12.453368674127375
vertex 23.891956437775757 135.21311380813435 12.01832295809256
vertex 16.991956437775713 135.21311380813435 12.018322958092437
endloop
endfacet
facet normal -7.651685073745315e-15 0.8442851471215764 0.535894196973524
outer loop
vertex 23.891956437775757 135.21311380813435 12.01832295809256
vertex 16.99195643777577 134.93697668143486 12.453368674127375
vertex 23.891956437775768 134.93697668143494 12.453368674127308
endloop
endfacet
facet normal 1.782403897983701e-14 -1.0 1.1205635377931065e-16
outer loop
vertex 122.08962243777563 129.07258895959643 12.65110871446222
vertex 120.88728843777571 129.07258895959643 -3.960407041907625
vertex 122.08962243777563 129.07258895959646 -3.9604070419076294
endloop
endfacet
facet normal 1.782403897983701e-14 -1.0 1.1205635377931065e-16
outer loop
vertex 120.88728843777571 129.07258895959643 -3.960407041907625
vertex 122.08962243777563 129.07258895959643 12.65110871446222
vertex 120.88728843777571 129.07258895959643 12.651108714462197
endloop
endfacet
facet normal -1.0 -1.0851919882973533e-13 -5.757441516404353e-16
outer loop
vertex 122.08962243777573 134.77224395959638 12.651108714462234
vertex 122.08962243777563 135.72218645959637 -3.983046046278822
vertex 122.08962243777573 134.77224395959638 -3.9830460462788135
endloop
endfacet
facet normal -1.0 -1.0851919882973533e-13 -5.757441516404353e-16
outer loop
vertex 122.08962243777563 135.72218645959637 -3.983046046278822
vertex 122.08962243777573 134.77224395959638 12.651108714462234
vertex 122.08962243777569 134.93697668143497 12.453368674127352
endloop
endfacet
facet normal -1.0 -1.0851919882973533e-13 -5.757441516404353e-16
outer loop
vertex 122.08962243777563 135.72218645959637 -3.983046046278822
vertex 122.08962243777569 134.93697668143497 12.453368674127352
vertex 122.08962243777573 135.21311380813438 12.018322958092423
endloop
endfacet
facet normal -1.0 -1.0851919882973533e-13 -5.757441516404353e-16
outer loop
vertex 122.08962243777563 135.72218645959637 -3.983046046278822
vertex 122.08962243777573 135.21311380813438 12.018322958092423
vertex 122.08962243777563 135.43294619084685 11.549056687552818
endloop
endfacet
facet normal -1.0 -1.0851919882973533e-13 -5.757441516404353e-16
outer loop
vertex 122.08962243777563 135.72218645959637 -3.983046046278822
vertex 122.08962243777563 135.43294619084685 11.549056687552818
vertex 122.08962243777563 135.5927124365549 11.053599138502555
endloop
endfacet
facet normal -1.0 -1.0851919882973533e-13 -5.757441516404353e-16
outer loop
vertex 122.08962243777563 135.72218645959637 -3.983046046278822
vertex 122.08962243777563 135.5927124365549 11.053599138502555
vertex 122.08962243777559 135.6896789004987 10.540427726972691
endloop
endfacet
facet normal -1.0 -1.0851919882973533e-13 -5.757441516404353e-16
outer loop
vertex 122.08962243777563 135.72218645959637 -3.983046046278822
vertex 122.08962243777559 135.6896789004987 10.540427726972691
vertex 122.08962243777563 135.72218645959637 10.018322958092464
endloop
endfacet
facet normal 4.4560097449584145e-14 1.0 -1.1205635377931065e-16
outer loop
vertex 120.88728843777558 134.7722439595964 12.651108714462243
vertex 122.08962243777573 134.77224395959638 -3.9830460462788135
vertex 120.88728843777558 134.77224395959644 -3.983046046278815
endloop
endfacet
facet normal 4.4560097449584145e-14 1.0 -1.1205635377931065e-16
outer loop
vertex 122.08962243777573 134.77224395959638 -3.9830460462788135
vertex 120.88728843777558 134.7722439595964 12.651108714462243
vertex 122.08962243777573 134.77224395959638 12.651108714462234
endloop
endfacet
facet normal -3.571741347130313e-14 -1.0 1.1205635377931065e-16
outer loop
vertex 25.091956437775753 129.07258895959635 12.651108714462291
vertex 23.891956437775757 129.07258895959643 -3.9816770419074943
vertex 25.091956437775764 129.07258895959637 -3.9816770419075196
endloop
endfacet
facet normal -3.571741347130313e-14 -1.0 1.1205635377931065e-16
outer loop
vertex 23.891956437775757 129.07258895959643 -3.9816770419074943
vertex 25.091956437775753 129.07258895959635 12.651108714462291
vertex 23.891956437775747 129.07258895959637 12.651108714462257
endloop
endfacet
facet normal 3.3684941530171e-14 1.0 -1.9115495644705936e-15
outer loop
vertex 23.891956437775747 134.7722439595964 12.651108714462175
vertex 25.09195643777572 134.77224395959635 -4.002284499352552
vertex 23.891956437775747 134.7722439595964 -4.002284499352572
endloop
endfacet
facet normal 3.3684941530171e-14 1.0 -1.9115495644705936e-15
outer loop
vertex 25.09195643777572 134.77224395959635 -4.002284499352552
vertex 23.891956437775747 134.7722439595964 12.651108714462175
vertex 25.09195643777571 134.77224395959638 12.6511087144622
endloop
endfacet
facet normal 4.036872723871497e-16 -0.9055599042120606 0.424218410589927
outer loop
vertex 120.88728843777571 128.4118867283461 11.549056687552838
vertex 25.091956437775764 128.63171911105843 12.018322958092522
vertex 25.091956437775732 128.41188672834602 11.549056687552833
endloop
endfacet
facet normal 4.036872723871497e-16 -0.9055599042120606 0.424218410589927
outer loop
vertex 25.091956437775764 128.63171911105843 12.018322958092522
vertex 120.88728843777571 128.4118867283461 11.549056687552838
vertex 120.88728843777575 128.6317191110585 12.01832295809248
endloop
endfacet
facet normal 4.44678874598341e-15 -0.9980673066726077 0.06214218656667358
outer loop
vertex 23.891956437775733 128.15515401869405 10.540427726972695
vertex 16.991956437775677 128.12264645959633 10.018322958092483
vertex 23.891956437775722 128.12264645959635 10.018322958092474
endloop
endfacet
facet normal 4.44678874598341e-15 -0.9980673066726077 0.06214218656667358
outer loop
vertex 16.991956437775677 128.12264645959633 10.018322958092483
vertex 23.891956437775733 128.15515401869405 10.540427726972695
vertex 16.991956437775713 128.15515401869405 10.540427726972627
endloop
endfacet
facet normal 2.4448276595960247e-15 -0.9826121960031258 0.1856697936281365
outer loop
vertex 23.891956437775733 128.15515401869405 10.540427726972695
vertex 16.991956437775748 128.25212048263796 11.053599138502532
vertex 16.991956437775713 128.15515401869405 10.540427726972627
endloop
endfacet
facet normal 2.4448276595960247e-15 -0.9826121960031258 0.1856697936281365
outer loop
vertex 16.991956437775748 128.25212048263796 11.053599138502532
vertex 23.891956437775733 128.15515401869405 10.540427726972695
vertex 23.891956437775757 128.252120482638 11.053599138502527
endloop
endfacet
facet normal -1.4782931190389178e-15 -0.9517415971884883 0.30690052489545433
outer loop
vertex 23.891956437775733 128.41188672834602 11.549056687552833
vertex 16.991956437775748 128.25212048263796 11.053599138502532
vertex 23.891956437775757 128.252120482638 11.053599138502527
endloop
endfacet
facet normal -1.4782931190389178e-15 -0.9517415971884883 0.30690052489545433
outer loop
vertex 16.991956437775748 128.25212048263796 11.053599138502532
vertex 23.891956437775733 128.41188672834602 11.549056687552833
vertex 16.99195643777576 128.41188672834605 11.54905668755285
endloop
endfacet
facet normal 2.181295442722187e-15 -0.8442851471216332 0.5358941969734347
outer loop
vertex 23.891956437775768 128.6317191110585 12.018322958092503
vertex 16.991956437775713 128.90785623775795 12.453368674127328
vertex 16.991956437775713 128.63171911105843 12.018322958092499
endloop
endfacet
facet normal 2.181295442722187e-15 -0.8442851471216332 0.5358941969734347
outer loop
vertex 16.991956437775713 128.90785623775795 12.453368674127328
vertex 23.891956437775768 128.6317191110585 12.018322958092503
vertex 23.891956437775722 128.90785623775795 12.453368674127328
endloop
endfacet
facet normal -7.668353935825551e-16 0.9980673066726103 0.06214218656662718
outer loop
vertex 25.09195643777572 135.6896789004986 10.540427726972695
vertex 120.88728843777567 135.72218645959634 10.018322958092458
vertex 25.09195643777572 135.7221864595963 10.01832295809244
endloop
endfacet
facet normal -7.668353935825551e-16 0.9980673066726103 0.06214218656662718
outer loop
vertex 120.88728843777567 135.72218645959634 10.018322958092458
vertex 25.09195643777572 135.6896789004986 10.540427726972695
vertex 120.88728843777567 135.6896789004987 10.540427726972668
endloop
endfacet
facet normal -4.7511742955239e-16 0.9517415971885093 0.3069005248953888
outer loop
vertex 25.091956437775764 135.59271243655468 11.05359913850261
vertex 120.88728843777567 135.43294619084685 11.54905668755283
vertex 120.88728843777552 135.59271243655482 11.053599138502546
endloop
endfacet
facet normal -4.7511742955239e-16 0.9517415971885093 0.3069005248953888
outer loop
vertex 120.88728843777567 135.43294619084685 11.54905668755283
vertex 25.091956437775764 135.59271243655468 11.05359913850261
vertex 25.09195643777572 135.4329461908468 11.549056687552872
endloop
endfacet
facet normal -5.820922683572383e-16 0.844285147121595 0.5358941969734945
outer loop
vertex 25.091956437775742 135.2131138081343 12.018322958092533
vertex 120.88728843777567 134.93697668143497 12.453368674127352
vertex 120.88728843777562 135.21311380813444 12.018322958092446
endloop
endfacet
facet normal -5.820922683572383e-16 0.844285147121595 0.5358941969734945
outer loop
vertex 120.88728843777567 134.93697668143497 12.453368674127352
vertex 25.091956437775742 135.2131138081343 12.018322958092533
vertex 25.09195643777572 134.93697668143486 12.45336867412727
endloop
endfacet
facet normal -3.5856085761995093e-16 0.9055599042120664 0.424218410589914
outer loop
vertex 25.09195643777572 135.4329461908468 11.549056687552872
vertex 120.88728843777562 135.21311380813444 12.018322958092446
vertex 120.88728843777567 135.43294619084685 11.54905668755283
endloop
endfacet
facet normal -3.5856085761995093e-16 0.9055599042120664 0.424218410589914
outer loop
vertex 120.88728843777562 135.21311380813444 12.018322958092446
vertex 25.09195643777572 135.4329461908468 11.549056687552872
vertex 25.091956437775742 135.2131138081343 12.018322958092533
endloop
endfacet
facet normal 1.6821055356013675e-15 0.9826121960031244 0.18566979362814354
outer loop
vertex 16.991956437775723 135.59271243655476 11.05359913850256
vertex 23.891956437775733 135.68967890049865 10.540427726972677
vertex 16.991956437775734 135.68967890049865 10.540427726972666
endloop
endfacet
facet normal 1.6821055356013675e-15 0.9826121960031244 0.18566979362814354
outer loop
vertex 23.891956437775733 135.68967890049865 10.540427726972677
vertex 16.991956437775723 135.59271243655476 11.05359913850256
vertex 23.891956437775733 135.59271243655473 11.053599138502594
endloop
endfacet
facet normal 3.1063596254174982e-15 -1.0 -1.417183297797164e-15
outer loop
vertex 23.891956437775722 128.12264645959635 10.018322958092474
vertex 16.99306178552572 128.12264645959633 -3.981677041907557
vertex 23.891956437775722 128.12264645959633 -3.981677041907557
endloop
endfacet
facet normal 3.1063596254174982e-15 -1.0 -1.417183297797164e-15
outer loop
vertex 16.99306178552572 128.12264645959633 -3.981677041907557
vertex 23.891956437775722 128.12264645959635 10.018322958092474
vertex 16.991956437775677 128.12264645959633 10.018322958092483
endloop
endfacet
facet normal 0.0 -1.0 1.1205635377931065e-16
outer loop
vertex 128.9919564377757 128.1226464595964 10.018322958092464
vertex 122.08962243777573 128.12264645959644 -3.9604070419075614
vertex 128.99195643777566 128.12264645959638 -3.9816770419075183
endloop
endfacet
facet normal 0.0 -1.0 1.1205635377931065e-16
outer loop
vertex 122.08962243777573 128.12264645959644 -3.9604070419075614
vertex 128.9919564377757 128.1226464595964 10.018322958092464
vertex 122.08962243777573 128.1226464595964 10.018322958092464
endloop
endfacet
facet normal 1.0 2.6102774837023258e-14 -9.25414293704042e-16
outer loop
vertex 23.891956437775722 135.72218645959637 -4.002284499352579
vertex 23.891956437775747 134.7722439595964 12.651108714462175
vertex 23.891956437775747 134.7722439595964 -4.002284499352572
endloop
endfacet
facet normal 1.0 2.6102774837023258e-14 -9.25414293704042e-16
outer loop
vertex 23.891956437775747 134.7722439595964 12.651108714462175
vertex 23.891956437775722 135.72218645959637 -4.002284499352579
vertex 23.891956437775768 134.93697668143494 12.453368674127308
endloop
endfacet
facet normal 1.0 2.6102774837023258e-14 -9.25414293704042e-16
outer loop
vertex 23.891956437775768 134.93697668143494 12.453368674127308
vertex 23.891956437775722 135.72218645959637 -4.002284499352579
vertex 23.891956437775757 135.21311380813435 12.01832295809256
endloop
endfacet
facet normal 1.0 2.6102774837023258e-14 -9.25414293704042e-16
outer loop
vertex 23.891956437775757 135.21311380813435 12.01832295809256
vertex 23.891956437775722 135.72218645959637 -4.002284499352579
vertex 23.891956437775757 135.4329461908468 11.549056687552884
endloop
endfacet
facet normal 1.0 2.6102774837023258e-14 -9.25414293704042e-16
outer loop
vertex 23.891956437775757 135.4329461908468 11.549056687552884
vertex 23.891956437775722 135.72218645959637 -4.002284499352579
vertex 23.891956437775733 135.59271243655473 11.053599138502594
endloop
endfacet
facet normal 1.0 2.6102774837023258e-14 -9.25414293704042e-16
outer loop
vertex 23.891956437775733 135.59271243655473 11.053599138502594
vertex 23.891956437775722 135.72218645959637 -4.002284499352579
vertex 23.891956437775733 135.68967890049865 10.540427726972677
endloop
endfacet
facet normal 1.0 2.6102774837023258e-14 -9.25414293704042e-16
outer loop
vertex 23.891956437775733 135.68967890049865 10.540427726972677
vertex 23.891956437775722 135.72218645959637 -4.002284499352579
vertex 23.891956437775722 135.7221864595963 10.01832295809244
endloop
endfacet
facet normal -1.0 2.690523760903465e-14 -6.069178992530337e-16
outer loop
vertex 25.091956437775732 128.12264645959635 10.018322958092474
vertex 25.091956437775764 129.07258895959637 -3.9816770419075196
vertex 25.091956437775732 128.12264645959633 -3.981677041907557
endloop
endfacet
facet normal -1.0 2.690523760903465e-14 -6.069178992530337e-16
outer loop
vertex 25.091956437775764 129.07258895959637 -3.9816770419075196
vertex 25.091956437775732 128.12264645959635 10.018322958092474
vertex 25.09195643777572 128.15515401869405 10.540427726972695
endloop
endfacet
facet normal -1.0 2.690523760903465e-14 -6.069178992530337e-16
outer loop
vertex 25.091956437775764 129.07258895959637 -3.9816770419075196
vertex 25.09195643777572 128.15515401869405 10.540427726972695
vertex 25.091956437775742 128.25212048263808 11.053599138502538
endloop
endfacet
facet normal -1.0 2.690523760903465e-14 -6.069178992530337e-16
outer loop
vertex 25.091956437775764 129.07258895959637 -3.9816770419075196
vertex 25.091956437775742 128.25212048263808 11.053599138502538
vertex 25.091956437775732 128.41188672834602 11.549056687552833
endloop
endfacet
facet normal -1.0 2.690523760903465e-14 -6.069178992530337e-16
outer loop
vertex 25.091956437775764 129.07258895959637 -3.9816770419075196
vertex 25.091956437775732 128.41188672834602 11.549056687552833
vertex 25.091956437775764 128.63171911105843 12.018322958092522
endloop
endfacet
facet normal -1.0 2.690523760903465e-14 -6.069178992530337e-16
outer loop
vertex 25.091956437775764 129.07258895959637 -3.9816770419075196
vertex 25.091956437775764 128.63171911105843 12.018322958092522
vertex 25.09195643777572 128.90785623775793 12.453368674127319
endloop
endfacet
facet normal -1.0 2.690523760903465e-14 -6.069178992530337e-16
outer loop
vertex 25.091956437775764 129.07258895959637 -3.9816770419075196
vertex 25.09195643777572 128.90785623775793 12.453368674127319
vertex 25.091956437775753 129.07258895959635 12.651108714462291
endloop
endfacet
facet normal 1.0 -5.6164461290328697e-14 -5.011134240598586e-16
outer loop
vertex 120.88728843777558 134.77224395959644 -3.983046046278815
vertex 120.88728843777567 134.93697668143497 12.453368674127352
vertex 120.88728843777558 134.7722439595964 12.651108714462243
endloop
endfacet
facet normal 1.0 -5.6164461290328697e-14 -5.011134240598586e-16
outer loop
vertex 120.88728843777567 134.93697668143497 12.453368674127352
vertex 120.88728843777558 134.77224395959644 -3.983046046278815
vertex 120.88728843777567 135.72218645959637 -3.9830460462787958
endloop
endfacet
facet normal 1.0 -5.6164461290328697e-14 -5.011134240598586e-16
outer loop
vertex 120.88728843777567 134.93697668143497 12.453368674127352
vertex 120.88728843777567 135.72218645959637 -3.9830460462787958
vertex 120.88728843777562 135.21311380813444 12.018322958092446
endloop
endfacet
facet normal 1.0 -5.6164461290328697e-14 -5.011134240598586e-16
outer loop
vertex 120.88728843777562 135.21311380813444 12.018322958092446
vertex 120.88728843777567 135.72218645959637 -3.9830460462787958
vertex 120.88728843777567 135.43294619084685 11.54905668755283
endloop
endfacet
facet normal 1.0 -5.6164461290328697e-14 -5.011134240598586e-16
outer loop
vertex 120.88728843777567 135.43294619084685 11.54905668755283
vertex 120.88728843777567 135.72218645959637 -3.9830460462787958
vertex 120.88728843777552 135.59271243655482 11.053599138502546
endloop
endfacet
facet normal 1.0 -5.6164461290328697e-14 -5.011134240598586e-16
outer loop
vertex 120.88728843777552 135.59271243655482 11.053599138502546
vertex 120.88728843777567 135.72218645959637 -3.9830460462787958
vertex 120.88728843777567 135.6896789004987 10.540427726972668
endloop
endfacet
facet normal 1.0 -5.6164461290328697e-14 -5.011134240598586e-16
outer loop
vertex 120.88728843777567 135.6896789004987 10.540427726972668
vertex 120.88728843777567 135.72218645959637 -3.9830460462787958
vertex 120.88728843777567 135.72218645959634 10.018322958092458
endloop
endfacet
facet normal 0.0002081830465157753 -0.003099262180487829 -0.9999951756052403
outer loop
vertex 120.88728843777567 135.72218645959637 -3.9830460462787958
vertex 25.09195643777572 134.77224395959635 -4.002284499352552
vertex 25.09195643777572 135.72218645959637 -4.002284499352579
endloop
endfacet
facet normal 0.0002081830465157753 -0.003099262180487829 -0.9999951756052403
outer loop
vertex 25.09195643777572 134.77224395959635 -4.002284499352552
vertex 120.88728843777567 135.72218645959637 -3.9830460462787958
vertex 25.091956437775764 129.07258895959637 -3.9816770419075196
endloop
endfacet
facet normal 0.0002081830465157753 -0.003099262180487829 -0.9999951756052403
outer loop
vertex 25.091956437775764 129.07258895959637 -3.9816770419075196
vertex 120.88728843777567 135.72218645959637 -3.9830460462787958
vertex 120.88728843777558 134.77224395959644 -3.983046046278815
endloop
endfacet
facet normal 0.0002081830465157753 -0.003099262180487829 -0.9999951756052403
outer loop
vertex 25.091956437775764 129.07258895959637 -3.9816770419075196
vertex 120.88728843777567 128.12264645959647 -3.960407041907555
vertex 25.091956437775732 128.12264645959633 -3.981677041907557
endloop
endfacet
facet normal 0.0002081830465157753 -0.003099262180487829 -0.9999951756052403
outer loop
vertex 120.88728843777567 128.12264645959647 -3.960407041907555
vertex 25.091956437775764 129.07258895959637 -3.9816770419075196
vertex 120.88728843777558 134.77224395959644 -3.983046046278815
endloop
endfacet
facet normal 0.0002081830465157753 -0.003099262180487829 -0.9999951756052403
outer loop
vertex 120.88728843777567 128.12264645959647 -3.960407041907555
vertex 120.88728843777558 134.77224395959644 -3.983046046278815
vertex 120.88728843777571 129.07258895959643 -3.960407041907625
endloop
endfacet
facet normal 0.0002081830465157753 -0.003099262180487829 -0.9999951756052403
outer loop
vertex 23.891956437775722 135.72218645959637 -4.002284499352579
vertex 16.99306178552572 128.12264645959633 -3.981677041907557
vertex 16.99306178552572 135.72218645959595 -4.003890828774109
endloop
endfacet
facet normal 0.0002081830465157753 -0.003099262180487829 -0.9999951756052403
outer loop
vertex 16.99306178552572 128.12264645959633 -3.981677041907557
vertex 23.891956437775722 135.72218645959637 -4.002284499352579
vertex 23.891956437775722 128.12264645959633 -3.981677041907557
endloop
endfacet
facet normal 0.0002081830465157753 -0.003099262180487829 -0.9999951756052403
outer loop
vertex 23.891956437775722 128.12264645959633 -3.981677041907557
vertex 23.891956437775722 135.72218645959637 -4.002284499352579
vertex 23.891956437775747 134.7722439595964 -4.002284499352572
endloop
endfacet
facet normal 0.0002081830465157753 -0.003099262180487829 -0.9999951756052403
outer loop
vertex 23.891956437775722 128.12264645959633 -3.981677041907557
vertex 23.891956437775747 134.7722439595964 -4.002284499352572
vertex 23.891956437775757 129.07258895959643 -3.9816770419074943
endloop
endfacet
facet normal 0.0002081830465157753 -0.003099262180487829 -0.9999951756052403
outer loop
vertex 23.891956437775757 129.07258895959643 -3.9816770419074943
vertex 23.891956437775747 134.7722439595964 -4.002284499352572
vertex 25.09195643777572 134.77224395959635 -4.002284499352552
endloop
endfacet
facet normal 0.0002081830465157753 -0.003099262180487829 -0.9999951756052403
outer loop
vertex 23.891956437775757 129.07258895959643 -3.9816770419074943
vertex 25.09195643777572 134.77224395959635 -4.002284499352552
vertex 25.091956437775764 129.07258895959637 -3.9816770419075196
endloop
endfacet
facet normal -0.0013304423040794698 -0.0023831884608372877 -0.9999962751610806
outer loop
vertex 128.99195643777563 135.72218645959637 -3.98167704190751
vertex 122.08962243777573 134.77224395959638 -3.9830460462788135
vertex 122.08962243777563 135.72218645959637 -3.983046046278822
endloop
endfacet
facet normal -0.0013304423040794698 -0.0023831884608372877 -0.9999962751610806
outer loop
vertex 122.08962243777573 134.77224395959638 -3.9830460462788135
vertex 128.99195643777563 135.72218645959637 -3.98167704190751
vertex 122.08962243777573 128.12264645959644 -3.9604070419075614
endloop
endfacet
facet normal -0.0013304423040794698 -0.0023831884608372877 -0.9999962751610806
outer loop
vertex 122.08962243777573 128.12264645959644 -3.9604070419075614
vertex 128.99195643777563 135.72218645959637 -3.98167704190751
vertex 128.99195643777566 128.12264645959638 -3.9816770419075183
endloop
endfacet
facet normal -0.0013304423040794698 -0.0023831884608372877 -0.9999962751610806
outer loop
vertex 122.08962243777573 134.77224395959638 -3.9830460462788135
vertex 120.88728843777571 129.07258895959643 -3.960407041907625
vertex 120.88728843777558 134.77224395959644 -3.983046046278815
endloop
endfacet
facet normal -0.0013304423040794698 -0.0023831884608372877 -0.9999962751610806
outer loop
vertex 120.88728843777571 129.07258895959643 -3.960407041907625
vertex 122.08962243777573 134.77224395959638 -3.9830460462788135
vertex 122.08962243777563 129.07258895959646 -3.9604070419076294
endloop
endfacet
facet normal -0.0013304423040794698 -0.0023831884608372877 -0.9999962751610806
outer loop
vertex 122.08962243777563 129.07258895959646 -3.9604070419076294
vertex 122.08962243777573 134.77224395959638 -3.9830460462788135
vertex 122.08962243777573 128.12264645959644 -3.9604070419075614
endloop
endfacet
facet normal -1.0 1.1262932514294718e-14 4.0048258399422086e-16
outer loop
vertex 25.09195643777571 134.77224395959638 12.6511087144622
vertex 25.09195643777572 135.72218645959637 -4.002284499352579
vertex 25.09195643777572 134.77224395959635 -4.002284499352552
endloop
endfacet
facet normal -1.0 1.1262932514294718e-14 4.0048258399422086e-16
outer loop
vertex 25.09195643777572 135.72218645959637 -4.002284499352579
vertex 25.09195643777571 134.77224395959638 12.6511087144622
vertex 25.09195643777572 134.93697668143486 12.45336867412727
endloop
endfacet
facet normal -1.0 1.1262932514294718e-14 4.0048258399422086e-16
outer loop
vertex 25.09195643777572 135.72218645959637 -4.002284499352579
vertex 25.09195643777572 134.93697668143486 12.45336867412727
vertex 25.091956437775742 135.2131138081343 12.018322958092533
endloop
endfacet
facet normal -1.0 1.1262932514294718e-14 4.0048258399422086e-16
outer loop
vertex 25.09195643777572 135.72218645959637 -4.002284499352579
vertex 25.091956437775742 135.2131138081343 12.018322958092533
vertex 25.09195643777572 135.4329461908468 11.549056687552872
endloop
endfacet
facet normal -1.0 1.1262932514294718e-14 4.0048258399422086e-16
outer loop
vertex 25.09195643777572 135.72218645959637 -4.002284499352579
vertex 25.09195643777572 135.4329461908468 11.549056687552872
vertex 25.091956437775764 135.59271243655468 11.05359913850261
endloop
endfacet
facet normal -1.0 1.1262932514294718e-14 4.0048258399422086e-16
outer loop
vertex 25.09195643777572 135.72218645959637 -4.002284499352579
vertex 25.091956437775764 135.59271243655468 11.05359913850261
vertex 25.09195643777572 135.6896789004986 10.540427726972695
endloop
endfacet
facet normal -1.0 1.1262932514294718e-14 4.0048258399422086e-16
outer loop
vertex 25.09195643777572 135.72218645959637 -4.002284499352579
vertex 25.09195643777572 135.6896789004986 10.540427726972695
vertex 25.09195643777572 135.7221864595963 10.01832295809244
endloop
endfacet
facet normal -0.9999999986833423 -1.0241832919381782e-05 -5.028340225677233e-05
outer loop
vertex 16.991956437775713 128.15515401869405 10.540427726972627
vertex 16.99306178552572 128.12264645959633 -3.981677041907557
vertex 16.991956437775677 128.12264645959633 10.018322958092483
endloop
endfacet
facet normal -0.9999999986833423 -1.0241832919381782e-05 -5.028340225677233e-05
outer loop
vertex 16.99306178552572 128.12264645959633 -3.981677041907557
vertex 16.991956437775713 128.15515401869405 10.540427726972627
vertex 16.99306178552572 135.72218645959595 -4.003890828774109
endloop
endfacet
facet normal -0.9999999986833423 -1.0241832919381782e-05 -5.028340225677233e-05
outer loop
vertex 16.99306178552572 135.72218645959595 -4.003890828774109
vertex 16.991956437775713 128.15515401869405 10.540427726972627
vertex 16.991956437775748 128.25212048263796 11.053599138502532
endloop
endfacet
facet normal -0.9999999986833423 -1.0241832919381782e-05 -5.028340225677233e-05
outer loop
vertex 16.99306178552572 135.72218645959595 -4.003890828774109
vertex 16.991956437775748 128.25212048263796 11.053599138502532
vertex 16.99195643777576 128.41188672834605 11.54905668755285
endloop
endfacet
facet normal -0.9999999986833423 -1.0241832919381782e-05 -5.028340225677233e-05
outer loop
vertex 16.99306178552572 135.72218645959595 -4.003890828774109
vertex 16.99195643777576 128.41188672834605 11.54905668755285
vertex 16.991956437775713 128.63171911105843 12.018322958092499
endloop
endfacet
facet normal -0.9999999986833423 -1.0241832919381782e-05 -5.028340225677233e-05
outer loop
vertex 16.99306178552572 135.72218645959595 -4.003890828774109
vertex 16.991956437775713 128.63171911105843 12.018322958092499
vertex 16.991956437775713 128.90785623775795 12.453368674127328
endloop
endfacet
facet normal -0.9999999986833423 -1.0241832919381782e-05 -5.028340225677233e-05
outer loop
vertex 16.99306178552572 135.72218645959595 -4.003890828774109
vertex 16.991956437775713 128.90785623775795 12.453368674127328
vertex 16.991956437775734 129.23557332564718 12.846750082838602
endloop
endfacet
facet normal -0.9999999986833423 -1.0241832919381782e-05 -5.028340225677233e-05
outer loop
vertex 16.99306178552572 135.72218645959595 -4.003890828774109
vertex 16.991956437775734 129.23557332564718 12.846750082838602
vertex 16.991956437775734 129.6092630444919 13.191736319257439
endloop
endfacet
facet normal -0.9999999986833423 -1.0241832919381782e-05 -5.028340225677233e-05
outer loop
vertex 16.99306178552572 135.72218645959595 -4.003890828774109
vertex 16.991956437775734 129.6092630444919 13.191736319257439
vertex 16.991956437775713 130.02253145959637 13.482424573230244
endloop
endfacet
facet normal -0.9999999986833423 -1.0241832919381782e-05 -5.028340225677233e-05
outer loop
vertex 16.99306178552572 135.72218645959595 -4.003890828774109
vertex 16.991956437775713 130.02253145959637 13.482424573230244
vertex 16.991956437775734 130.4683074337984 13.713841088137576
endloop
endfacet
facet normal -0.9999999986833423 -1.0241832919381782e-05 -5.028340225677233e-05
outer loop
vertex 16.99306178552572 135.72218645959595 -4.003890828774109
vertex 16.991956437775734 130.4683074337984 13.713841088137576
vertex 16.991956437775713 130.93896361658716 13.882026263248763
endloop
endfacet
facet normal -0.9999999986833423 -1.0241832919381782e-05 -5.028340225677233e-05
outer loop
vertex 16.99306178552572 135.72218645959595 -4.003890828774109
vertex 16.991956437775713 130.93896361658716 13.882026263248763
vertex 16.991956437775723 131.42644695018444 13.984102403587697
endloop
endfacet
facet normal -0.9999999986833423 -1.0241832919381782e-05 -5.028340225677233e-05
outer loop
vertex 16.99306178552572 135.72218645959595 -4.003890828774109
vertex 16.991956437775723 131.42644695018444 13.984102403587697
vertex 16.991956437775713 132.41838596900828 13.984102403587674
endloop
endfacet
facet normal -0.9999999986833423 -1.0241832919381782e-05 -5.028340225677233e-05
outer loop
vertex 16.99306178552572 135.72218645959595 -4.003890828774109
vertex 16.991956437775713 132.41838596900828 13.984102403587674
vertex 16.991956437775702 132.90586930260557 13.88202626324873
endloop
endfacet
facet normal -0.9999999986833423 -1.0241832919381782e-05 -5.028340225677233e-05
outer loop
vertex 16.99306178552572 135.72218645959595 -4.003890828774109
vertex 16.991956437775702 132.90586930260557 13.88202626324873
vertex 16.991956437775734 133.37652548539427 13.71384108813763
endloop
endfacet
facet normal -0.9999999986833423 -1.0241832919381782e-05 -5.028340225677233e-05
outer loop
vertex 16.99306178552572 135.72218645959595 -4.003890828774109
vertex 16.991956437775734 133.37652548539427 13.71384108813763
vertex 16.991956437775723 133.82230145959645 13.482424573230265
endloop
endfacet
facet normal -0.9999999986833423 -1.0241832919381782e-05 -5.028340225677233e-05
outer loop
vertex 16.99306178552572 135.72218645959595 -4.003890828774109
vertex 16.991956437775723 133.82230145959645 13.482424573230265
vertex 16.991956437775734 134.23556987470081 13.191736319257435
endloop
endfacet
facet normal -0.9999999986833423 -1.0241832919381782e-05 -5.028340225677233e-05
outer loop
vertex 16.99306178552572 135.72218645959595 -4.003890828774109
vertex 16.991956437775734 134.23556987470081 13.191736319257435
vertex 16.991956437775713 134.60925959354557 12.84675008283866
endloop
endfacet
facet normal -0.9999999986833423 -1.0241832919381782e-05 -5.028340225677233e-05
outer loop
vertex 16.99306178552572 135.72218645959595 -4.003890828774109
vertex 16.991956437775713 134.60925959354557 12.84675008283866
vertex 16.99195643777577 134.93697668143486 12.453368674127375
endloop
endfacet
facet normal -0.9999999986833423 -1.0241832919381782e-05 -5.028340225677233e-05
outer loop
vertex 16.99306178552572 135.72218645959595 -4.003890828774109
vertex 16.99195643777577 134.93697668143486 12.453368674127375
vertex 16.991956437775713 135.21311380813435 12.018322958092437
endloop
endfacet
facet normal -0.9999999986833423 -1.0241832919381782e-05 -5.028340225677233e-05
outer loop
vertex 16.99306178552572 135.72218645959595 -4.003890828774109
vertex 16.991956437775713 135.21311380813435 12.018322958092437
vertex 16.991956437775734 135.4329461908468 11.549056687552833
endloop
endfacet
facet normal -0.9999999986833423 -1.0241832919381782e-05 -5.028340225677233e-05
outer loop
vertex 16.99306178552572 135.72218645959595 -4.003890828774109
vertex 16.991956437775734 135.4329461908468 11.549056687552833
vertex 16.991956437775723 135.59271243655476 11.05359913850256
endloop
endfacet
facet normal -0.9999999986833423 -1.0241832919381782e-05 -5.028340225677233e-05
outer loop
vertex 16.99306178552572 135.72218645959595 -4.003890828774109
vertex 16.991956437775723 135.59271243655476 11.05359913850256
vertex 16.991956437775734 135.68967890049865 10.540427726972666
endloop
endfacet
facet normal -0.9999999986833423 -1.0241832919381782e-05 -5.028340225677233e-05
outer loop
vertex 16.99306178552572 135.72218645959595 -4.003890828774109
vertex 16.991956437775734 135.68967890049865 10.540427726972666
vertex 16.991956437775748 135.72218645959634 10.018322958092453
endloop
endfacet
facet normal 1.0 -1.577876287202049e-14 -1.270109820423658e-16
outer loop
vertex 23.891956437775757 129.07258895959643 -3.9816770419074943
vertex 23.891956437775722 128.12264645959635 10.018322958092474
vertex 23.891956437775722 128.12264645959633 -3.981677041907557
endloop
endfacet
facet normal 1.0 -1.577876287202049e-14 -1.270109820423658e-16
outer loop
vertex 23.891956437775722 128.12264645959635 10.018322958092474
vertex 23.891956437775757 129.07258895959643 -3.9816770419074943
vertex 23.891956437775733 128.15515401869405 10.540427726972695
endloop
endfacet
facet normal 1.0 -1.577876287202049e-14 -1.270109820423658e-16
outer loop
vertex 23.891956437775733 128.15515401869405 10.540427726972695
vertex 23.891956437775757 129.07258895959643 -3.9816770419074943
vertex 23.891956437775757 128.252120482638 11.053599138502527
endloop
endfacet
facet normal 1.0 -1.577876287202049e-14 -1.270109820423658e-16
outer loop
vertex 23.891956437775757 128.252120482638 11.053599138502527
vertex 23.891956437775757 129.07258895959643 -3.9816770419074943
vertex 23.891956437775733 128.41188672834602 11.549056687552833
endloop
endfacet
facet normal 1.0 -1.577876287202049e-14 -1.270109820423658e-16
outer loop
vertex 23.891956437775733 128.41188672834602 11.549056687552833
vertex 23.891956437775757 129.07258895959643 -3.9816770419074943
vertex 23.891956437775768 128.6317191110585 12.018322958092503
endloop
endfacet
facet normal 1.0 -1.577876287202049e-14 -1.270109820423658e-16
outer loop
vertex 23.891956437775768 128.6317191110585 12.018322958092503
vertex 23.891956437775757 129.07258895959643 -3.9816770419074943
vertex 23.891956437775722 128.90785623775795 12.453368674127328
endloop
endfacet
facet normal 1.0 -1.577876287202049e-14 -1.270109820423658e-16
outer loop
vertex 23.891956437775722 128.90785623775795 12.453368674127328
vertex 23.891956437775757 129.07258895959643 -3.9816770419074943
vertex 23.891956437775747 129.07258895959637 12.651108714462257
endloop
endfacet
facet normal -1.0 -7.713468390784106e-14 4.0781247987868676e-17
outer loop
vertex 122.08962243777569 128.1551540186941 10.540427726972613
vertex 122.08962243777573 128.12264645959644 -3.9604070419075614
vertex 122.08962243777573 128.1226464595964 10.018322958092464
endloop
endfacet
facet normal -1.0 -7.713468390784106e-14 4.0781247987868676e-17
outer loop
vertex 122.08962243777573 128.12264645959644 -3.9604070419075614
vertex 122.08962243777569 128.1551540186941 10.540427726972613
vertex 122.08962243777563 129.07258895959646 -3.9604070419076294
endloop
endfacet
facet normal -1.0 -7.713468390784106e-14 4.0781247987868676e-17
outer loop
vertex 122.08962243777563 129.07258895959646 -3.9604070419076294
vertex 122.08962243777569 128.1551540186941 10.540427726972613
vertex 122.08962243777573 128.25212048263805 11.053599138502536
endloop
endfacet
facet normal -1.0 -7.713468390784106e-14 4.0781247987868676e-17
outer loop
vertex 122.08962243777563 129.07258895959646 -3.9604070419076294
vertex 122.08962243777573 128.25212048263805 11.053599138502536
vertex 122.08962243777563 128.41188672834613 11.549056687552836
endloop
endfacet
facet normal -1.0 -7.713468390784106e-14 4.0781247987868676e-17
outer loop
vertex 122.08962243777563 129.07258895959646 -3.9604070419076294
vertex 122.08962243777563 128.41188672834613 11.549056687552836
vertex 122.08962243777577 128.6317191110585 12.018322958092469
endloop
endfacet
facet normal -1.0 -7.713468390784106e-14 4.0781247987868676e-17
outer loop
vertex 122.08962243777563 129.07258895959646 -3.9604070419076294
vertex 122.08962243777577 128.6317191110585 12.018322958092469
vertex 122.08962243777563 128.90785623775804 12.453368674127336
endloop
endfacet
facet normal -1.0 -7.713468390784106e-14 4.0781247987868676e-17
outer loop
vertex 122.08962243777563 129.07258895959646 -3.9604070419076294
vertex 122.08962243777563 128.90785623775804 12.453368674127336
vertex 122.08962243777563 129.07258895959643 12.65110871446222
endloop
endfacet
facet normal 1.0 -1.7910406967484907e-14 5.063092100347824e-16
outer loop
vertex 120.88728843777567 128.12264645959647 -3.960407041907555
vertex 120.88728843777562 128.15515401869413 10.540427726972624
vertex 120.88728843777567 128.1226464595964 10.01832295809244
endloop
endfacet
facet normal 1.0 -1.7910406967484907e-14 5.063092100347824e-16
outer loop
vertex 120.88728843777562 128.15515401869413 10.540427726972624
vertex 120.88728843777567 128.12264645959647 -3.960407041907555
vertex 120.88728843777571 129.07258895959643 -3.960407041907625
endloop
endfacet
facet normal 1.0 -1.7910406967484907e-14 5.063092100347824e-16
outer loop
vertex 120.88728843777562 128.15515401869413 10.540427726972624
vertex 120.88728843777571 129.07258895959643 -3.960407041907625
vertex 120.88728843777571 128.25212048263805 11.053599138502536
endloop
endfacet
facet normal 1.0 -1.7910406967484907e-14 5.063092100347824e-16
outer loop
vertex 120.88728843777571 128.25212048263805 11.053599138502536
vertex 120.88728843777571 129.07258895959643 -3.960407041907625
vertex 120.88728843777571 128.4118867283461 11.549056687552838
endloop
endfacet
facet normal 1.0 -1.7910406967484907e-14 5.063092100347824e-16
outer loop
vertex 120.88728843777571 128.4118867283461 11.549056687552838
vertex 120.88728843777571 129.07258895959643 -3.960407041907625
vertex 120.88728843777575 128.6317191110585 12.01832295809248
endloop
endfacet
facet normal 1.0 -1.7910406967484907e-14 5.063092100347824e-16
outer loop
vertex 120.88728843777575 128.6317191110585 12.01832295809248
vertex 120.88728843777571 129.07258895959643 -3.960407041907625
vertex 120.88728843777558 128.90785623775804 12.453368674127361
endloop
endfacet
facet normal 1.0 -1.7910406967484907e-14 5.063092100347824e-16
outer loop
vertex 120.88728843777558 128.90785623775804 12.453368674127361
vertex 120.88728843777571 129.07258895959643 -3.960407041907625
vertex 120.88728843777571 129.07258895959643 12.651108714462197
endloop
endfacet
facet normal -6.711323287479828e-16 1.0 -1.1205635377931065e-16
outer loop
vertex 25.09195643777572 135.7221864595963 10.01832295809244
vertex 120.88728843777567 135.72218645959637 -3.9830460462787958
vertex 25.09195643777572 135.72218645959637 -4.002284499352579
endloop
endfacet
facet normal -6.711323287479828e-16 1.0 -1.1205635377931065e-16
outer loop
vertex 120.88728843777567 135.72218645959637 -3.9830460462787958
vertex 25.09195643777572 135.7221864595963 10.01832295809244
vertex 120.88728843777567 135.72218645959634 10.018322958092458
endloop
endfacet
facet normal -1.4155775220600132e-14 1.0 -7.600105027105157e-15
outer loop
vertex 16.991956437775748 135.72218645959634 10.018322958092453
vertex 23.891956437775722 135.72218645959637 -4.002284499352579
vertex 16.99306178552572 135.72218645959595 -4.003890828774109
endloop
endfacet
facet normal -1.4155775220600132e-14 1.0 -7.600105027105157e-15
outer loop
vertex 23.891956437775722 135.72218645959637 -4.002284499352579
vertex 16.991956437775748 135.72218645959634 10.018322958092453
vertex 23.891956437775722 135.7221864595963 10.01832295809244
endloop
endfacet
endsolid spool_stand_3.1
