solid spool_stand_3.1
facet normal 3.3684941530171e-14 1.0 -1.7665354595797213e-15
outer loop
vertex 23.891956437775747 216.46997695826667 -3.0053352449311825
vertex 25.09195643777571 216.46997695826667 13.648057968883569
vertex 25.09195643777572 216.4699769582665 -3.005335244931188
endloop
endfacet
facet normal 3.3684941530171e-14 1.0 -1.7665354595797213e-15
outer loop
vertex 25.09195643777571 216.46997695826667 13.648057968883569
vertex 23.891956437775747 216.46997695826667 -3.0053352449311825
vertex 23.891956437775747 216.46997695826667 13.648057968883558
endloop
endfacet
facet normal -1.0 2.6905237609034645e-14 -6.069178992530304e-16
outer loop
vertex 25.09195643777572 209.85288701736434 11.5373769813941
vertex 25.091956437775732 209.8203794582667 -2.9847277874860967
vertex 25.091956437775732 209.82037945826664 11.015272212513839
endloop
endfacet
facet normal -1.0 2.6905237609034645e-14 -6.069178992530304e-16
outer loop
vertex 25.091956437775732 209.8203794582667 -2.9847277874860967
vertex 25.09195643777572 209.85288701736434 11.5373769813941
vertex 25.091956437775764 210.7703219582667 -2.984727787486105
endloop
endfacet
facet normal -1.0 2.6905237609034645e-14 -6.069178992530304e-16
outer loop
vertex 25.091956437775764 210.7703219582667 -2.984727787486105
vertex 25.09195643777572 209.85288701736434 11.5373769813941
vertex 25.091956437775742 209.94985348130834 12.050548392923963
endloop
endfacet
facet normal -1.0 2.6905237609034645e-14 -6.069178992530304e-16
outer loop
vertex 25.091956437775764 210.7703219582667 -2.984727787486105
vertex 25.091956437775742 209.94985348130834 12.050548392923963
vertex 25.091956437775732 210.10961972701622 12.546005941974213
endloop
endfacet
facet normal -1.0 2.6905237609034645e-14 -6.069178992530304e-16
outer loop
vertex 25.091956437775764 210.7703219582667 -2.984727787486105
vertex 25.091956437775732 210.10961972701622 12.546005941974213
vertex 25.091956437775764 210.3294521097286 13.01527221251388
endloop
endfacet
facet normal -1.0 2.6905237609034645e-14 -6.069178992530304e-16
outer loop
vertex 25.091956437775764 210.7703219582667 -2.984727787486105
vertex 25.091956437775764 210.3294521097286 13.01527221251388
vertex 25.09195643777572 210.60558923642802 13.450317928548756
endloop
endfacet
facet normal -1.0 2.6905237609034645e-14 -6.069178992530304e-16
outer loop
vertex 25.091956437775764 210.7703219582667 -2.984727787486105
vertex 25.09195643777572 210.60558923642802 13.450317928548756
vertex 25.091956437775753 210.7703219582667 13.64805796888366
endloop
endfacet
facet normal -3.8605578398145477e-16 0.9826121960031187 0.18566979362817285
outer loop
vertex 25.09195643777572 217.3874118991689 11.53737698139414
vertex 158.8883937855256 217.29044543522508 12.050548392923947
vertex 158.88839378552572 217.3874118991689 11.537376981394106
endloop
endfacet
facet normal -3.8605578398145477e-16 0.9826121960031187 0.18566979362817285
outer loop
vertex 158.8883937855256 217.29044543522508 12.050548392923947
vertex 25.09195643777572 217.3874118991689 11.53737698139414
vertex 25.091956437775764 217.290445435225 12.050548392924037
endloop
endfacet
facet normal 1.5732173359496768e-20 0.9980673066726118 0.0621421865666055
outer loop
vertex 160.09072778552564 217.3874118991689 11.537376981394095
vertex 166.9930617855257 217.4199194582665 11.015272212513821
vertex 160.0907277855257 217.4199194582665 11.015272212513821
endloop
endfacet
facet normal 1.5732173359496768e-20 0.9980673066726118 0.0621421865666055
outer loop
vertex 166.9930617855257 217.4199194582665 11.015272212513821
vertex 160.09072778552564 217.3874118991689 11.537376981394095
vertex 166.9930617855257 217.3874118991689 11.537376981394095
endloop
endfacet
facet normal 4.847304681124077e-16 -0.8442851471216191 0.5358941969734566
outer loop
vertex 158.88839378552564 210.60558923642827 13.450317928548767
vertex 25.091956437775764 210.3294521097286 13.01527221251388
vertex 158.8883937855258 210.3294521097286 13.015272212513828
endloop
endfacet
facet normal 4.847304681124077e-16 -0.8442851471216191 0.5358941969734566
outer loop
vertex 25.091956437775764 210.3294521097286 13.01527221251388
vertex 158.88839378552564 210.60558923642827 13.450317928548767
vertex 25.09195643777572 210.60558923642802 13.450317928548756
endloop
endfacet
facet normal 1.8954913768303525e-17 -0.9055599042120605 0.42421841058992693
outer loop
vertex 23.891956437775768 210.3294521097286 13.015272212513903
vertex 16.99195643777576 210.10961972701625 12.54600594197423
vertex 23.891956437775733 210.10961972701622 12.546005941974213
endloop
endfacet
facet normal 1.8954913768303525e-17 -0.9055599042120605 0.42421841058992693
outer loop
vertex 16.99195643777576 210.10961972701625 12.54600594197423
vertex 23.891956437775768 210.3294521097286 13.015272212513903
vertex 16.991956437775713 210.3294521097286 13.015272212513851
endloop
endfacet
facet normal -3.5717413471303134e-14 -1.0 1.3183100444624782e-17
outer loop
vertex 25.091956437775764 210.7703219582667 -2.984727787486105
vertex 23.891956437775747 210.7703219582667 13.648057968883665
vertex 23.891956437775757 210.77032195826675 -2.9847277874861105
endloop
endfacet
facet normal -3.5717413471303134e-14 -1.0 1.3183100444624782e-17
outer loop
vertex 23.891956437775747 210.7703219582667 13.648057968883665
vertex 25.091956437775764 210.7703219582667 -2.984727787486105
vertex 25.091956437775753 210.7703219582667 13.64805796888366
endloop
endfacet
facet normal 1.2654672909331434e-16 -0.3365026247635882 0.9416825279929621
outer loop
vertex 16.991956437775734 212.16604043246872 14.710790342558987
vertex 166.99306178552564 212.63669661525734 14.878975517670138
vertex 16.991956437775713 212.63669661525728 14.878975517670149
endloop
endfacet
facet normal 1.2654672909331434e-16 -0.3365026247635882 0.9416825279929621
outer loop
vertex 166.99306178552564 212.63669661525734 14.878975517670138
vertex 16.991956437775734 212.16604043246872 14.710790342558987
vertex 166.99306178552573 212.1660404324688 14.710790342559005
endloop
endfacet
facet normal 1.6510208602026253e-16 -0.9980673066726089 0.062142186566651006
outer loop
vertex 158.88839378552572 209.8203794582667 11.015272212513855
vertex 25.09195643777572 209.85288701736434 11.5373769813941
vertex 25.091956437775732 209.82037945826664 11.015272212513839
endloop
endfacet
facet normal 1.6510208602026253e-16 -0.9980673066726089 0.062142186566651006
outer loop
vertex 25.09195643777572 209.85288701736434 11.5373769813941
vertex 158.88839378552572 209.8203794582667 11.015272212513855
vertex 158.8883937855257 209.85288701736434 11.537376981394061
endloop
endfacet
facet normal 1.879963801606797e-17 2.8428829081562664e-15 1.0
outer loop
vertex 16.991956437775723 213.12417994885465 14.981051658009102
vertex 166.99306178552573 214.11611896767863 14.981051658009097
vertex 16.991956437775713 214.11611896767863 14.981051658009102
endloop
endfacet
facet normal 1.879963801606797e-17 2.8428829081562664e-15 1.0
outer loop
vertex 166.99306178552573 214.11611896767863 14.981051658009097
vertex 16.991956437775723 213.12417994885465 14.981051658009102
vertex 166.99306178552564 213.12417994885465 14.981051658009102
endloop
endfacet
facet normal -7.651685073745315e-15 0.8442851471215763 0.535894196973524
outer loop
vertex 16.99195643777577 216.63470968010495 13.450317928548749
vertex 23.891956437775757 216.91084680680464 13.015272212513931
vertex 16.991956437775713 216.91084680680464 13.015272212513807
endloop
endfacet
facet normal -7.651685073745315e-15 0.8442851471215763 0.535894196973524
outer loop
vertex 23.891956437775757 216.91084680680464 13.015272212513931
vertex 16.99195643777577 216.63470968010495 13.450317928548749
vertex 23.891956437775768 216.63470968010515 13.45031792854871
endloop
endfacet
facet normal 3.104660001038028e-15 1.0 1.5307462843094333e-15
outer loop
vertex 160.0907277855257 217.4199194582665 11.015272212513821
vertex 166.9930617855257 217.4199194582665 -2.984727787486105
vertex 160.0907277855257 217.41991945826655 -2.9860967918573946
endloop
endfacet
facet normal 3.104660001038028e-15 1.0 1.5307462843094333e-15
outer loop
vertex 166.9930617855257 217.4199194582665 -2.984727787486105
vertex 160.0907277855257 217.4199194582665 11.015272212513821
vertex 166.9930617855257 217.4199194582665 11.015272212513821
endloop
endfacet
facet normal 1.0185226085632638e-16 -0.9980673066726113 0.06214218656661218
outer loop
vertex 166.99306178552573 209.85288701736428 11.537376981394049
vertex 160.0907277855258 209.82037945826664 11.015272212513844
vertex 166.99306178552578 209.82037945826664 11.015272212513844
endloop
endfacet
facet normal 1.0185226085632638e-16 -0.9980673066726113 0.06214218656661218
outer loop
vertex 160.0907277855258 209.82037945826664 11.015272212513844
vertex 166.99306178552573 209.85288701736428 11.537376981394049
vertex 160.09072778552576 209.85288701736428 11.537376981394072
endloop
endfacet
facet normal 0.00015014159432936796 -0.0030992622127176683 -0.999995186004032
outer loop
vertex 158.88839378552572 217.4199194582665 -2.986096791857414
vertex 25.09195643777572 216.4699769582665 -3.005335244931188
vertex 25.09195643777572 217.4199194582665 -3.005335244931143
endloop
endfacet
facet normal 0.00015014159432936796 -0.0030992622127176683 -0.999995186004032
outer loop
vertex 25.09195643777572 216.4699769582665 -3.005335244931188
vertex 158.88839378552572 217.4199194582665 -2.986096791857414
vertex 25.091956437775764 210.7703219582667 -2.984727787486105
endloop
endfacet
facet normal 0.00015014159432936796 -0.0030992622127176683 -0.999995186004032
outer loop
vertex 25.091956437775764 210.7703219582667 -2.984727787486105
vertex 158.88839378552572 217.4199194582665 -2.986096791857414
vertex 158.88839378552564 216.46997695826664 -2.9860967918574257
endloop
endfacet
facet normal 0.00015014159432936796 -0.0030992622127176683 -0.999995186004032
outer loop
vertex 25.091956437775764 210.7703219582667 -2.984727787486105
vertex 158.88839378552572 209.8203794582667 -2.9634577874861807
vertex 25.091956437775732 209.8203794582667 -2.9847277874860967
endloop
endfacet
facet normal 0.00015014159432936796 -0.0030992622127176683 -0.999995186004032
outer loop
vertex 158.88839378552572 209.8203794582667 -2.9634577874861807
vertex 25.091956437775764 210.7703219582667 -2.984727787486105
vertex 158.88839378552564 216.46997695826664 -2.9860967918574257
endloop
endfacet
facet normal 0.00015014159432936796 -0.0030992622127176683 -0.999995186004032
outer loop
vertex 158.88839378552572 209.8203794582667 -2.9634577874861807
vertex 158.88839378552564 216.46997695826664 -2.9860967918574257
vertex 158.88839378552578 210.7703219582667 -2.963457787486206
endloop
endfacet
facet normal 0.00015014159432936796 -0.0030992622127176683 -0.999995186004032
outer loop
vertex 23.891956437775722 217.4199194582665 -3.005335244931143
vertex 16.99306178552572 209.8203794582667 -2.9847277874860967
vertex 16.99306178552572 217.41991945826632 -3.006941574352667
endloop
endfacet
facet normal 0.00015014159432936796 -0.0030992622127176683 -0.999995186004032
outer loop
vertex 16.99306178552572 209.8203794582667 -2.9847277874860967
vertex 23.891956437775722 217.4199194582665 -3.005335244931143
vertex 23.891956437775722 209.8203794582667 -2.9847277874860967
endloop
endfacet
facet normal 0.00015014159432936796 -0.0030992622127176683 -0.999995186004032
outer loop
vertex 23.891956437775722 209.8203794582667 -2.9847277874860967
vertex 23.891956437775722 217.4199194582665 -3.005335244931143
vertex 23.891956437775747 216.46997695826667 -3.0053352449311825
endloop
endfacet
facet normal 0.00015014159432936796 -0.0030992622127176683 -0.999995186004032
outer loop
vertex 23.891956437775722 209.8203794582667 -2.9847277874860967
vertex 23.891956437775747 216.46997695826667 -3.0053352449311825
vertex 23.891956437775757 210.77032195826675 -2.9847277874861105
endloop
endfacet
facet normal 0.00015014159432936796 -0.0030992622127176683 -0.999995186004032
outer loop
vertex 23.891956437775757 210.77032195826675 -2.9847277874861105
vertex 23.891956437775747 216.46997695826667 -3.0053352449311825
vertex 25.09195643777572 216.4699769582665 -3.005335244931188
endloop
endfacet
facet normal 0.00015014159432936796 -0.0030992622127176683 -0.999995186004032
outer loop
vertex 23.891956437775757 210.77032195826675 -2.9847277874861105
vertex 25.09195643777572 216.4699769582665 -3.005335244931188
vertex 25.091956437775764 210.7703219582667 -2.984727787486105
endloop
endfacet
facet normal 1.0 5.837001113342504e-15 -1.2029033761199378e-15
outer loop
vertex 166.99306178552573 209.8203794582667 -2.9847277874860967
vertex 166.99306178552573 209.85288701736428 11.537376981394049
vertex 166.99306178552578 209.82037945826664 11.015272212513844
endloop
endfacet
facet normal 1.0 5.837001113342504e-15 -1.2029033761199378e-15
outer loop
vertex 166.99306178552573 209.85288701736428 11.537376981394049
vertex 166.99306178552573 209.8203794582667 -2.9847277874860967
vertex 166.9930617855257 217.4199194582665 -2.984727787486105
endloop
endfacet
facet normal 1.0 5.837001113342504e-15 -1.2029033761199378e-15
outer loop
vertex 166.99306178552573 209.85288701736428 11.537376981394049
vertex 166.9930617855257 217.4199194582665 -2.984727787486105
vertex 166.99306178552578 209.94985348130817 12.050548392923947
endloop
endfacet
facet normal 1.0 5.837001113342504e-15 -1.2029033761199378e-15
outer loop
vertex 166.99306178552578 209.94985348130817 12.050548392923947
vertex 166.9930617855257 217.4199194582665 -2.984727787486105
vertex 166.99306178552578 210.10961972701625 12.546005941974208
endloop
endfacet
facet normal 1.0 5.837001113342504e-15 -1.2029033761199378e-15
outer loop
vertex 166.99306178552578 210.10961972701625 12.546005941974208
vertex 166.9930617855257 217.4199194582665 -2.984727787486105
vertex 166.9930617855257 210.3294521097286 13.015272212513828
endloop
endfacet
facet normal 1.0 5.837001113342504e-15 -1.2029033761199378e-15
outer loop
vertex 166.9930617855257 210.3294521097286 13.015272212513828
vertex 166.9930617855257 217.4199194582665 -2.984727787486105
vertex 166.99306178552578 210.60558923642824 13.450317928548772
endloop
endfacet
facet normal 1.0 5.837001113342504e-15 -1.2029033761199378e-15
outer loop
vertex 166.99306178552578 210.60558923642824 13.450317928548772
vertex 166.9930617855257 217.4199194582665 -2.984727787486105
vertex 166.9930617855258 210.9333063243174 13.843699337260041
endloop
endfacet
facet normal 1.0 5.837001113342504e-15 -1.2029033761199378e-15
outer loop
vertex 166.9930617855258 210.9333063243174 13.843699337260041
vertex 166.9930617855257 217.4199194582665 -2.984727787486105
vertex 166.9930617855258 211.3069960431621 14.188685573678793
endloop
endfacet
facet normal 1.0 5.837001113342504e-15 -1.2029033761199378e-15
outer loop
vertex 166.9930617855258 211.3069960431621 14.188685573678793
vertex 166.9930617855257 217.4199194582665 -2.984727787486105
vertex 166.99306178552578 211.7202644582665 14.479373827651612
endloop
endfacet
facet normal 1.0 5.837001113342504e-15 -1.2029033761199378e-15
outer loop
vertex 166.99306178552578 211.7202644582665 14.479373827651612
vertex 166.9930617855257 217.4199194582665 -2.984727787486105
vertex 166.99306178552573 212.1660404324688 14.710790342559005
endloop
endfacet
facet normal 1.0 5.837001113342504e-15 -1.2029033761199378e-15
outer loop
vertex 166.99306178552573 212.1660404324688 14.710790342559005
vertex 166.9930617855257 217.4199194582665 -2.984727787486105
vertex 166.99306178552564 212.63669661525734 14.878975517670138
endloop
endfacet
facet normal 1.0 5.837001113342504e-15 -1.2029033761199378e-15
outer loop
vertex 166.99306178552564 212.63669661525734 14.878975517670138
vertex 166.9930617855257 217.4199194582665 -2.984727787486105
vertex 166.99306178552564 213.12417994885465 14.981051658009102
endloop
endfacet
facet normal 1.0 5.837001113342504e-15 -1.2029033761199378e-15
outer loop
vertex 166.99306178552564 213.12417994885465 14.981051658009102
vertex 166.9930617855257 217.4199194582665 -2.984727787486105
vertex 166.99306178552573 214.11611896767863 14.981051658009097
endloop
endfacet
facet normal 1.0 5.837001113342504e-15 -1.2029033761199378e-15
outer loop
vertex 166.99306178552573 214.11611896767863 14.981051658009097
vertex 166.9930617855257 217.4199194582665 -2.984727787486105
vertex 166.99306178552578 214.60360230127586 14.878975517670126
endloop
endfacet
facet normal 1.0 5.837001113342504e-15 -1.2029033761199378e-15
outer loop
vertex 166.99306178552578 214.60360230127586 14.878975517670126
vertex 166.9930617855257 217.4199194582665 -2.984727787486105
vertex 166.99306178552578 215.07425848406442 14.710790342558987
endloop
endfacet
facet normal 1.0 5.837001113342504e-15 -1.2029033761199378e-15
outer loop
vertex 166.99306178552578 215.07425848406442 14.710790342558987
vertex 166.9930617855257 217.4199194582665 -2.984727787486105
vertex 166.9930617855257 215.52003445826665 14.479373827651589
endloop
endfacet
facet normal 1.0 5.837001113342504e-15 -1.2029033761199378e-15
outer loop
vertex 166.9930617855257 215.52003445826665 14.479373827651589
vertex 166.9930617855257 217.4199194582665 -2.984727787486105
vertex 166.9930617855257 215.93330287337113 14.18868557367881
endloop
endfacet
facet normal 1.0 5.837001113342504e-15 -1.2029033761199378e-15
outer loop
vertex 166.9930617855257 215.93330287337113 14.18868557367881
vertex 166.9930617855257 217.4199194582665 -2.984727787486105
vertex 166.9930617855257 216.3069925922159 13.84369933726003
endloop
endfacet
facet normal 1.0 5.837001113342504e-15 -1.2029033761199378e-15
outer loop
vertex 166.9930617855257 216.3069925922159 13.84369933726003
vertex 166.9930617855257 217.4199194582665 -2.984727787486105
vertex 166.9930617855257 216.63470968010495 13.450317928548756
endloop
endfacet
facet normal 1.0 5.837001113342504e-15 -1.2029033761199378e-15
outer loop
vertex 166.9930617855257 216.63470968010495 13.450317928548756
vertex 166.9930617855257 217.4199194582665 -2.984727787486105
vertex 166.99306178552578 216.91084680680464 13.015272212513823
endloop
endfacet
facet normal 1.0 5.837001113342504e-15 -1.2029033761199378e-15
outer loop
vertex 166.99306178552578 216.91084680680464 13.015272212513823
vertex 166.9930617855257 217.4199194582665 -2.984727787486105
vertex 166.99306178552578 217.1306791895171 12.546005941974224
endloop
endfacet
facet normal 1.0 5.837001113342504e-15 -1.2029033761199378e-15
outer loop
vertex 166.99306178552578 217.1306791895171 12.546005941974224
vertex 166.9930617855257 217.4199194582665 -2.984727787486105
vertex 166.99306178552578 217.29044543522508 12.050548392923947
endloop
endfacet
facet normal 1.0 5.837001113342504e-15 -1.2029033761199378e-15
outer loop
vertex 166.99306178552578 217.29044543522508 12.050548392923947
vertex 166.9930617855257 217.4199194582665 -2.984727787486105
vertex 166.9930617855257 217.3874118991689 11.537376981394095
endloop
endfacet
facet normal 1.0 5.837001113342504e-15 -1.2029033761199378e-15
outer loop
vertex 166.9930617855257 217.3874118991689 11.537376981394095
vertex 166.9930617855257 217.4199194582665 -2.984727787486105
vertex 166.9930617855257 217.4199194582665 11.015272212513821
endloop
endfacet
facet normal 3.036238978847298e-16 -0.9826121960031126 0.18566979362820665
outer loop
vertex 166.99306178552578 209.94985348130817 12.050548392923947
vertex 160.09072778552576 209.85288701736428 11.537376981394072
vertex 166.99306178552573 209.85288701736428 11.537376981394049
endloop
endfacet
facet normal 3.036238978847298e-16 -0.9826121960031126 0.18566979362820665
outer loop
vertex 160.09072778552576 209.85288701736428 11.537376981394072
vertex 166.99306178552578 209.94985348130817 12.050548392923947
vertex 160.0907277855258 209.94985348130817 12.050548392923947
endloop
endfacet
facet normal -1.4504348370766393e-18 0.9826121960031251 0.1856697936281392
outer loop
vertex 160.0907277855257 217.29044543522508 12.050548392923947
vertex 166.9930617855257 217.3874118991689 11.537376981394095
vertex 160.09072778552564 217.3874118991689 11.537376981394095
endloop
endfacet
facet normal -1.4504348370766393e-18 0.9826121960031251 0.1856697936281392
outer loop
vertex 166.9930617855257 217.3874118991689 11.537376981394095
vertex 160.0907277855257 217.29044543522508 12.050548392923947
vertex 166.99306178552578 217.29044543522508 12.050548392923947
endloop
endfacet
facet normal 8.851210226968654e-20 0.905559904212011 0.42421841059003257
outer loop
vertex 160.0907277855258 216.91084680680464 13.015272212513823
vertex 166.99306178552578 217.1306791895171 12.546005941974224
vertex 160.0907277855257 217.1306791895171 12.546005941974224
endloop
endfacet
facet normal 8.851210226968654e-20 0.905559904212011 0.42421841059003257
outer loop
vertex 166.99306178552578 217.1306791895171 12.546005941974224
vertex 160.0907277855258 216.91084680680464 13.015272212513823
vertex 166.99306178552578 216.91084680680464 13.015272212513823
endloop
endfacet
facet normal -4.806799481994009e-17 0.3365026247635259 0.9416825279929842
outer loop
vertex 166.99306178552578 214.60360230127586 14.878975517670126
vertex 16.991956437775734 215.07425848406442 14.710790342559
vertex 16.991956437775702 214.60360230127583 14.878975517670115
endloop
endfacet
facet normal -4.806799481994009e-17 0.3365026247635259 0.9416825279929842
outer loop
vertex 16.991956437775734 215.07425848406442 14.710790342559
vertex 166.99306178552578 214.60360230127586 14.878975517670126
vertex 166.99306178552578 215.07425848406442 14.710790342558987
endloop
endfacet
facet normal 4.446788745983411e-15 -0.9980673066726077 0.06214218656667353
outer loop
vertex 23.891956437775733 209.85288701736434 11.5373769813941
vertex 16.991956437775677 209.82037945826656 11.01527221251386
vertex 23.891956437775722 209.82037945826664 11.015272212513839
endloop
endfacet
facet normal 4.446788745983411e-15 -0.9980673066726077 0.06214218656667353
outer loop
vertex 16.991956437775677 209.82037945826656 11.01527221251386
vertex 23.891956437775733 209.85288701736434 11.5373769813941
vertex 16.991956437775713 209.85288701736428 11.537376981394049
endloop
endfacet
facet normal 1.5350447250876927e-17 -0.5753209700549904 0.8179277360592347
outer loop
vertex 16.991956437775734 211.3069960431621 14.188685573678793
vertex 166.99306178552578 211.7202644582665 14.479373827651612
vertex 16.991956437775713 211.7202644582665 14.479373827651617
endloop
endfacet
facet normal 1.5350447250876927e-17 -0.5753209700549904 0.8179277360592347
outer loop
vertex 166.99306178552578 211.7202644582665 14.479373827651612
vertex 16.991956437775734 211.3069960431621 14.188685573678793
vertex 166.9930617855258 211.3069960431621 14.188685573678793
endloop
endfacet
facet normal 3.559878566374983e-20 -0.9055599042120507 0.424218410589948
outer loop
vertex 166.9930617855257 210.3294521097286 13.015272212513828
vertex 160.0907277855257 210.10961972701625 12.546005941974208
vertex 166.99306178552578 210.10961972701625 12.546005941974208
endloop
endfacet
facet normal 3.559878566374983e-20 -0.9055599042120507 0.424218410589948
outer loop
vertex 160.0907277855257 210.10961972701625 12.546005941974208
vertex 166.9930617855257 210.3294521097286 13.015272212513828
vertex 160.09072778552584 210.3294521097286 13.015272212513828
endloop
endfacet
facet normal -1.5242222022477528e-16 -0.9517415971885237 0.30690052489534403
outer loop
vertex 158.88839378552578 210.10961972701625 12.54600594197423
vertex 25.091956437775742 209.94985348130834 12.050548392923963
vertex 158.88839378552578 209.94985348130817 12.050548392923947
endloop
endfacet
facet normal -1.5242222022477528e-16 -0.9517415971885237 0.30690052489534403
outer loop
vertex 25.091956437775742 209.94985348130834 12.050548392923963
vertex 158.88839378552578 210.10961972701625 12.54600594197423
vertex 25.091956437775732 210.10961972701622 12.546005941974213
endloop
endfacet
facet normal 1.38148920285498e-17 -0.6783245636602997 0.7347624012802126
outer loop
vertex 166.9930617855258 210.9333063243174 13.843699337260041
vertex 16.991956437775734 211.3069960431621 14.188685573678793
vertex 16.991956437775734 210.9333063243174 13.843699337260047
endloop
endfacet
facet normal 1.38148920285498e-17 -0.6783245636602997 0.7347624012802126
outer loop
vertex 16.991956437775734 211.3069960431621 14.188685573678793
vertex 166.9930617855258 210.9333063243174 13.843699337260041
vertex 166.9930617855258 211.3069960431621 14.188685573678793
endloop
endfacet
facet normal 9.829512759747348e-17 -0.46074613208019016 0.8875319722540388
outer loop
vertex 166.99306178552578 211.7202644582665 14.479373827651612
vertex 16.991956437775734 212.16604043246872 14.710790342558987
vertex 16.991956437775713 211.7202644582665 14.479373827651617
endloop
endfacet
facet normal 9.829512759747348e-17 -0.46074613208019016 0.8875319722540388
outer loop
vertex 16.991956437775734 212.16604043246872 14.710790342558987
vertex 166.99306178552578 211.7202644582665 14.479373827651612
vertex 166.99306178552573 212.1660404324688 14.710790342559005
endloop
endfacet
facet normal 1.9867780026522678e-16 -0.9055599042120706 0.4242184105899057
outer loop
vertex 158.88839378552578 210.10961972701625 12.54600594197423
vertex 25.091956437775764 210.3294521097286 13.01527221251388
vertex 25.091956437775732 210.10961972701622 12.546005941974213
endloop
endfacet
facet normal 1.9867780026522678e-16 -0.9055599042120706 0.4242184105899057
outer loop
vertex 25.091956437775764 210.3294521097286 13.01527221251388
vertex 158.88839378552578 210.10961972701625 12.54600594197423
vertex 158.8883937855258 210.3294521097286 13.015272212513828
endloop
endfacet
facet normal -4.7672065083922004e-17 0.20494922208483218 0.9787726070782847
outer loop
vertex 16.991956437775713 214.11611896767863 14.981051658009102
vertex 166.99306178552578 214.60360230127586 14.878975517670126
vertex 16.991956437775702 214.60360230127583 14.878975517670115
endloop
endfacet
facet normal -4.7672065083922004e-17 0.20494922208483218 0.9787726070782847
outer loop
vertex 166.99306178552578 214.60360230127586 14.878975517670126
vertex 16.991956437775713 214.11611896767863 14.981051658009102
vertex 166.99306178552573 214.11611896767863 14.981051658009097
endloop
endfacet
facet normal 3.8748488809887484e-15 0.9980673066726085 0.062142186566660484
outer loop
vertex 16.991956437775734 217.3874118991689 11.537376981394083
vertex 23.891956437775722 217.4199194582665 11.015272212513855
vertex 16.991956437775748 217.4199194582665 11.01527221251385
endloop
endfacet
facet normal 3.8748488809887484e-15 0.9980673066726085 0.062142186566660484
outer loop
vertex 23.891956437775722 217.4199194582665 11.015272212513855
vertex 16.991956437775734 217.3874118991689 11.537376981394083
vertex 23.891956437775733 217.3874118991689 11.537376981394095
endloop
endfacet
facet normal -5.357654994211099e-19 -0.8442851471216585 0.5358941969733947
outer loop
vertex 166.99306178552578 210.60558923642824 13.450317928548772
vertex 160.09072778552584 210.3294521097286 13.015272212513828
vertex 166.9930617855257 210.3294521097286 13.015272212513828
endloop
endfacet
facet normal -5.357654994211099e-19 -0.8442851471216585 0.5358941969733947
outer loop
vertex 160.09072778552584 210.3294521097286 13.015272212513828
vertex 166.99306178552578 210.60558923642824 13.450317928548772
vertex 160.0907277855257 210.60558923642824 13.450317928548772
endloop
endfacet
facet normal 3.1024496705013955e-15 -1.0 -1.5330736992548684e-15
outer loop
vertex 166.99306178552578 209.82037945826664 11.015272212513844
vertex 160.0907277855258 209.82037945826664 -2.963457787486178
vertex 166.99306178552573 209.8203794582667 -2.9847277874860967
endloop
endfacet
facet normal 3.1024496705013955e-15 -1.0 -1.5330736992548684e-15
outer loop
vertex 160.0907277855258 209.82037945826664 -2.963457787486178
vertex 166.99306178552578 209.82037945826664 11.015272212513844
vertex 160.0907277855258 209.82037945826664 11.015272212513844
endloop
endfacet
facet normal -1.4322177369717113e-16 0.9517415971885091 0.30690052489538944
outer loop
vertex 25.091956437775764 217.290445435225 12.050548392924037
vertex 158.88839378552572 217.13067918951697 12.546005941974219
vertex 158.8883937855256 217.29044543522508 12.050548392923947
endloop
endfacet
facet normal -1.4322177369717113e-16 0.9517415971885091 0.30690052489538944
outer loop
vertex 158.88839378552572 217.13067918951697 12.546005941974219
vertex 25.091956437775764 217.290445435225 12.050548392924037
vertex 25.09195643777572 217.13067918951697 12.54600594197427
endloop
endfacet
facet normal 1.6821055356013678e-15 0.9826121960031244 0.18566979362814348
outer loop
vertex 16.991956437775723 217.29044543522502 12.050548392923963
vertex 23.891956437775733 217.3874118991689 11.537376981394095
vertex 16.991956437775734 217.3874118991689 11.537376981394083
endloop
endfacet
facet normal 1.6821055356013678e-15 0.9826121960031244 0.18566979362814348
outer loop
vertex 23.891956437775733 217.3874118991689 11.537376981394095
vertex 16.991956437775723 217.29044543522502 12.050548392923963
vertex 23.891956437775733 217.29044543522502 12.050548392923975
endloop
endfacet
facet normal 3.1063596254174982e-15 -1.0 -1.4633241493533507e-15
outer loop
vertex 23.891956437775722 209.82037945826664 11.015272212513839
vertex 16.99306178552572 209.8203794582667 -2.9847277874860967
vertex 23.891956437775722 209.8203794582667 -2.9847277874860967
endloop
endfacet
facet normal 3.1063596254174982e-15 -1.0 -1.4633241493533507e-15
outer loop
vertex 16.99306178552572 209.8203794582667 -2.9847277874860967
vertex 23.891956437775722 209.82037945826664 11.015272212513839
vertex 16.991956437775677 209.82037945826656 11.01527221251386
endloop
endfacet
facet normal 1.2465325487777623e-16 -0.20494922208477687 0.9787726070782962
outer loop
vertex 166.99306178552564 212.63669661525734 14.878975517670138
vertex 16.991956437775723 213.12417994885465 14.981051658009102
vertex 16.991956437775713 212.63669661525728 14.878975517670149
endloop
endfacet
facet normal 1.2465325487777623e-16 -0.20494922208477687 0.9787726070782962
outer loop
vertex 16.991956437775723 213.12417994885465 14.981051658009102
vertex 166.99306178552564 212.63669661525734 14.878975517670138
vertex 166.99306178552564 213.12417994885465 14.981051658009102
endloop
endfacet
facet normal 3.3986004621107287e-19 0.8442851471215893 0.5358941969735035
outer loop
vertex 25.091956437775742 216.91084680680464 13.015272212513942
vertex 158.88839378552572 216.6347096801051 13.450317928548762
vertex 158.8883937855257 216.91084680680467 13.015272212513807
endloop
endfacet
facet normal 3.3986004621107287e-19 0.8442851471215893 0.5358941969735035
outer loop
vertex 158.88839378552572 216.6347096801051 13.450317928548762
vertex 25.091956437775742 216.91084680680464 13.015272212513942
vertex 25.09195643777572 216.6347096801051 13.450317928548694
endloop
endfacet
facet normal 1.5003058374444601e-16 0.9055599042120693 0.4242184105899079
outer loop
vertex 25.09195643777572 217.13067918951697 12.54600594197427
vertex 158.8883937855257 216.91084680680467 13.015272212513807
vertex 158.88839378552572 217.13067918951697 12.546005941974219
endloop
endfacet
facet normal 1.5003058374444601e-16 0.9055599042120693 0.4242184105899079
outer loop
vertex 158.8883937855257 216.91084680680467 13.015272212513807
vertex 25.09195643777572 217.13067918951697 12.54600594197427
vertex 25.091956437775742 216.91084680680464 13.015272212513942
endloop
endfacet
facet normal 1.0 2.6102774837023255e-14 -9.25414293704043e-16
outer loop
vertex 23.891956437775722 217.4199194582665 -3.005335244931143
vertex 23.891956437775747 216.46997695826667 13.648057968883558
vertex 23.891956437775747 216.46997695826667 -3.0053352449311825
endloop
endfacet
facet normal 1.0 2.6102774837023255e-14 -9.25414293704043e-16
outer loop
vertex 23.891956437775747 216.46997695826667 13.648057968883558
vertex 23.891956437775722 217.4199194582665 -3.005335244931143
vertex 23.891956437775768 216.63470968010515 13.45031792854871
endloop
endfacet
facet normal 1.0 2.6102774837023255e-14 -9.25414293704043e-16
outer loop
vertex 23.891956437775768 216.63470968010515 13.45031792854871
vertex 23.891956437775722 217.4199194582665 -3.005335244931143
vertex 23.891956437775757 216.91084680680464 13.015272212513931
endloop
endfacet
facet normal 1.0 2.6102774837023255e-14 -9.25414293704043e-16
outer loop
vertex 23.891956437775757 216.91084680680464 13.015272212513931
vertex 23.891956437775722 217.4199194582665 -3.005335244931143
vertex 23.891956437775757 217.13067918951697 12.54600594197428
endloop
endfacet
facet normal 1.0 2.6102774837023255e-14 -9.25414293704043e-16
outer loop
vertex 23.891956437775757 217.13067918951697 12.54600594197428
vertex 23.891956437775722 217.4199194582665 -3.005335244931143
vertex 23.891956437775733 217.29044543522502 12.050548392923975
endloop
endfacet
facet normal 1.0 2.6102774837023255e-14 -9.25414293704043e-16
outer loop
vertex 23.891956437775733 217.29044543522502 12.050548392923975
vertex 23.891956437775722 217.4199194582665 -3.005335244931143
vertex 23.891956437775733 217.3874118991689 11.537376981394095
endloop
endfacet
facet normal 1.0 2.6102774837023255e-14 -9.25414293704043e-16
outer loop
vertex 23.891956437775733 217.3874118991689 11.537376981394095
vertex 23.891956437775722 217.4199194582665 -3.005335244931143
vertex 23.891956437775722 217.4199194582665 11.015272212513855
endloop
endfacet
facet normal 0.0 0.9517415971885139 0.30690052489537517
outer loop
vertex 160.0907277855257 217.1306791895171 12.546005941974224
vertex 166.99306178552578 217.29044543522508 12.050548392923947
vertex 160.0907277855257 217.29044543522508 12.050548392923947
endloop
endfacet
facet normal 0.0 0.9517415971885139 0.30690052489537517
outer loop
vertex 166.99306178552578 217.29044543522508 12.050548392923947
vertex 160.0907277855257 217.1306791895171 12.546005941974224
vertex 166.99306178552578 217.1306791895171 12.546005941974224
endloop
endfacet
facet normal 1.0 -5.034796392028883e-14 -2.0515312317431938e-16
outer loop
vertex 158.88839378552572 217.4199194582665 -2.986096791857414
vertex 158.88839378552564 216.46997695826667 13.648057968883615
vertex 158.88839378552564 216.46997695826664 -2.9860967918574257
endloop
endfacet
facet normal 1.0 -5.034796392028883e-14 -2.0515312317431938e-16
outer loop
vertex 158.88839378552564 216.46997695826667 13.648057968883615
vertex 158.88839378552572 217.4199194582665 -2.986096791857414
vertex 158.88839378552572 216.6347096801051 13.450317928548762
endloop
endfacet
facet normal 1.0 -5.034796392028883e-14 -2.0515312317431938e-16
outer loop
vertex 158.88839378552572 216.6347096801051 13.450317928548762
vertex 158.88839378552572 217.4199194582665 -2.986096791857414
vertex 158.8883937855257 216.91084680680467 13.015272212513807
endloop
endfacet
facet normal 1.0 -5.034796392028883e-14 -2.0515312317431938e-16
outer loop
vertex 158.8883937855257 216.91084680680467 13.015272212513807
vertex 158.88839378552572 217.4199194582665 -2.986096791857414
vertex 158.88839378552572 217.13067918951697 12.546005941974219
endloop
endfacet
facet normal 1.0 -5.034796392028883e-14 -2.0515312317431938e-16
outer loop
vertex 158.88839378552572 217.13067918951697 12.546005941974219
vertex 158.88839378552572 217.4199194582665 -2.986096791857414
vertex 158.8883937855256 217.29044543522508 12.050548392923947
endloop
endfacet
facet normal 1.0 -5.034796392028883e-14 -2.0515312317431938e-16
outer loop
vertex 158.8883937855256 217.29044543522508 12.050548392923947
vertex 158.88839378552572 217.4199194582665 -2.986096791857414
vertex 158.88839378552572 217.3874118991689 11.537376981394106
endloop
endfacet
facet normal 1.0 -5.034796392028883e-14 -2.0515312317431938e-16
outer loop
vertex 158.88839378552572 217.3874118991689 11.537376981394106
vertex 158.88839378552572 217.4199194582665 -2.986096791857414
vertex 158.88839378552572 217.4199194582665 11.015272212513844
endloop
endfacet
facet normal 2.404035625407962e-16 -0.7683180485272599 0.6400682590999673
outer loop
vertex 166.9930617855258 210.9333063243174 13.843699337260041
vertex 160.0907277855257 210.60558923642824 13.450317928548772
vertex 166.99306178552578 210.60558923642824 13.450317928548772
endloop
endfacet
facet normal 2.404035625407962e-16 -0.7683180485272599 0.6400682590999673
outer loop
vertex 160.0907277855257 210.60558923642824 13.450317928548772
vertex 166.9930617855258 210.9333063243174 13.843699337260041
vertex 160.0907277855257 210.7703219582667 13.648057968883592
endloop
endfacet
facet normal 2.404035625407962e-16 -0.7683180485272599 0.6400682590999673
outer loop
vertex 160.0907277855257 210.7703219582667 13.648057968883592
vertex 166.9930617855258 210.9333063243174 13.843699337260041
vertex 158.88839378552578 210.7703219582667 13.648057968883615
endloop
endfacet
facet normal 2.404035625407962e-16 -0.7683180485272599 0.6400682590999673
outer loop
vertex 158.88839378552578 210.7703219582667 13.648057968883615
vertex 166.9930617855258 210.9333063243174 13.843699337260041
vertex 25.091956437775753 210.7703219582667 13.64805796888366
endloop
endfacet
facet normal 2.404035625407962e-16 -0.7683180485272599 0.6400682590999673
outer loop
vertex 25.091956437775753 210.7703219582667 13.64805796888366
vertex 166.9930617855258 210.9333063243174 13.843699337260041
vertex 23.891956437775747 210.7703219582667 13.648057968883665
endloop
endfacet
facet normal 2.404035625407962e-16 -0.7683180485272599 0.6400682590999673
outer loop
vertex 23.891956437775747 210.7703219582667 13.648057968883665
vertex 16.991956437775713 210.6055892364281 13.450317928548749
vertex 23.891956437775722 210.6055892364281 13.450317928548749
endloop
endfacet
facet normal 2.404035625407962e-16 -0.7683180485272599 0.6400682590999673
outer loop
vertex 16.991956437775713 210.6055892364281 13.450317928548749
vertex 23.891956437775747 210.7703219582667 13.648057968883665
vertex 16.991956437775734 210.9333063243174 13.843699337260047
endloop
endfacet
facet normal 2.404035625407962e-16 -0.7683180485272599 0.6400682590999673
outer loop
vertex 16.991956437775734 210.9333063243174 13.843699337260047
vertex 23.891956437775747 210.7703219582667 13.648057968883665
vertex 166.9930617855258 210.9333063243174 13.843699337260041
endloop
endfacet
facet normal 2.404035625407962e-16 -0.7683180485272599 0.6400682590999673
outer loop
vertex 158.88839378552564 210.60558923642827 13.450317928548767
vertex 25.091956437775753 210.7703219582667 13.64805796888366
vertex 25.09195643777572 210.60558923642802 13.450317928548756
endloop
endfacet
facet normal 2.404035625407962e-16 -0.7683180485272599 0.6400682590999673
outer loop
vertex 25.091956437775753 210.7703219582667 13.64805796888366
vertex 158.88839378552564 210.60558923642827 13.450317928548767
vertex 158.88839378552578 210.7703219582667 13.648057968883615
endloop
endfacet
facet normal -4.8629743890321144e-15 0.9055599042120823 0.42421841058988025
outer loop
vertex 16.991956437775713 216.91084680680464 13.015272212513807
vertex 23.891956437775757 217.13067918951697 12.54600594197428
vertex 16.991956437775734 217.13067918951688 12.546005941974242
endloop
endfacet
facet normal -4.8629743890321144e-15 0.9055599042120823 0.42421841058988025
outer loop
vertex 23.891956437775757 217.13067918951697 12.54600594197428
vertex 16.991956437775713 216.91084680680464 13.015272212513807
vertex 23.891956437775757 216.91084680680464 13.015272212513931
endloop
endfacet
facet normal 4.38605107235297e-16 0.8442851471216176 0.535894196973459
outer loop
vertex 160.09072778552576 216.63470968010495 13.450317928548767
vertex 166.99306178552578 216.91084680680464 13.015272212513823
vertex 160.0907277855258 216.91084680680464 13.015272212513823
endloop
endfacet
facet normal 4.38605107235297e-16 0.8442851471216176 0.535894196973459
outer loop
vertex 166.99306178552578 216.91084680680464 13.015272212513823
vertex 160.09072778552576 216.63470968010495 13.450317928548767
vertex 166.9930617855257 216.63470968010495 13.450317928548756
endloop
endfacet
facet normal -1.0272034616678722e-16 0.7683180485272907 0.6400682590999306
outer loop
vertex 16.99195643777577 216.63470968010495 13.450317928548749
vertex 23.891956437775747 216.46997695826667 13.648057968883558
vertex 23.891956437775768 216.63470968010515 13.45031792854871
endloop
endfacet
facet normal -1.0272034616678722e-16 0.7683180485272907 0.6400682590999306
outer loop
vertex 23.891956437775747 216.46997695826667 13.648057968883558
vertex 16.99195643777577 216.63470968010495 13.450317928548749
vertex 16.991956437775713 216.30699259221583 13.843699337260018
endloop
endfacet
facet normal -1.0272034616678722e-16 0.7683180485272907 0.6400682590999306
outer loop
vertex 23.891956437775747 216.46997695826667 13.648057968883558
vertex 16.991956437775713 216.30699259221583 13.843699337260018
vertex 25.09195643777571 216.46997695826667 13.648057968883569
endloop
endfacet
facet normal -1.0272034616678722e-16 0.7683180485272907 0.6400682590999306
outer loop
vertex 25.09195643777571 216.46997695826667 13.648057968883569
vertex 16.991956437775713 216.30699259221583 13.843699337260018
vertex 158.88839378552564 216.46997695826667 13.648057968883615
endloop
endfacet
facet normal -1.0272034616678722e-16 0.7683180485272907 0.6400682590999306
outer loop
vertex 160.09072778552576 216.63470968010495 13.450317928548767
vertex 166.9930617855257 216.3069925922159 13.84369933726003
vertex 166.9930617855257 216.63470968010495 13.450317928548756
endloop
endfacet
facet normal -1.0272034616678722e-16 0.7683180485272907 0.6400682590999306
outer loop
vertex 166.9930617855257 216.3069925922159 13.84369933726003
vertex 160.09072778552576 216.63470968010495 13.450317928548767
vertex 160.0907277855258 216.46997695826664 13.64805796888361
endloop
endfacet
facet normal -1.0272034616678722e-16 0.7683180485272907 0.6400682590999306
outer loop
vertex 166.9930617855257 216.3069925922159 13.84369933726003
vertex 160.0907277855258 216.46997695826664 13.64805796888361
vertex 158.88839378552564 216.46997695826667 13.648057968883615
endloop
endfacet
facet normal -1.0272034616678722e-16 0.7683180485272907 0.6400682590999306
outer loop
vertex 166.9930617855257 216.3069925922159 13.84369933726003
vertex 158.88839378552564 216.46997695826667 13.648057968883615
vertex 16.991956437775713 216.30699259221583 13.843699337260018
endloop
endfacet
facet normal -1.0272034616678722e-16 0.7683180485272907 0.6400682590999306
outer loop
vertex 25.09195643777571 216.46997695826667 13.648057968883569
vertex 158.88839378552572 216.6347096801051 13.450317928548762
vertex 25.09195643777572 216.6347096801051 13.450317928548694
endloop
endfacet
facet normal -1.0272034616678722e-16 0.7683180485272907 0.6400682590999306
outer loop
vertex 158.88839378552572 216.6347096801051 13.450317928548762
vertex 25.09195643777571 216.46997695826667 13.648057968883569
vertex 158.88839378552564 216.46997695826667 13.648057968883615
endloop
endfacet
facet normal -2.7566584866796976e-16 -0.9826121960031117 0.18566979362821037
outer loop
vertex 158.88839378552578 209.94985348130817 12.050548392923947
vertex 25.09195643777572 209.85288701736434 11.5373769813941
vertex 158.8883937855257 209.85288701736434 11.537376981394061
endloop
endfacet
facet normal -2.7566584866796976e-16 -0.9826121960031117 0.18566979362821037
outer loop
vertex 25.09195643777572 209.85288701736434 11.5373769813941
vertex 158.88839378552578 209.94985348130817 12.050548392923947
vertex 25.091956437775742 209.94985348130834 12.050548392923963
endloop
endfacet
facet normal -7.347770807590337e-19 -0.9517415971884866 0.30690052489545927
outer loop
vertex 166.99306178552578 210.10961972701625 12.546005941974208
vertex 160.0907277855258 209.94985348130817 12.050548392923947
vertex 166.99306178552578 209.94985348130817 12.050548392923947
endloop
endfacet
facet normal -7.347770807590337e-19 -0.9517415971884866 0.30690052489545927
outer loop
vertex 160.0907277855258 209.94985348130817 12.050548392923947
vertex 166.99306178552578 210.10961972701625 12.546005941974208
vertex 160.0907277855257 210.10961972701625 12.546005941974208
endloop
endfacet
facet normal -0.0013304423040750625 -0.0023831884608359415 -0.9999962751610808
outer loop
vertex 166.9930617855257 217.4199194582665 -2.984727787486105
vertex 160.0907277855258 216.4699769582665 -2.986096791857434
vertex 160.0907277855257 217.41991945826655 -2.9860967918573946
endloop
endfacet
facet normal -0.0013304423040750625 -0.0023831884608359415 -0.9999962751610808
outer loop
vertex 160.0907277855258 216.4699769582665 -2.986096791857434
vertex 166.9930617855257 217.4199194582665 -2.984727787486105
vertex 160.0907277855258 209.82037945826664 -2.963457787486178
endloop
endfacet
facet normal -0.0013304423040750625 -0.0023831884608359415 -0.9999962751610808
outer loop
vertex 160.0907277855258 209.82037945826664 -2.963457787486178
vertex 166.9930617855257 217.4199194582665 -2.984727787486105
vertex 166.99306178552573 209.8203794582667 -2.9847277874860967
endloop
endfacet
facet normal -0.0013304423040750625 -0.0023831884608359415 -0.9999962751610808
outer loop
vertex 160.0907277855258 216.4699769582665 -2.986096791857434
vertex 158.88839378552578 210.7703219582667 -2.963457787486206
vertex 158.88839378552564 216.46997695826664 -2.9860967918574257
endloop
endfacet
facet normal -0.0013304423040750625 -0.0023831884608359415 -0.9999962751610808
outer loop
vertex 158.88839378552578 210.7703219582667 -2.963457787486206
vertex 160.0907277855258 216.4699769582665 -2.986096791857434
vertex 160.0907277855257 210.7703219582667 -2.9634577874862176
endloop
endfacet
facet normal -0.0013304423040750625 -0.0023831884608359415 -0.9999962751610808
outer loop
vertex 160.0907277855257 210.7703219582667 -2.9634577874862176
vertex 160.0907277855258 216.4699769582665 -2.986096791857434
vertex 160.0907277855258 209.82037945826664 -2.963457787486178
endloop
endfacet
facet normal 2.4448276595960255e-15 -0.9826121960031258 0.1856697936281365
outer loop
vertex 23.891956437775733 209.85288701736434 11.5373769813941
vertex 16.991956437775748 209.94985348130817 12.050548392923963
vertex 16.991956437775713 209.85288701736428 11.537376981394049
endloop
endfacet
facet normal 2.4448276595960255e-15 -0.9826121960031258 0.1856697936281365
outer loop
vertex 16.991956437775748 209.94985348130817 12.050548392923963
vertex 23.891956437775733 209.85288701736434 11.5373769813941
vertex 23.891956437775757 209.94985348130817 12.050548392923952
endloop
endfacet
facet normal -1.4782931190389184e-15 -0.9517415971884883 0.3069005248954543
outer loop
vertex 23.891956437775733 210.10961972701622 12.546005941974213
vertex 16.991956437775748 209.94985348130817 12.050548392923963
vertex 23.891956437775757 209.94985348130817 12.050548392923952
endloop
endfacet
facet normal -1.4782931190389184e-15 -0.9517415971884883 0.3069005248954543
outer loop
vertex 16.991956437775748 209.94985348130817 12.050548392923963
vertex 23.891956437775733 210.10961972701622 12.546005941974213
vertex 16.99195643777576 210.10961972701625 12.54600594197423
endloop
endfacet
facet normal 2.181295442722188e-15 -0.8442851471216333 0.5358941969734345
outer loop
vertex 23.891956437775768 210.3294521097286 13.015272212513903
vertex 16.991956437775713 210.6055892364281 13.450317928548749
vertex 16.991956437775713 210.3294521097286 13.015272212513851
endloop
endfacet
facet normal 2.181295442722188e-15 -0.8442851471216333 0.5358941969734345
outer loop
vertex 16.991956437775713 210.6055892364281 13.450317928548749
vertex 23.891956437775768 210.3294521097286 13.015272212513903
vertex 23.891956437775722 210.6055892364281 13.450317928548749
endloop
endfacet
facet normal -1.4938847220472244e-16 0.9980673066726093 0.06214218656664627
outer loop
vertex 25.09195643777572 217.4199194582665 11.015272212513855
vertex 158.88839378552572 217.3874118991689 11.537376981394106
vertex 158.88839378552572 217.4199194582665 11.015272212513844
endloop
endfacet
facet normal -1.4938847220472244e-16 0.9980673066726093 0.06214218656664627
outer loop
vertex 158.88839378552572 217.3874118991689 11.537376981394106
vertex 25.09195643777572 217.4199194582665 11.015272212513855
vertex 25.09195643777572 217.3874118991689 11.53737698139414
endloop
endfacet
facet normal -9.694066591150894e-17 0.6783245636603236 0.7347624012801904
outer loop
vertex 16.991956437775734 215.93330287337113 14.188685573678821
vertex 166.9930617855257 216.3069925922159 13.84369933726003
vertex 16.991956437775713 216.30699259221583 13.843699337260018
endloop
endfacet
facet normal -9.694066591150894e-17 0.6783245636603236 0.7347624012801904
outer loop
vertex 166.9930617855257 216.3069925922159 13.84369933726003
vertex 16.991956437775734 215.93330287337113 14.188685573678821
vertex 166.9930617855257 215.93330287337113 14.18868557367881
endloop
endfacet
facet normal 7.691977029459148e-17 0.5753209700549381 0.8179277360592713
outer loop
vertex 166.9930617855257 215.52003445826665 14.479373827651589
vertex 16.991956437775734 215.93330287337113 14.188685573678821
vertex 16.991956437775723 215.52003445826665 14.479373827651607
endloop
endfacet
facet normal 7.691977029459148e-17 0.5753209700549381 0.8179277360592713
outer loop
vertex 16.991956437775734 215.93330287337113 14.188685573678821
vertex 166.9930617855257 215.52003445826665 14.479373827651589
vertex 166.9930617855257 215.93330287337113 14.18868557367881
endloop
endfacet
facet normal 8.338601428560722e-17 0.4607461320802473 0.8875319722540093
outer loop
vertex 16.991956437775734 215.07425848406442 14.710790342559
vertex 166.9930617855257 215.52003445826665 14.479373827651589
vertex 16.991956437775723 215.52003445826665 14.479373827651607
endloop
endfacet
facet normal 8.338601428560722e-17 0.4607461320802473 0.8875319722540093
outer loop
vertex 166.9930617855257 215.52003445826665 14.479373827651589
vertex 16.991956437775734 215.07425848406442 14.710790342559
vertex 166.99306178552578 215.07425848406442 14.710790342558987
endloop
endfacet
facet normal 3.564807795966733e-14 1.0 -2.57668013686646e-15
outer loop
vertex 158.88839378552564 216.46997695826664 -2.9860967918574257
vertex 160.0907277855258 216.46997695826664 13.64805796888361
vertex 160.0907277855258 216.4699769582665 -2.986096791857434
endloop
endfacet
facet normal 3.564807795966733e-14 1.0 -2.57668013686646e-15
outer loop
vertex 160.0907277855258 216.46997695826664 13.64805796888361
vertex 158.88839378552564 216.46997695826664 -2.9860967918574257
vertex 158.88839378552564 216.46997695826667 13.648057968883615
endloop
endfacet
facet normal 1.6029389680856283e-16 -1.0 -1.5330736992548621e-15
outer loop
vertex 158.88839378552572 209.8203794582667 -2.9634577874861807
vertex 25.091956437775732 209.82037945826664 11.015272212513839
vertex 25.091956437775732 209.8203794582667 -2.9847277874860967
endloop
endfacet
facet normal 1.6029389680856283e-16 -1.0 -1.5330736992548621e-15
outer loop
vertex 25.091956437775732 209.82037945826664 11.015272212513839
vertex 158.88839378552572 209.8203794582667 -2.9634577874861807
vertex 158.88839378552572 209.8203794582667 11.015272212513855
endloop
endfacet
facet normal 2.0922721108441465e-16 0.9517415971884953 0.3069005248954319
outer loop
vertex 16.991956437775734 217.13067918951688 12.546005941974242
vertex 23.891956437775733 217.29044543522502 12.050548392923975
vertex 16.991956437775723 217.29044543522502 12.050548392923963
endloop
endfacet
facet normal 2.0922721108441465e-16 0.9517415971884953 0.3069005248954319
outer loop
vertex 23.891956437775733 217.29044543522502 12.050548392923975
vertex 16.991956437775734 217.13067918951688 12.546005941974242
vertex 23.891956437775757 217.13067918951697 12.54600594197428
endloop
endfacet
facet normal 0.0 -1.0 0.0
outer loop
vertex 160.0907277855257 210.7703219582667 13.648057968883592
vertex 158.88839378552578 210.7703219582667 -2.963457787486206
vertex 160.0907277855257 210.7703219582667 -2.9634577874862176
endloop
endfacet
facet normal 0.0 -1.0 0.0
outer loop
vertex 158.88839378552578 210.7703219582667 -2.963457787486206
vertex 160.0907277855257 210.7703219582667 13.648057968883592
vertex 158.88839378552578 210.7703219582667 13.648057968883615
endloop
endfacet
facet normal -1.0 -1.0851919882973422e-13 -5.757441516404549e-16
outer loop
vertex 160.0907277855258 216.46997695826664 13.64805796888361
vertex 160.0907277855257 217.41991945826655 -2.9860967918573946
vertex 160.0907277855258 216.4699769582665 -2.986096791857434
endloop
endfacet
facet normal -1.0 -1.0851919882973422e-13 -5.757441516404549e-16
outer loop
vertex 160.0907277855257 217.41991945826655 -2.9860967918573946
vertex 160.0907277855258 216.46997695826664 13.64805796888361
vertex 160.09072778552576 216.63470968010495 13.450317928548767
endloop
endfacet
facet normal -1.0 -1.0851919882973422e-13 -5.757441516404549e-16
outer loop
vertex 160.0907277855257 217.41991945826655 -2.9860967918573946
vertex 160.09072778552576 216.63470968010495 13.450317928548767
vertex 160.0907277855258 216.91084680680464 13.015272212513823
endloop
endfacet
facet normal -1.0 -1.0851919882973422e-13 -5.757441516404549e-16
outer loop
vertex 160.0907277855257 217.41991945826655 -2.9860967918573946
vertex 160.0907277855258 216.91084680680464 13.015272212513823
vertex 160.0907277855257 217.1306791895171 12.546005941974224
endloop
endfacet
facet normal -1.0 -1.0851919882973422e-13 -5.757441516404549e-16
outer loop
vertex 160.0907277855257 217.41991945826655 -2.9860967918573946
vertex 160.0907277855257 217.1306791895171 12.546005941974224
vertex 160.0907277855257 217.29044543522508 12.050548392923947
endloop
endfacet
facet normal -1.0 -1.0851919882973422e-13 -5.757441516404549e-16
outer loop
vertex 160.0907277855257 217.41991945826655 -2.9860967918573946
vertex 160.0907277855257 217.29044543522508 12.050548392923947
vertex 160.09072778552564 217.3874118991689 11.537376981394095
endloop
endfacet
facet normal -1.0 -1.0851919882973422e-13 -5.757441516404549e-16
outer loop
vertex 160.0907277855257 217.41991945826655 -2.9860967918573946
vertex 160.09072778552564 217.3874118991689 11.537376981394095
vertex 160.0907277855257 217.4199194582665 11.015272212513821
endloop
endfacet
facet normal -1.0 1.1262932514294715e-14 4.0048258399422077e-16
outer loop
vertex 25.09195643777571 216.46997695826667 13.648057968883569
vertex 25.09195643777572 217.4199194582665 -3.005335244931143
vertex 25.09195643777572 216.4699769582665 -3.005335244931188
endloop
endfacet
facet normal -1.0 1.1262932514294715e-14 4.0048258399422077e-16
outer loop
vertex 25.09195643777572 217.4199194582665 -3.005335244931143
vertex 25.09195643777571 216.46997695826667 13.648057968883569
vertex 25.09195643777572 216.6347096801051 13.450317928548694
endloop
endfacet
facet normal -1.0 1.1262932514294715e-14 4.0048258399422077e-16
outer loop
vertex 25.09195643777572 217.4199194582665 -3.005335244931143
vertex 25.09195643777572 216.6347096801051 13.450317928548694
vertex 25.091956437775742 216.91084680680464 13.015272212513942
endloop
endfacet
facet normal -1.0 1.1262932514294715e-14 4.0048258399422077e-16
outer loop
vertex 25.09195643777572 217.4199194582665 -3.005335244931143
vertex 25.091956437775742 216.91084680680464 13.015272212513942
vertex 25.09195643777572 217.13067918951697 12.54600594197427
endloop
endfacet
facet normal -1.0 1.1262932514294715e-14 4.0048258399422077e-16
outer loop
vertex 25.09195643777572 217.4199194582665 -3.005335244931143
vertex 25.09195643777572 217.13067918951697 12.54600594197427
vertex 25.091956437775764 217.290445435225 12.050548392924037
endloop
endfacet
facet normal -1.0 1.1262932514294715e-14 4.0048258399422077e-16
outer loop
vertex 25.09195643777572 217.4199194582665 -3.005335244931143
vertex 25.091956437775764 217.290445435225 12.050548392924037
vertex 25.09195643777572 217.3874118991689 11.53737698139414
endloop
endfacet
facet normal -1.0 1.1262932514294715e-14 4.0048258399422077e-16
outer loop
vertex 25.09195643777572 217.4199194582665 -3.005335244931143
vertex 25.09195643777572 217.3874118991689 11.53737698139414
vertex 25.09195643777572 217.4199194582665 11.015272212513855
endloop
endfacet
facet normal -0.9999999986833423 -1.02418329193816e-05 -5.028340225677248e-05
outer loop
vertex 16.991956437775713 209.85288701736428 11.537376981394049
vertex 16.99306178552572 209.8203794582667 -2.9847277874860967
vertex 16.991956437775677 209.82037945826656 11.01527221251386
endloop
endfacet
facet normal -0.9999999986833423 -1.02418329193816e-05 -5.028340225677248e-05
outer loop
vertex 16.99306178552572 209.8203794582667 -2.9847277874860967
vertex 16.991956437775713 209.85288701736428 11.537376981394049
vertex 16.99306178552572 217.41991945826632 -3.006941574352667
endloop
endfacet
facet normal -0.9999999986833423 -1.02418329193816e-05 -5.028340225677248e-05
outer loop
vertex 16.99306178552572 217.41991945826632 -3.006941574352667
vertex 16.991956437775713 209.85288701736428 11.537376981394049
vertex 16.991956437775748 209.94985348130817 12.050548392923963
endloop
endfacet
facet normal -0.9999999986833423 -1.02418329193816e-05 -5.028340225677248e-05
outer loop
vertex 16.99306178552572 217.41991945826632 -3.006941574352667
vertex 16.991956437775748 209.94985348130817 12.050548392923963
vertex 16.99195643777576 210.10961972701625 12.54600594197423
endloop
endfacet
facet normal -0.9999999986833423 -1.02418329193816e-05 -5.028340225677248e-05
outer loop
vertex 16.99306178552572 217.41991945826632 -3.006941574352667
vertex 16.99195643777576 210.10961972701625 12.54600594197423
vertex 16.991956437775713 210.3294521097286 13.015272212513851
endloop
endfacet
facet normal -0.9999999986833423 -1.02418329193816e-05 -5.028340225677248e-05
outer loop
vertex 16.99306178552572 217.41991945826632 -3.006941574352667
vertex 16.991956437775713 210.3294521097286 13.015272212513851
vertex 16.991956437775713 210.6055892364281 13.450317928548749
endloop
endfacet
facet normal -0.9999999986833423 -1.02418329193816e-05 -5.028340225677248e-05
outer loop
vertex 16.99306178552572 217.41991945826632 -3.006941574352667
vertex 16.991956437775713 210.6055892364281 13.450317928548749
vertex 16.991956437775734 210.9333063243174 13.843699337260047
endloop
endfacet
facet normal -0.9999999986833423 -1.02418329193816e-05 -5.028340225677248e-05
outer loop
vertex 16.99306178552572 217.41991945826632 -3.006941574352667
vertex 16.991956437775734 210.9333063243174 13.843699337260047
vertex 16.991956437775734 211.3069960431621 14.188685573678793
endloop
endfacet
facet normal -0.9999999986833423 -1.02418329193816e-05 -5.028340225677248e-05
outer loop
vertex 16.99306178552572 217.41991945826632 -3.006941574352667
vertex 16.991956437775734 211.3069960431621 14.188685573678793
vertex 16.991956437775713 211.7202644582665 14.479373827651617
endloop
endfacet
facet normal -0.9999999986833423 -1.02418329193816e-05 -5.028340225677248e-05
outer loop
vertex 16.99306178552572 217.41991945826632 -3.006941574352667
vertex 16.991956437775713 211.7202644582665 14.479373827651617
vertex 16.991956437775734 212.16604043246872 14.710790342558987
endloop
endfacet
facet normal -0.9999999986833423 -1.02418329193816e-05 -5.028340225677248e-05
outer loop
vertex 16.99306178552572 217.41991945826632 -3.006941574352667
vertex 16.991956437775734 212.16604043246872 14.710790342558987
vertex 16.991956437775713 212.63669661525728 14.878975517670149
endloop
endfacet
facet normal -0.9999999986833423 -1.02418329193816e-05 -5.028340225677248e-05
outer loop
vertex 16.99306178552572 217.41991945826632 -3.006941574352667
vertex 16.991956437775713 212.63669661525728 14.878975517670149
vertex 16.991956437775723 213.12417994885465 14.981051658009102
endloop
endfacet
facet normal -0.9999999986833423 -1.02418329193816e-05 -5.028340225677248e-05
outer loop
vertex 16.99306178552572 217.41991945826632 -3.006941574352667
vertex 16.991956437775723 213.12417994885465 14.981051658009102
vertex 16.991956437775713 214.11611896767863 14.981051658009102
endloop
endfacet
facet normal -0.9999999986833423 -1.02418329193816e-05 -5.028340225677248e-05
outer loop
vertex 16.99306178552572 217.41991945826632 -3.006941574352667
vertex 16.991956437775713 214.11611896767863 14.981051658009102
vertex 16.991956437775702 214.60360230127583 14.878975517670115
endloop
endfacet
facet normal -0.9999999986833423 -1.02418329193816e-05 -5.028340225677248e-05
outer loop
vertex 16.99306178552572 217.41991945826632 -3.006941574352667
vertex 16.991956437775702 214.60360230127583 14.878975517670115
vertex 16.991956437775734 215.07425848406442 14.710790342559
endloop
endfacet
facet normal -0.9999999986833423 -1.02418329193816e-05 -5.028340225677248e-05
outer loop
vertex 16.99306178552572 217.41991945826632 -3.006941574352667
vertex 16.991956437775734 215.07425848406442 14.710790342559
vertex 16.991956437775723 215.52003445826665 14.479373827651607
endloop
endfacet
facet normal -0.9999999986833423 -1.02418329193816e-05 -5.028340225677248e-05
outer loop
vertex 16.99306178552572 217.41991945826632 -3.006941574352667
vertex 16.991956437775723 215.52003445826665 14.479373827651607
vertex 16.991956437775734 215.93330287337113 14.188685573678821
endloop
endfacet
facet normal -0.9999999986833423 -1.02418329193816e-05 -5.028340225677248e-05
outer loop
vertex 16.99306178552572 217.41991945826632 -3.006941574352667
vertex 16.991956437775734 215.93330287337113 14.188685573678821
vertex 16.991956437775713 216.30699259221583 13.843699337260018
endloop
endfacet
facet normal -0.9999999986833423 -1.02418329193816e-05 -5.028340225677248e-05
outer loop
vertex 16.99306178552572 217.41991945826632 -3.006941574352667
vertex 16.991956437775713 216.30699259221583 13.843699337260018
vertex 16.99195643777577 216.63470968010495 13.450317928548749
endloop
endfacet
facet normal -0.9999999986833423 -1.02418329193816e-05 -5.028340225677248e-05
outer loop
vertex 16.99306178552572 217.41991945826632 -3.006941574352667
vertex 16.99195643777577 216.63470968010495 13.450317928548749
vertex 16.991956437775713 216.91084680680464 13.015272212513807
endloop
endfacet
facet normal -0.9999999986833423 -1.02418329193816e-05 -5.028340225677248e-05
outer loop
vertex 16.99306178552572 217.41991945826632 -3.006941574352667
vertex 16.991956437775713 216.91084680680464 13.015272212513807
vertex 16.991956437775734 217.13067918951688 12.546005941974242
endloop
endfacet
facet normal -0.9999999986833423 -1.02418329193816e-05 -5.028340225677248e-05
outer loop
vertex 16.99306178552572 217.41991945826632 -3.006941574352667
vertex 16.991956437775734 217.13067918951688 12.546005941974242
vertex 16.991956437775723 217.29044543522502 12.050548392923963
endloop
endfacet
facet normal -0.9999999986833423 -1.02418329193816e-05 -5.028340225677248e-05
outer loop
vertex 16.99306178552572 217.41991945826632 -3.006941574352667
vertex 16.991956437775723 217.29044543522502 12.050548392923963
vertex 16.991956437775734 217.3874118991689 11.537376981394083
endloop
endfacet
facet normal -0.9999999986833423 -1.02418329193816e-05 -5.028340225677248e-05
outer loop
vertex 16.99306178552572 217.41991945826632 -3.006941574352667
vertex 16.991956437775734 217.3874118991689 11.537376981394083
vertex 16.991956437775748 217.4199194582665 11.01527221251385
endloop
endfacet
facet normal 1.0 -1.5778762872020485e-14 -1.2701098204236689e-16
outer loop
vertex 23.891956437775722 209.8203794582667 -2.9847277874860967
vertex 23.891956437775733 209.85288701736434 11.5373769813941
vertex 23.891956437775722 209.82037945826664 11.015272212513839
endloop
endfacet
facet normal 1.0 -1.5778762872020485e-14 -1.2701098204236689e-16
outer loop
vertex 23.891956437775733 209.85288701736434 11.5373769813941
vertex 23.891956437775722 209.8203794582667 -2.9847277874860967
vertex 23.891956437775757 210.77032195826675 -2.9847277874861105
endloop
endfacet
facet normal 1.0 -1.5778762872020485e-14 -1.2701098204236689e-16
outer loop
vertex 23.891956437775733 209.85288701736434 11.5373769813941
vertex 23.891956437775757 210.77032195826675 -2.9847277874861105
vertex 23.891956437775757 209.94985348130817 12.050548392923952
endloop
endfacet
facet normal 1.0 -1.5778762872020485e-14 -1.2701098204236689e-16
outer loop
vertex 23.891956437775757 209.94985348130817 12.050548392923952
vertex 23.891956437775757 210.77032195826675 -2.9847277874861105
vertex 23.891956437775733 210.10961972701622 12.546005941974213
endloop
endfacet
facet normal 1.0 -1.5778762872020485e-14 -1.2701098204236689e-16
outer loop
vertex 23.891956437775733 210.10961972701622 12.546005941974213
vertex 23.891956437775757 210.77032195826675 -2.9847277874861105
vertex 23.891956437775768 210.3294521097286 13.015272212513903
endloop
endfacet
facet normal 1.0 -1.5778762872020485e-14 -1.2701098204236689e-16
outer loop
vertex 23.891956437775768 210.3294521097286 13.015272212513903
vertex 23.891956437775757 210.77032195826675 -2.9847277874861105
vertex 23.891956437775722 210.6055892364281 13.450317928548749
endloop
endfacet
facet normal 1.0 -1.5778762872020485e-14 -1.2701098204236689e-16
outer loop
vertex 23.891956437775722 210.6055892364281 13.450317928548749
vertex 23.891956437775757 210.77032195826675 -2.9847277874861105
vertex 23.891956437775747 210.7703219582667 13.648057968883665
endloop
endfacet
facet normal -1.0 -7.713468390783581e-14 4.0781247987894875e-17
outer loop
vertex 160.09072778552576 209.85288701736428 11.537376981394072
vertex 160.0907277855258 209.82037945826664 -2.963457787486178
vertex 160.0907277855258 209.82037945826664 11.015272212513844
endloop
endfacet
facet normal -1.0 -7.713468390783581e-14 4.0781247987894875e-17
outer loop
vertex 160.0907277855258 209.82037945826664 -2.963457787486178
vertex 160.09072778552576 209.85288701736428 11.537376981394072
vertex 160.0907277855257 210.7703219582667 -2.9634577874862176
endloop
endfacet
facet normal -1.0 -7.713468390783581e-14 4.0781247987894875e-17
outer loop
vertex 160.0907277855257 210.7703219582667 -2.9634577874862176
vertex 160.09072778552576 209.85288701736428 11.537376981394072
vertex 160.0907277855258 209.94985348130817 12.050548392923947
endloop
endfacet
facet normal -1.0 -7.713468390783581e-14 4.0781247987894875e-17
outer loop
vertex 160.0907277855257 210.7703219582667 -2.9634577874862176
vertex 160.0907277855258 209.94985348130817 12.050548392923947
vertex 160.0907277855257 210.10961972701625 12.546005941974208
endloop
endfacet
facet normal -1.0 -7.713468390783581e-14 4.0781247987894875e-17
outer loop
vertex 160.0907277855257 210.7703219582667 -2.9634577874862176
vertex 160.0907277855257 210.10961972701625 12.546005941974208
vertex 160.09072778552584 210.3294521097286 13.015272212513828
endloop
endfacet
facet normal -1.0 -7.713468390783581e-14 4.0781247987894875e-17
outer loop
vertex 160.0907277855257 210.7703219582667 -2.9634577874862176
vertex 160.09072778552584 210.3294521097286 13.015272212513828
vertex 160.0907277855257 210.60558923642824 13.450317928548772
endloop
endfacet
facet normal -1.0 -7.713468390783581e-14 4.0781247987894875e-17
outer loop
vertex 160.0907277855257 210.7703219582667 -2.9634577874862176
vertex 160.0907277855257 210.60558923642824 13.450317928548772
vertex 160.0907277855257 210.7703219582667 13.648057968883592
endloop
endfacet
facet normal 1.0 -1.7910406967483698e-14 5.063092100347935e-16
outer loop
vertex 158.88839378552578 210.7703219582667 -2.963457787486206
vertex 158.88839378552572 209.8203794582667 11.015272212513855
vertex 158.88839378552572 209.8203794582667 -2.9634577874861807
endloop
endfacet
facet normal 1.0 -1.7910406967483698e-14 5.063092100347935e-16
outer loop
vertex 158.88839378552572 209.8203794582667 11.015272212513855
vertex 158.88839378552578 210.7703219582667 -2.963457787486206
vertex 158.8883937855257 209.85288701736434 11.537376981394061
endloop
endfacet
facet normal 1.0 -1.7910406967483698e-14 5.063092100347935e-16
outer loop
vertex 158.8883937855257 209.85288701736434 11.537376981394061
vertex 158.88839378552578 210.7703219582667 -2.963457787486206
vertex 158.88839378552578 209.94985348130817 12.050548392923947
endloop
endfacet
facet normal 1.0 -1.7910406967483698e-14 5.063092100347935e-16
outer loop
vertex 158.88839378552578 209.94985348130817 12.050548392923947
vertex 158.88839378552578 210.7703219582667 -2.963457787486206
vertex 158.88839378552578 210.10961972701625 12.54600594197423
endloop
endfacet
facet normal 1.0 -1.7910406967483698e-14 5.063092100347935e-16
outer loop
vertex 158.88839378552578 210.10961972701625 12.54600594197423
vertex 158.88839378552578 210.7703219582667 -2.963457787486206
vertex 158.8883937855258 210.3294521097286 13.015272212513828
endloop
endfacet
facet normal 1.0 -1.7910406967483698e-14 5.063092100347935e-16
outer loop
vertex 158.8883937855258 210.3294521097286 13.015272212513828
vertex 158.88839378552578 210.7703219582667 -2.963457787486206
vertex 158.88839378552564 210.60558923642827 13.450317928548767
endloop
endfacet
facet normal 1.0 -1.7910406967483698e-14 5.063092100347935e-16
outer loop
vertex 158.88839378552564 210.60558923642827 13.450317928548767
vertex 158.88839378552578 210.7703219582667 -2.963457787486206
vertex 158.88839378552578 210.7703219582667 13.648057968883615
endloop
endfacet
facet normal 0.0 1.0 0.0
outer loop
vertex 25.09195643777572 217.4199194582665 11.015272212513855
vertex 158.88839378552572 217.4199194582665 -2.986096791857414
vertex 25.09195643777572 217.4199194582665 -3.005335244931143
endloop
endfacet
facet normal 0.0 1.0 0.0
outer loop
vertex 158.88839378552572 217.4199194582665 -2.986096791857414
vertex 25.09195643777572 217.4199194582665 11.015272212513855
vertex 158.88839378552572 217.4199194582665 11.015272212513844
endloop
endfacet
facet normal -1.1784192324142328e-14 1.0 -8.935302799655397e-15
outer loop
vertex 16.991956437775748 217.4199194582665 11.01527221251385
vertex 23.891956437775722 217.4199194582665 -3.005335244931143
vertex 16.99306178552572 217.41991945826632 -3.006941574352667
endloop
endfacet
facet normal -1.1784192324142328e-14 1.0 -8.935302799655397e-15
outer loop
vertex 23.891956437775722 217.4199194582665 -3.005335244931143
vertex 16.991956437775748 217.4199194582665 11.01527221251385
vertex 23.891956437775722 217.4199194582665 11.015272212513855
endloop
endfacet
endsolid spool_stand_3.1
