solid spool_stand_3.1
facet normal 1.0 6.379002311419481e-15 -9.3573015035032e-16
outer loop
vertex 128.99306178552564 279.90695990659606 -3.959463255040958
vertex 128.99306178552573 272.10695990657575 10.040536744959017
vertex 128.9930617855257 272.1069599065757 -3.959463255040967
endloop
endfacet
facet normal 1.0 6.379002311419481e-15 -9.3573015035032e-16
outer loop
vertex 128.99306178552573 272.10695990657575 10.040536744959017
vertex 128.99306178552564 279.90695990659606 -3.959463255040958
vertex 128.9930617855257 272.140324947218 10.562641513839184
endloop
endfacet
facet normal 1.0 6.379002311419481e-15 -9.3573015035032e-16
outer loop
vertex 128.9930617855257 272.140324947218 10.562641513839184
vertex 128.99306178552564 279.90695990659606 -3.959463255040958
vertex 128.99306178552573 272.2398491840488 11.075812925369087
endloop
endfacet
facet normal 1.0 6.379002311419481e-15 -9.3573015035032e-16
outer loop
vertex 128.99306178552573 272.2398491840488 11.075812925369087
vertex 128.99306178552564 279.90695990659606 -3.959463255040958
vertex 128.99306178552573 272.4038297297826 11.571270474419387
endloop
endfacet
facet normal 1.0 6.379002311419481e-15 -9.3573015035032e-16
outer loop
vertex 128.99306178552573 272.4038297297826 11.571270474419387
vertex 128.99306178552564 279.90695990659606 -3.959463255040958
vertex 128.99306178552564 272.6294608318179 12.04053674495902
endloop
endfacet
facet normal 1.0 6.379002311419481e-15 -9.3573015035032e-16
outer loop
vertex 128.99306178552564 272.6294608318179 12.04053674495902
vertex 128.99306178552564 279.90695990659606 -3.959463255040958
vertex 128.99306178552573 272.9128818794421 12.475582460993888
endloop
endfacet
facet normal 1.0 6.379002311419481e-15 -9.3573015035032e-16
outer loop
vertex 128.99306178552573 272.9128818794421 12.475582460993888
vertex 128.99306178552564 279.90695990659606 -3.959463255040958
vertex 128.99306178552578 273.24924345995123 12.868963869705164
endloop
endfacet
facet normal 1.0 6.379002311419481e-15 -9.3573015035032e-16
outer loop
vertex 128.99306178552578 273.24924345995123 12.868963869705164
vertex 128.99306178552564 279.90695990659606 -3.959463255040958
vertex 128.99306178552578 273.63279033344566 13.213950106123995
endloop
endfacet
facet normal 1.0 6.379002311419481e-15 -9.3573015035032e-16
outer loop
vertex 128.99306178552578 273.63279033344566 13.213950106123995
vertex 128.99306178552564 279.90695990659606 -3.959463255040958
vertex 128.99306178552573 274.0569599065808 13.504638360096758
endloop
endfacet
facet normal 1.0 6.379002311419481e-15 -9.3573015035032e-16
outer loop
vertex 128.99306178552573 274.0569599065808 13.504638360096758
vertex 128.99306178552564 279.90695990659606 -3.959463255040958
vertex 128.9930617855257 274.5144945203582 13.73605487500419
endloop
endfacet
facet normal 1.0 6.379002311419481e-15 -9.3573015035032e-16
outer loop
vertex 128.9930617855257 274.5144945203582 13.73605487500419
vertex 128.99306178552564 279.90695990659606 -3.959463255040958
vertex 128.99306178552558 274.99756563068354 13.904240050115272
endloop
endfacet
facet normal 1.0 6.379002311419481e-15 -9.3573015035032e-16
outer loop
vertex 128.99306178552558 274.99756563068354 13.904240050115272
vertex 128.99306178552564 279.90695990659606 -3.959463255040958
vertex 128.99306178552558 275.49790775692657 14.006316190454253
endloop
endfacet
facet normal 1.0 6.379002311419481e-15 -9.3573015035032e-16
outer loop
vertex 128.99306178552558 275.49790775692657 14.006316190454253
vertex 128.99306178552564 279.90695990659606 -3.959463255040958
vertex 128.9930617855257 276.5160120562454 14.00631619045422
endloop
endfacet
facet normal 1.0 6.379002311419481e-15 -9.3573015035032e-16
outer loop
vertex 128.9930617855257 276.5160120562454 14.00631619045422
vertex 128.99306178552564 279.90695990659606 -3.959463255040958
vertex 128.99306178552573 277.01635418248844 13.90424005011529
endloop
endfacet
facet normal 1.0 6.379002311419481e-15 -9.3573015035032e-16
outer loop
vertex 128.99306178552573 277.01635418248844 13.90424005011529
vertex 128.99306178552564 279.90695990659606 -3.959463255040958
vertex 128.99306178552573 277.49942529281367 13.736054875004166
endloop
endfacet
facet normal 1.0 6.379002311419481e-15 -9.3573015035032e-16
outer loop
vertex 128.99306178552573 277.49942529281367 13.736054875004166
vertex 128.99306178552564 279.90695990659606 -3.959463255040958
vertex 128.99306178552564 277.956959906591 13.504638360096779
endloop
endfacet
facet normal 1.0 6.379002311419481e-15 -9.3573015035032e-16
outer loop
vertex 128.99306178552564 277.956959906591 13.504638360096779
vertex 128.99306178552564 279.90695990659606 -3.959463255040958
vertex 128.99306178552564 278.38112947972616 13.213950106124006
endloop
endfacet
facet normal 1.0 6.379002311419481e-15 -9.3573015035032e-16
outer loop
vertex 128.99306178552564 278.38112947972616 13.213950106124006
vertex 128.99306178552564 279.90695990659606 -3.959463255040958
vertex 128.99306178552564 278.76467635322064 12.868963869705215
endloop
endfacet
facet normal 1.0 6.379002311419481e-15 -9.3573015035032e-16
outer loop
vertex 128.99306178552564 278.76467635322064 12.868963869705215
vertex 128.99306178552564 279.90695990659606 -3.959463255040958
vertex 128.99306178552564 279.10103793372997 12.475582460993893
endloop
endfacet
facet normal 1.0 6.379002311419481e-15 -9.3573015035032e-16
outer loop
vertex 128.99306178552564 279.10103793372997 12.475582460993893
vertex 128.99306178552564 279.90695990659606 -3.959463255040958
vertex 128.99306178552573 279.384458981354 12.040536744958976
endloop
endfacet
facet normal 1.0 6.379002311419481e-15 -9.3573015035032e-16
outer loop
vertex 128.99306178552573 279.384458981354 12.040536744958976
vertex 128.99306178552564 279.90695990659606 -3.959463255040958
vertex 128.99306178552573 279.61009008338937 11.571270474419372
endloop
endfacet
facet normal 1.0 6.379002311419481e-15 -9.3573015035032e-16
outer loop
vertex 128.99306178552573 279.61009008338937 11.571270474419372
vertex 128.99306178552564 279.90695990659606 -3.959463255040958
vertex 128.99306178552573 279.7740706291231 11.075812925369107
endloop
endfacet
facet normal 1.0 6.379002311419481e-15 -9.3573015035032e-16
outer loop
vertex 128.99306178552573 279.7740706291231 11.075812925369107
vertex 128.99306178552564 279.90695990659606 -3.959463255040958
vertex 128.99306178552564 279.8735948659538 10.56264151383925
endloop
endfacet
facet normal 1.0 6.379002311419481e-15 -9.3573015035032e-16
outer loop
vertex 128.99306178552564 279.8735948659538 10.56264151383925
vertex 128.99306178552564 279.90695990659606 -3.959463255040958
vertex 128.99306178552564 279.90695990659606 10.040536744959017
endloop
endfacet
facet normal -1.1779941886224045e-16 0.19989515614043787 0.9798172924334363
outer loop
vertex 16.993061785525754 276.51601205624536 14.006316190454225
vertex 128.99306178552573 277.01635418248844 13.90424005011529
vertex 16.993061785525743 277.0163541824883 13.904240050115282
endloop
endfacet
facet normal -1.1779941886224045e-16 0.19989515614043787 0.9798172924334363
outer loop
vertex 128.99306178552573 277.01635418248844 13.90424005011529
vertex 16.993061785525754 276.51601205624536 14.006316190454225
vertex 128.9930617855257 276.5160120562454 14.00631619045422
endloop
endfacet
facet normal 0.0 1.2098584242678518e-16 1.0
outer loop
vertex 16.993061785525764 275.49790775692634 14.006316190454248
vertex 128.9930617855257 276.5160120562454 14.00631619045422
vertex 16.993061785525754 276.51601205624536 14.006316190454225
endloop
endfacet
facet normal 0.0 1.2098584242678518e-16 1.0
outer loop
vertex 128.9930617855257 276.5160120562454 14.00631619045422
vertex 16.993061785525764 275.49790775692634 14.006316190454248
vertex 128.99306178552558 275.49790775692657 14.006316190454253
endloop
endfacet
facet normal 1.766608355404822e-16 -0.1998951561404244 0.9798172924334391
outer loop
vertex 128.99306178552558 274.99756563068354 13.904240050115272
vertex 16.993061785525764 275.49790775692634 14.006316190454248
vertex 16.993061785525754 274.9975656306834 13.904240050115318
endloop
endfacet
facet normal 1.766608355404822e-16 -0.1998951561404244 0.9798172924334391
outer loop
vertex 16.993061785525764 275.49790775692634 14.006316190454248
vertex 128.99306178552558 274.99756563068354 13.904240050115272
vertex 128.99306178552558 275.49790775692657 14.006316190454253
endloop
endfacet
facet normal 2.58249927522332e-16 -0.32880041922878983 0.9443994304927191
outer loop
vertex 16.99306178552578 274.514494520358 13.736054875004127
vertex 128.99306178552558 274.99756563068354 13.904240050115272
vertex 16.993061785525754 274.9975656306834 13.904240050115318
endloop
endfacet
facet normal 2.58249927522332e-16 -0.32880041922878983 0.9443994304927191
outer loop
vertex 128.99306178552558 274.99756563068354 13.904240050115272
vertex 16.99306178552578 274.514494520358 13.736054875004127
vertex 128.9930617855257 274.5144945203582 13.73605487500419
endloop
endfacet
facet normal 2.658058591331822e-16 -0.451342318057874 0.8923508905862899
outer loop
vertex 128.99306178552573 274.0569599065808 13.504638360096758
vertex 16.99306178552578 274.514494520358 13.736054875004127
vertex 16.993061785525754 274.05695990658074 13.504638360096797
endloop
endfacet
facet normal 2.658058591331822e-16 -0.451342318057874 0.8923508905862899
outer loop
vertex 16.99306178552578 274.514494520358 13.736054875004127
vertex 128.99306178552573 274.0569599065808 13.504638360096758
vertex 128.9930617855257 274.5144945203582 13.73605487500419
endloop
endfacet
facet normal 1.6633428189777848e-16 -0.5653023013958127 0.8248838148712812
outer loop
vertex 16.99306178552578 273.63279033344566 13.21395010612399
vertex 128.99306178552573 274.0569599065808 13.504638360096758
vertex 16.993061785525754 274.05695990658074 13.504638360096797
endloop
endfacet
facet normal 1.6633428189777848e-16 -0.5653023013958127 0.8248838148712812
outer loop
vertex 128.99306178552573 274.0569599065808 13.504638360096758
vertex 16.99306178552578 273.63279033344566 13.21395010612399
vertex 128.99306178552578 273.63279033344566 13.213950106123995
endloop
endfacet
facet normal 2.62712162244204e-16 -0.6687441350039106 0.743492623970051
outer loop
vertex 128.99306178552578 273.24924345995123 12.868963869705164
vertex 16.99306178552578 273.63279033344566 13.21395010612399
vertex 16.99306178552578 273.2492434599511 12.868963869705153
endloop
endfacet
facet normal 2.62712162244204e-16 -0.6687441350039106 0.743492623970051
outer loop
vertex 16.99306178552578 273.63279033344566 13.21395010612399
vertex 128.99306178552578 273.24924345995123 12.868963869705164
vertex 128.99306178552578 273.63279033344566 13.213950106123995
endloop
endfacet
facet normal 6.049890071447661e-16 -0.7600412513914125 0.6498748311662605
outer loop
vertex 128.99306178552578 273.24924345995123 12.868963869705164
vertex 122.09072778552566 272.9128818794421 12.475582460993888
vertex 128.99306178552573 272.9128818794421 12.475582460993888
endloop
endfacet
facet normal 6.049890071447661e-16 -0.7600412513914125 0.6498748311662605
outer loop
vertex 122.09072778552566 272.9128818794421 12.475582460993888
vertex 128.99306178552578 273.24924345995123 12.868963869705164
vertex 122.09072778552566 273.08195990657833 12.673322501328773
endloop
endfacet
facet normal 6.049890071447661e-16 -0.7600412513914125 0.6498748311662605
outer loop
vertex 122.09072778552566 273.08195990657833 12.673322501328773
vertex 128.99306178552578 273.24924345995123 12.868963869705164
vertex 25.093061785525794 273.0819599065782 12.673322501328842
endloop
endfacet
facet normal 6.049890071447661e-16 -0.7600412513914125 0.6498748311662605
outer loop
vertex 25.093061785525794 273.0819599065782 12.673322501328842
vertex 128.99306178552578 273.24924345995123 12.868963869705164
vertex 16.99306178552578 273.2492434599511 12.868963869705153
endloop
endfacet
facet normal 6.049890071447661e-16 -0.7600412513914125 0.6498748311662605
outer loop
vertex 23.893061785525788 273.0819599065783 12.673322501328808
vertex 16.993061785525754 272.91288187944207 12.475582460993879
vertex 23.893061785525763 272.91288187944207 12.475582460993879
endloop
endfacet
facet normal 6.049890071447661e-16 -0.7600412513914125 0.6498748311662605
outer loop
vertex 16.993061785525754 272.91288187944207 12.475582460993879
vertex 23.893061785525788 273.0819599065783 12.673322501328808
vertex 16.99306178552578 273.2492434599511 12.868963869705153
endloop
endfacet
facet normal 6.049890071447661e-16 -0.7600412513914125 0.6498748311662605
outer loop
vertex 16.99306178552578 273.2492434599511 12.868963869705153
vertex 23.893061785525788 273.0819599065783 12.673322501328808
vertex 25.093061785525794 273.0819599065782 12.673322501328842
endloop
endfacet
facet normal 6.049890071447661e-16 -0.7600412513914125 0.6498748311662605
outer loop
vertex 120.8883937855256 272.9128818794421 12.475582460993913
vertex 25.093061785525794 273.0819599065782 12.673322501328842
vertex 25.093061785525762 272.912881879442 12.475582460993872
endloop
endfacet
facet normal 6.049890071447661e-16 -0.7600412513914125 0.6498748311662605
outer loop
vertex 25.093061785525794 273.0819599065782 12.673322501328842
vertex 120.8883937855256 272.9128818794421 12.475582460993913
vertex 120.88839378552574 273.08195990657833 12.67332250132875
endloop
endfacet
facet normal 6.049890071447661e-16 -0.7600412513914125 0.6498748311662605
outer loop
vertex 25.093061785525794 273.0819599065782 12.673322501328842
vertex 120.88839378552574 273.08195990657833 12.67332250132875
vertex 122.09072778552566 273.08195990657833 12.673322501328773
endloop
endfacet
facet normal 6.09574865182342e-16 -0.8378787622453383 0.5458563728474917
outer loop
vertex 120.8883937855256 272.9128818794421 12.475582460993913
vertex 25.09306178552581 272.62946083181777 12.040536744959075
vertex 120.88839378552578 272.6294608318179 12.040536744959033
endloop
endfacet
facet normal 6.09574865182342e-16 -0.8378787622453383 0.5458563728474917
outer loop
vertex 25.09306178552581 272.62946083181777 12.040536744959075
vertex 120.8883937855256 272.9128818794421 12.475582460993913
vertex 25.093061785525762 272.912881879442 12.475582460993872
endloop
endfacet
facet normal 1.9362004001223265e-17 -0.9012356857493667 0.43332924979958215
outer loop
vertex 23.89306178552581 272.6294608318179 12.040536744959054
vertex 16.9930617855258 272.40382972978256 11.571270474419402
vertex 23.893061785525777 272.4038297297825 11.571270474419386
endloop
endfacet
facet normal 1.9362004001223265e-17 -0.9012356857493667 0.43332924979958215
outer loop
vertex 16.9930617855258 272.40382972978256 11.571270474419402
vertex 23.89306178552581 272.6294608318179 12.040536744959054
vertex 16.993061785525754 272.62946083181777 12.040536744959052
endloop
endfacet
facet normal 2.1794766966165985e-16 -0.9493548351998756 0.3142059784323287
outer loop
vertex 120.88839378552574 272.4038297297826 11.571270474419391
vertex 25.093061785525784 272.2398491840488 11.07581292536909
vertex 120.88839378552574 272.2398491840488 11.075812925369087
endloop
endfacet
facet normal 2.1794766966165985e-16 -0.9493548351998756 0.3142059784323287
outer loop
vertex 25.093061785525784 272.2398491840488 11.07581292536909
vertex 120.88839378552574 272.4038297297826 11.571270474419391
vertex 25.093061785525773 272.4038297297825 11.571270474419386
endloop
endfacet
facet normal -3.1271611772510737e-15 -0.9817081389395386 0.19039204274303992
outer loop
vertex 128.9930617855257 272.140324947218 10.562641513839184
vertex 122.09072778552574 272.2398491840488 11.075812925369087
vertex 122.0907277855257 272.14032494721806 10.562641513839164
endloop
endfacet
facet normal -3.1271611772510737e-15 -0.9817081389395386 0.19039204274303992
outer loop
vertex 122.09072778552574 272.2398491840488 11.075812925369087
vertex 128.9930617855257 272.140324947218 10.562641513839184
vertex 128.99306178552573 272.2398491840488 11.075812925369087
endloop
endfacet
facet normal 7.024520636118905e-16 -0.9979643163229183 0.0637747861315943
outer loop
vertex 120.88839378552564 272.14032494721806 10.562641513839177
vertex 25.093061785525773 272.1069599065757 10.040536744959027
vertex 120.8883937855257 272.10695990657575 10.040536744958994
endloop
endfacet
facet normal 7.024520636118905e-16 -0.9979643163229183 0.0637747861315943
outer loop
vertex 25.093061785525773 272.1069599065757 10.040536744959027
vertex 120.88839378552564 272.14032494721806 10.562641513839177
vertex 25.093061785525762 272.14032494721795 10.562641513839246
endloop
endfacet
facet normal 6.888353984909488e-16 -1.0 1.1501216645756192e-16
outer loop
vertex 120.8883937855257 272.1069599065758 -3.938193255041004
vertex 25.093061785525773 272.1069599065757 10.040536744959027
vertex 25.093061785525773 272.10695990657564 -3.9594632550410056
endloop
endfacet
facet normal 6.888353984909488e-16 -1.0 1.1501216645756192e-16
outer loop
vertex 25.093061785525773 272.1069599065757 10.040536744959027
vertex 120.8883937855257 272.1069599065758 -3.938193255041004
vertex 120.8883937855257 272.10695990657575 10.040536744958994
endloop
endfacet
facet normal 0.0 1.0 -1.1501216645756192e-16
outer loop
vertex 122.09072778552566 279.90695990659606 10.040536744959017
vertex 128.99306178552564 279.90695990659606 -3.959463255040958
vertex 122.09072778552566 279.90695990659606 -3.9608322594122702
endloop
endfacet
facet normal 0.0 1.0 -1.1501216645756192e-16
outer loop
vertex 128.99306178552564 279.90695990659606 -3.959463255040958
vertex 122.09072778552566 279.90695990659606 10.040536744959017
vertex 128.99306178552564 279.90695990659606 10.040536744959017
endloop
endfacet
facet normal -7.94990139564575e-16 0.9979643163229204 0.06377478613155987
outer loop
vertex 122.09072778552562 279.87359486595375 10.562641513839244
vertex 128.99306178552564 279.90695990659606 10.040536744959017
vertex 122.09072778552566 279.90695990659606 10.040536744959017
endloop
endfacet
facet normal -7.94990139564575e-16 0.9979643163229204 0.06377478613155987
outer loop
vertex 128.99306178552564 279.90695990659606 10.040536744959017
vertex 122.09072778552562 279.87359486595375 10.562641513839244
vertex 128.99306178552564 279.8735948659538 10.56264151383925
endloop
endfacet
facet normal -8.234709745303625e-16 0.9817081389395356 0.19039204274305532
outer loop
vertex 25.093061785525762 279.87359486595363 10.562641513839246
vertex 120.88839378552555 279.77407062912306 11.075812925369098
vertex 120.8883937855257 279.87359486595375 10.562641513839221
endloop
endfacet
facet normal -8.234709745303625e-16 0.9817081389395356 0.19039204274305532
outer loop
vertex 120.88839378552555 279.77407062912306 11.075812925369098
vertex 25.093061785525762 279.87359486595363 10.562641513839246
vertex 25.09306178552581 279.774070629123 11.075812925369164
endloop
endfacet
facet normal 0.0 0.9493548351998489 0.3142059784324102
outer loop
vertex 122.09072778552566 279.61009008338937 11.571270474419372
vertex 128.99306178552573 279.7740706291231 11.075812925369107
vertex 122.09072778552566 279.7740706291231 11.075812925369107
endloop
endfacet
facet normal 0.0 0.9493548351998489 0.3142059784324102
outer loop
vertex 128.99306178552573 279.7740706291231 11.075812925369107
vertex 122.09072778552566 279.61009008338937 11.571270474419372
vertex 128.99306178552573 279.61009008338937 11.571270474419372
endloop
endfacet
facet normal -4.967415348295368e-15 0.9012356857493894 0.43332924979953463
outer loop
vertex 16.993061785525754 279.38445898135393 12.04053674495899
vertex 23.8930617855258 279.6100900833893 11.571270474419435
vertex 16.99306178552578 279.6100900833893 11.571270474419386
endloop
endfacet
facet normal -4.967415348295368e-15 0.9012356857493894 0.43332924979953463
outer loop
vertex 23.8930617855258 279.6100900833893 11.571270474419435
vertex 16.993061785525754 279.38445898135393 12.04053674495899
vertex 23.8930617855258 279.384458981354 12.04053674495911
endloop
endfacet
facet normal -6.685151209322554e-16 0.8378787622453479 0.5458563728474771
outer loop
vertex 122.0907277855257 279.10103793372997 12.475582460993905
vertex 128.99306178552573 279.384458981354 12.040536744958976
vertex 122.09072778552574 279.384458981354 12.040536744958976
endloop
endfacet
facet normal -6.685151209322554e-16 0.8378787622453479 0.5458563728474771
outer loop
vertex 128.99306178552573 279.384458981354 12.040536744958976
vertex 122.0907277855257 279.10103793372997 12.475582460993905
vertex 128.99306178552564 279.10103793372997 12.475582460993893
endloop
endfacet
facet normal -5.194760961519383e-16 0.7600412513914362 0.6498748311662329
outer loop
vertex 16.99306178552581 279.1010379337298 12.475582460993927
vertex 23.893061785525788 278.93195990659353 12.673322501328727
vertex 23.89306178552581 279.1010379337299 12.47558246099386
endloop
endfacet
facet normal -5.194760961519383e-16 0.7600412513914362 0.6498748311662329
outer loop
vertex 23.893061785525788 278.93195990659353 12.673322501328727
vertex 16.99306178552581 279.1010379337298 12.475582460993927
vertex 16.993061785525754 278.7646763532206 12.868963869705215
endloop
endfacet
facet normal -5.194760961519383e-16 0.7600412513914362 0.6498748311662329
outer loop
vertex 23.893061785525788 278.93195990659353 12.673322501328727
vertex 16.993061785525754 278.7646763532206 12.868963869705215
vertex 25.09306178552575 278.93195990659353 12.673322501328753
endloop
endfacet
facet normal -5.194760961519383e-16 0.7600412513914362 0.6498748311662329
outer loop
vertex 25.09306178552575 278.93195990659353 12.673322501328753
vertex 16.993061785525754 278.7646763532206 12.868963869705215
vertex 120.8883937855256 278.93195990659353 12.673322501328794
endloop
endfacet
facet normal -5.194760961519383e-16 0.7600412513914362 0.6498748311662329
outer loop
vertex 122.0907277855257 279.10103793372997 12.475582460993905
vertex 128.99306178552564 278.76467635322064 12.868963869705215
vertex 128.99306178552564 279.10103793372997 12.475582460993893
endloop
endfacet
facet normal -5.194760961519383e-16 0.7600412513914362 0.6498748311662329
outer loop
vertex 128.99306178552564 278.76467635322064 12.868963869705215
vertex 122.0907277855257 279.10103793372997 12.475582460993905
vertex 122.09072778552574 278.93195990659353 12.673322501328787
endloop
endfacet
facet normal -5.194760961519383e-16 0.7600412513914362 0.6498748311662329
outer loop
vertex 128.99306178552564 278.76467635322064 12.868963869705215
vertex 122.09072778552574 278.93195990659353 12.673322501328787
vertex 120.8883937855256 278.93195990659353 12.673322501328794
endloop
endfacet
facet normal -5.194760961519383e-16 0.7600412513914362 0.6498748311662329
outer loop
vertex 128.99306178552564 278.76467635322064 12.868963869705215
vertex 120.8883937855256 278.93195990659353 12.673322501328794
vertex 16.993061785525754 278.7646763532206 12.868963869705215
endloop
endfacet
facet normal -5.194760961519383e-16 0.7600412513914362 0.6498748311662329
outer loop
vertex 25.09306178552575 278.93195990659353 12.673322501328753
vertex 120.8883937855257 279.10103793372997 12.475582460993905
vertex 25.093061785525762 279.1010379337298 12.475582460993824
endloop
endfacet
facet normal -5.194760961519383e-16 0.7600412513914362 0.6498748311662329
outer loop
vertex 120.8883937855257 279.10103793372997 12.475582460993905
vertex 25.09306178552575 278.93195990659353 12.673322501328753
vertex 120.8883937855256 278.93195990659353 12.673322501328794
endloop
endfacet
facet normal -4.270271668408545e-16 0.6687441350039269 0.7434926239700362
outer loop
vertex 16.99306178552578 278.38112947972604 13.21395010612399
vertex 128.99306178552564 278.76467635322064 12.868963869705215
vertex 16.993061785525754 278.7646763532206 12.868963869705215
endloop
endfacet
facet normal -4.270271668408545e-16 0.6687441350039269 0.7434926239700362
outer loop
vertex 128.99306178552564 278.76467635322064 12.868963869705215
vertex 16.99306178552578 278.38112947972604 13.21395010612399
vertex 128.99306178552564 278.38112947972616 13.213950106124006
endloop
endfacet
facet normal -3.3323658342842213e-16 0.5653023013957827 0.8248838148713014
outer loop
vertex 128.99306178552564 277.956959906591 13.504638360096779
vertex 16.99306178552578 278.38112947972604 13.21395010612399
vertex 16.993061785525764 277.956959906591 13.50463836009682
endloop
endfacet
facet normal -3.3323658342842213e-16 0.5653023013957827 0.8248838148713014
outer loop
vertex 16.99306178552578 278.38112947972604 13.21395010612399
vertex 128.99306178552564 277.956959906591 13.504638360096779
vertex 128.99306178552564 278.38112947972616 13.213950106124006
endloop
endfacet
facet normal -1.993833027539809e-16 0.45134231805788333 0.8923508905862854
outer loop
vertex 16.99306178552578 277.4994252928136 13.736054875004184
vertex 128.99306178552564 277.956959906591 13.504638360096779
vertex 16.993061785525764 277.956959906591 13.50463836009682
endloop
endfacet
facet normal -1.993833027539809e-16 0.45134231805788333 0.8923508905862854
outer loop
vertex 128.99306178552564 277.956959906591 13.504638360096779
vertex 16.99306178552578 277.4994252928136 13.736054875004184
vertex 128.99306178552573 277.49942529281367 13.736054875004166
endloop
endfacet
facet normal -1.613914779469656e-16 0.32880041922878356 0.9443994304927213
outer loop
vertex 128.99306178552573 277.01635418248844 13.90424005011529
vertex 16.99306178552578 277.4994252928136 13.736054875004184
vertex 16.993061785525743 277.0163541824883 13.904240050115282
endloop
endfacet
facet normal -1.613914779469656e-16 0.32880041922878356 0.9443994304927213
outer loop
vertex 16.99306178552578 277.4994252928136 13.736054875004184
vertex 128.99306178552573 277.01635418248844 13.90424005011529
vertex 128.99306178552573 277.49942529281367 13.736054875004166
endloop
endfacet
facet normal -3.1803499949169693e-15 -0.9979643163229206 0.06377478613155506
outer loop
vertex 128.9930617855257 272.140324947218 10.562641513839184
vertex 122.09072778552574 272.10695990657575 10.040536744959017
vertex 128.99306178552573 272.10695990657575 10.040536744959017
endloop
endfacet
facet normal -3.1803499949169693e-15 -0.9979643163229206 0.06377478613155506
outer loop
vertex 122.09072778552574 272.10695990657575 10.040536744959017
vertex 128.9930617855257 272.140324947218 10.562641513839184
vertex 122.0907277855257 272.14032494721806 10.562641513839164
endloop
endfacet
facet normal 2.702359265866313e-16 -0.981708138939537 0.190392042743048
outer loop
vertex 120.88839378552574 272.2398491840488 11.075812925369087
vertex 25.093061785525762 272.14032494721795 10.562641513839246
vertex 120.88839378552564 272.14032494721806 10.562641513839177
endloop
endfacet
facet normal 2.702359265866313e-16 -0.981708138939537 0.190392042743048
outer loop
vertex 25.093061785525762 272.14032494721795 10.562641513839246
vertex 120.88839378552574 272.2398491840488 11.075812925369087
vertex 25.093061785525784 272.2398491840488 11.07581292536909
endloop
endfacet
facet normal 1.703678947010202e-19 -0.9493548351998253 0.3142059784324808
outer loop
vertex 128.99306178552573 272.4038297297826 11.571270474419387
vertex 122.09072778552574 272.2398491840488 11.075812925369087
vertex 128.99306178552573 272.2398491840488 11.075812925369087
endloop
endfacet
facet normal 1.703678947010202e-19 -0.9493548351998253 0.3142059784324808
outer loop
vertex 122.09072778552574 272.2398491840488 11.075812925369087
vertex 128.99306178552573 272.4038297297826 11.571270474419387
vertex 122.09072778552566 272.4038297297826 11.571270474419387
endloop
endfacet
facet normal -5.457252828295488e-19 -0.8378787622453414 0.545856372847487
outer loop
vertex 128.99306178552573 272.9128818794421 12.475582460993888
vertex 122.0907277855258 272.6294608318179 12.04053674495902
vertex 128.99306178552564 272.6294608318179 12.04053674495902
endloop
endfacet
facet normal -5.457252828295488e-19 -0.8378787622453414 0.545856372847487
outer loop
vertex 122.0907277855258 272.6294608318179 12.04053674495902
vertex 128.99306178552573 272.9128818794421 12.475582460993888
vertex 122.09072778552566 272.9128818794421 12.475582460993888
endloop
endfacet
facet normal 5.4049723536811885e-20 -0.9012356857493996 0.4333292497995135
outer loop
vertex 128.99306178552564 272.6294608318179 12.04053674495902
vertex 122.09072778552566 272.4038297297826 11.571270474419387
vertex 128.99306178552573 272.4038297297826 11.571270474419387
endloop
endfacet
facet normal 5.4049723536811885e-20 -0.9012356857493996 0.4333292497995135
outer loop
vertex 122.09072778552566 272.4038297297826 11.571270474419387
vertex 128.99306178552564 272.6294608318179 12.04053674495902
vertex 122.0907277855258 272.6294608318179 12.04053674495902
endloop
endfacet
facet normal 3.97664891325072e-15 0.9979643163229176 0.06377478613160162
outer loop
vertex 16.99306178552579 279.906959906596 10.040536744959004
vertex 23.893061785525777 279.8735948659537 10.56264151383923
vertex 23.893061785525763 279.90695990659594 10.040536744958994
endloop
endfacet
facet normal 3.97664891325072e-15 0.9979643163229176 0.06377478613160162
outer loop
vertex 23.893061785525777 279.8735948659537 10.56264151383923
vertex 16.99306178552579 279.906959906596 10.040536744959004
vertex 16.99306178552578 279.8735948659537 10.562641513839218
endloop
endfacet
facet normal 2.14207651146443e-16 0.9493548351998516 0.3142059784324008
outer loop
vertex 16.99306178552578 279.6100900833893 11.571270474419386
vertex 23.893061785525777 279.774070629123 11.075812925369146
vertex 16.993061785525764 279.774070629123 11.075812925369112
endloop
endfacet
facet normal 2.14207651146443e-16 0.9493548351998516 0.3142059784324008
outer loop
vertex 23.893061785525777 279.774070629123 11.075812925369146
vertex 16.99306178552578 279.6100900833893 11.571270474419386
vertex 23.8930617855258 279.6100900833893 11.571270474419435
endloop
endfacet
facet normal 9.041305596137834e-20 0.9012356857493607 0.4333292497995947
outer loop
vertex 122.09072778552574 279.384458981354 12.040536744958976
vertex 128.99306178552573 279.61009008338937 11.571270474419372
vertex 122.09072778552566 279.61009008338937 11.571270474419372
endloop
endfacet
facet normal 9.041305596137834e-20 0.9012356857493607 0.4333292497995947
outer loop
vertex 128.99306178552573 279.61009008338937 11.571270474419372
vertex 122.09072778552574 279.384458981354 12.040536744958976
vertex 128.99306178552573 279.384458981354 12.040536744958976
endloop
endfacet
facet normal -7.828408280751298e-16 0.981708138939538 0.19039204274304303
outer loop
vertex 122.09072778552566 279.7740706291231 11.075812925369107
vertex 128.99306178552564 279.8735948659538 10.56264151383925
vertex 122.09072778552562 279.87359486595375 10.562641513839244
endloop
endfacet
facet normal -7.828408280751298e-16 0.981708138939538 0.19039204274304303
outer loop
vertex 128.99306178552564 279.8735948659538 10.56264151383925
vertex 122.09072778552566 279.7740706291231 11.075812925369107
vertex 128.99306178552573 279.7740706291231 11.075812925369107
endloop
endfacet
facet normal -7.793928510729372e-15 0.837878762245299 0.545856372847552
outer loop
vertex 16.99306178552581 279.1010379337298 12.475582460993927
vertex 23.8930617855258 279.384458981354 12.04053674495911
vertex 16.993061785525754 279.38445898135393 12.04053674495899
endloop
endfacet
facet normal -7.793928510729372e-15 0.837878762245299 0.545856372847552
outer loop
vertex 23.8930617855258 279.384458981354 12.04053674495911
vertex 16.99306178552581 279.1010379337298 12.475582460993927
vertex 23.89306178552581 279.1010379337299 12.47558246099386
endloop
endfacet
facet normal 1.8294199917770138e-14 -1.0 1.1501216645756192e-16
outer loop
vertex 122.09072778552566 273.08195990657833 12.673322501328773
vertex 120.88839378552574 273.08195990657833 -3.9381932550410736
vertex 122.09072778552566 273.08195990657833 -3.9381932550410776
endloop
endfacet
facet normal 1.8294199917770138e-14 -1.0 1.1501216645756192e-16
outer loop
vertex 120.88839378552574 273.08195990657833 -3.9381932550410736
vertex 122.09072778552566 273.08195990657833 12.673322501328773
vertex 120.88839378552574 273.08195990657833 12.67332250132875
endloop
endfacet
facet normal -1.0 -1.0573025541953569e-13 -5.757441516404353e-16
outer loop
vertex 122.09072778552574 278.93195990659353 12.673322501328787
vertex 122.09072778552566 279.90695990659606 -3.9608322594122702
vertex 122.09072778552574 278.9319599065935 -3.960832259412262
endloop
endfacet
facet normal -1.0 -1.0573025541953569e-13 -5.757441516404353e-16
outer loop
vertex 122.09072778552566 279.90695990659606 -3.9608322594122702
vertex 122.09072778552574 278.93195990659353 12.673322501328787
vertex 122.0907277855257 279.10103793372997 12.475582460993905
endloop
endfacet
facet normal -1.0 -1.0573025541953569e-13 -5.757441516404353e-16
outer loop
vertex 122.09072778552566 279.90695990659606 -3.9608322594122702
vertex 122.0907277855257 279.10103793372997 12.475582460993905
vertex 122.09072778552574 279.384458981354 12.040536744958976
endloop
endfacet
facet normal -1.0 -1.0573025541953569e-13 -5.757441516404353e-16
outer loop
vertex 122.09072778552566 279.90695990659606 -3.9608322594122702
vertex 122.09072778552574 279.384458981354 12.040536744958976
vertex 122.09072778552566 279.61009008338937 11.571270474419372
endloop
endfacet
facet normal -1.0 -1.0573025541953569e-13 -5.757441516404353e-16
outer loop
vertex 122.09072778552566 279.90695990659606 -3.9608322594122702
vertex 122.09072778552566 279.61009008338937 11.571270474419372
vertex 122.09072778552566 279.7740706291231 11.075812925369107
endloop
endfacet
facet normal -1.0 -1.0573025541953569e-13 -5.757441516404353e-16
outer loop
vertex 122.09072778552566 279.90695990659606 -3.9608322594122702
vertex 122.09072778552566 279.7740706291231 11.075812925369107
vertex 122.09072778552562 279.87359486595375 10.562641513839244
endloop
endfacet
facet normal -1.0 -1.0573025541953569e-13 -5.757441516404353e-16
outer loop
vertex 122.09072778552566 279.90695990659606 -3.9608322594122702
vertex 122.09072778552562 279.87359486595375 10.562641513839244
vertex 122.09072778552566 279.90695990659606 10.040536744959017
endloop
endfacet
facet normal 4.573549979441674e-14 1.0 -1.1501216645756192e-16
outer loop
vertex 120.8883937855256 278.93195990659353 12.673322501328794
vertex 122.09072778552574 278.9319599065935 -3.960832259412262
vertex 120.8883937855256 278.93195990659353 -3.960832259412263
endloop
endfacet
facet normal 4.573549979441674e-14 1.0 -1.1501216645756192e-16
outer loop
vertex 122.09072778552574 278.9319599065935 -3.960832259412262
vertex 120.8883937855256 278.93195990659353 12.673322501328794
vertex 122.09072778552574 278.93195990659353 12.673322501328787
endloop
endfacet
facet normal -3.6659564273217874e-14 -1.0 1.1501216645756192e-16
outer loop
vertex 25.093061785525794 273.0819599065782 12.673322501328842
vertex 23.8930617855258 273.08195990657833 -3.959463255040943
vertex 25.09306178552581 273.0819599065783 -3.9594632550409683
endloop
endfacet
facet normal -3.6659564273217874e-14 -1.0 1.1501216645756192e-16
outer loop
vertex 23.8930617855258 273.08195990657833 -3.959463255040943
vertex 25.093061785525794 273.0819599065782 12.673322501328842
vertex 23.893061785525788 273.0819599065783 12.673322501328808
endloop
endfacet
facet normal 3.457347996536873e-14 1.0 -1.96197225133488e-15
outer loop
vertex 23.893061785525788 278.93195990659353 12.673322501328727
vertex 25.093061785525762 278.9319599065935 -3.9800707124860004
vertex 23.893061785525788 278.93195990659353 -3.9800707124860204
endloop
endfacet
facet normal 3.457347996536873e-14 1.0 -1.96197225133488e-15
outer loop
vertex 25.093061785525762 278.9319599065935 -3.9800707124860004
vertex 23.893061785525788 278.93195990659353 12.673322501328727
vertex 25.09306178552575 278.93195990659353 12.673322501328753
endloop
endfacet
facet normal 4.123571691617593e-16 -0.9012356857493667 0.43332924979958215
outer loop
vertex 120.88839378552574 272.4038297297826 11.571270474419391
vertex 25.09306178552581 272.62946083181777 12.040536744959075
vertex 25.093061785525773 272.4038297297825 11.571270474419386
endloop
endfacet
facet normal 4.123571691617593e-16 -0.9012356857493667 0.43332924979958215
outer loop
vertex 25.09306178552581 272.62946083181777 12.040536744959075
vertex 120.88839378552574 272.4038297297826 11.571270474419391
vertex 120.88839378552578 272.6294608318179 12.040536744959033
endloop
endfacet
facet normal 4.563614782741719e-15 -0.9979643163229168 0.06377478613161522
outer loop
vertex 23.893061785525777 272.14032494721795 10.562641513839246
vertex 16.99306178552572 272.10695990657564 10.040536744959036
vertex 23.893061785525763 272.1069599065757 10.040536744959027
endloop
endfacet
facet normal 4.563614782741719e-15 -0.9979643163229168 0.06377478613161522
outer loop
vertex 16.99306178552572 272.10695990657564 10.040536744959036
vertex 23.893061785525777 272.14032494721795 10.562641513839246
vertex 16.993061785525754 272.14032494721795 10.562641513839178
endloop
endfacet
facet normal 2.507008400070495e-15 -0.981708138939545 0.19039204274300756
outer loop
vertex 23.893061785525777 272.14032494721795 10.562641513839246
vertex 16.99306178552579 272.2398491840487 11.075812925369085
vertex 16.993061785525754 272.14032494721795 10.562641513839178
endloop
endfacet
facet normal 2.507008400070495e-15 -0.981708138939545 0.19039204274300756
outer loop
vertex 16.99306178552579 272.2398491840487 11.075812925369085
vertex 23.893061785525777 272.14032494721795 10.562641513839246
vertex 23.8930617855258 272.23984918404875 11.075812925369078
endloop
endfacet
facet normal -1.5134823768573561e-15 -0.9493548351998443 0.3142059784324236
outer loop
vertex 23.893061785525777 272.4038297297825 11.571270474419386
vertex 16.99306178552579 272.2398491840487 11.075812925369085
vertex 23.8930617855258 272.23984918404875 11.075812925369078
endloop
endfacet
facet normal -1.5134823768573561e-15 -0.9493548351998443 0.3142059784324236
outer loop
vertex 16.99306178552579 272.2398491840487 11.075812925369085
vertex 23.893061785525777 272.4038297297825 11.571270474419386
vertex 16.9930617855258 272.40382972978256 11.571270474419402
endloop
endfacet
facet normal 2.2218453291668253e-15 -0.8378787622453574 0.5458563728474622
outer loop
vertex 23.89306178552581 272.6294608318179 12.040536744959054
vertex 16.993061785525754 272.91288187944207 12.475582460993879
vertex 16.993061785525754 272.62946083181777 12.040536744959052
endloop
endfacet
facet normal 2.2218453291668253e-15 -0.8378787622453574 0.5458563728474622
outer loop
vertex 16.993061785525754 272.91288187944207 12.475582460993879
vertex 23.89306178552581 272.6294608318179 12.040536744959054
vertex 23.893061785525763 272.91288187944207 12.475582460993879
endloop
endfacet
facet normal -7.869816935297179e-16 0.9979643163229199 0.06377478613156763
outer loop
vertex 25.093061785525762 279.87359486595363 10.562641513839246
vertex 120.8883937855257 279.906959906596 10.040536744959011
vertex 25.093061785525762 279.90695990659594 10.040536744958994
endloop
endfacet
facet normal -7.869816935297179e-16 0.9979643163229199 0.06377478613156763
outer loop
vertex 120.8883937855257 279.906959906596 10.040536744959011
vertex 25.093061785525762 279.87359486595363 10.562641513839246
vertex 120.8883937855257 279.87359486595375 10.562641513839221
endloop
endfacet
facet normal -4.864271146934688e-16 0.9493548351998662 0.3142059784323569
outer loop
vertex 25.09306178552581 279.774070629123 11.075812925369164
vertex 120.8883937855257 279.61009008338937 11.571270474419382
vertex 120.88839378552555 279.77407062912306 11.075812925369098
endloop
endfacet
facet normal -4.864271146934688e-16 0.9493548351998662 0.3142059784323569
outer loop
vertex 120.8883937855257 279.61009008338937 11.571270474419382
vertex 25.09306178552581 279.774070629123 11.075812925369164
vertex 25.093061785525762 279.6100900833893 11.571270474419425
endloop
endfacet
facet normal -5.92913257994813e-16 0.8378787622453183 0.5458563728475223
outer loop
vertex 25.093061785525784 279.3844589813539 12.040536744959086
vertex 120.8883937855257 279.10103793372997 12.475582460993905
vertex 120.88839378552564 279.38445898135404 12.040536744958999
endloop
endfacet
facet normal -5.92913257994813e-16 0.8378787622453183 0.5458563728475223
outer loop
vertex 120.8883937855257 279.10103793372997 12.475582460993905
vertex 25.093061785525784 279.3844589813539 12.040536744959086
vertex 25.093061785525762 279.1010379337298 12.475582460993824
endloop
endfacet
facet normal -3.6626158497902204e-16 0.9012356857493731 0.43332924979956905
outer loop
vertex 25.093061785525762 279.6100900833893 11.571270474419425
vertex 120.88839378552564 279.38445898135404 12.040536744958999
vertex 120.8883937855257 279.61009008338937 11.571270474419382
endloop
endfacet
facet normal -3.6626158497902204e-16 0.9012356857493731 0.43332924979956905
outer loop
vertex 120.88839378552564 279.38445898135404 12.040536744958999
vertex 25.093061785525762 279.6100900833893 11.571270474419425
vertex 25.093061785525784 279.3844589813539 12.040536744959086
endloop
endfacet
facet normal 1.724887515488318e-15 0.9817081389395435 0.19039204274301474
outer loop
vertex 16.993061785525764 279.774070629123 11.075812925369112
vertex 23.893061785525777 279.8735948659537 10.56264151383923
vertex 16.99306178552578 279.8735948659537 10.562641513839218
endloop
endfacet
facet normal 1.724887515488318e-15 0.9817081389395435 0.19039204274301474
outer loop
vertex 23.893061785525777 279.8735948659537 10.56264151383923
vertex 16.993061785525764 279.774070629123 11.075812925369112
vertex 23.893061785525777 279.774070629123 11.075812925369146
endloop
endfacet
facet normal 3.1882989073443403e-15 -1.0 -1.4545656346103418e-15
outer loop
vertex 23.893061785525763 272.1069599065757 10.040536744959027
vertex 16.994167133275763 272.10695990657564 -3.9594632550410056
vertex 23.893061785525763 272.10695990657564 -3.9594632550410056
endloop
endfacet
facet normal 3.1882989073443403e-15 -1.0 -1.4545656346103418e-15
outer loop
vertex 16.994167133275763 272.10695990657564 -3.9594632550410056
vertex 23.893061785525763 272.1069599065757 10.040536744959027
vertex 16.99306178552572 272.10695990657564 10.040536744959036
endloop
endfacet
facet normal 0.0 -1.0 1.1501216645756192e-16
outer loop
vertex 128.99306178552573 272.10695990657575 10.040536744959017
vertex 122.09072778552574 272.1069599065758 -3.93819325504101
vertex 128.9930617855257 272.1069599065757 -3.959463255040967
endloop
endfacet
facet normal 0.0 -1.0 1.1501216645756192e-16
outer loop
vertex 122.09072778552574 272.1069599065758 -3.93819325504101
vertex 128.99306178552573 272.10695990657575 10.040536744959017
vertex 122.09072778552574 272.10695990657575 10.040536744959017
endloop
endfacet
facet normal 1.0 2.5431933523645504e-14 -9.25414293704042e-16
outer loop
vertex 23.893061785525763 279.90695990659606 -3.980070712486028
vertex 23.893061785525788 278.93195990659353 12.673322501328727
vertex 23.893061785525788 278.93195990659353 -3.9800707124860204
endloop
endfacet
facet normal 1.0 2.5431933523645504e-14 -9.25414293704042e-16
outer loop
vertex 23.893061785525788 278.93195990659353 12.673322501328727
vertex 23.893061785525763 279.90695990659606 -3.980070712486028
vertex 23.89306178552581 279.1010379337299 12.47558246099386
endloop
endfacet
facet normal 1.0 2.5431933523645504e-14 -9.25414293704042e-16
outer loop
vertex 23.89306178552581 279.1010379337299 12.47558246099386
vertex 23.893061785525763 279.90695990659606 -3.980070712486028
vertex 23.8930617855258 279.384458981354 12.04053674495911
endloop
endfacet
facet normal 1.0 2.5431933523645504e-14 -9.25414293704042e-16
outer loop
vertex 23.8930617855258 279.384458981354 12.04053674495911
vertex 23.893061785525763 279.90695990659606 -3.980070712486028
vertex 23.8930617855258 279.6100900833893 11.571270474419435
endloop
endfacet
facet normal 1.0 2.5431933523645504e-14 -9.25414293704042e-16
outer loop
vertex 23.8930617855258 279.6100900833893 11.571270474419435
vertex 23.893061785525763 279.90695990659606 -3.980070712486028
vertex 23.893061785525777 279.774070629123 11.075812925369146
endloop
endfacet
facet normal 1.0 2.5431933523645504e-14 -9.25414293704042e-16
outer loop
vertex 23.893061785525777 279.774070629123 11.075812925369146
vertex 23.893061785525763 279.90695990659606 -3.980070712486028
vertex 23.893061785525777 279.8735948659537 10.56264151383923
endloop
endfacet
facet normal 1.0 2.5431933523645504e-14 -9.25414293704042e-16
outer loop
vertex 23.893061785525777 279.8735948659537 10.56264151383923
vertex 23.893061785525763 279.90695990659606 -3.980070712486028
vertex 23.893061785525763 279.90695990659594 10.040536744958994
endloop
endfacet
facet normal -1.0 2.6213773002414165e-14 -6.069178992530337e-16
outer loop
vertex 25.093061785525773 272.1069599065757 10.040536744959027
vertex 25.09306178552581 273.0819599065783 -3.9594632550409683
vertex 25.093061785525773 272.10695990657564 -3.9594632550410056
endloop
endfacet
facet normal -1.0 2.6213773002414165e-14 -6.069178992530337e-16
outer loop
vertex 25.09306178552581 273.0819599065783 -3.9594632550409683
vertex 25.093061785525773 272.1069599065757 10.040536744959027
vertex 25.093061785525762 272.14032494721795 10.562641513839246
endloop
endfacet
facet normal -1.0 2.6213773002414165e-14 -6.069178992530337e-16
outer loop
vertex 25.09306178552581 273.0819599065783 -3.9594632550409683
vertex 25.093061785525762 272.14032494721795 10.562641513839246
vertex 25.093061785525784 272.2398491840488 11.07581292536909
endloop
endfacet
facet normal -1.0 2.6213773002414165e-14 -6.069178992530337e-16
outer loop
vertex 25.09306178552581 273.0819599065783 -3.9594632550409683
vertex 25.093061785525784 272.2398491840488 11.07581292536909
vertex 25.093061785525773 272.4038297297825 11.571270474419386
endloop
endfacet
facet normal -1.0 2.6213773002414165e-14 -6.069178992530337e-16
outer loop
vertex 25.09306178552581 273.0819599065783 -3.9594632550409683
vertex 25.093061785525773 272.4038297297825 11.571270474419386
vertex 25.09306178552581 272.62946083181777 12.040536744959075
endloop
endfacet
facet normal -1.0 2.6213773002414165e-14 -6.069178992530337e-16
outer loop
vertex 25.09306178552581 273.0819599065783 -3.9594632550409683
vertex 25.09306178552581 272.62946083181777 12.040536744959075
vertex 25.093061785525762 272.912881879442 12.475582460993872
endloop
endfacet
facet normal -1.0 2.6213773002414165e-14 -6.069178992530337e-16
outer loop
vertex 25.09306178552581 273.0819599065783 -3.9594632550409683
vertex 25.093061785525762 272.912881879442 12.475582460993872
vertex 25.093061785525794 273.0819599065782 12.673322501328842
endloop
endfacet
facet normal 1.0 -5.4721034635024695e-14 -5.011134240598586e-16
outer loop
vertex 120.8883937855256 278.93195990659353 -3.960832259412263
vertex 120.8883937855257 279.10103793372997 12.475582460993905
vertex 120.8883937855256 278.93195990659353 12.673322501328794
endloop
endfacet
facet normal 1.0 -5.4721034635024695e-14 -5.011134240598586e-16
outer loop
vertex 120.8883937855257 279.10103793372997 12.475582460993905
vertex 120.8883937855256 278.93195990659353 -3.960832259412263
vertex 120.8883937855257 279.90695990659606 -3.9608322594122445
endloop
endfacet
facet normal 1.0 -5.4721034635024695e-14 -5.011134240598586e-16
outer loop
vertex 120.8883937855257 279.10103793372997 12.475582460993905
vertex 120.8883937855257 279.90695990659606 -3.9608322594122445
vertex 120.88839378552564 279.38445898135404 12.040536744958999
endloop
endfacet
facet normal 1.0 -5.4721034635024695e-14 -5.011134240598586e-16
outer loop
vertex 120.88839378552564 279.38445898135404 12.040536744958999
vertex 120.8883937855257 279.90695990659606 -3.9608322594122445
vertex 120.8883937855257 279.61009008338937 11.571270474419382
endloop
endfacet
facet normal 1.0 -5.4721034635024695e-14 -5.011134240598586e-16
outer loop
vertex 120.8883937855257 279.61009008338937 11.571270474419382
vertex 120.8883937855257 279.90695990659606 -3.9608322594122445
vertex 120.88839378552555 279.77407062912306 11.075812925369098
endloop
endfacet
facet normal 1.0 -5.4721034635024695e-14 -5.011134240598586e-16
outer loop
vertex 120.88839378552555 279.77407062912306 11.075812925369098
vertex 120.8883937855257 279.90695990659606 -3.9608322594122445
vertex 120.8883937855257 279.87359486595375 10.562641513839221
endloop
endfacet
facet normal 1.0 -5.4721034635024695e-14 -5.011134240598586e-16
outer loop
vertex 120.8883937855257 279.87359486595375 10.562641513839221
vertex 120.8883937855257 279.90695990659606 -3.9608322594122445
vertex 120.8883937855257 279.906959906596 10.040536744959011
endloop
endfacet
facet normal 0.00020818309724735963 -0.0030196118782825987 -0.9999954192914597
outer loop
vertex 120.8883937855257 279.90695990659606 -3.9608322594122445
vertex 25.093061785525762 278.9319599065935 -3.9800707124860004
vertex 25.093061785525762 279.90695990659606 -3.980070712486028
endloop
endfacet
facet normal 0.00020818309724735963 -0.0030196118782825987 -0.9999954192914597
outer loop
vertex 25.093061785525762 278.9319599065935 -3.9800707124860004
vertex 120.8883937855257 279.90695990659606 -3.9608322594122445
vertex 25.09306178552581 273.0819599065783 -3.9594632550409683
endloop
endfacet
facet normal 0.00020818309724735963 -0.0030196118782825987 -0.9999954192914597
outer loop
vertex 25.09306178552581 273.0819599065783 -3.9594632550409683
vertex 120.8883937855257 279.90695990659606 -3.9608322594122445
vertex 120.8883937855256 278.93195990659353 -3.960832259412263
endloop
endfacet
facet normal 0.00020818309724735963 -0.0030196118782825987 -0.9999954192914597
outer loop
vertex 25.09306178552581 273.0819599065783 -3.9594632550409683
vertex 120.8883937855257 272.1069599065758 -3.938193255041004
vertex 25.093061785525773 272.10695990657564 -3.9594632550410056
endloop
endfacet
facet normal 0.00020818309724735963 -0.0030196118782825987 -0.9999954192914597
outer loop
vertex 120.8883937855257 272.1069599065758 -3.938193255041004
vertex 25.09306178552581 273.0819599065783 -3.9594632550409683
vertex 120.8883937855256 278.93195990659353 -3.960832259412263
endloop
endfacet
facet normal 0.00020818309724735963 -0.0030196118782825987 -0.9999954192914597
outer loop
vertex 120.8883937855257 272.1069599065758 -3.938193255041004
vertex 120.8883937855256 278.93195990659353 -3.960832259412263
vertex 120.88839378552574 273.08195990657833 -3.9381932550410736
endloop
endfacet
facet normal 0.00020818309724735963 -0.0030196118782825987 -0.9999954192914597
outer loop
vertex 23.893061785525763 279.90695990659606 -3.980070712486028
vertex 16.994167133275763 272.10695990657564 -3.9594632550410056
vertex 16.994167133275763 279.9069599065956 -3.981677041907557
endloop
endfacet
facet normal 0.00020818309724735963 -0.0030196118782825987 -0.9999954192914597
outer loop
vertex 16.994167133275763 272.10695990657564 -3.9594632550410056
vertex 23.893061785525763 279.90695990659606 -3.980070712486028
vertex 23.893061785525763 272.10695990657564 -3.9594632550410056
endloop
endfacet
facet normal 0.00020818309724735963 -0.0030196118782825987 -0.9999954192914597
outer loop
vertex 23.893061785525763 272.10695990657564 -3.9594632550410056
vertex 23.893061785525763 279.90695990659606 -3.980070712486028
vertex 23.893061785525788 278.93195990659353 -3.9800707124860204
endloop
endfacet
facet normal 0.00020818309724735963 -0.0030196118782825987 -0.9999954192914597
outer loop
vertex 23.893061785525763 272.10695990657564 -3.9594632550410056
vertex 23.893061785525788 278.93195990659353 -3.9800707124860204
vertex 23.8930617855258 273.08195990657833 -3.959463255040943
endloop
endfacet
facet normal 0.00020818309724735963 -0.0030196118782825987 -0.9999954192914597
outer loop
vertex 23.8930617855258 273.08195990657833 -3.959463255040943
vertex 23.893061785525788 278.93195990659353 -3.9800707124860204
vertex 25.093061785525762 278.9319599065935 -3.9800707124860004
endloop
endfacet
facet normal 0.00020818309724735963 -0.0030196118782825987 -0.9999954192914597
outer loop
vertex 23.8930617855258 273.08195990657833 -3.959463255040943
vertex 25.093061785525762 278.9319599065935 -3.9800707124860004
vertex 25.09306178552581 273.0819599065783 -3.9594632550409683
endloop
endfacet
facet normal -0.0013304424957825928 -0.0023219408519555913 -0.9999964192503119
outer loop
vertex 128.99306178552564 279.90695990659606 -3.959463255040958
vertex 122.09072778552574 278.9319599065935 -3.960832259412262
vertex 122.09072778552566 279.90695990659606 -3.9608322594122702
endloop
endfacet
facet normal -0.0013304424957825928 -0.0023219408519555913 -0.9999964192503119
outer loop
vertex 122.09072778552574 278.9319599065935 -3.960832259412262
vertex 128.99306178552564 279.90695990659606 -3.959463255040958
vertex 122.09072778552574 272.1069599065758 -3.93819325504101
endloop
endfacet
facet normal -0.0013304424957825928 -0.0023219408519555913 -0.9999964192503119
outer loop
vertex 122.09072778552574 272.1069599065758 -3.93819325504101
vertex 128.99306178552564 279.90695990659606 -3.959463255040958
vertex 128.9930617855257 272.1069599065757 -3.959463255040967
endloop
endfacet
facet normal -0.0013304424957825928 -0.0023219408519555913 -0.9999964192503119
outer loop
vertex 122.09072778552574 278.9319599065935 -3.960832259412262
vertex 120.88839378552574 273.08195990657833 -3.9381932550410736
vertex 120.8883937855256 278.93195990659353 -3.960832259412263
endloop
endfacet
facet normal -0.0013304424957825928 -0.0023219408519555913 -0.9999964192503119
outer loop
vertex 120.88839378552574 273.08195990657833 -3.9381932550410736
vertex 122.09072778552574 278.9319599065935 -3.960832259412262
vertex 122.09072778552566 273.08195990657833 -3.9381932550410776
endloop
endfacet
facet normal -0.0013304424957825928 -0.0023219408519555913 -0.9999964192503119
outer loop
vertex 122.09072778552566 273.08195990657833 -3.9381932550410776
vertex 122.09072778552574 278.9319599065935 -3.960832259412262
vertex 122.09072778552574 272.1069599065758 -3.93819325504101
endloop
endfacet
facet normal -1.0 1.0973475148648756e-14 4.0048258399422086e-16
outer loop
vertex 25.09306178552575 278.93195990659353 12.673322501328753
vertex 25.093061785525762 279.90695990659606 -3.980070712486028
vertex 25.093061785525762 278.9319599065935 -3.9800707124860004
endloop
endfacet
facet normal -1.0 1.0973475148648756e-14 4.0048258399422086e-16
outer loop
vertex 25.093061785525762 279.90695990659606 -3.980070712486028
vertex 25.09306178552575 278.93195990659353 12.673322501328753
vertex 25.093061785525762 279.1010379337298 12.475582460993824
endloop
endfacet
facet normal -1.0 1.0973475148648756e-14 4.0048258399422086e-16
outer loop
vertex 25.093061785525762 279.90695990659606 -3.980070712486028
vertex 25.093061785525762 279.1010379337298 12.475582460993824
vertex 25.093061785525784 279.3844589813539 12.040536744959086
endloop
endfacet
facet normal -1.0 1.0973475148648756e-14 4.0048258399422086e-16
outer loop
vertex 25.093061785525762 279.90695990659606 -3.980070712486028
vertex 25.093061785525784 279.3844589813539 12.040536744959086
vertex 25.093061785525762 279.6100900833893 11.571270474419425
endloop
endfacet
facet normal -1.0 1.0973475148648756e-14 4.0048258399422086e-16
outer loop
vertex 25.093061785525762 279.90695990659606 -3.980070712486028
vertex 25.093061785525762 279.6100900833893 11.571270474419425
vertex 25.09306178552581 279.774070629123 11.075812925369164
endloop
endfacet
facet normal -1.0 1.0973475148648756e-14 4.0048258399422086e-16
outer loop
vertex 25.093061785525762 279.90695990659606 -3.980070712486028
vertex 25.09306178552581 279.774070629123 11.075812925369164
vertex 25.093061785525762 279.87359486595363 10.562641513839246
endloop
endfacet
facet normal -1.0 1.0973475148648756e-14 4.0048258399422086e-16
outer loop
vertex 25.093061785525762 279.90695990659606 -3.980070712486028
vertex 25.093061785525762 279.87359486595363 10.562641513839246
vertex 25.093061785525762 279.90695990659594 10.040536744958994
endloop
endfacet
facet normal -0.9999999986860033 -9.978617813354227e-06 -5.028340225690613e-05
outer loop
vertex 16.993061785525754 272.14032494721795 10.562641513839178
vertex 16.994167133275763 272.10695990657564 -3.9594632550410056
vertex 16.99306178552572 272.10695990657564 10.040536744959036
endloop
endfacet
facet normal -0.9999999986860033 -9.978617813354227e-06 -5.028340225690613e-05
outer loop
vertex 16.994167133275763 272.10695990657564 -3.9594632550410056
vertex 16.993061785525754 272.14032494721795 10.562641513839178
vertex 16.994167133275763 279.9069599065956 -3.981677041907557
endloop
endfacet
facet normal -0.9999999986860033 -9.978617813354227e-06 -5.028340225690613e-05
outer loop
vertex 16.994167133275763 279.9069599065956 -3.981677041907557
vertex 16.993061785525754 272.14032494721795 10.562641513839178
vertex 16.99306178552579 272.2398491840487 11.075812925369085
endloop
endfacet
facet normal -0.9999999986860033 -9.978617813354227e-06 -5.028340225690613e-05
outer loop
vertex 16.994167133275763 279.9069599065956 -3.981677041907557
vertex 16.99306178552579 272.2398491840487 11.075812925369085
vertex 16.9930617855258 272.40382972978256 11.571270474419402
endloop
endfacet
facet normal -0.9999999986860033 -9.978617813354227e-06 -5.028340225690613e-05
outer loop
vertex 16.994167133275763 279.9069599065956 -3.981677041907557
vertex 16.9930617855258 272.40382972978256 11.571270474419402
vertex 16.993061785525754 272.62946083181777 12.040536744959052
endloop
endfacet
facet normal -0.9999999986860033 -9.978617813354227e-06 -5.028340225690613e-05
outer loop
vertex 16.994167133275763 279.9069599065956 -3.981677041907557
vertex 16.993061785525754 272.62946083181777 12.040536744959052
vertex 16.993061785525754 272.91288187944207 12.475582460993879
endloop
endfacet
facet normal -0.9999999986860033 -9.978617813354227e-06 -5.028340225690613e-05
outer loop
vertex 16.994167133275763 279.9069599065956 -3.981677041907557
vertex 16.993061785525754 272.91288187944207 12.475582460993879
vertex 16.99306178552578 273.2492434599511 12.868963869705153
endloop
endfacet
facet normal -0.9999999986860033 -9.978617813354227e-06 -5.028340225690613e-05
outer loop
vertex 16.994167133275763 279.9069599065956 -3.981677041907557
vertex 16.99306178552578 273.2492434599511 12.868963869705153
vertex 16.99306178552578 273.63279033344566 13.21395010612399
endloop
endfacet
facet normal -0.9999999986860033 -9.978617813354227e-06 -5.028340225690613e-05
outer loop
vertex 16.994167133275763 279.9069599065956 -3.981677041907557
vertex 16.99306178552578 273.63279033344566 13.21395010612399
vertex 16.993061785525754 274.05695990658074 13.504638360096797
endloop
endfacet
facet normal -0.9999999986860033 -9.978617813354227e-06 -5.028340225690613e-05
outer loop
vertex 16.994167133275763 279.9069599065956 -3.981677041907557
vertex 16.993061785525754 274.05695990658074 13.504638360096797
vertex 16.99306178552578 274.514494520358 13.736054875004127
endloop
endfacet
facet normal -0.9999999986860033 -9.978617813354227e-06 -5.028340225690613e-05
outer loop
vertex 16.994167133275763 279.9069599065956 -3.981677041907557
vertex 16.99306178552578 274.514494520358 13.736054875004127
vertex 16.993061785525754 274.9975656306834 13.904240050115318
endloop
endfacet
facet normal -0.9999999986860033 -9.978617813354227e-06 -5.028340225690613e-05
outer loop
vertex 16.994167133275763 279.9069599065956 -3.981677041907557
vertex 16.993061785525754 274.9975656306834 13.904240050115318
vertex 16.993061785525764 275.49790775692634 14.006316190454248
endloop
endfacet
facet normal -0.9999999986860033 -9.978617813354227e-06 -5.028340225690613e-05
outer loop
vertex 16.994167133275763 279.9069599065956 -3.981677041907557
vertex 16.993061785525764 275.49790775692634 14.006316190454248
vertex 16.993061785525754 276.51601205624536 14.006316190454225
endloop
endfacet
facet normal -0.9999999986860033 -9.978617813354227e-06 -5.028340225690613e-05
outer loop
vertex 16.994167133275763 279.9069599065956 -3.981677041907557
vertex 16.993061785525754 276.51601205624536 14.006316190454225
vertex 16.993061785525743 277.0163541824883 13.904240050115282
endloop
endfacet
facet normal -0.9999999986860033 -9.978617813354227e-06 -5.028340225690613e-05
outer loop
vertex 16.994167133275763 279.9069599065956 -3.981677041907557
vertex 16.993061785525743 277.0163541824883 13.904240050115282
vertex 16.99306178552578 277.4994252928136 13.736054875004184
endloop
endfacet
facet normal -0.9999999986860033 -9.978617813354227e-06 -5.028340225690613e-05
outer loop
vertex 16.994167133275763 279.9069599065956 -3.981677041907557
vertex 16.99306178552578 277.4994252928136 13.736054875004184
vertex 16.993061785525764 277.956959906591 13.50463836009682
endloop
endfacet
facet normal -0.9999999986860033 -9.978617813354227e-06 -5.028340225690613e-05
outer loop
vertex 16.994167133275763 279.9069599065956 -3.981677041907557
vertex 16.993061785525764 277.956959906591 13.50463836009682
vertex 16.99306178552578 278.38112947972604 13.21395010612399
endloop
endfacet
facet normal -0.9999999986860033 -9.978617813354227e-06 -5.028340225690613e-05
outer loop
vertex 16.994167133275763 279.9069599065956 -3.981677041907557
vertex 16.99306178552578 278.38112947972604 13.21395010612399
vertex 16.993061785525754 278.7646763532206 12.868963869705215
endloop
endfacet
facet normal -0.9999999986860033 -9.978617813354227e-06 -5.028340225690613e-05
outer loop
vertex 16.994167133275763 279.9069599065956 -3.981677041907557
vertex 16.993061785525754 278.7646763532206 12.868963869705215
vertex 16.99306178552581 279.1010379337298 12.475582460993927
endloop
endfacet
facet normal -0.9999999986860033 -9.978617813354227e-06 -5.028340225690613e-05
outer loop
vertex 16.994167133275763 279.9069599065956 -3.981677041907557
vertex 16.99306178552581 279.1010379337298 12.475582460993927
vertex 16.993061785525754 279.38445898135393 12.04053674495899
endloop
endfacet
facet normal -0.9999999986860033 -9.978617813354227e-06 -5.028340225690613e-05
outer loop
vertex 16.994167133275763 279.9069599065956 -3.981677041907557
vertex 16.993061785525754 279.38445898135393 12.04053674495899
vertex 16.99306178552578 279.6100900833893 11.571270474419386
endloop
endfacet
facet normal -0.9999999986860033 -9.978617813354227e-06 -5.028340225690613e-05
outer loop
vertex 16.994167133275763 279.9069599065956 -3.981677041907557
vertex 16.99306178552578 279.6100900833893 11.571270474419386
vertex 16.993061785525764 279.774070629123 11.075812925369112
endloop
endfacet
facet normal -0.9999999986860033 -9.978617813354227e-06 -5.028340225690613e-05
outer loop
vertex 16.994167133275763 279.9069599065956 -3.981677041907557
vertex 16.993061785525764 279.774070629123 11.075812925369112
vertex 16.99306178552578 279.8735948659537 10.562641513839218
endloop
endfacet
facet normal -0.9999999986860033 -9.978617813354227e-06 -5.028340225690613e-05
outer loop
vertex 16.994167133275763 279.9069599065956 -3.981677041907557
vertex 16.99306178552578 279.8735948659537 10.562641513839218
vertex 16.99306178552579 279.906959906596 10.040536744959004
endloop
endfacet
facet normal 1.0 -1.5373248666169518e-14 -1.270109820423658e-16
outer loop
vertex 23.8930617855258 273.08195990657833 -3.959463255040943
vertex 23.893061785525763 272.1069599065757 10.040536744959027
vertex 23.893061785525763 272.10695990657564 -3.9594632550410056
endloop
endfacet
facet normal 1.0 -1.5373248666169518e-14 -1.270109820423658e-16
outer loop
vertex 23.893061785525763 272.1069599065757 10.040536744959027
vertex 23.8930617855258 273.08195990657833 -3.959463255040943
vertex 23.893061785525777 272.14032494721795 10.562641513839246
endloop
endfacet
facet normal 1.0 -1.5373248666169518e-14 -1.270109820423658e-16
outer loop
vertex 23.893061785525777 272.14032494721795 10.562641513839246
vertex 23.8930617855258 273.08195990657833 -3.959463255040943
vertex 23.8930617855258 272.23984918404875 11.075812925369078
endloop
endfacet
facet normal 1.0 -1.5373248666169518e-14 -1.270109820423658e-16
outer loop
vertex 23.8930617855258 272.23984918404875 11.075812925369078
vertex 23.8930617855258 273.08195990657833 -3.959463255040943
vertex 23.893061785525777 272.4038297297825 11.571270474419386
endloop
endfacet
facet normal 1.0 -1.5373248666169518e-14 -1.270109820423658e-16
outer loop
vertex 23.893061785525777 272.4038297297825 11.571270474419386
vertex 23.8930617855258 273.08195990657833 -3.959463255040943
vertex 23.89306178552581 272.6294608318179 12.040536744959054
endloop
endfacet
facet normal 1.0 -1.5373248666169518e-14 -1.270109820423658e-16
outer loop
vertex 23.89306178552581 272.6294608318179 12.040536744959054
vertex 23.8930617855258 273.08195990657833 -3.959463255040943
vertex 23.893061785525763 272.91288187944207 12.475582460993879
endloop
endfacet
facet normal 1.0 -1.5373248666169518e-14 -1.270109820423658e-16
outer loop
vertex 23.893061785525763 272.91288187944207 12.475582460993879
vertex 23.8930617855258 273.08195990657833 -3.959463255040943
vertex 23.893061785525788 273.0819599065783 12.673322501328808
endloop
endfacet
facet normal -1.0 -7.515232253121377e-14 4.0781247987868676e-17
outer loop
vertex 122.0907277855257 272.14032494721806 10.562641513839164
vertex 122.09072778552574 272.1069599065758 -3.93819325504101
vertex 122.09072778552574 272.10695990657575 10.040536744959017
endloop
endfacet
facet normal -1.0 -7.515232253121377e-14 4.0781247987868676e-17
outer loop
vertex 122.09072778552574 272.1069599065758 -3.93819325504101
vertex 122.0907277855257 272.14032494721806 10.562641513839164
vertex 122.09072778552566 273.08195990657833 -3.9381932550410776
endloop
endfacet
facet normal -1.0 -7.515232253121377e-14 4.0781247987868676e-17
outer loop
vertex 122.09072778552566 273.08195990657833 -3.9381932550410776
vertex 122.0907277855257 272.14032494721806 10.562641513839164
vertex 122.09072778552574 272.2398491840488 11.075812925369087
endloop
endfacet
facet normal -1.0 -7.515232253121377e-14 4.0781247987868676e-17
outer loop
vertex 122.09072778552566 273.08195990657833 -3.9381932550410776
vertex 122.09072778552574 272.2398491840488 11.075812925369087
vertex 122.09072778552566 272.4038297297826 11.571270474419387
endloop
endfacet
facet normal -1.0 -7.515232253121377e-14 4.0781247987868676e-17
outer loop
vertex 122.09072778552566 273.08195990657833 -3.9381932550410776
vertex 122.09072778552566 272.4038297297826 11.571270474419387
vertex 122.0907277855258 272.6294608318179 12.04053674495902
endloop
endfacet
facet normal -1.0 -7.515232253121377e-14 4.0781247987868676e-17
outer loop
vertex 122.09072778552566 273.08195990657833 -3.9381932550410776
vertex 122.0907277855258 272.6294608318179 12.04053674495902
vertex 122.09072778552566 272.9128818794421 12.475582460993888
endloop
endfacet
facet normal -1.0 -7.515232253121377e-14 4.0781247987868676e-17
outer loop
vertex 122.09072778552566 273.08195990657833 -3.9381932550410776
vertex 122.09072778552566 272.9128818794421 12.475582460993888
vertex 122.09072778552566 273.08195990657833 12.673322501328773
endloop
endfacet
facet normal 1.0 -1.7450109508375084e-14 5.063092100347824e-16
outer loop
vertex 120.8883937855257 272.1069599065758 -3.938193255041004
vertex 120.88839378552564 272.14032494721806 10.562641513839177
vertex 120.8883937855257 272.10695990657575 10.040536744958994
endloop
endfacet
facet normal 1.0 -1.7450109508375084e-14 5.063092100347824e-16
outer loop
vertex 120.88839378552564 272.14032494721806 10.562641513839177
vertex 120.8883937855257 272.1069599065758 -3.938193255041004
vertex 120.88839378552574 273.08195990657833 -3.9381932550410736
endloop
endfacet
facet normal 1.0 -1.7450109508375084e-14 5.063092100347824e-16
outer loop
vertex 120.88839378552564 272.14032494721806 10.562641513839177
vertex 120.88839378552574 273.08195990657833 -3.9381932550410736
vertex 120.88839378552574 272.2398491840488 11.075812925369087
endloop
endfacet
facet normal 1.0 -1.7450109508375084e-14 5.063092100347824e-16
outer loop
vertex 120.88839378552574 272.2398491840488 11.075812925369087
vertex 120.88839378552574 273.08195990657833 -3.9381932550410736
vertex 120.88839378552574 272.4038297297826 11.571270474419391
endloop
endfacet
facet normal 1.0 -1.7450109508375084e-14 5.063092100347824e-16
outer loop
vertex 120.88839378552574 272.4038297297826 11.571270474419391
vertex 120.88839378552574 273.08195990657833 -3.9381932550410736
vertex 120.88839378552578 272.6294608318179 12.040536744959033
endloop
endfacet
facet normal 1.0 -1.7450109508375084e-14 5.063092100347824e-16
outer loop
vertex 120.88839378552578 272.6294608318179 12.040536744959033
vertex 120.88839378552574 273.08195990657833 -3.9381932550410736
vertex 120.8883937855256 272.9128818794421 12.475582460993913
endloop
endfacet
facet normal 1.0 -1.7450109508375084e-14 5.063092100347824e-16
outer loop
vertex 120.8883937855256 272.9128818794421 12.475582460993913
vertex 120.88839378552574 273.08195990657833 -3.9381932550410736
vertex 120.88839378552574 273.08195990657833 12.67332250132875
endloop
endfacet
facet normal -6.888353984909486e-16 1.0 -1.1501216645756192e-16
outer loop
vertex 25.093061785525762 279.90695990659594 10.040536744958994
vertex 120.8883937855257 279.90695990659606 -3.9608322594122445
vertex 25.093061785525762 279.90695990659606 -3.980070712486028
endloop
endfacet
facet normal -6.888353984909486e-16 1.0 -1.1501216645756192e-16
outer loop
vertex 120.8883937855257 279.90695990659606 -3.9608322594122445
vertex 25.093061785525762 279.90695990659594 10.040536744958994
vertex 120.8883937855257 279.906959906596 10.040536744959011
endloop
endfacet
facet normal -1.4529175018615425e-14 1.0 -7.800579931360932e-15
outer loop
vertex 16.99306178552579 279.906959906596 10.040536744959004
vertex 23.893061785525763 279.90695990659606 -3.980070712486028
vertex 16.994167133275763 279.9069599065956 -3.981677041907557
endloop
endfacet
facet normal -1.4529175018615425e-14 1.0 -7.800579931360932e-15
outer loop
vertex 23.893061785525763 279.90695990659606 -3.980070712486028
vertex 16.99306178552579 279.906959906596 10.040536744959004
vertex 23.893061785525763 279.90695990659594 10.040536744958994
endloop
endfacet
endsolid spool_stand_3.1
